<svg width="526" height="440" viewBox="0 0 526 440" fill="none" xmlns="http://www.w3.org/2000/svg">
<path d="M273.463 227.518C273.618 224.973 276 223.162 278.494 223.692L373.235 243.83C375.256 244.26 376.658 246.104 376.532 248.166L373.128 303.829C372.972 306.374 370.59 308.185 368.096 307.655L273.355 287.517C271.334 287.088 269.932 285.244 270.058 283.182L273.463 227.518Z" fill="white" stroke="black" stroke-width="0.962793"/>
<path d="M324.555 250.486L365.39 259.166" stroke="black" stroke-width="0.962793"/>
<path d="M325.282 258.387L366.117 267.066" stroke="black" stroke-width="0.962793"/>
<path d="M281.259 271.909L363.779 289.449" stroke="black" stroke-width="0.962793"/>
<path d="M281.331 279.67L364.559 297.361" stroke="black" stroke-width="0.962793" stroke-dasharray="1.93 1.93"/>
<path d="M325.386 266.118L344.914 270.269" stroke="black" stroke-width="0.962793"/>
<path d="M283.461 235.403C283.498 234.816 284.047 234.399 284.622 234.521L312.229 240.389C312.696 240.488 313.019 240.914 312.99 241.391L311.389 267.06C311.353 267.647 310.803 268.064 310.228 267.942L282.622 262.074C282.155 261.975 281.831 261.549 281.861 261.073L283.461 235.403Z" fill="white" stroke="black" stroke-width="0.962793"/>
<mask id="mask0_120_2422" style="mask-type:alpha" maskUnits="userSpaceOnUse" x="281" y="234" width="33" height="35">
<path d="M283.461 235.403C283.498 234.816 284.047 234.399 284.622 234.521L312.229 240.389C312.696 240.488 313.019 240.914 312.99 241.391L311.389 267.06C311.353 267.647 310.803 268.064 310.228 267.942L282.622 262.074C282.155 261.975 281.831 261.549 281.861 261.073L283.461 235.403Z" fill="white" stroke="black" stroke-width="0.962793"/>
</mask>
<g mask="url(#mask0_120_2422)">
<path fill-rule="evenodd" clip-rule="evenodd" d="M284.575 257.834C284.812 257.789 284.99 257.591 285.005 257.351V257.351C285.284 254.453 286.371 247.597 290.459 244.377C292.413 242.839 294.78 242.331 297.496 242.863C308.069 244.935 309.694 245.254 308.831 249.654C308.731 250.166 308.685 250.82 308.638 251.515L308.638 251.517C308.489 253.639 308.303 256.28 306.312 257.348C305.292 257.895 303.977 257.944 302.295 257.48C301.998 257.398 301.751 257.768 301.955 257.998V257.998C302.048 258.104 302.054 258.26 301.969 258.372L301.658 258.787C301.394 259.137 300.922 259.254 300.517 259.083C299.123 258.492 297.726 258.059 296.83 257.92C296.639 257.891 296.453 257.905 296.282 257.957C295.74 258.122 295.985 258.799 296.511 259.009C305.999 262.807 311.665 272.987 309.468 283.324C307.011 294.886 295.645 302.267 284.083 299.81C272.52 297.352 265.139 285.986 267.597 274.424C269.447 265.72 276.345 259.385 284.575 257.834Z" fill="black"/>
</g>
<path d="M283.461 235.403C283.498 234.816 284.047 234.399 284.622 234.521L312.229 240.389C312.696 240.488 313.019 240.914 312.99 241.391L311.389 267.06C311.353 267.647 310.803 268.064 310.228 267.942L282.622 262.074C282.155 261.975 281.831 261.549 281.861 261.073L283.461 235.403Z" stroke="black" stroke-width="0.962793"/>
<path d="M233.694 384.178C233.694 384.178 242.861 409.442 273.277 401.642C297.911 395.326 323.822 374.929 333.696 337.793" fill="white"/>
<path d="M262.246 404.506C239.909 404.506 232.486 384.886 232.399 384.644L234.972 383.712C235.334 384.696 244.138 407.699 272.949 400.313C301.76 392.927 323.856 369.493 332.401 337.517L335.059 338.224C326.238 371.167 303.279 395.378 273.622 402.97C269.91 403.959 266.088 404.475 262.246 404.506V404.506Z" fill="black"/>
<path d="M269.704 314.756C261.504 295.774 228.274 256.671 228.274 256.671C228.212 252.896 227.309 249.182 225.631 245.8C223.952 242.418 221.541 239.453 218.572 237.119C208.215 228.491 172.585 211.338 172.585 211.338" fill="white"/>
<path d="M268.444 315.308C260.417 296.791 227.531 257.964 227.203 257.568L226.858 257.153V256.601C226.775 253.039 225.907 249.54 224.316 246.352C222.726 243.163 220.452 240.364 217.657 238.154C207.541 229.664 172.326 212.752 171.963 212.58L173.154 210.112C174.605 210.803 209.043 227.369 219.418 235.997C222.467 238.419 224.957 241.47 226.718 244.943C228.479 248.416 229.469 252.228 229.62 256.118C233.332 260.518 263.092 296.049 270.947 314.151L268.444 315.308Z" fill="black"/>
<path d="M79.6265 80.4131C79.6265 80.4131 66.5414 85.0205 51.9201 112.924C38.8524 137.894 35.5898 191.286 65.2295 223.003C85.7201 244.919 106.867 143.278 106.867 143.278L79.6265 80.4131Z" fill="black"/>
<path d="M71.1851 227.524C69.8568 227.463 68.5559 227.124 67.3666 226.53C66.1772 225.935 65.1258 225.098 64.2801 224.072C34.5713 192.286 37.4196 137.79 50.7463 112.423C65.4539 84.2953 78.6252 79.3253 79.2639 79.1182L80.4723 78.7041L108.368 143.14V143.554C107.713 146.764 91.8483 222.036 73.5155 227.179C72.7586 227.402 71.9742 227.518 71.1851 227.524V227.524ZM78.9359 82.3106C75.4834 84.1743 64.7807 91.3703 53.1458 113.614C40.1816 138.36 37.3851 191.268 66.248 222.123C68.3541 224.383 70.4256 225.194 72.6179 224.59C86.4279 220.725 100.877 165.142 105.417 143.485L78.9359 82.3106Z" fill="black"/>
<path d="M204.814 173.08C185.579 171.865 166.448 169.346 147.555 165.539L92.9707 173.287C92.9707 173.287 108.369 195.134 117.846 206.178C127.323 217.222 178.092 227.421 178.092 227.421C178.092 227.421 181.545 221.847 189.192 210.924C197.026 199.56 202.351 186.66 204.814 173.08Z" fill="black"/>
<path d="M187.534 107.16C188.082 103.475 188.359 99.7548 188.363 96.0294C188.363 61.7926 163.505 26.7274 111.199 38.9622C83.7346 45.3988 73.2218 68.4708 73.2218 102.708C73.2194 104.635 73.3405 106.56 73.5843 108.471C73.2758 108.516 72.9702 108.58 72.6693 108.661C66.731 110.387 64.0381 119.239 66.662 128.558C69.2859 137.876 76.2254 144.089 82.1983 142.363L82.6471 142.19C87.377 172.389 114.98 194.15 140.045 194.15C168.252 194.15 192.35 163.623 192.35 129.386C192.375 121.716 190.732 114.132 187.534 107.16Z" fill="white"/>
<path d="M139.942 195.565C115.981 195.565 87.1012 174.857 81.4564 143.934C75.0002 144.952 68.0089 138.618 65.2814 128.92C62.4331 118.825 65.4022 109.438 72.0138 107.402C71.8584 105.814 71.772 104.261 71.772 102.708C71.772 65.0887 84.5636 43.7941 110.889 37.6336C133.727 32.284 153.389 35.4937 167.769 46.883C181.579 57.7891 189.744 76.2192 189.744 96.0296C189.735 99.6848 189.47 103.335 188.95 106.953C192.09 114.012 193.685 121.661 193.628 129.386C193.628 164.658 168.546 195.565 139.942 195.565ZM83.6487 140.344L83.9076 142.07C88.6548 172.458 116.706 192.873 139.942 192.873C167.078 192.873 190.883 163.244 190.883 129.473C190.942 121.995 189.375 114.594 186.291 107.781L186.119 107.419V107.005C186.667 103.389 186.944 99.7378 186.947 96.0812C186.947 77.0991 179.128 59.4803 166.008 49.0919C152.302 38.2203 133.434 35.2868 111.459 40.3602C86.5661 46.1929 74.465 66.6071 74.465 102.759C74.4708 104.634 74.5861 106.507 74.8103 108.368L74.983 109.697L73.6537 109.886C73.4091 109.916 73.1669 109.962 72.9287 110.025C67.75 111.474 65.4886 119.809 67.8708 128.23C70.253 136.651 76.5021 142.57 81.6808 141.121L83.6487 140.344Z" fill="black"/>
<path d="M250.922 420.037C252.648 352.737 235.817 306.697 235.817 306.697C235.817 306.697 211.304 251.631 199.929 241.122C188.553 230.613 161.416 219.672 161.416 219.672L179.973 175.168C179.973 175.168 153.527 173.27 131.742 171.061C109.956 168.852 77.9689 149.283 77.9689 149.283C64.4351 168.852 69.8555 192.839 69.8555 192.839C59.8606 185.694 49.3305 195.789 45.8607 209.56C47.9322 213.909 23.7647 223.365 13.9768 240.811C4.18901 258.258 -1.12781 276.619 2.46279 287.594C3.94634 291.9 6.5147 295.751 9.9202 298.776C9.9202 298.776 8.60823 325.075 17.4466 364.523C26.285 403.971 31.2566 419.951 31.2566 419.951L250.922 420.037Z" fill="white"/>
<path d="M252.269 421.418H30.2215L29.9279 420.451C29.9279 420.279 24.87 403.971 16.1179 364.92C8.10815 329.165 8.40168 303.832 8.52251 299.466C5.17535 296.339 2.64465 292.441 1.15139 288.112C-2.30111 277.464 2.13534 259.103 12.7863 240.225C18.5174 230.044 28.8922 222.623 36.4532 217.205C40.1129 214.599 44.6356 211.355 44.6183 210.302L44.4112 209.854L44.5321 209.405C46.9488 199.81 52.4211 192.39 58.8082 190.043C60.2877 189.489 61.8623 189.232 63.4414 189.288C65.0205 189.344 66.5728 189.712 68.009 190.371C67.0078 183.244 65.7822 164.676 76.8302 148.679L77.5725 147.609L78.6772 148.282C79.0052 148.489 110.665 167.713 131.88 169.87C153.389 172.062 179.818 173.96 180.077 173.977L181.976 174.115L163.212 219.103C168.788 221.45 190.728 231.01 200.861 240.294C212.306 250.769 236.059 303.97 237.112 306.231C237.302 306.783 254.012 353.462 252.338 420.123L252.269 421.418ZM32.2584 418.674H249.593C250.991 353.203 234.696 307.629 234.523 307.163C234.35 306.697 210.028 252.322 199.014 242.227C188.001 232.132 161.175 221.139 160.899 221.018L159.621 220.501L177.988 176.48C171.515 176.014 149.816 174.357 131.604 172.511C111.804 170.509 84.3394 154.754 78.3838 151.216C66.3 169.853 71.1508 192.39 71.2026 192.632L71.9795 196.083L69.0621 193.995C67.7729 192.963 66.2383 192.282 64.6077 192.019C62.9771 191.756 61.3062 191.919 59.7576 192.493C54.3717 194.461 49.5209 201.122 47.294 209.543C48.0018 212.269 44.1695 215.013 38.0586 219.379C30.7048 224.66 20.6235 231.873 15.1685 241.519C4.81103 259.759 0.512697 277.274 3.75805 287.214C5.16536 291.268 7.59055 294.893 10.8012 297.741L11.319 298.189V298.88C11.319 299.138 10.1279 325.472 18.8282 364.264C26.3374 397.966 31.0846 414.671 32.2584 418.674Z" fill="black"/>
<path d="M116.292 283.229C116.292 283.229 124.733 292.236 124.733 308.129Z" fill="white"/>
<path d="M126.097 308.128H123.353C123.533 299.445 120.682 290.97 115.291 284.159L117.294 282.278C117.656 282.744 126.097 291.89 126.097 308.128Z" fill="black"/>
<path d="M22.0728 287.68C22.0728 287.68 29.2885 273.513 48.657 268.888C68.0256 264.263 87.7566 271.96 99.5296 283.228" fill="white"/>
<path d="M23.299 288.319L20.8477 287.059C21.1584 286.473 28.5813 272.271 48.3469 267.56C70.0631 262.383 90.0012 272.219 100.48 282.228L98.5807 284.212C88.603 274.687 69.6143 265.23 48.9856 270.217C30.5147 274.635 23.3681 288.181 23.299 288.319Z" fill="black"/>
<path d="M141.133 329.614C138.171 324.391 134.781 319.421 131 314.756C119.641 300.381 99.5303 283.229 99.5303 283.229" fill="white"/>
<path d="M139.925 330.251C136.995 325.105 133.653 320.205 129.93 315.601C118.778 301.502 98.8571 284.435 98.6499 284.263L100.376 282.175C100.583 282.347 120.711 299.587 132.036 313.909C135.863 318.64 139.293 323.679 142.29 328.974L139.925 330.251Z" fill="black"/>
<path d="M22.0728 314.756C28.1837 330.287 39.1972 354.618 54.3882 373.773C70.0998 393.13 88.2559 410.369 108.403 425.059" fill="white"/>
<path d="M107.609 426.181C87.3966 411.385 69.1681 394.056 53.3702 374.619C38.3519 355.637 27.3901 331.909 20.8477 315.257L23.4026 314.256C29.876 330.719 40.665 354.274 55.5108 372.928C71.1623 392.157 89.2166 409.301 109.232 423.938L107.609 426.181Z" fill="black"/>
<path d="M145.983 157.359C141.157 157.446 136.349 156.729 131.759 155.237L132.725 152.683C137.018 154.036 141.5 154.688 146 154.615H146.363C151.155 154.525 155.749 152.684 159.275 149.438L161.243 151.337C157.216 155.122 151.908 157.248 146.38 157.29L145.983 157.359Z" fill="black"/>
<path d="M145.189 144.693C142.865 144.646 140.614 143.874 138.75 142.484C137.024 141.346 136.126 140.759 134.089 141.95L132.777 139.516C136.23 137.515 138.405 138.912 140.304 140.138C141.144 140.821 142.115 141.326 143.156 141.622C144.198 141.919 145.289 142.001 146.363 141.863C147.439 141.769 148.484 141.456 149.434 140.942C150.384 140.429 151.219 139.726 151.887 138.878C153.026 137.618 154.442 136.065 157.29 137.152L156.289 139.706C155.236 139.292 155.011 139.482 153.907 140.69C153.023 141.779 151.932 142.682 150.696 143.345C149.46 144.009 148.104 144.42 146.708 144.555C146.206 144.637 145.698 144.683 145.189 144.693V144.693Z" fill="black"/>
<path d="M144.654 113.994C144.654 113.994 152.975 128.852 153.441 135.306C153.576 137.087 153.053 138.855 151.972 140.277C150.89 141.698 149.325 142.674 147.572 143.02" fill="white"/>
<path d="M147.83 144.365L147.313 141.673C148.746 141.412 150.029 140.625 150.911 139.466C151.792 138.306 152.208 136.859 152.077 135.409C151.628 129.318 143.549 114.805 143.446 114.702L145.845 113.355C146.191 113.977 154.304 128.559 154.787 135.237C154.949 137.346 154.33 139.442 153.047 141.125C151.765 142.808 149.908 143.961 147.83 144.365Z" fill="black"/>
<path d="M133.416 118.809C129.071 116.887 124.357 115.945 119.606 116.048C110.63 115.876 106.867 117.774 106.867 117.774" fill="white"/>
<path d="M132.778 120.033C128.625 118.23 124.133 117.341 119.606 117.427C111.148 117.307 107.523 119.032 107.523 119.153L106.28 116.703C106.452 116.703 110.457 114.615 119.693 114.77C124.655 114.675 129.577 115.676 134.107 117.703L132.778 120.033Z" fill="black"/>
<path d="M115.688 116.048C115.688 116.048 116.205 110.871 120.866 111.095C125.527 111.319 125.752 116.582 125.752 116.582" fill="black"/>
<path d="M156.065 116.98C159.235 114.777 162.936 113.461 166.785 113.166C173.932 112.321 177.143 113.96 177.143 113.96" fill="white"/>
<path d="M156.945 118.049L155.219 115.927C158.598 113.559 162.55 112.141 166.664 111.819C174.138 110.922 177.625 112.665 177.781 112.751L176.521 115.185C176.521 115.185 173.534 113.77 166.975 114.529C163.383 114.814 159.927 116.027 156.945 118.049V118.049Z" fill="black"/>
<path d="M169.909 112.854C169.909 112.854 169.012 107.833 165.369 108.316C161.727 108.799 161.917 114.149 161.917 114.149" fill="black"/>
<path d="M188.363 95.9953C188.363 61.7412 163.505 26.7278 111.199 39.049C83.7346 45.4684 73.2217 68.5401 73.2217 102.777C73.2193 104.692 73.3405 106.606 73.5843 108.506C73.5843 108.506 74.3438 111.543 79.7124 112.958C85.0811 114.373 78.4523 76.1849 91.3992 67.3496C104.346 58.5143 135.28 63.5703 135.28 63.5703C135.28 63.5703 161.796 52.5263 175.692 63.881C189.588 75.2358 188.363 95.9953 188.363 95.9953Z" fill="black"/>
<path d="M79.9199 114.304C79.71 114.301 79.5014 114.272 79.2985 114.218C73.3257 112.63 72.2727 109.162 72.1864 108.782C71.9116 106.769 71.7731 104.74 71.772 102.708C71.772 65.0889 84.5635 43.7943 110.889 37.6337C133.727 32.3015 153.406 35.4939 167.855 46.8832C179.645 56.2189 187.344 71.0424 189.312 87.5913C189.742 90.3939 189.904 93.2308 189.796 96.0641H187.068C187.068 93.9933 186.965 91.9399 186.792 89.9209C186.05 83.0183 183.46 72.0087 174.829 64.9336C161.727 54.2345 136.058 64.7264 135.816 64.8299L135.453 64.9854H135.056C134.746 64.9854 104.502 60.119 92.1763 68.5574C84.926 73.4927 84.2701 89.0407 83.7867 100.395C83.4242 108.627 83.1826 112.648 81.3527 113.994C80.9229 114.253 80.4188 114.363 79.9199 114.304V114.304ZM74.862 108.265C74.862 108.265 75.6733 110.353 79.7645 111.509C80.5413 110.249 80.783 104.606 80.9729 100.137C81.4735 88.2126 82.1813 71.8706 90.5536 66.1414C103.155 57.5132 131.259 61.4995 135.056 62.0862C138.509 60.7229 162.866 51.6115 176.486 62.7592C177.684 63.7281 178.804 64.7897 179.835 65.9344C176.475 59.3923 171.769 53.6348 166.025 49.0402C152.319 38.1686 133.451 35.2351 111.459 40.3085C86.566 46.1412 74.4649 66.5557 74.4649 102.708C74.4718 104.571 74.5871 106.432 74.8102 108.282L74.862 108.265Z" fill="black"/>
<path d="M101.239 99.9647C105.864 95.8657 111.625 93.2663 117.759 92.51C127.668 91.4574 131.449 95.4435 131.449 95.4435" fill="white"/>
<path d="M101.964 100.69C105.984 97.0605 110.964 94.6643 116.309 93.7872C120.049 93.0467 123.915 93.2664 127.547 94.4256C128.718 94.7653 129.801 95.354 130.723 96.1513C131.655 97.1004 133.105 95.6509 132.191 94.7018C131.087 93.6942 129.78 92.9351 128.358 92.4757C124.618 91.2277 120.627 90.9253 116.741 91.5956C110.685 92.4276 105.025 95.0819 100.514 99.2057C99.5472 100.138 101.015 101.587 101.964 100.672V100.69Z" fill="black"/>
<path d="M179.973 94.649C175.506 91.3899 170.066 89.7414 164.54 89.9726C156.047 90.6801 153.44 95.2702 153.44 95.2702" fill="white"/>
<path d="M180.699 93.9419C176.151 90.434 170.503 88.6598 164.765 88.9375C160.553 89.2481 154.857 90.7667 152.561 94.7702C152.492 94.9918 152.499 95.2302 152.581 95.4472C152.664 95.6641 152.817 95.847 153.017 95.9664C153.216 96.0859 153.449 96.1351 153.68 96.1059C153.91 96.0767 154.124 95.971 154.287 95.8057C156.186 92.4925 161.52 91.1464 165.162 90.9738C168.621 90.8576 172.056 91.5799 175.175 93.0791C176.197 93.5582 177.188 94.1001 178.144 94.7013L179.007 95.2707C179.11 95.2707 179.628 95.7367 179.197 95.3916C180.232 96.2026 181.7 94.7529 180.647 93.9419H180.699Z" fill="black"/>
<path d="M106.246 135.392C104.08 135.528 101.911 135.188 99.8922 134.395C97.8729 133.601 96.0523 132.375 94.5589 130.802C90.4331 126.125 90.5885 119.378 90.7784 116.997L86.6182 113.821V107.091L87.6712 106.85C87.8265 106.85 102.379 103.399 114.687 101.828C123.258 100.798 131.943 101.259 140.356 103.191L142.531 103.606C145.224 104.106 147.21 103.606 150.489 102.57C157.546 100.449 164.856 99.2883 172.223 99.1189C180.359 98.5881 188.518 98.4672 196.667 98.7566L197.944 98.86V103.916L195.009 106.781C194.785 110.439 193.421 126.522 186.257 128.541C170.203 133.08 161.123 133.459 157.705 129.715C154.661 126.109 152.229 122.028 150.507 117.635L153.062 116.652C154.677 120.734 156.925 124.537 159.725 127.92C161.451 129.836 167.407 131.078 185.515 125.953C189.848 124.728 191.971 113.166 192.299 106.177V105.625L195.182 102.812V101.483C192.524 101.397 185.498 101.276 172.326 101.897C165.179 102.109 158.091 103.27 151.249 105.348C148.317 106.506 145.136 106.887 142.013 106.453L139.821 106.039C131.692 104.16 123.298 103.711 115.015 104.71C104.761 106.004 92.9017 108.61 89.3457 109.421V112.631L93.6957 115.944L93.5749 116.738C93.5749 116.738 92.4874 124.469 96.5958 129.111C97.8957 130.454 99.487 131.482 101.247 132.113C103.007 132.744 104.888 132.963 106.746 132.752C123.387 132.389 131.708 130.508 134.004 120.862L136.662 121.501C133.986 132.821 124.578 135.099 106.815 135.496L106.246 135.392Z" fill="black"/>
<path d="M253.028 346.939C256.795 331.639 264.773 317.699 276.057 306.697C279.647 303.246 283.186 300.381 286.552 297.793" fill="white"/>
<path d="M254.375 347.215L251.682 346.663C255.467 331.079 263.574 316.879 275.072 305.696C278.525 302.538 281.977 299.501 285.689 296.705L287.415 298.879C283.842 301.623 280.337 304.591 277.057 307.697C259.191 324.384 254.426 346.99 254.375 347.215Z" fill="black"/>
<path d="M132.864 149.007C133.085 150.585 132.893 152.194 132.306 153.676C131.719 155.158 130.757 156.463 129.515 157.463" fill="white"/>
<path d="M130.413 158.498L128.687 156.444C129.746 155.604 130.57 154.505 131.081 153.254C131.592 152.003 131.772 150.641 131.604 149.3L134.28 148.73C134.547 150.554 134.331 152.417 133.652 154.131C132.973 155.845 131.856 157.351 130.413 158.498V158.498Z" fill="black"/>
<path d="M315.156 298.569C315.156 298.569 327.481 290.13 333.161 280.657C338.84 271.183 334.749 263.4 334.749 263.4C334.749 263.4 341.792 255.031 339.168 245.885C336.544 236.739 326.532 230.095 324.961 243.676C323.39 257.257 322.199 263.4 322.199 263.4L304.747 278.137C304.747 278.137 283.911 267.369 286.759 301.916C289.608 336.464 327.395 346.783 339.755 333.927C352.115 321.071 350.527 308.043 350.527 308.043L361.143 307.835" fill="white"/>
<path d="M325.031 340.761C320.855 340.722 316.717 339.975 312.791 338.552C297.048 332.978 286.898 319.362 285.396 302.089C284.308 289.026 286.466 280.587 291.783 277.05C296.599 273.84 302.382 275.704 304.523 276.601L320.939 262.796C321.233 261.07 322.286 254.927 323.598 243.624C324.461 236.238 327.741 234.875 329.605 234.72C333.8 234.323 338.651 239.258 340.481 245.626C342.863 253.909 338.012 261.433 336.32 263.71C337.397 266.611 337.778 269.724 337.433 272.799C337.088 275.874 336.027 278.825 334.335 281.416C328.569 291.027 316.451 299.397 315.933 299.759L314.38 297.499C314.5 297.499 326.463 289.112 331.987 280.018C337.166 271.39 333.714 264.487 333.524 264.159L333.109 263.348L333.696 262.64C333.696 262.64 340.239 254.703 337.839 246.385C336.303 241.018 332.264 237.204 329.83 237.446C328.103 237.584 326.774 239.966 326.377 243.952C324.806 257.412 323.598 263.71 323.598 263.779L323.494 264.263L304.989 279.897L304.177 279.483C304.177 279.483 297.894 276.342 293.337 279.483C288.779 282.623 287.191 290.182 288.158 301.916C289.487 318.068 299.051 330.821 313.741 336.015C323.701 339.466 333.765 338.362 338.789 333.099C350.51 320.829 349.146 308.474 349.146 308.353L348.974 306.852L361.057 306.593V309.337L351.856 309.526C351.856 313.426 350.959 324.177 340.619 334.997C337.097 338.776 331.452 340.761 325.031 340.761Z" fill="black"/>
<path d="M159.517 184.28L149.056 225.695L116.343 264.54C116.343 264.54 101.394 249.147 84.1316 244.488C66.8691 239.828 32.793 238.879 32.793 238.879L77.1231 200.156L80.869 165.557C80.869 165.557 114.203 195.479 159.517 184.28Z" fill="#CACACA"/>
<path d="M144.861 220.38C92.228 211.251 80.3686 199.258 79.8853 198.758L81.8705 196.859C81.9913 196.98 93.9543 208.766 145.327 217.688L144.861 220.38Z" fill="black"/>
<path d="M163.557 232.2L128.928 267.524C139.695 275.217 148.182 285.674 153.493 297.792C160.398 313.461 153.493 343.384 153.493 343.384L209.699 290.13C209.699 290.13 200.982 251.683 163.557 232.2Z" fill="#CACACA"/>
<path d="M97.752 377.241C97.752 377.241 109.387 349.044 165.939 311.666C173.587 306.521 181.771 302.222 190.348 298.845C190.348 298.845 169.201 317.827 178.092 337.672C186.982 357.517 221.248 349.027 221.248 349.027C221.248 349.027 198.807 410.477 176.762 429.079C164.679 439.243 126.339 444.852 102.965 420.02" fill="white"/>
<path d="M146.432 439.002C131.345 439.002 114.41 434.17 101.981 420.986L103.984 419.105C126.287 442.816 163.747 438.312 175.899 428.061C194.992 411.926 214.757 362.262 219.056 350.908C210.787 352.478 184.703 355.86 176.797 338.241C170.22 323.642 178.989 309.717 184.876 302.641C178.552 305.579 172.459 308.988 166.647 312.84C111.217 349.441 99.0812 377.483 98.9604 377.759L96.4229 376.723C96.9062 375.55 108.869 347.698 165.128 310.545C172.864 305.321 181.154 300.969 189.847 297.568L196.373 295.238L191.194 299.88C190.987 300.07 170.876 318.5 179.248 337.12C187.621 355.739 220.523 347.802 220.868 347.715L223.354 347.094L222.474 349.51C221.559 352.029 199.635 411.512 177.591 430.149C171.653 435.24 159.759 439.002 146.432 439.002Z" fill="black"/>
<path d="M214.343 332.633C214.343 332.633 227.652 345.3 236.232 330.908C250.128 326.49 256.515 301.744 248.937 281.554C257.568 251.908 218.003 262.796 211.616 266.748C205.228 270.7 190.141 290.096 190.141 290.096C180.817 291.685 172.361 296.535 166.284 303.78C150.748 321.658 157.308 346.922 174.363 362.056C191.419 377.189 211.616 369.614 211.616 369.614C211.616 369.614 228.982 357.535 229.828 336.982" fill="white"/>
<path d="M199.376 372.875C189.828 372.965 180.591 369.481 173.482 363.108C156.893 348.388 148.383 322.279 165.283 302.9C171.471 295.562 180.011 290.592 189.45 288.836C191.798 285.833 204.866 269.353 210.925 265.609C215.154 263.003 236.974 255.997 246.9 263.573C251.578 267.127 252.769 273.184 250.352 281.537C254.944 294.116 254.495 309.147 249.213 320.105C246.244 326.213 242.066 330.338 237.129 332.098C235.718 334.561 233.658 336.59 231.174 337.965C229.896 358.5 213.134 370.304 212.409 370.752L212.116 370.908C208.005 372.253 203.702 372.917 199.376 372.875V372.875ZM234.212 262.917C225.339 262.917 215.223 266.178 212.34 267.938C206.229 271.718 191.384 290.786 191.228 290.976L190.866 291.442H190.279C181.315 293.027 173.19 297.705 167.32 304.66C151.576 322.693 159.672 347.145 175.278 361.002C190.883 374.859 209.078 369.009 210.977 368.371C212.547 367.215 226.651 356.412 228.325 338.862L227.531 339C220.264 340.001 213.721 333.823 213.411 333.582L215.292 331.58C215.292 331.58 221.231 337.12 227.186 336.291C230.242 335.86 232.9 333.824 235.058 330.2L235.334 329.751L235.817 329.596C240.237 328.181 244.017 324.419 246.762 318.845C251.802 308.491 252.148 294.013 247.659 282.02L247.487 281.588L247.625 281.139C249.783 273.771 248.971 268.56 245.208 265.695C241.929 263.63 238.079 262.658 234.212 262.917V262.917Z" fill="black"/>
<path d="M211.615 266.783C211.615 266.783 231.502 244.901 236.232 234.168C242.55 219.862 261.072 222.589 248.453 250.475C235.835 278.362 234.488 278.206 234.488 278.206" fill="white"/>
<path d="M234.626 279.587H234.419L234.713 276.86L234.557 278.223L233.729 277.154C233.953 276.929 236.249 274.254 247.263 249.923C251.613 240.345 252.648 232.477 250.042 228.87C249.59 228.237 248.972 227.741 248.256 227.437C247.541 227.133 246.755 227.031 245.985 227.144C242.774 227.49 239.46 230.492 237.561 234.789C232.779 245.609 213.514 266.869 212.703 267.766L210.666 265.92C210.873 265.713 230.449 244.09 235.058 233.684C237.371 228.507 241.462 224.866 245.692 224.418C246.943 224.264 248.213 224.45 249.368 224.957C250.522 225.465 251.519 226.274 252.251 227.3C254.168 229.94 256.36 236.532 249.766 251.114C237.492 277.965 235.628 279.587 234.626 279.587Z" fill="black"/>
<path d="M252.39 301.985C255.842 283.227 245.916 269.094 214.412 272.097Z" fill="white"/>
<path d="M253.736 302.227L251.043 301.744C252.631 293.012 251.043 285.834 246.658 281.036C240.737 274.582 229.914 272.029 214.481 273.513L214.222 270.786C230.552 269.25 242.136 272.063 248.747 279.19C253.736 284.643 255.497 292.633 253.736 302.227Z" fill="black"/>
<path d="M249.731 314.755C249.731 314.755 246.503 293.927 232.192 289.716C223.951 287.211 215.378 285.966 206.765 286.023" fill="white"/>
<path d="M248.436 314.979C248.436 314.772 245.174 294.927 231.864 291.027C223.771 288.582 215.357 287.36 206.903 287.403L206.782 284.66C215.554 284.571 224.288 285.834 232.676 288.404C247.642 292.805 251.043 313.668 251.181 314.548L248.436 314.979Z" fill="black"/>
<path d="M205.056 298.568C205.056 298.568 225.391 301.795 233.004 315.825C240.616 329.854 236.232 330.959 236.232 330.959" fill="white"/>
<path d="M236.577 332.271L235.904 329.614C235.818 329.614 237.837 327.491 231.83 316.447C224.614 303.194 205.039 299.932 204.849 299.915L205.28 297.206C206.126 297.344 226.375 300.657 234.229 315.136C238.252 322.521 239.667 327.681 238.459 330.477C238.304 330.9 238.054 331.282 237.728 331.594C237.401 331.905 237.008 332.137 236.577 332.271V332.271Z" fill="black"/>
<path d="M188.259 323.263C187.621 320.433 184.807 304.281 190.141 290.131Z" fill="white"/>
<path d="M186.913 323.573C186.757 322.831 182.96 305.281 188.863 289.646L191.435 290.613C185.808 305.505 189.433 322.261 189.588 322.969L186.913 323.573Z" fill="black"/>
<path d="M58.0484 271.701C58.0484 271.701 84.1321 270.475 96.1468 290.131C108.161 309.786 112.615 310.459 116.344 322.366C120.073 334.273 104.26 330.994 99.5302 350.821C94.8002 370.649 86.6005 404.317 101.256 385.334C115.912 366.352 121.384 358.173 132.985 346.904C144.585 335.636 153.493 337.965 153.493 337.965C153.493 337.965 150.144 350.045 166.629 364.903C183.115 379.761 199.929 381.952 199.929 381.952C199.929 381.952 185.86 420.037 166.629 425.093C147.399 430.15 116.862 427.337 99.582 409.563C82.3022 391.788 37.9721 333.876 32.8451 312.081C27.7182 290.286 38.7317 278.396 58.0484 271.701Z" fill="#CACACA"/>
<path d="M283.721 312.081C283.721 312.081 285.637 324.765 300.172 337.966C314.707 351.167 320.559 347.025 320.559 347.025C320.559 347.025 302.416 390.374 279.129 391.772C255.842 393.169 253.235 360.261 253.235 360.261C253.235 360.261 256.325 346.266 263.127 359.554C269.928 372.841 263.973 325.403 283.721 312.081Z" fill="#CACACA"/>
<path d="M228.392 8.7103L410.677 8.71033C413.449 8.71033 415.802 10.7459 416.2 13.4898L430.402 111.362C430.89 114.728 428.28 117.745 424.878 117.745H242.983C240.219 117.745 237.871 115.721 237.463 112.987L222.872 15.1142C222.37 11.7414 224.982 8.7103 228.392 8.7103Z" fill="black" stroke="black" stroke-width="1.7624"/>
<path d="M236.649 0.881203L418.933 0.881228C421.706 0.881229 424.058 2.91679 424.457 5.66074L438.658 103.533C439.147 106.899 436.537 109.916 433.135 109.916H251.24C248.475 109.916 246.127 107.892 245.72 105.158L231.129 7.28505C230.627 3.91234 233.239 0.881203 236.649 0.881203Z" fill="white" stroke="black" stroke-width="1.7624"/>
<path d="M269.902 82.7014C269.164 78.0632 272.747 73.8643 277.444 73.8643H334.328C338.082 73.8643 341.28 76.5934 341.87 80.3013L351.685 141.985C352.423 146.624 348.839 150.823 344.143 150.823H287.259C283.504 150.823 280.306 148.094 279.717 144.386L269.902 82.7014Z" fill="#3B37FF" stroke="black" stroke-width="1.7624"/>
<path d="M279.036 88.9836C278.298 84.3455 281.882 80.1465 286.578 80.1465H343.462C347.217 80.1465 350.414 82.8756 351.004 86.5835L360.819 148.268C361.557 152.906 357.974 157.105 353.277 157.105H296.393C292.638 157.105 289.441 154.376 288.851 150.668L279.036 88.9836Z" fill="white" stroke="black" stroke-width="1.7624"/>
<path d="M292.476 100.305H340.991" stroke="black" stroke-width="1.7624"/>
<path d="M299.82 136.564H348.336" stroke="black" stroke-width="1.7624"/>
<path d="M294.544 109.486H343.059" stroke="black" stroke-width="1.7624"/>
<path d="M301.888 145.746H350.403" stroke="black" stroke-width="1.7624"/>
<path d="M296.609 118.626H318.799" stroke="black" stroke-width="1.7624"/>
<path d="M290.054 91.5479H312.244" stroke="black" stroke-width="1.7624"/>
<path d="M385.951 59.1119L280.174 59.1119C270.4 59.1119 262.061 52.0386 260.467 42.3952C258.456 30.2285 267.842 19.1641 280.174 19.1641L385.951 19.1641C395.682 19.1641 403.997 26.1763 405.639 35.7675C407.727 47.9683 398.33 59.1119 385.951 59.1119Z" fill="white" stroke="black" stroke-width="1.7624"/>
<path d="M287.376 41.9564L283.746 44.5626L282.171 41.8303L287.097 39.9612L289.268 39.1373L287.097 38.3134L282.171 36.4443L283.746 33.712L287.376 36.3181L288.959 37.4552L288.766 35.5153L288.347 31.2894L291.645 31.2894L291.284 35.5277L291.122 37.4343L292.677 36.3181L296.296 33.7191L297.822 36.4434L292.952 38.3147L290.811 39.1373L292.952 39.9599L297.822 41.8312L296.296 44.5555L292.677 41.9564L291.122 40.8403L291.284 42.7469L291.645 46.9852L288.347 46.9852L288.766 42.7593L288.959 40.8194L287.376 41.9564Z" fill="black" stroke="black" stroke-width="1.7624"/>
<path d="M316.139 41.9564L312.509 44.5626L310.934 41.8303L315.86 39.9612L318.032 39.1373L315.86 38.3134L310.934 36.4443L312.509 33.712L316.139 36.3181L317.722 37.4552L317.53 35.5153L317.11 31.2894L320.408 31.2894L320.048 35.5277L319.885 37.4343L321.44 36.3181L325.059 33.7191L326.585 36.4434L321.715 38.3147L319.574 39.1373L321.715 39.9599L326.585 41.8312L325.059 44.5555L321.44 41.9564L319.885 40.8403L320.048 42.7469L320.408 46.9852L317.11 46.9852L317.53 42.7593L317.722 40.8194L316.139 41.9564Z" fill="black" stroke="black" stroke-width="1.7624"/>
<path d="M344.901 41.9564L341.272 44.5626L339.697 41.8303L344.623 39.9612L346.794 39.1373L344.623 38.3134L339.697 36.4443L341.272 33.712L344.901 36.3181L346.485 37.4552L346.292 35.5153L345.873 31.2894L349.171 31.2894L348.81 35.5277L348.648 37.4343L350.202 36.3181L353.822 33.7191L355.347 36.4434L350.477 38.3147L348.337 39.1373L350.477 39.9599L355.347 41.8312L353.822 44.5555L350.202 41.9564L348.648 40.8403L348.81 42.7469L349.171 46.9852L345.873 46.9852L346.292 42.7593L346.485 40.8194L344.901 41.9564Z" fill="black" stroke="black" stroke-width="1.7624"/>
<path d="M373.665 41.9564L370.036 44.5626L368.461 41.8303L373.387 39.9612L375.558 39.1373L373.387 38.3134L368.461 36.4443L370.036 33.712L373.665 36.3181L375.249 37.4552L375.056 35.5153L374.636 31.2894L377.935 31.2894L377.574 35.5277L377.412 37.4343L378.966 36.3181L382.585 33.7191L384.111 36.4434L379.241 38.3147L377.1 39.1373L379.241 39.9599L384.111 41.8312L382.585 44.5555L378.966 41.9564L377.412 40.8403L377.574 42.7469L377.935 46.9852L374.636 46.9852L375.056 42.7593L375.249 40.8194L373.665 41.9564Z" fill="black" stroke="black" stroke-width="1.7624"/>
<path fill-rule="evenodd" clip-rule="evenodd" d="M462.262 60.4716C462.262 60.4718 462.263 60.4713 462.263 60.4706C463.511 55.8295 463.354 50.9226 461.813 46.3704C461.299 44.8516 460.639 43.395 459.845 42.0194C459.843 42.0147 459.844 42.0088 459.849 42.0061V42.0061C459.853 42.0034 459.855 41.9975 459.852 41.9928C457.446 37.8364 453.861 34.4862 449.551 32.3656C448.359 31.7786 447.125 31.2931 445.864 30.9113C444.097 30.3742 442.266 30.0375 440.405 29.9139C435.613 29.5956 430.834 30.7045 426.671 33.1005C426.666 33.1034 426.665 33.1098 426.667 33.1147V33.1147C426.67 33.1197 426.669 33.126 426.664 33.1289C425.288 33.9235 423.988 34.8548 422.783 35.9132C419.173 39.0851 416.584 43.2562 415.344 47.8993C415.343 47.9001 415.344 47.901 415.345 47.9012V47.9012C415.346 47.9014 415.346 47.9023 415.346 47.9031L408.214 74.5187C407.518 77.1168 409.06 79.7873 411.658 80.4834V80.4834C414.256 81.1796 416.927 79.6378 417.623 77.0397L424.754 50.4249C424.756 50.4191 424.762 50.4157 424.767 50.4173V50.4173C424.773 50.4188 424.779 50.4154 424.781 50.4096C425.523 47.6361 427.071 45.1446 429.228 43.2495C431.388 41.352 434.062 40.1376 436.912 39.7598C438.973 39.4867 441.059 39.6599 443.031 40.2565C444.694 40.7631 446.261 41.5666 447.654 42.6371C449.933 44.3893 451.642 46.778 452.564 49.5013C453.484 52.221 453.579 55.1524 452.835 57.9257C452.834 57.9316 452.837 57.9376 452.843 57.9392V57.9392C452.849 57.9408 452.853 57.9468 452.851 57.9527L445.72 84.5663C445.024 87.1644 446.566 89.8349 449.164 90.5311V90.5311C451.762 91.2272 454.432 89.6854 455.128 87.0873L462.26 60.4725C462.26 60.4718 462.261 60.4714 462.262 60.4716V60.4716Z" fill="#3B37FF"/>
<path d="M461.813 46.3704L460.979 46.6529L460.979 46.6529L461.813 46.3704ZM449.551 32.3656L449.162 33.1562L449.551 32.3656ZM445.864 30.9113L445.607 31.7544L445.608 31.7547L445.864 30.9113ZM440.405 29.9139L440.464 29.0346L440.464 29.0346L440.405 29.9139ZM422.783 35.9132L422.202 35.2512L422.202 35.2512L422.783 35.9132ZM429.228 43.2495L429.81 43.9115L429.81 43.9115L429.228 43.2495ZM436.912 39.7598L436.796 38.8863L436.796 38.8863L436.912 39.7598ZM443.031 40.2565L443.288 39.4135L443.286 39.413L443.031 40.2565ZM447.654 42.6371L448.191 41.9385L448.191 41.9385L447.654 42.6371ZM452.564 49.5013L453.398 49.2187L453.398 49.2187L452.564 49.5013ZM445.72 84.5663L444.869 84.3382L445.72 84.5663ZM452.851 57.9527L452 57.7247L452.851 57.9527ZM452.835 57.9257L453.687 58.1538L452.835 57.9257ZM424.781 50.4096L423.929 50.1816L424.781 50.4096ZM415.346 47.9031L414.495 47.675L415.346 47.9031ZM415.344 47.8993L416.195 48.1267L415.344 47.8993ZM426.664 33.1289L426.223 32.3659L426.664 33.1289ZM424.754 50.4249L425.605 50.653L424.754 50.4249ZM459.852 41.9928L459.09 42.4344L459.852 41.9928ZM426.671 33.1005L426.232 32.3368L426.671 33.1005ZM417.623 77.0397L416.771 76.8116L417.623 77.0397ZM459.845 42.0194L460.609 41.579L459.845 42.0194ZM462.263 60.4706L461.412 60.2419L462.263 60.4706ZM460.979 46.6529C462.464 51.0401 462.615 55.769 461.412 60.2419L463.114 60.6994C464.407 55.89 464.245 50.8051 462.648 46.0879L460.979 46.6529ZM459.082 42.4597C459.847 43.7854 460.483 45.1891 460.979 46.6529L462.648 46.0879C462.115 44.514 461.431 43.0045 460.609 41.579L459.082 42.4597ZM460.615 41.5513C458.121 37.2441 454.406 33.7724 449.94 31.5749L449.162 33.1562C453.316 35.2 456.77 38.4287 459.09 42.4344L460.615 41.5513ZM449.94 31.5749C448.704 30.9667 447.426 30.4636 446.119 30.0679L445.608 31.7547C446.824 32.1227 448.013 32.5905 449.162 33.1562L449.94 31.5749ZM440.347 30.7931C442.141 30.9123 443.905 31.2368 445.607 31.7544L446.12 30.0682C444.29 29.5116 442.392 29.1627 440.464 29.0346L440.347 30.7931ZM427.111 33.8643C431.122 31.5551 435.728 30.4864 440.347 30.7931L440.464 29.0346C435.497 28.7048 430.545 29.8539 426.232 32.3368L427.111 33.8643ZM426.223 32.3659C424.798 33.1893 423.45 34.1544 422.202 35.2512L423.365 36.5753C424.526 35.5552 425.779 34.6577 427.105 33.8919L426.223 32.3659ZM422.202 35.2512C418.46 38.5381 415.777 42.8605 414.492 47.6719L416.195 48.1267C417.39 43.652 419.885 39.6321 423.365 36.5753L422.202 35.2512ZM414.495 47.675L407.363 74.2906L409.065 74.7467L416.197 48.1312L414.495 47.675ZM418.474 77.2678L425.605 50.653L423.903 50.1968L416.771 76.8116L418.474 77.2678ZM425.632 50.6376C426.329 48.0322 427.783 45.6917 429.81 43.9115L428.646 42.5875C426.359 44.5975 424.717 47.24 423.929 50.1816L425.632 50.6376ZM429.81 43.9115C431.839 42.129 434.351 40.9882 437.028 40.6334L436.796 38.8863C433.774 39.2869 430.937 40.5749 428.646 42.5875L429.81 43.9115ZM437.028 40.6334C438.964 40.3769 440.923 40.5395 442.776 41.0999L443.286 39.413C441.194 38.7802 438.982 38.5966 436.796 38.8863L437.028 40.6334ZM448.191 41.9385C446.714 40.8031 445.051 39.9508 443.288 39.4135L442.774 41.0994C444.336 41.5753 445.809 42.3302 447.117 43.3358L448.191 41.9385ZM453.398 49.2187C452.421 46.3304 450.609 43.7969 448.191 41.9385L447.117 43.3358C449.258 44.9817 450.863 47.2257 451.729 49.7838L453.398 49.2187ZM453.687 58.1538C454.475 55.2125 454.375 52.1034 453.398 49.2187L451.729 49.7838C452.594 52.3387 452.683 55.0924 451.984 57.6975L453.687 58.1538ZM446.571 84.7944L453.702 58.1808L452 57.7247L444.869 84.3382L446.571 84.7944ZM461.409 60.2444L454.277 86.8592L455.98 87.3154L463.111 60.7006L461.409 60.2444ZM444.869 84.3382C444.047 87.4064 445.867 90.5601 448.936 91.3822L449.392 89.6799C447.264 89.1097 446.001 86.9224 446.571 84.7944L444.869 84.3382ZM452.614 58.7902C452.15 58.6654 451.876 58.1884 452 57.7247L453.702 58.1808C453.83 57.7053 453.548 57.2162 453.072 57.0882L452.614 58.7902ZM451.984 57.6975C451.857 58.1721 452.138 58.662 452.614 58.7902L453.072 57.0882C453.537 57.2133 453.811 57.6911 453.687 58.1538L451.984 57.6975ZM424.54 51.2686C425.017 51.396 425.505 51.112 425.632 50.6376L423.929 50.1816C424.053 49.7187 424.529 49.4416 424.995 49.5659L424.54 51.2686ZM415.117 48.7525C414.648 48.627 414.369 48.1445 414.495 47.675L416.197 48.1312C416.323 47.6601 416.043 47.1758 415.572 47.0499L415.117 48.7525ZM414.492 47.6719C414.367 48.1425 414.646 48.6266 415.117 48.7525L415.572 47.0499C416.042 47.1754 416.32 47.6577 416.195 48.1267L414.492 47.6719ZM425.904 33.5546C425.664 33.1381 425.807 32.6062 426.223 32.3659L427.105 33.8919C427.53 33.6458 427.677 33.1012 427.431 32.6748L425.904 33.5546ZM425.605 50.653C425.481 51.1172 425.004 51.3925 424.54 51.2686L424.995 49.5659C424.519 49.4389 424.03 49.7211 423.903 50.1968L425.605 50.653ZM460.29 42.7689C460.717 42.5221 460.861 41.9767 460.615 41.5513L459.09 42.4344C458.849 42.0182 458.99 41.4847 459.408 41.2433L460.29 42.7689ZM426.232 32.3368C425.805 32.5823 425.658 33.1274 425.904 33.5546L427.431 32.6748C427.671 33.0921 427.527 33.6245 427.111 33.8643L426.232 32.3368ZM411.43 81.3346C414.498 82.1567 417.652 80.3359 418.474 77.2678L416.771 76.8116C416.201 78.9396 414.014 80.2025 411.886 79.6323L411.43 81.3346ZM463.111 60.7006C462.985 61.1702 462.502 61.4488 462.033 61.3226L462.49 59.6206C462.019 59.494 461.535 59.7734 461.409 60.2444L463.111 60.7006ZM460.609 41.579C460.849 41.9955 460.706 42.528 460.29 42.7689L459.408 41.2433C458.982 41.4896 458.836 42.034 459.082 42.4597L460.609 41.579ZM407.363 74.2906C406.541 77.3588 408.362 80.5125 411.43 81.3346L411.886 79.6323C409.758 79.0621 408.495 76.8747 409.065 74.7467L407.363 74.2906ZM448.936 91.3822C452.004 92.2043 455.158 90.3835 455.98 87.3154L454.277 86.8592C453.707 88.9872 451.52 90.2501 449.392 89.6799L448.936 91.3822ZM461.412 60.2419C461.538 59.7728 462.021 59.4944 462.49 59.6206L462.033 61.3226C462.504 61.4491 462.988 61.1698 463.114 60.6994L461.412 60.2419Z" fill="black"/>
<path d="M390.204 100.16C387.743 109.241 393.111 118.598 402.192 121.059L436.895 130.461C445.977 132.921 455.333 127.554 457.794 118.472L463.669 96.7875C466.129 87.7058 460.762 78.3491 451.68 75.8886L416.977 66.4866C407.896 64.0261 398.539 69.3936 396.079 78.4753L390.204 100.16Z" fill="white" stroke="black" stroke-width="1.7624"/>
<mask id="path-90-inside-1_120_2422" fill="white">
<path fill-rule="evenodd" clip-rule="evenodd" d="M420.47 103.04C420.986 101.927 420.716 100.631 420.06 99.5934C418.713 97.4595 418.225 94.7908 418.93 92.1606C420.27 87.1606 425.409 84.1935 430.409 85.5332C435.409 86.8729 438.376 92.0122 437.037 97.0122C436.332 99.6422 434.576 101.71 432.342 102.884C431.255 103.455 430.374 104.442 430.264 105.664L429.913 109.58C429.75 111.396 427.989 112.627 426.227 112.155L420.72 110.679C418.959 110.207 418.048 108.261 418.816 106.606L420.47 103.04Z"/>
</mask>
<path fill-rule="evenodd" clip-rule="evenodd" d="M420.47 103.04C420.986 101.927 420.716 100.631 420.06 99.5934C418.713 97.4595 418.225 94.7908 418.93 92.1606C420.27 87.1606 425.409 84.1935 430.409 85.5332C435.409 86.8729 438.376 92.0122 437.037 97.0122C436.332 99.6422 434.576 101.71 432.342 102.884C431.255 103.455 430.374 104.442 430.264 105.664L429.913 109.58C429.75 111.396 427.989 112.627 426.227 112.155L420.72 110.679C418.959 110.207 418.048 108.261 418.816 106.606L420.47 103.04Z" fill="black"/>
<path d="M429.913 109.58L431.669 109.737L429.913 109.58ZM432.342 102.884L431.522 101.324L432.342 102.884ZM430.264 105.664L432.02 105.822L430.264 105.664ZM418.816 106.606L420.415 107.348L418.816 106.606ZM420.633 92.6167C420.06 94.7523 420.454 96.9166 421.55 98.6523L418.57 100.535C416.971 98.0023 416.391 94.8292 417.228 91.7044L420.633 92.6167ZM429.953 87.2355C425.893 86.1477 421.72 88.557 420.633 92.6167L417.228 91.7044C418.82 85.7643 424.925 82.2392 430.865 83.8308L429.953 87.2355ZM435.334 96.556C436.422 92.4963 434.013 88.3233 429.953 87.2355L430.865 83.8308C436.805 85.4225 440.331 91.5282 438.739 97.4683L435.334 96.556ZM431.522 101.324C433.339 100.369 434.762 98.6916 435.334 96.556L438.739 97.4683C437.902 100.593 435.813 103.051 433.162 104.444L431.522 101.324ZM428.158 109.423L428.509 105.507L432.02 105.822L431.669 109.737L428.158 109.423ZM421.176 108.977L426.684 110.453L425.771 113.857L420.264 112.382L421.176 108.977ZM422.068 103.781L420.415 107.348L417.217 105.865L418.871 102.299L422.068 103.781ZM431.669 109.737C431.408 112.644 428.59 114.613 425.771 113.857L426.684 110.453C427.388 110.642 428.093 110.149 428.158 109.423L431.669 109.737ZM433.162 104.444C432.408 104.84 432.058 105.387 432.02 105.822L428.509 105.507C428.689 103.496 430.103 102.07 431.522 101.324L433.162 104.444ZM420.264 112.382C417.445 111.627 415.989 108.512 417.217 105.865L420.415 107.348C420.108 108.01 420.472 108.788 421.176 108.977L420.264 112.382ZM421.55 98.6523C422.406 100.008 422.918 101.95 422.068 103.781L418.871 102.299C419.054 101.903 419.025 101.254 418.57 100.535L421.55 98.6523Z" fill="black" mask="url(#path-90-inside-1_120_2422)"/>
</svg>
