<svg width="40" height="40" viewBox="0 0 40 40" fill="none" xmlns="http://www.w3.org/2000/svg">
<path d="M2.5 8.12402L11.25 12.499L20 8.12402" stroke="white" stroke-width="2.5" stroke-miterlimit="10"/>
<path d="M11.25 12.499V23.124" stroke="white" stroke-width="2.5" stroke-miterlimit="10"/>
<path d="M20 8.1243L11.25 3.74805L2.5 8.1243V18.7493L11.25 23.1243L20 18.7493V8.1243Z" stroke="white" stroke-width="2.5" stroke-miterlimit="10" stroke-linecap="square"/>
<path d="M20 8.12402L28.75 12.499L37.5 8.12402" stroke="white" stroke-width="2.5" stroke-miterlimit="10"/>
<path d="M28.75 12.499V23.124" stroke="white" stroke-width="2.5" stroke-miterlimit="10"/>
<path d="M37.5 8.1243L28.75 3.74805L20 8.1243V18.7493L28.75 23.1243L37.5 18.7493V8.1243Z" stroke="white" stroke-width="2.5" stroke-miterlimit="10" stroke-linecap="square"/>
<path d="M11.25 23.124L20 27.499L28.75 23.124" stroke="white" stroke-width="2.5" stroke-miterlimit="10"/>
<path d="M20 27.499V38.124" stroke="white" stroke-width="2.5" stroke-miterlimit="10"/>
<path d="M28.75 23.1243L20 18.748L11.25 23.1243V33.7493L20 38.1243L28.75 33.7493V23.1243Z" stroke="white" stroke-width="2.5" stroke-miterlimit="10" stroke-linecap="square"/>
</svg>
