<svg width="71" height="67" viewBox="0 0 71 67" fill="none" xmlns="http://www.w3.org/2000/svg">
<path d="M56.7923 13.729H62.8757C64.4891 13.729 66.0364 14.3699 67.1772 15.5108C68.3181 16.6516 68.959 18.1989 68.959 19.8123V45.6665C68.959 47.2799 68.3181 48.8272 67.1772 49.9681C66.0364 51.1089 64.4891 51.7498 62.8757 51.7498H56.7923V63.9165L38.5423 51.7498H32.459" stroke="#3B37FF" stroke-width="3.04167" stroke-miterlimit="10" stroke-linecap="square"/>
<path d="M50.7096 1.5625H8.1263C6.5129 1.5625 4.96558 2.20342 3.82474 3.34427C2.68389 4.48511 2.04297 6.03243 2.04297 7.64583V33.5C2.04297 35.1134 2.68389 36.6607 3.82474 37.8016C4.96558 38.9424 6.5129 39.5833 8.1263 39.5833H14.2096V54.7917L35.5013 39.5833H50.7096C52.323 39.5833 53.8704 38.9424 55.0112 37.8016C56.152 36.6607 56.793 35.1134 56.793 33.5V7.64583C56.793 6.03243 56.152 4.48511 55.0112 3.34427C53.8704 2.20342 52.323 1.5625 50.7096 1.5625Z" stroke="white" stroke-width="3.04167" stroke-miterlimit="10" stroke-linecap="square"/>
</svg>
