<svg width="546" height="504" viewBox="0 0 546 504" fill="none" xmlns="http://www.w3.org/2000/svg">
<g clip-path="url(#clip0_120_1683)">
<path d="M325.318 394.5C318.799 388.074 314.918 377.564 314.918 366.306V355.097H227.512V366.335C227.512 377.564 223.621 388.074 217.112 394.529L206.877 404.63H335.553L325.318 394.5Z" fill="white"/>
<path d="M337.926 405.574H204.484L216.411 393.81C222.745 387.569 226.52 377.283 226.52 366.336V354.125H315.871V366.336C315.871 377.293 319.655 387.569 325.979 393.81L337.926 405.574ZM209.251 403.629H333.188L324.637 395.2C317.943 388.59 313.935 377.808 313.935 366.336V356.069H228.475V366.336C228.475 377.808 224.477 388.59 217.773 395.2L209.251 403.629Z" fill="black"/>
<path d="M447.708 110.171L447.709 110.171C449.527 110.169 451.272 110.887 452.561 112.168C453.85 113.45 454.578 115.189 454.586 117.006V341.32H87.8435V117.034C87.8435 115.216 88.5659 113.471 89.8518 112.185C91.1378 110.898 92.8822 110.174 94.7021 110.171L447.708 110.171Z" fill="#D1D1D1" stroke="black" stroke-width="0.721268"/>
<path d="M87.8531 356.156V342.04H454.576V356.156C454.576 356.487 454.428 356.828 454.106 357.169C453.782 357.511 453.297 357.836 452.671 358.116C451.418 358.677 449.664 359.033 447.708 359.033H94.7114C92.7557 359.033 91.0034 358.677 89.7536 358.116C88.4697 357.54 87.8531 356.819 87.8531 356.156Z" fill="#D1D1D1" stroke="black" stroke-width="0.721268"/>
<path d="M99.032 121.536H443.096V331.394H99.032V121.536Z" fill="white" stroke="black" stroke-width="0.721268"/>
<path d="M400.231 331.754H399.258V0.972201H141.615V331.754H140.642V0H400.231V331.754Z" fill="black"/>
<path d="M156.307 13.3707H352.587V34.2693H156.307V13.3707Z" fill="#3B37FF" stroke="black" stroke-width="1.44254"/>
<path d="M371.173 15.6895L370.485 16.377L386.501 32.3808L387.189 31.6933L371.173 15.6895Z" fill="black"/>
<path d="M386.342 15.6925L370.326 31.6963L371.014 32.3837L387.03 16.38L386.342 15.6925Z" fill="black"/>
<path d="M156.307 48.8941H386.123V89.5576H156.307V48.8941Z" fill="#3B37FF" stroke="black" stroke-width="1.44254"/>
<path d="M231.142 141.467H386.122V213.99H231.142V141.467Z" fill="#3B37FF" stroke="black" stroke-width="1.44254"/>
<path d="M231.142 258.773H386.122V331.296H231.142V258.773Z" fill="#3B37FF" stroke="black" stroke-width="1.44254"/>
<path d="M216.937 124.753H164.254V72.1084H216.937V124.753ZM165.227 123.781H215.964V73.0806H165.227V123.781Z" fill="black"/>
<path d="M39.4124 415.45L38.8481 414.663C53.714 404.085 82.3756 391.408 82.6285 391.282L82.755 391.213H82.901C85.3332 391.632 88.0574 392.331 90.9566 393.07C104.47 396.522 122.994 401.247 138.57 384.573C139.738 383.319 141.868 381.414 144.32 379.207C151.422 372.839 162.163 363.214 163.087 357.488C163.788 353.162 162.688 347.941 160.402 344.781C159.601 343.51 158.333 342.602 156.87 342.253L157.016 341.281C158.74 341.662 160.241 342.711 161.19 344.198C163.613 347.552 164.79 353.074 164.05 357.634C163.077 363.7 152.609 373.082 144.972 379.926C142.53 382.114 140.419 384 139.28 385.225C123.305 402.326 104.47 397.513 90.7134 393.974C87.9017 393.255 85.236 392.575 82.9302 392.156C80.7704 393.177 53.6848 405.301 39.4124 415.45Z" fill="black"/>
<path d="M1.98486 366.18L40.2781 414.265L104.509 378.429L125.446 361.095L103.526 324.832L49.0537 353.998L1.98486 366.18Z" fill="white"/>
<path d="M39.0913 415.082C54.0837 404.388 82.8717 391.75 82.8717 391.75C96.6285 394.131 119.842 405.428 138.969 384.944C143.522 380.083 162.319 365.5 163.622 357.606C164.692 351.014 161.618 342.547 156.997 341.817" fill="white"/>
<path d="M134.163 370.477C147.083 359.025 151.675 346.697 151.675 346.697C159.789 339.182 165.374 333.981 169.956 330.325C188.587 315.451 201.993 300.673 206.021 284.136C209.971 267.862 199.415 260.803 186.087 279.382C166.629 306.604 148.747 314.226 148.747 314.226C148.747 314.226 145.439 299.341 122.955 302.015C122.955 302.015 103.342 283.786 67.0525 316.102C41.5723 338.784 41.0275 352.074 41.0275 352.074C29.1679 356.137 0.165771 366.87 0.165771 366.87" fill="white"/>
<path d="M1.98486 366.18L40.2781 414.265L104.509 378.429L125.446 361.095L103.526 324.832L49.0537 353.998L1.98486 366.18Z" fill="white"/>
<path d="M39.0913 415.082C54.0837 404.388 82.8717 391.75 82.8717 391.75C96.6285 394.131 119.842 405.428 138.969 384.944C143.522 380.083 162.319 365.5 163.622 357.606C164.692 351.014 161.618 342.547 156.997 341.817" fill="white"/>
<path d="M134.163 370.477C147.083 359.025 151.675 346.697 151.675 346.697C159.789 339.182 165.374 333.981 169.956 330.325C188.587 315.451 201.993 300.673 206.021 284.136C209.971 267.862 199.415 260.803 186.087 279.382C166.629 306.604 148.747 314.226 148.747 314.226C148.747 314.226 145.439 299.341 122.955 302.015C122.955 302.015 103.342 283.786 67.0525 316.102C41.5723 338.784 41.0275 352.074 41.0275 352.074C29.1679 356.137 0.165771 366.87 0.165771 366.87" fill="white"/>
<path d="M134.484 370.847L133.842 370.118C146.49 358.879 151.199 346.649 151.247 346.522V346.415L152.006 345.706C159.653 338.628 165.169 333.505 169.635 329.946C190.854 313.011 201.925 298.836 205.525 284.02C207.315 276.679 206.157 270.875 202.606 269.242C199.454 267.794 193.558 269.777 186.466 279.664C167.115 306.672 149.107 314.595 148.922 314.663L148.387 314.897L148.26 314.323C148.124 313.73 144.768 299.896 122.965 302.482H122.741L122.576 302.326C122.381 302.151 102.836 284.827 67.3251 316.423C42.3605 338.648 41.4751 351.908 41.4654 352.044V352.375L41.1541 352.482C29.4793 356.487 0.564806 367.162 0.292395 367.269L-0.0480957 366.355C0.234045 366.248 28.6232 355.749 40.5412 351.665C40.8038 349.41 43.2653 336.567 66.7024 315.694C101.104 285.06 121.01 299.76 123.13 301.461C143.065 299.176 148.144 310.745 149.068 313.497C152.074 312.029 168.322 303.308 185.707 279.052C192.021 270.244 198.501 266.228 203.035 268.357C207.043 270.195 208.415 276.436 206.508 284.253C202.85 299.303 191.681 313.623 170.277 330.705C165.841 334.243 160.334 339.357 152.707 346.425L152.113 346.979C148.048 356.124 142.031 364.27 134.484 370.847V370.847Z" fill="black"/>
<path d="M1.98486 366.18L40.2781 414.265L104.509 378.429L125.446 361.095L103.526 324.832L49.0537 353.998L1.98486 366.18Z" fill="white"/>
<mask id="path-23-inside-1_120_1683" fill="white">
<path d="M39.0913 415.082C54.0837 404.388 82.8717 391.75 82.8717 391.75C96.6285 394.131 119.842 405.428 138.969 384.944C143.522 380.083 162.319 365.5 163.622 357.606C164.692 351.014 161.618 342.547 156.997 341.817"/>
</mask>
<path d="M39.0913 415.082C54.0837 404.388 82.8717 391.75 82.8717 391.75C96.6285 394.131 119.842 405.428 138.969 384.944C143.522 380.083 162.319 365.5 163.622 357.606C164.692 351.014 161.618 342.547 156.997 341.817" fill="white"/>
<path d="M82.8717 391.75L83.3639 388.907L82.5076 388.759L81.7119 389.108L82.8717 391.75ZM138.969 384.944L136.863 382.972L136.86 382.975L138.969 384.944ZM163.622 357.606L166.469 358.076L166.47 358.068L163.622 357.606ZM40.7667 417.431C48.0616 412.228 58.8285 406.48 67.885 401.991C72.3906 399.757 76.4322 397.855 79.347 396.512C80.804 395.84 81.9783 395.309 82.7869 394.946C83.1912 394.764 83.5039 394.625 83.7149 394.531C83.8203 394.484 83.9003 394.449 83.9535 394.426C83.9801 394.414 84 394.405 84.0131 394.399C84.0196 394.397 84.0244 394.394 84.0275 394.393C84.029 394.392 84.0301 394.392 84.0308 394.392C84.0311 394.391 84.0313 394.391 84.0315 394.391C84.0315 394.391 84.0315 394.391 82.8717 391.75C81.7119 389.108 81.7117 389.108 81.7113 389.108C81.711 389.108 81.7106 389.109 81.71 389.109C81.7089 389.109 81.7074 389.11 81.7055 389.111C81.7015 389.112 81.6959 389.115 81.6885 389.118C81.6738 389.125 81.6522 389.134 81.6238 389.147C81.5672 389.172 81.4837 389.209 81.3746 389.257C81.1565 389.354 80.8362 389.496 80.424 389.681C79.5997 390.051 78.4078 390.591 76.9316 391.271C73.9801 392.632 69.8878 394.558 65.3223 396.821C56.2367 401.324 45.1134 407.243 37.4159 412.734L40.7667 417.431ZM82.3795 394.592C85.6928 395.166 89.4861 396.259 94.0681 397.375C98.5317 398.462 103.522 399.506 108.743 399.802C119.318 400.401 130.809 397.911 141.078 386.913L136.86 382.975C128.002 392.462 118.323 394.565 109.07 394.041C104.377 393.775 99.7892 392.829 95.4335 391.769C91.1962 390.737 86.929 389.524 83.3639 388.907L82.3795 394.592ZM141.075 386.916C142.105 385.816 144.014 384.097 146.485 381.879C148.902 379.711 151.758 377.151 154.517 374.489C157.269 371.834 159.99 369.015 162.125 366.313C164.178 363.713 166.015 360.826 166.469 358.076L160.776 357.136C160.578 358.333 159.576 360.23 157.596 362.736C155.698 365.14 153.191 367.751 150.511 370.336C147.839 372.914 145.061 375.405 142.632 377.585C140.258 379.715 138.11 381.641 136.863 382.972L141.075 386.916ZM166.47 358.068C167.096 354.213 166.513 349.919 165.123 346.442C163.816 343.174 161.337 339.581 157.446 338.968L156.547 344.667C157.278 344.783 158.647 345.788 159.765 348.584C160.799 351.171 161.219 354.407 160.774 357.144L166.47 358.068Z" fill="black" mask="url(#path-23-inside-1_120_1683)"/>
<mask id="path-25-inside-2_120_1683" fill="white">
<path d="M134.163 370.477C147.083 359.025 151.675 346.697 151.675 346.697C159.789 339.182 165.374 333.981 169.956 330.325C188.587 315.451 201.993 300.673 206.021 284.136C209.971 267.862 199.415 260.803 186.087 279.382C166.629 306.604 148.747 314.226 148.747 314.226C148.747 314.226 145.439 299.341 122.955 302.015C122.955 302.015 103.342 283.786 67.0525 316.102C41.5723 338.784 41.0275 352.074 41.0275 352.074C29.1679 356.137 0.165771 366.87 0.165771 366.87"/>
</mask>
<path d="M134.163 370.477C147.083 359.025 151.675 346.697 151.675 346.697C159.789 339.182 165.374 333.981 169.956 330.325C188.587 315.451 201.993 300.673 206.021 284.136C209.971 267.862 199.415 260.803 186.087 279.382C166.629 306.604 148.747 314.226 148.747 314.226C148.747 314.226 145.439 299.341 122.955 302.015C122.955 302.015 103.342 283.786 67.0525 316.102C41.5723 338.784 41.0275 352.074 41.0275 352.074C29.1679 356.137 0.165771 366.87 0.165771 366.87" fill="white"/>
<path d="M151.675 346.697L149.715 344.581L149.211 345.047L148.972 345.69L151.675 346.697ZM169.956 330.325L171.755 332.581L171.756 332.58L169.956 330.325ZM206.021 284.136L208.824 284.819L208.825 284.817L206.021 284.136ZM186.087 279.382L183.742 277.7L183.739 277.704L186.087 279.382ZM148.747 314.226L145.93 314.852L146.684 318.241L149.878 316.88L148.747 314.226ZM122.955 302.015L120.991 304.128L121.969 305.038L123.296 304.88L122.955 302.015ZM67.0525 316.102L68.9708 318.257L68.9712 318.257L67.0525 316.102ZM41.0275 352.074L41.9627 354.803L43.8293 354.163L43.9101 352.192L41.0275 352.074ZM136.077 372.636C142.792 366.684 147.345 360.503 150.225 355.799C151.666 353.445 152.692 351.455 153.363 350.038C153.699 349.329 153.946 348.763 154.113 348.365C154.196 348.167 154.26 348.01 154.304 347.899C154.326 347.843 154.343 347.799 154.355 347.766C154.361 347.75 154.367 347.737 154.37 347.726C154.372 347.721 154.374 347.717 154.375 347.713C154.376 347.711 154.377 347.71 154.377 347.708C154.378 347.707 154.378 347.706 154.378 347.706C154.378 347.705 154.379 347.704 151.675 346.697C148.972 345.69 148.972 345.689 148.972 345.689C148.972 345.688 148.972 345.688 148.973 345.687C148.973 345.687 148.973 345.686 148.973 345.686C148.973 345.685 148.973 345.685 148.973 345.686C148.972 345.688 148.971 345.692 148.968 345.7C148.962 345.714 148.952 345.741 148.937 345.778C148.908 345.853 148.86 345.972 148.792 346.133C148.657 346.455 148.445 346.941 148.149 347.567C147.555 348.819 146.626 350.627 145.303 352.786C142.657 357.109 138.454 362.818 132.249 368.318L136.077 372.636ZM153.636 348.814C161.791 341.26 167.278 336.153 171.755 332.581L168.157 328.07C163.469 331.809 157.787 337.104 149.715 344.581L153.636 348.814ZM171.756 332.58C190.466 317.643 204.554 302.35 208.824 284.819L203.218 283.453C199.432 298.997 186.708 313.259 168.156 328.071L171.756 332.58ZM208.825 284.817C209.884 280.452 210.033 276.473 209.252 273.238C208.471 270.005 206.65 267.19 203.576 265.999C200.529 264.819 197.12 265.572 193.886 267.53C190.634 269.499 187.207 272.871 183.742 277.7L188.431 281.064C191.63 276.604 194.521 273.891 196.874 272.466C199.244 271.031 200.726 271.083 201.491 271.379C202.228 271.665 203.139 272.505 203.643 274.592C204.146 276.677 204.133 279.683 203.218 283.456L208.825 284.817ZM183.739 277.704C174.182 291.075 165.048 299.583 158.361 304.725C155.016 307.297 152.28 309.03 150.406 310.109C149.468 310.649 148.746 311.025 148.27 311.261C148.032 311.379 147.856 311.462 147.746 311.513C147.691 311.538 147.652 311.556 147.63 311.565C147.619 311.57 147.612 311.573 147.61 311.574C147.609 311.575 147.608 311.575 147.609 311.574C147.61 311.574 147.611 311.574 147.612 311.573C147.612 311.573 147.613 311.573 147.613 311.573C147.614 311.572 147.615 311.572 148.747 314.226C149.878 316.88 149.879 316.879 149.88 316.879C149.881 316.879 149.882 316.878 149.883 316.877C149.886 316.877 149.888 316.876 149.891 316.874C149.896 316.872 149.902 316.869 149.91 316.866C149.925 316.86 149.944 316.851 149.967 316.841C150.014 316.82 150.078 316.791 150.159 316.754C150.32 316.68 150.547 316.573 150.836 316.429C151.414 316.142 152.241 315.71 153.284 315.11C155.37 313.909 158.321 312.035 161.879 309.299C168.997 303.825 178.533 294.911 188.434 281.06L183.739 277.704ZM148.747 314.226C151.563 313.6 151.563 313.598 151.562 313.596C151.562 313.595 151.561 313.593 151.561 313.591C151.56 313.588 151.56 313.584 151.559 313.581C151.557 313.574 151.555 313.565 151.553 313.556C151.549 313.538 151.544 313.516 151.537 313.491C151.525 313.44 151.508 313.375 151.486 313.296C151.444 313.14 151.382 312.93 151.297 312.676C151.127 312.169 150.863 311.479 150.471 310.675C149.686 309.07 148.374 306.986 146.248 305.006C141.9 300.957 134.568 297.729 122.614 299.15L123.296 304.88C133.826 303.628 139.39 306.504 142.316 309.229C143.828 310.637 144.748 312.107 145.286 313.208C145.555 313.758 145.725 314.21 145.825 314.506C145.874 314.654 145.905 314.762 145.922 314.822C145.93 314.852 145.935 314.871 145.936 314.876C145.936 314.878 145.936 314.878 145.935 314.874C145.935 314.872 145.934 314.869 145.933 314.865C145.933 314.863 145.933 314.861 145.932 314.859C145.932 314.858 145.931 314.856 145.931 314.856C145.931 314.854 145.93 314.852 148.747 314.226ZM122.955 302.015C124.919 299.902 124.917 299.9 124.915 299.898C124.915 299.897 124.912 299.895 124.911 299.894C124.908 299.891 124.904 299.888 124.901 299.884C124.893 299.878 124.884 299.87 124.874 299.861C124.855 299.843 124.83 299.82 124.8 299.794C124.74 299.742 124.66 299.673 124.56 299.591C124.361 299.427 124.081 299.207 123.723 298.95C123.005 298.436 121.968 297.769 120.615 297.092C117.904 295.735 113.935 294.343 108.77 294.059C98.3696 293.489 83.6779 297.434 65.1338 313.948L68.9712 318.257C86.7162 302.455 99.9758 299.356 108.454 299.821C112.729 300.055 115.931 301.2 118.032 302.252C119.085 302.779 119.863 303.283 120.36 303.64C120.609 303.818 120.786 303.958 120.892 304.045C120.945 304.089 120.979 304.119 120.996 304.133C121.004 304.14 121.008 304.144 121.007 304.143C121.007 304.143 121.005 304.141 121.003 304.139C121.001 304.138 121 304.136 120.998 304.134C120.997 304.133 120.995 304.132 120.995 304.132C120.993 304.13 120.991 304.128 122.955 302.015ZM65.1342 313.947C52.1962 325.464 45.4572 334.713 41.9456 341.224C40.1893 344.48 39.2426 347.047 38.733 348.863C38.4784 349.77 38.3335 350.487 38.2512 351.006C38.2101 351.266 38.1846 351.475 38.1689 351.634C38.161 351.713 38.1555 351.78 38.1518 351.833C38.1499 351.86 38.1485 351.884 38.1473 351.904C38.1468 351.914 38.1463 351.924 38.1459 351.932C38.1457 351.936 38.1455 351.941 38.1453 351.944C38.1452 351.946 38.1451 351.949 38.1451 351.95C38.1449 351.953 38.1448 351.955 41.0275 352.074C43.9101 352.192 43.91 352.194 43.9099 352.197C43.9099 352.198 43.9098 352.2 43.9097 352.201C43.9096 352.205 43.9094 352.207 43.9093 352.21C43.9091 352.215 43.9088 352.22 43.9086 352.224C43.9082 352.231 43.9079 352.235 43.9079 352.236C43.9077 352.238 43.9084 352.227 43.9108 352.204C43.9155 352.157 43.9266 352.058 43.9501 351.91C43.9971 351.614 44.0939 351.115 44.2885 350.422C44.6772 349.037 45.4593 346.864 47.0242 343.963C50.1551 338.158 56.4286 329.422 68.9708 318.257L65.1342 313.947ZM40.0923 349.344C34.1303 351.387 23.8877 355.096 15.159 358.286C10.7896 359.883 6.79135 361.352 3.88549 362.423C2.4325 362.958 1.2525 363.393 0.435637 363.695C0.0271999 363.846 -0.290462 363.963 -0.506082 364.043C-0.613893 364.083 -0.696194 364.113 -0.751576 364.134C-0.779267 364.144 -0.800229 364.152 -0.814286 364.157C-0.821314 364.159 -0.826616 364.161 -0.830169 364.163C-0.831946 364.163 -0.833286 364.164 -0.834185 364.164C-0.834635 364.164 -0.83498 364.164 -0.835205 364.165C-0.835439 364.165 -0.835563 364.165 0.165771 366.87C1.16711 369.576 1.1672 369.576 1.16741 369.576C1.16763 369.576 1.16795 369.576 1.16838 369.576C1.16924 369.575 1.17055 369.575 1.17229 369.574C1.17577 369.573 1.181 369.571 1.18796 369.568C1.20187 369.563 1.22269 369.556 1.25024 369.545C1.30533 369.525 1.38733 369.495 1.49483 369.455C1.70984 369.375 2.02685 369.258 2.4346 369.108C3.25011 368.807 4.42855 368.372 5.87982 367.837C8.78247 366.768 12.7759 365.3 17.1395 363.706C25.8768 360.513 36.065 356.824 41.9627 354.803L40.0923 349.344Z" fill="black" mask="url(#path-25-inside-2_120_1683)"/>
<mask id="path-27-inside-3_120_1683" fill="white">
<path d="M134.484 370.847L133.842 370.118C146.49 358.879 151.199 346.649 151.247 346.522V346.415L152.006 345.706C159.653 338.628 165.169 333.505 169.635 329.946C190.854 313.011 201.925 298.836 205.525 284.02C207.315 276.679 206.157 270.875 202.606 269.242C199.454 267.794 193.559 269.777 186.466 279.664C167.115 306.672 149.107 314.595 148.922 314.663L148.387 314.897L148.26 314.323C148.124 313.73 144.768 299.896 122.965 302.482H122.741L122.576 302.326C122.381 302.151 102.836 284.827 67.3251 316.423C42.3605 338.648 41.4751 351.908 41.4654 352.044V352.375L41.1541 352.482C29.4793 356.487 0.564806 367.162 0.292395 367.269L-0.0480957 366.355C0.234045 366.248 28.6232 355.749 40.5412 351.665C40.8038 349.41 43.2653 336.567 66.7024 315.694C101.104 285.06 121.01 299.76 123.13 301.461C143.065 299.176 148.144 310.745 149.068 313.497C152.074 312.029 168.322 303.308 185.707 279.052C192.021 270.244 198.501 266.228 203.035 268.357C207.043 270.195 208.415 276.436 206.508 284.253C202.85 299.303 191.681 313.623 170.277 330.705C165.841 334.243 160.334 339.357 152.707 346.425L152.113 346.979C148.048 356.124 142.031 364.27 134.484 370.847Z"/>
</mask>
<path d="M134.484 370.847L133.842 370.118C146.49 358.879 151.199 346.649 151.247 346.522V346.415L152.006 345.706C159.653 338.628 165.169 333.505 169.635 329.946C190.854 313.011 201.925 298.836 205.525 284.02C207.315 276.679 206.157 270.875 202.606 269.242C199.454 267.794 193.559 269.777 186.466 279.664C167.115 306.672 149.107 314.595 148.922 314.663L148.387 314.897L148.26 314.323C148.124 313.73 144.768 299.896 122.965 302.482H122.741L122.576 302.326C122.381 302.151 102.836 284.827 67.3251 316.423C42.3605 338.648 41.4751 351.908 41.4654 352.044V352.375L41.1541 352.482C29.4793 356.487 0.564806 367.162 0.292395 367.269L-0.0480957 366.355C0.234045 366.248 28.6232 355.749 40.5412 351.665C40.8038 349.41 43.2653 336.567 66.7024 315.694C101.104 285.06 121.01 299.76 123.13 301.461C143.065 299.176 148.144 310.745 149.068 313.497C152.074 312.029 168.322 303.308 185.707 279.052C192.021 270.244 198.501 266.228 203.035 268.357C207.043 270.195 208.415 276.436 206.508 284.253C202.85 299.303 191.681 313.623 170.277 330.705C165.841 334.243 160.334 339.357 152.707 346.425L152.113 346.979C148.048 356.124 142.031 364.27 134.484 370.847Z" fill="black"/>
<path d="M134.484 370.847L132.319 372.754L134.216 374.908L136.38 373.022L134.484 370.847ZM133.842 370.118L131.926 367.961L129.779 369.869L131.677 372.024L133.842 370.118ZM151.247 346.522L153.94 347.559L154.132 347.058V346.522H151.247ZM151.247 346.415L149.277 344.308L148.362 345.163V346.415H151.247ZM152.006 345.706L150.046 343.588L150.041 343.593L150.036 343.598L152.006 345.706ZM169.635 329.946L171.433 332.203L171.435 332.201L169.635 329.946ZM205.525 284.02L202.722 283.336L202.722 283.338L205.525 284.02ZM202.606 269.242L203.812 266.621L203.811 266.621L202.606 269.242ZM186.466 279.664L184.122 277.983L184.121 277.984L186.466 279.664ZM148.922 314.663L147.925 311.956L147.846 311.985L147.769 312.019L148.922 314.663ZM148.387 314.897L145.569 315.518L146.325 318.943L149.54 317.541L148.387 314.897ZM148.26 314.323L151.078 313.702L151.075 313.69L151.072 313.677L148.26 314.323ZM122.965 302.482V305.367H123.136L123.305 305.347L122.965 302.482ZM122.741 302.482L120.764 304.583L121.597 305.367H122.741V302.482ZM122.576 302.326L124.553 300.225L124.529 300.203L124.505 300.181L122.576 302.326ZM67.3251 316.423L65.4073 314.268L65.4067 314.268L67.3251 316.423ZM41.4654 352.044L38.5876 351.839L38.5803 351.941V352.044H41.4654ZM41.4654 352.375L42.4027 355.104L44.3504 354.434V352.375H41.4654ZM41.1541 352.482L42.0904 355.211L42.0914 355.21L41.1541 352.482ZM0.292395 367.269L-2.41113 368.276L-1.38612 371.027L1.34667 369.955L0.292395 367.269ZM-0.0480957 366.355L-1.07066 363.657L-3.75322 364.674L-2.75162 367.363L-0.0480957 366.355ZM40.5412 351.665L41.4763 354.395L43.1965 353.805L43.4069 351.999L40.5412 351.665ZM66.7024 315.694L64.7837 313.539L64.7836 313.539L66.7024 315.694ZM123.13 301.461L121.325 303.711L122.264 304.464L123.459 304.327L123.13 301.461ZM149.068 313.497L146.333 314.415L147.38 317.532L150.334 316.089L149.068 313.497ZM185.707 279.052L183.362 277.371L183.362 277.371L185.707 279.052ZM203.035 268.357L201.808 270.969L201.82 270.975L201.832 270.98L203.035 268.357ZM206.508 284.253L203.705 283.569L203.704 283.571L206.508 284.253ZM170.277 330.705L172.076 332.96L172.077 332.96L170.277 330.705ZM152.707 346.425L150.746 344.309L150.738 344.316L152.707 346.425ZM152.113 346.979L150.144 344.871L149.715 345.271L149.477 345.807L152.113 346.979ZM136.649 368.94L136.007 368.211L131.677 372.024L132.319 372.754L136.649 368.94ZM135.758 372.274C148.89 360.606 153.809 347.899 153.94 347.559L148.555 345.486C148.555 345.486 148.554 345.488 148.553 345.491C148.551 345.495 148.549 345.501 148.545 345.511C148.538 345.53 148.526 345.56 148.509 345.601C148.476 345.682 148.424 345.808 148.353 345.974C148.21 346.306 147.99 346.799 147.687 347.429C147.079 348.69 146.138 350.493 144.814 352.637C142.164 356.931 137.997 362.566 131.926 367.961L135.758 372.274ZM154.132 346.522V346.415H148.362V346.522H154.132ZM153.218 348.523L153.977 347.813L150.036 343.598L149.277 344.308L153.218 348.523ZM153.966 347.823C161.652 340.709 167.072 335.677 171.433 332.203L167.837 327.69C163.267 331.332 157.654 336.547 150.046 343.588L153.966 347.823ZM171.435 332.201C192.808 315.142 204.499 300.462 208.329 284.701L202.722 283.338C199.352 297.209 188.9 310.879 167.835 327.691L171.435 332.201ZM208.328 284.703C209.29 280.76 209.513 277.032 208.899 273.93C208.291 270.861 206.748 267.971 203.812 266.621L201.401 271.863C202.016 272.146 202.827 272.975 203.239 275.051C203.643 277.095 203.551 279.939 202.722 283.336L208.328 284.703ZM203.811 266.621C201.1 265.375 197.826 265.871 194.599 267.688C191.352 269.516 187.812 272.838 184.122 277.983L188.81 281.346C192.212 276.603 195.167 273.99 197.429 272.716C199.711 271.432 200.961 271.661 201.402 271.864L203.811 266.621ZM184.121 277.984C165.09 304.545 147.542 312.097 147.925 311.956L149.919 317.371C150.672 317.094 169.14 308.799 188.811 281.344L184.121 277.984ZM147.769 312.019L147.234 312.252L149.54 317.541L150.075 317.308L147.769 312.019ZM151.204 314.275L151.078 313.702L145.443 314.944L145.569 315.518L151.204 314.275ZM151.072 313.677C150.937 313.09 149.867 308.829 145.663 305.062C141.36 301.205 134.199 298.244 122.625 299.617L123.305 305.347C133.534 304.133 138.952 306.796 141.812 309.359C144.771 312.01 145.447 314.963 145.448 314.969L151.072 313.677ZM122.965 299.597H122.741V305.367H122.965V299.597ZM124.718 300.38L124.553 300.225L120.599 304.427L120.764 304.583L124.718 300.38ZM124.505 300.181C124.102 299.818 118.556 295.02 108.318 294.578C98.0282 294.134 83.5614 298.115 65.4073 314.268L69.2429 318.578C86.5995 303.135 99.6609 299.98 108.07 300.343C116.531 300.708 120.855 304.659 120.647 304.471L124.505 300.181ZM65.4067 314.268C52.7269 325.556 46.0367 334.679 42.5062 341.132C40.7404 344.359 39.7675 346.914 39.2321 348.731C38.9645 349.638 38.8069 350.359 38.7142 350.885C38.6678 351.148 38.6378 351.361 38.6183 351.525C38.6086 351.606 38.6016 351.675 38.5965 351.73C38.5939 351.758 38.5919 351.782 38.5903 351.803C38.5887 351.824 38.5875 351.841 38.5876 351.839L44.3431 352.25C44.3435 352.244 44.3431 352.25 44.3428 352.254C44.3425 352.257 44.3425 352.258 44.3426 352.256C44.343 352.252 44.3445 352.236 44.3479 352.208C44.3547 352.151 44.3691 352.044 44.3966 351.887C44.4517 351.575 44.5599 351.064 44.7668 350.362C45.1803 348.959 45.9907 346.785 47.5682 343.902C50.7239 338.134 56.9587 329.514 69.2434 318.578L65.4067 314.268ZM38.5803 352.044V352.375H44.3504V352.044H38.5803ZM40.528 349.646L40.2168 349.753L42.0914 355.21L42.4027 355.104L40.528 349.646ZM40.2178 349.753C28.5126 353.769 -0.442324 364.458 -0.761884 364.584L1.34667 369.955C1.34437 369.956 1.77776 369.795 2.64678 369.474C3.4851 369.164 4.68145 368.723 6.14626 368.184C9.0759 367.107 13.0782 365.638 17.4364 364.048C26.1625 360.863 36.2838 357.203 42.0904 355.211L40.2178 349.753ZM2.99592 366.262L2.65543 365.348L-2.75162 367.363L-2.41113 368.276L2.99592 366.262ZM0.974466 369.053C0.970903 369.054 0.993707 369.046 1.06265 369.02C1.12414 368.997 1.2119 368.965 1.32476 368.923C1.55036 368.84 1.875 368.72 2.28783 368.567C3.11346 368.262 4.29118 367.828 5.73394 367.296C8.61955 366.234 12.5646 364.785 16.8727 363.211C25.4988 360.061 35.5489 356.425 41.4763 354.395L39.6061 348.936C27.6461 353.034 -0.775458 363.546 -1.07066 363.657L0.974466 369.053ZM43.4069 351.999C43.5652 350.64 45.5459 338.399 68.6212 317.848L64.7836 313.539C40.9847 334.735 38.0425 348.18 37.6755 351.332L43.4069 351.999ZM68.6211 317.849C85.4396 302.872 98.3547 299.284 107.004 299.337C115.68 299.39 120.573 303.108 121.325 303.711L124.936 299.21C123.567 298.112 117.447 293.63 107.039 293.567C96.6053 293.503 82.3669 297.882 64.7837 313.539L68.6211 317.849ZM123.459 304.327C132.807 303.256 138.286 305.455 141.481 307.886C144.742 310.368 145.98 313.365 146.333 314.415L151.803 312.578C151.231 310.877 149.468 306.714 144.975 303.294C140.416 299.825 133.389 297.381 122.802 298.595L123.459 304.327ZM150.334 316.089C153.707 314.442 170.35 305.431 188.052 280.732L183.362 277.371C166.293 301.186 150.441 309.615 147.802 310.904L150.334 316.089ZM188.052 280.733C191.085 276.501 194.022 273.623 196.555 272.057C199.113 270.477 200.786 270.489 201.808 270.969L204.261 265.746C200.749 264.097 196.916 265.052 193.522 267.149C190.104 269.261 186.643 272.794 183.362 277.371L188.052 280.733ZM201.832 270.98C202.735 271.394 203.683 272.45 204.171 274.68C204.657 276.9 204.587 279.952 203.705 283.569L209.311 284.937C210.335 280.737 210.533 276.76 209.808 273.446C209.084 270.141 207.342 267.158 204.237 265.735L201.832 270.98ZM203.704 283.571C200.275 297.679 189.723 311.494 168.477 328.45L172.077 332.96C193.639 315.752 205.424 300.927 209.311 284.934L203.704 283.571ZM168.478 328.449C163.937 332.071 158.335 337.276 150.746 344.309L154.668 348.541C162.333 341.439 167.744 336.416 172.076 332.96L168.478 328.449ZM150.738 344.316L150.144 344.871L154.082 349.088L154.676 348.534L150.738 344.316ZM149.477 345.807C145.582 354.567 139.818 362.371 132.589 368.672L136.38 373.022C144.243 366.168 150.513 357.68 154.749 348.151L149.477 345.807Z" fill="black" mask="url(#path-27-inside-3_120_1683)"/>
<path d="M386.844 104.648H230.421V105.621H386.844V104.648Z" fill="black"/>
<path d="M386.844 123.781H230.421V124.753H386.844V123.781Z" fill="black"/>
<path d="M386.844 225.979H230.421V226.951H386.844V225.979Z" fill="black"/>
<path d="M386.844 245.111H230.421V246.084H386.844V245.111Z" fill="black"/>
<path d="M438.013 282.094C437.828 282.026 419.946 275.211 413.194 274.414C407.999 273.792 407.143 270.156 405.285 262.183C404.526 258.946 403.582 254.921 402.103 250.05C400.488 244.742 400.79 240.328 402.998 236.994C406.374 231.861 412.922 231.063 413.194 231.034L413.311 232.006C413.243 232.006 406.929 232.784 403.806 237.528C401.772 240.63 401.51 244.752 403.037 249.769C404.565 254.785 405.469 258.713 406.228 261.96C408.038 269.737 408.787 272.907 413.311 273.442C420.18 274.258 437.633 280.898 438.353 281.219L438.013 282.094Z" fill="black"/>
<mask id="path-34-inside-4_120_1683" fill="white">
<path d="M413.243 231.52C413.243 231.52 397.511 233.299 402.541 249.904C407.571 266.509 406.335 273.11 413.243 273.927C420.15 274.744 438.168 281.636 438.168 281.636"/>
</mask>
<path d="M413.243 231.52C413.243 231.52 397.511 233.299 402.541 249.904C407.571 266.509 406.335 273.11 413.243 273.927C420.15 274.744 438.168 281.636 438.168 281.636" fill="white"/>
<path d="M413.243 231.52C412.919 228.653 412.917 228.653 412.915 228.653C412.915 228.653 412.913 228.653 412.912 228.654C412.909 228.654 412.907 228.654 412.904 228.654C412.898 228.655 412.891 228.656 412.883 228.657C412.867 228.659 412.847 228.661 412.824 228.664C412.777 228.671 412.715 228.679 412.64 228.69C412.489 228.713 412.283 228.747 412.03 228.796C411.527 228.893 410.831 229.05 410.021 229.298C408.42 229.786 406.266 230.657 404.256 232.191C402.219 233.745 400.309 235.998 399.333 239.18C398.36 242.35 398.397 246.174 399.78 250.74L405.302 249.067C404.17 245.331 404.287 242.706 404.849 240.872C405.408 239.05 406.489 237.745 407.755 236.779C409.049 235.792 410.515 235.18 411.706 234.816C412.292 234.637 412.786 234.526 413.123 234.461C413.291 234.429 413.418 234.408 413.495 234.397C413.534 234.391 413.56 234.387 413.572 234.386C413.578 234.385 413.581 234.385 413.58 234.385C413.58 234.385 413.579 234.385 413.576 234.385C413.575 234.385 413.574 234.386 413.572 234.386C413.572 234.386 413.57 234.386 413.57 234.386C413.568 234.386 413.567 234.386 413.243 231.52ZM399.78 250.74C401.012 254.808 401.862 258.267 402.556 261.21C403.237 264.098 403.802 266.651 404.431 268.688C405.058 270.717 405.866 272.656 407.262 274.141C408.763 275.736 410.667 276.528 412.904 276.792L413.582 271.062C412.365 270.918 411.833 270.578 411.465 270.187C410.994 269.686 410.5 268.784 409.944 266.984C409.39 265.193 408.89 262.931 408.172 259.886C407.467 256.895 406.585 253.303 405.302 249.067L399.78 250.74ZM412.904 276.792C415.999 277.158 421.932 278.971 427.367 280.819C430.024 281.723 432.469 282.602 434.252 283.255C435.143 283.582 435.866 283.852 436.367 284.04C436.617 284.133 436.811 284.207 436.941 284.256C437.007 284.281 437.057 284.3 437.09 284.313C437.106 284.319 437.118 284.324 437.126 284.327C437.13 284.328 437.133 284.329 437.135 284.33C437.136 284.331 437.137 284.331 437.137 284.331C437.137 284.331 437.138 284.331 437.138 284.331C437.138 284.331 437.138 284.331 438.168 281.636C439.199 278.942 439.199 278.942 439.199 278.942C439.199 278.942 439.198 278.941 439.198 278.941C439.197 278.941 439.196 278.941 439.195 278.94C439.193 278.939 439.189 278.938 439.184 278.936C439.175 278.933 439.161 278.927 439.144 278.921C439.108 278.907 439.056 278.887 438.987 278.861C438.851 278.81 438.651 278.734 438.395 278.638C437.883 278.445 437.145 278.17 436.238 277.838C434.427 277.174 431.936 276.278 429.225 275.356C423.924 273.554 417.394 271.513 413.582 271.062L412.904 276.792Z" fill="black" mask="url(#path-34-inside-4_120_1683)"/>
<mask id="path-36-inside-5_120_1683" fill="white">
<path d="M488.03 370.759C488.03 370.759 456.897 320.622 447.966 321.954C439.034 323.286 424.791 318.386 417.465 315.499C412.056 313.37 399.593 309.812 388.765 304.474C379.571 299.944 377.187 300.469 368.723 294.684C360.259 288.899 354.042 286.236 358.488 279.994C362.934 273.753 381.196 274.229 387.87 279.994C394.544 285.759 406.569 288.899 416.804 279.994C427.039 271.089 415.918 245.306 410.13 238.637C404.341 231.967 397.219 219.951 397.219 219.951C397.219 219.951 377.635 218.172 368.285 215.09C358.936 212.008 363.421 203.968 373.15 200.857C382.879 197.746 398.523 196.404 407.873 199.078C417.222 201.751 432.798 226.212 432.798 226.212C432.798 226.212 439.93 225.765 451.497 226.212C463.065 226.659 468.416 233.698 468.416 233.698C468.416 233.698 477.766 231.549 483.554 237.334C489.343 243.119 497.35 274.278 497.35 274.278C500.208 280.883 503.797 287.147 508.052 292.954C515.173 302.744 542.775 328.099 542.775 328.099"/>
</mask>
<path d="M488.03 370.759C488.03 370.759 456.897 320.622 447.966 321.954C439.034 323.286 424.791 318.386 417.465 315.499C412.056 313.37 399.593 309.812 388.765 304.474C379.571 299.944 377.187 300.469 368.723 294.684C360.259 288.899 354.042 286.236 358.488 279.994C362.934 273.753 381.196 274.229 387.87 279.994C394.544 285.759 406.569 288.899 416.804 279.994C427.039 271.089 415.918 245.306 410.13 238.637C404.341 231.967 397.219 219.951 397.219 219.951C397.219 219.951 377.635 218.172 368.285 215.09C358.936 212.008 363.421 203.968 373.15 200.857C382.879 197.746 398.523 196.404 407.873 199.078C417.222 201.751 432.798 226.212 432.798 226.212C432.798 226.212 439.93 225.765 451.497 226.212C463.065 226.659 468.416 233.698 468.416 233.698C468.416 233.698 477.766 231.549 483.554 237.334C489.343 243.119 497.35 274.278 497.35 274.278C500.208 280.883 503.797 287.147 508.052 292.954C515.173 302.744 542.775 328.099 542.775 328.099" fill="white"/>
<path d="M417.465 315.499L418.523 312.815L418.522 312.814L417.465 315.499ZM388.765 304.474L390.04 301.886L390.04 301.886L388.765 304.474ZM397.219 219.951L399.701 218.48L398.949 217.211L397.48 217.078L397.219 219.951ZM432.798 226.212L430.365 227.762L431.279 229.198L432.979 229.091L432.798 226.212ZM468.416 233.698L466.119 235.444L467.247 236.927L469.062 236.51L468.416 233.698ZM497.35 274.278L494.556 274.996L494.612 275.215L494.702 275.423L497.35 274.278ZM508.052 292.954L510.385 291.256L510.379 291.248L508.052 292.954ZM488.03 370.759C490.481 369.237 490.48 369.236 490.48 369.236C490.48 369.235 490.479 369.235 490.479 369.234C490.478 369.232 490.476 369.23 490.474 369.226C490.47 369.22 490.464 369.21 490.456 369.198C490.441 369.173 490.418 369.136 490.388 369.087C490.327 368.991 490.238 368.848 490.122 368.663C489.889 368.292 489.547 367.749 489.11 367.061C488.236 365.683 486.978 363.719 485.441 361.367C482.369 356.667 478.172 350.403 473.689 344.172C469.218 337.959 464.407 331.703 460.111 327.059C457.972 324.746 455.877 322.741 453.951 321.337C452.987 320.635 451.987 320.025 450.98 319.613C449.991 319.208 448.797 318.913 447.54 319.101L448.391 324.808C448.25 324.829 448.346 324.77 448.795 324.953C449.225 325.129 449.81 325.459 450.552 326.001C452.038 327.084 453.841 328.777 455.876 330.977C459.929 335.359 464.576 341.388 469.005 347.542C473.421 353.679 477.566 359.866 480.611 364.524C482.132 366.852 483.376 368.794 484.239 370.153C484.67 370.833 485.006 371.367 485.234 371.729C485.348 371.911 485.435 372.05 485.493 372.142C485.522 372.189 485.543 372.224 485.558 372.247C485.565 372.259 485.57 372.267 485.574 372.273C485.576 372.276 485.577 372.278 485.578 372.279C485.578 372.28 485.578 372.28 485.579 372.28C485.579 372.281 485.579 372.281 488.03 370.759ZM447.54 319.101C443.668 319.678 438.34 318.912 432.823 317.512C427.393 316.134 422.125 314.234 418.523 312.815L416.407 318.183C420.132 319.651 425.648 321.645 431.404 323.105C437.073 324.544 443.332 325.562 448.391 324.808L447.54 319.101ZM418.522 312.814C412.666 310.509 400.775 307.178 390.04 301.886L387.489 307.062C398.411 312.445 411.446 316.23 416.409 318.184L418.522 312.814ZM390.04 301.886C385.329 299.565 382.247 298.488 379.572 297.383C376.941 296.296 374.407 295.074 370.351 292.302L367.095 297.066C371.503 300.079 374.393 301.487 377.369 302.716C380.3 303.927 383.007 304.853 387.49 307.062L390.04 301.886ZM370.351 292.302C369.27 291.563 368.227 290.876 367.256 290.237C366.277 289.593 365.38 289.006 364.552 288.442C362.866 287.293 361.658 286.369 360.858 285.526C360.078 284.703 359.921 284.2 359.899 283.897C359.876 283.59 359.95 282.915 360.838 281.668L356.138 278.32C354.804 280.194 353.987 282.193 354.144 284.321C354.302 286.454 355.394 288.149 356.671 289.495C357.928 290.821 359.582 292.038 361.303 293.21C362.18 293.807 363.123 294.425 364.086 295.059C365.057 295.697 366.061 296.359 367.095 297.066L370.351 292.302ZM360.838 281.668C361.423 280.848 362.7 279.967 364.856 279.31C366.952 278.673 369.555 278.349 372.315 278.377C375.065 278.404 377.86 278.78 380.314 279.463C382.803 280.157 384.753 281.115 385.984 282.177L389.756 277.811C387.649 275.991 384.814 274.727 381.863 273.905C378.877 273.073 375.577 272.639 372.372 272.607C369.176 272.575 365.964 272.942 363.176 273.79C360.45 274.62 357.777 276.02 356.138 278.32L360.838 281.668ZM385.984 282.177C393.429 288.609 407.093 292.268 418.697 282.171L414.91 277.818C406.045 285.531 395.659 282.91 389.756 277.811L385.984 282.177ZM418.697 282.171C422.019 279.28 423.426 275.168 423.768 270.946C424.111 266.729 423.424 262.113 422.264 257.738C419.965 249.063 415.575 240.509 412.308 236.746L407.951 240.528C410.473 243.434 414.537 251.106 416.687 259.216C417.751 263.233 418.287 267.15 418.017 270.48C417.747 273.806 416.706 276.255 414.91 277.818L418.697 282.171ZM412.308 236.746C409.55 233.568 406.411 229.035 403.92 225.216C402.685 223.323 401.627 221.634 400.879 220.42C400.505 219.813 400.209 219.325 400.007 218.99C399.906 218.823 399.829 218.694 399.777 218.607C399.751 218.564 399.732 218.532 399.719 218.51C399.713 218.5 399.708 218.492 399.705 218.487C399.704 218.484 399.703 218.482 399.702 218.481C399.702 218.481 399.701 218.48 399.701 218.48C399.701 218.48 399.701 218.48 399.701 218.48C399.701 218.48 399.701 218.48 397.219 219.951C394.737 221.422 394.737 221.422 394.738 221.422C394.738 221.422 394.738 221.423 394.738 221.423C394.738 221.424 394.739 221.424 394.739 221.425C394.74 221.427 394.742 221.43 394.744 221.433C394.748 221.439 394.753 221.449 394.761 221.461C394.775 221.486 394.796 221.521 394.824 221.568C394.88 221.661 394.961 221.796 395.066 221.97C395.276 222.319 395.582 222.822 395.966 223.446C396.734 224.693 397.819 226.425 399.087 228.369C401.604 232.227 404.92 237.036 407.951 240.528L412.308 236.746ZM397.219 219.951C397.48 217.078 397.48 217.078 397.48 217.078C397.48 217.078 397.48 217.078 397.48 217.078C397.48 217.078 397.479 217.078 397.478 217.078C397.476 217.077 397.473 217.077 397.469 217.077C397.46 217.076 397.447 217.075 397.429 217.073C397.393 217.07 397.34 217.065 397.269 217.058C397.127 217.045 396.916 217.024 396.643 216.997C396.097 216.944 395.305 216.863 394.324 216.757C392.361 216.544 389.649 216.228 386.65 215.818C380.578 214.987 373.584 213.799 369.189 212.35L367.382 217.83C372.336 219.463 379.809 220.706 385.867 221.535C388.933 221.954 391.701 222.276 393.702 222.493C394.703 222.602 395.514 222.684 396.076 222.74C396.357 222.767 396.576 222.788 396.725 222.803C396.8 222.81 396.857 222.815 396.897 222.819C396.916 222.82 396.931 222.822 396.941 222.823C396.947 222.823 396.951 222.824 396.953 222.824C396.955 222.824 396.956 222.824 396.957 222.824C396.957 222.824 396.958 222.824 396.958 222.824C396.958 222.824 396.958 222.824 397.219 219.951ZM369.189 212.35C367.214 211.699 366.46 210.941 366.206 210.518C366.019 210.206 365.929 209.803 366.223 209.101C366.926 207.427 369.546 205.038 374.029 203.605L372.271 198.109C367.025 199.787 362.538 202.973 360.903 206.868C360.029 208.95 359.962 211.329 361.26 213.489C362.49 215.538 364.682 216.94 367.382 217.83L369.189 212.35ZM374.029 203.605C378.622 202.136 384.723 201.056 390.832 200.678C396.973 200.297 402.852 200.643 407.079 201.852L408.666 196.304C403.544 194.839 396.926 194.519 390.475 194.919C383.992 195.32 377.406 196.467 372.271 198.109L374.029 203.605ZM407.079 201.852C408.687 202.311 410.978 203.896 413.712 206.525C416.351 209.063 419.081 212.256 421.572 215.429C424.055 218.592 426.257 221.681 427.841 223.983C428.632 225.133 429.267 226.083 429.702 226.743C429.919 227.073 430.087 227.331 430.199 227.504C430.255 227.591 430.297 227.657 430.325 227.7C430.339 227.722 430.349 227.738 430.356 227.748C430.359 227.753 430.362 227.757 430.363 227.759C430.364 227.76 430.364 227.761 430.365 227.762C430.365 227.762 430.365 227.762 430.365 227.762C430.365 227.762 430.365 227.762 432.798 226.212C435.232 224.662 435.232 224.662 435.231 224.662C435.231 224.661 435.231 224.661 435.23 224.66C435.23 224.659 435.229 224.658 435.228 224.656C435.225 224.652 435.222 224.647 435.218 224.64C435.209 224.627 435.197 224.608 435.181 224.583C435.15 224.534 435.103 224.462 435.043 224.369C434.923 224.183 434.746 223.912 434.52 223.568C434.066 222.88 433.411 221.898 432.595 220.713C430.967 218.346 428.691 215.152 426.111 211.866C423.539 208.59 420.623 205.166 417.712 202.366C414.895 199.657 411.733 197.181 408.666 196.304L407.079 201.852ZM432.798 226.212C432.979 229.091 432.979 229.091 432.978 229.091C432.978 229.091 432.978 229.091 432.978 229.091C432.978 229.091 432.978 229.091 432.978 229.091C432.978 229.091 432.979 229.091 432.98 229.091C432.983 229.091 432.986 229.091 432.992 229.091C433.004 229.09 433.022 229.089 433.047 229.087C433.097 229.085 433.174 229.08 433.278 229.075C433.485 229.064 433.798 229.049 434.212 229.032C435.039 228.998 436.269 228.956 437.86 228.929C441.041 228.874 445.661 228.874 451.386 229.095L451.609 223.329C445.765 223.103 441.036 223.103 437.76 223.16C436.121 223.188 434.846 223.231 433.975 223.266C433.539 223.284 433.205 223.301 432.977 223.312C432.863 223.318 432.776 223.323 432.715 223.327C432.685 223.328 432.662 223.33 432.646 223.331C432.638 223.331 432.631 223.332 432.627 223.332C432.624 223.332 432.622 223.332 432.621 223.332C432.62 223.332 432.619 223.332 432.619 223.332C432.619 223.333 432.618 223.333 432.618 223.333C432.618 223.333 432.618 223.333 432.798 226.212ZM451.386 229.095C456.575 229.296 460.306 230.966 462.718 232.539C463.931 233.33 464.816 234.101 465.383 234.655C465.666 234.931 465.868 235.152 465.991 235.293C466.052 235.363 466.093 235.413 466.115 235.439C466.125 235.452 466.131 235.46 466.132 235.46C466.132 235.461 466.131 235.46 466.129 235.457C466.128 235.456 466.127 235.454 466.125 235.452C466.124 235.451 466.123 235.449 466.122 235.448C466.122 235.448 466.121 235.446 466.121 235.446C466.12 235.445 466.119 235.444 468.416 233.698C470.713 231.952 470.712 231.951 470.711 231.95C470.711 231.949 470.71 231.948 470.709 231.947C470.708 231.945 470.706 231.943 470.705 231.942C470.702 231.938 470.698 231.933 470.695 231.929C470.687 231.919 470.679 231.908 470.669 231.895C470.648 231.869 470.623 231.837 470.591 231.798C470.529 231.721 470.444 231.62 470.336 231.496C470.121 231.25 469.815 230.918 469.416 230.528C468.618 229.748 467.442 228.731 465.871 227.706C462.716 225.649 457.987 223.576 451.609 223.329L451.386 229.095ZM468.416 233.698C469.062 236.51 469.061 236.51 469.06 236.51C469.06 236.51 469.059 236.51 469.059 236.511C469.058 236.511 469.057 236.511 469.056 236.511C469.054 236.512 469.053 236.512 469.053 236.512C469.052 236.512 469.053 236.512 469.057 236.511C469.063 236.51 469.078 236.506 469.102 236.502C469.148 236.492 469.227 236.477 469.334 236.457C469.549 236.419 469.878 236.367 470.296 236.319C471.138 236.222 472.315 236.146 473.639 236.226C476.338 236.39 479.316 237.178 481.515 239.375L485.594 235.293C482.003 231.706 477.413 230.675 473.989 230.467C472.253 230.361 470.73 230.461 469.638 230.586C469.09 230.649 468.643 230.72 468.324 230.776C468.165 230.805 468.036 230.83 467.943 230.849C467.896 230.858 467.858 230.867 467.829 230.873C467.815 230.876 467.803 230.879 467.793 230.881C467.788 230.882 467.783 230.883 467.78 230.884C467.778 230.884 467.776 230.885 467.774 230.885C467.773 230.885 467.772 230.886 467.772 230.886C467.771 230.886 467.77 230.886 468.416 233.698ZM481.515 239.375C481.951 239.81 482.553 240.649 483.281 241.972C483.988 243.258 484.732 244.849 485.491 246.662C487.009 250.286 488.524 254.634 489.875 258.855C491.224 263.066 492.395 267.105 493.23 270.095C493.647 271.588 493.979 272.817 494.207 273.671C494.321 274.098 494.408 274.431 494.467 274.656C494.497 274.769 494.519 274.855 494.534 274.912C494.541 274.94 494.547 274.962 494.551 274.976C494.552 274.983 494.554 274.988 494.555 274.991C494.555 274.993 494.555 274.994 494.555 274.995C494.556 274.995 494.556 274.995 494.556 274.996C494.556 274.996 494.556 274.996 497.35 274.278C500.144 273.56 500.144 273.559 500.144 273.559C500.144 273.559 500.144 273.558 500.144 273.557C500.143 273.556 500.143 273.555 500.142 273.552C500.141 273.548 500.14 273.542 500.138 273.534C500.134 273.518 500.128 273.495 500.12 273.464C500.104 273.403 500.08 273.313 500.05 273.196C499.989 272.962 499.899 272.62 499.782 272.184C499.549 271.311 499.211 270.061 498.787 268.543C497.94 265.509 496.748 261.397 495.371 257.095C493.997 252.804 492.424 248.277 490.813 244.432C490.008 242.51 489.176 240.718 488.337 239.192C487.519 237.705 486.605 236.304 485.594 235.293L481.515 239.375ZM494.702 275.423C497.646 282.226 501.343 288.679 505.725 294.659L510.379 291.248C506.252 285.616 502.77 279.539 499.998 273.132L494.702 275.423ZM505.719 294.651C509.455 299.788 518.337 308.757 526.074 316.268C529.985 320.064 533.67 323.551 536.378 326.089C537.731 327.358 538.841 328.39 539.613 329.106C540 329.464 540.301 329.743 540.507 329.932C540.609 330.027 540.688 330.099 540.741 330.148C540.768 330.173 540.788 330.191 540.802 330.204C540.809 330.21 540.814 330.215 540.817 330.218C540.819 330.22 540.82 330.221 540.821 330.222C540.822 330.222 540.822 330.223 540.822 330.223C540.823 330.223 540.823 330.223 542.775 328.099C544.726 325.974 544.726 325.974 544.726 325.974C544.726 325.974 544.726 325.973 544.725 325.973C544.725 325.972 544.723 325.971 544.722 325.97C544.719 325.967 544.714 325.962 544.707 325.957C544.694 325.945 544.675 325.927 544.649 325.903C544.597 325.855 544.52 325.784 544.419 325.691C544.217 325.504 543.918 325.229 543.536 324.874C542.771 324.165 541.669 323.14 540.324 321.879C537.633 319.357 533.973 315.894 530.093 312.127C522.249 304.513 513.77 295.91 510.385 291.256L505.719 294.651Z" fill="black" mask="url(#path-36-inside-5_120_1683)"/>
<path d="M487.63 371.011C479.011 357.138 455.106 321.429 448.053 322.401C439.034 323.752 424.917 318.92 417.29 315.916C415.714 315.294 413.496 314.546 410.927 313.671C403.292 311.227 395.818 308.305 388.551 304.921C385.106 303.219 382.616 302.238 380.417 301.363C376.174 299.809 372.153 297.704 368.46 295.102C367.322 294.324 366.232 293.604 365.191 292.914C360.541 289.861 357.174 287.645 356.61 284.66C356.505 283.779 356.583 282.886 356.839 282.036C357.096 281.186 357.524 280.398 358.099 279.721C359.753 277.398 363.294 275.833 368.071 275.239C374.628 274.442 383.637 275.706 388.2 279.634C395.011 285.545 406.812 288.063 416.492 279.634C426.367 271.03 415.685 245.782 409.769 238.967C404.448 232.822 397.929 222.07 396.937 220.427C394.631 220.203 376.866 218.482 368.139 215.566C364.588 214.389 362.642 212.367 362.662 209.878C362.662 206.242 366.952 202.344 373.042 200.409C382.635 197.357 398.338 195.859 408.067 198.63C417.086 201.206 431.416 223.032 433.119 225.725C434.559 225.657 441.389 225.356 451.604 225.725C462.189 226.134 467.618 231.879 468.698 233.163C470.391 232.832 478.592 231.597 483.982 236.983C489.819 242.817 497.603 272.858 497.914 274.131C500.759 280.659 504.315 286.854 508.518 292.603C515.523 302.238 542.901 327.418 543.173 327.67L542.512 328.39C542.239 328.137 514.794 302.889 507.73 293.177C503.474 287.33 499.884 281.027 497.029 274.384C496.922 274.015 488.963 243.274 483.33 237.625C477.697 231.977 468.737 234.106 468.649 234.125L468.348 234.193L468.153 233.94C468.104 233.872 462.792 227.077 451.614 226.649C440.202 226.211 433.041 226.649 432.963 226.649H432.681L432.525 226.406C432.37 226.163 416.959 202.101 407.872 199.476C398.357 196.754 382.888 198.241 373.432 201.245C367.837 203.024 363.703 206.622 363.703 209.801C363.703 211.862 365.357 213.505 368.567 214.555C377.751 217.617 397.19 219.416 397.384 219.416H397.637L397.764 219.63C397.832 219.746 404.934 231.675 410.626 238.238C416.696 245.237 427.573 271.292 417.251 280.276C407.133 289.084 394.874 286.459 387.675 280.276C383.91 277.028 375.582 275.24 368.304 276.114C363.8 276.649 360.521 278.059 359.013 280.198C358.516 280.77 358.14 281.437 357.911 282.16C357.682 282.882 357.603 283.644 357.68 284.398C358.167 286.974 361.387 289.093 365.843 292.02C366.884 292.7 367.983 293.429 369.131 294.207C372.759 296.773 376.711 298.845 380.884 300.371C383.102 301.246 385.622 302.247 389.105 303.958C396.331 307.346 403.766 310.269 411.365 312.708C413.943 313.593 416.161 314.351 417.767 314.973C423.828 317.365 438.917 322.751 448.024 321.4C457.13 320.048 487.29 368.376 488.574 370.428L487.63 371.011Z" fill="black"/>
<path d="M388.061 267.253C399.759 255.563 399.759 236.61 388.061 224.92C376.363 213.23 357.396 213.23 345.697 224.92C333.999 236.61 333.999 255.563 345.697 267.253C357.396 278.943 376.363 278.943 388.061 267.253Z" fill="black"/>
<path d="M527.856 18.032L528.421 18.8195C513.555 29.397 484.893 42.0745 484.64 42.2009L484.514 42.2689H484.368C481.936 41.8509 479.211 41.1509 476.312 40.4121C462.799 36.9608 444.275 32.2359 428.699 48.9091C427.531 50.1632 425.4 52.0688 422.949 54.2757C415.847 60.6436 405.106 70.2683 404.182 75.9946C403.481 80.3209 404.581 85.5416 406.867 88.7013C407.668 89.9729 408.936 90.8803 410.398 91.229L410.253 92.2012C408.529 91.8205 407.028 90.7714 406.079 89.2846C403.656 85.9305 402.479 80.4084 403.218 75.8488C404.191 69.7823 414.66 60.4005 422.297 53.5562C424.739 51.3687 426.85 49.4827 427.988 48.2577C443.963 31.1567 462.799 35.9691 476.555 39.5079C479.367 40.2274 482.033 40.9079 484.339 41.3259C486.498 40.3051 513.584 28.1818 527.856 18.032Z" fill="black"/>
<path d="M565.284 67.3037L526.991 19.2187L462.76 55.0539L441.823 72.3883L463.743 108.651L518.215 79.4854L565.284 67.3037Z" fill="white"/>
<path d="M528.177 18.401C513.185 29.0952 484.397 41.7338 484.397 41.7338C470.64 39.3519 447.427 28.0549 428.3 48.5392C423.747 53.4002 404.95 67.9832 403.647 75.8775C402.576 82.469 405.651 90.9369 410.272 91.666" fill="white"/>
<path d="M433.106 63.0061C420.186 74.4586 415.593 86.7861 415.593 86.7861C407.479 94.3013 401.895 99.5025 397.313 103.158C378.682 118.033 365.275 132.81 361.247 149.347C357.297 165.622 367.853 172.68 381.182 154.101C400.64 126.88 418.522 119.258 418.522 119.258C418.522 119.258 421.83 134.142 444.313 131.468C444.313 131.468 463.927 149.697 500.216 117.381C525.696 94.6998 526.241 81.4099 526.241 81.4099C538.101 77.3461 567.103 66.613 567.103 66.613" fill="white"/>
<path d="M565.284 67.3027L526.991 19.2177L462.76 55.053L441.823 72.3873L463.743 108.65L518.215 79.4844L565.284 67.3027Z" fill="white"/>
<path d="M528.177 18.4C513.185 29.0942 484.397 41.7328 484.397 41.7328C470.64 39.3509 447.427 28.054 428.3 48.5382C423.747 53.3992 404.95 67.9822 403.647 75.8765C402.576 82.468 405.651 90.9359 410.272 91.665" fill="white"/>
<path d="M433.106 63.0051C420.186 74.4577 415.593 86.7852 415.593 86.7852C407.479 94.3003 401.895 99.5015 397.313 103.157C378.682 118.032 365.275 132.809 361.247 149.346C357.297 165.621 367.853 172.679 381.182 154.1C400.64 126.879 418.522 119.257 418.522 119.257C418.522 119.257 421.83 134.141 444.313 131.467C444.313 131.467 463.927 149.696 500.216 117.38C525.696 94.6989 526.241 81.4089 526.241 81.4089C538.101 77.3451 567.103 66.612 567.103 66.612" fill="white"/>
<path d="M432.785 62.6356L433.427 63.3648C420.779 74.6034 416.07 86.8337 416.022 86.9601V87.067L415.263 87.7767C407.616 94.8543 402.099 99.9779 397.634 103.536C376.415 120.472 365.343 134.647 361.744 149.463C359.954 156.803 361.111 162.607 364.662 164.24C367.815 165.689 373.71 163.706 380.803 153.818C400.154 126.811 418.162 118.887 418.347 118.819L418.882 118.586L419.008 119.159C419.145 119.752 422.501 133.587 444.304 131.001H444.528L444.693 131.156C444.887 131.331 464.433 148.656 499.944 117.059C524.908 94.8349 525.794 81.5741 525.803 81.438V81.1074L526.115 81.0005C537.789 76.995 566.704 66.3203 566.976 66.2133L567.317 67.1272C567.035 67.2341 538.646 77.7339 526.728 81.8171C526.465 84.0726 524.004 96.9154 500.566 117.789C466.165 148.423 446.259 133.723 444.138 132.022C424.204 134.306 419.125 122.737 418.201 119.986C415.195 121.454 398.947 130.174 381.562 154.431C375.248 163.239 368.768 167.254 364.234 165.125C360.226 163.288 358.854 157.046 360.761 149.23C364.419 134.18 375.588 119.859 396.992 102.778C401.428 99.239 406.935 94.1252 414.562 87.0573L415.156 86.5031C419.221 77.3586 425.238 69.2127 432.785 62.6356V62.6356Z" fill="black"/>
<path d="M565.284 67.3027L526.991 19.2177L462.76 55.053L441.823 72.3873L463.743 108.65L518.215 79.4844L565.284 67.3027Z" fill="white"/>
<mask id="path-49-inside-6_120_1683" fill="white">
<path d="M528.177 18.4C513.185 29.0942 484.397 41.7328 484.397 41.7328C470.64 39.3509 447.427 28.054 428.3 48.5382C423.747 53.3992 404.95 67.9822 403.647 75.8765C402.576 82.468 405.651 90.9359 410.272 91.665"/>
</mask>
<path d="M528.177 18.4C513.185 29.0942 484.397 41.7328 484.397 41.7328C470.64 39.3509 447.427 28.054 428.3 48.5382C423.747 53.3992 404.95 67.9822 403.647 75.8765C402.576 82.468 405.651 90.9359 410.272 91.665" fill="white"/>
<path d="M484.397 41.7328L483.905 44.5756L484.761 44.7239L485.557 44.3745L484.397 41.7328ZM428.3 48.5382L430.405 50.5105L430.408 50.5072L428.3 48.5382ZM403.647 75.8765L400.8 75.4064L400.799 75.4142L403.647 75.8765ZM526.502 16.0513C519.207 21.2548 508.44 27.0026 499.384 31.4918C494.878 33.7252 490.837 35.6273 487.922 36.9708C486.465 37.6424 485.291 38.1738 484.482 38.5368C484.078 38.7183 483.765 38.8576 483.554 38.9511C483.448 38.9979 483.369 39.0333 483.315 39.0568C483.289 39.0685 483.269 39.0773 483.256 39.083C483.249 39.0859 483.244 39.088 483.241 39.0894C483.24 39.09 483.239 39.0905 483.238 39.0908C483.238 39.091 483.238 39.091 483.237 39.0911C483.237 39.0912 483.237 39.0911 484.397 41.7328C485.557 44.3745 485.557 44.3744 485.557 44.3743C485.558 44.3741 485.558 44.3739 485.559 44.3737C485.56 44.3732 485.561 44.3725 485.563 44.3717C485.567 44.37 485.573 44.3675 485.58 44.3642C485.595 44.3577 485.617 44.3482 485.645 44.3357C485.702 44.3107 485.785 44.2738 485.894 44.2254C486.112 44.1286 486.433 43.986 486.845 43.801C487.669 43.431 488.861 42.8915 490.337 42.2111C493.289 40.8507 497.381 38.9247 501.946 36.6617C511.032 32.158 522.155 26.2395 529.853 20.7488L526.502 16.0513ZM484.889 38.8901C481.576 38.3164 477.783 37.2235 473.201 36.1076C468.737 35.0205 463.746 33.9759 458.525 33.6803C447.951 33.0814 436.46 35.5715 426.191 46.5692L430.408 50.5072C439.267 41.0207 448.946 38.9171 458.199 39.4412C462.892 39.707 467.48 40.653 471.835 41.7138C476.073 42.7458 480.34 43.9583 483.905 44.5756L484.889 38.8901ZM426.194 46.5659C425.164 47.666 423.255 49.385 420.783 51.6031C418.367 53.7716 415.511 56.3314 412.751 58.9937C410 61.6483 407.279 64.4671 405.144 67.1699C403.091 69.7698 401.254 72.6561 400.8 75.4064L406.493 76.3466C406.691 75.1497 407.693 73.2529 409.672 70.7463C411.571 68.3426 414.078 65.7316 416.758 63.1461C419.43 60.5683 422.208 58.0775 424.637 55.8977C427.011 53.7678 429.159 51.841 430.405 50.5105L426.194 46.5659ZM400.799 75.4142C400.173 79.269 400.756 83.5631 402.146 87.0404C403.453 90.3085 405.932 93.9011 409.822 94.5149L410.722 88.8152C409.991 88.6999 408.622 87.694 407.504 84.8979C406.469 82.3111 406.05 79.0755 406.494 76.3389L400.799 75.4142Z" fill="black" mask="url(#path-49-inside-6_120_1683)"/>
<mask id="path-51-inside-7_120_1683" fill="white">
<path d="M433.106 63.0051C420.186 74.4577 415.593 86.7852 415.593 86.7852C407.479 94.3003 401.895 99.5015 397.313 103.157C378.682 118.032 365.275 132.809 361.247 149.346C357.297 165.621 367.853 172.679 381.182 154.1C400.64 126.879 418.522 119.257 418.522 119.257C418.522 119.257 421.83 134.141 444.313 131.467C444.313 131.467 463.927 149.696 500.216 117.38C525.696 94.6989 526.241 81.4089 526.241 81.4089C538.101 77.3451 567.103 66.612 567.103 66.612"/>
</mask>
<path d="M433.106 63.0051C420.186 74.4577 415.593 86.7852 415.593 86.7852C407.479 94.3003 401.895 99.5015 397.313 103.157C378.682 118.032 365.275 132.809 361.247 149.346C357.297 165.621 367.853 172.679 381.182 154.1C400.64 126.879 418.522 119.257 418.522 119.257C418.522 119.257 421.83 134.141 444.313 131.467C444.313 131.467 463.927 149.696 500.216 117.38C525.696 94.6989 526.241 81.4089 526.241 81.4089C538.101 77.3451 567.103 66.612 567.103 66.612" fill="white"/>
<path d="M415.593 86.7852L417.554 88.9018L418.057 88.4355L418.297 87.7923L415.593 86.7852ZM397.313 103.157L395.513 100.902L395.513 100.902L397.313 103.157ZM361.247 149.346L358.444 148.664L358.444 148.666L361.247 149.346ZM381.182 154.1L383.526 155.782L383.529 155.778L381.182 154.1ZM418.522 119.257L421.338 118.631L420.585 115.241L417.391 116.603L418.522 119.257ZM444.313 131.467L446.277 129.354L445.299 128.445L443.973 128.603L444.313 131.467ZM500.216 117.38L498.298 115.225L498.297 115.226L500.216 117.38ZM526.241 81.4089L525.306 78.6796L523.439 79.3192L523.358 81.2907L526.241 81.4089ZM431.192 60.8461C424.476 66.7988 419.924 72.9795 417.044 77.6835C415.603 80.0373 414.577 82.0277 413.906 83.4447C413.57 84.1535 413.322 84.7196 413.156 85.117C413.072 85.3157 413.009 85.4723 412.965 85.5835C412.943 85.6392 412.926 85.6835 412.913 85.716C412.907 85.7323 412.902 85.7456 412.898 85.756C412.896 85.7612 412.895 85.7656 412.893 85.7693C412.892 85.7711 412.892 85.7728 412.891 85.7742C412.891 85.775 412.891 85.7759 412.891 85.7763C412.89 85.7772 412.89 85.7781 415.593 86.7852C418.297 87.7923 418.297 87.793 418.296 87.7938C418.296 87.7939 418.296 87.7946 418.296 87.795C418.296 87.7957 418.296 87.7962 418.295 87.7966C418.295 87.7972 418.295 87.7972 418.295 87.7964C418.296 87.7948 418.298 87.7903 418.301 87.7829C418.306 87.7681 418.316 87.7418 418.331 87.7043C418.361 87.6294 418.409 87.51 418.476 87.3492C418.611 87.0277 418.823 86.5413 419.12 85.9154C419.713 84.6631 420.643 82.8559 421.965 80.6962C424.611 76.3733 428.815 70.664 435.019 65.1641L431.192 60.8461ZM413.633 84.6685C405.478 92.2219 399.991 97.3299 395.513 100.902L399.112 105.412C403.799 101.673 409.481 96.3786 417.554 88.9018L413.633 84.6685ZM395.513 100.902C376.803 115.84 362.714 131.132 358.444 148.664L364.051 150.029C367.836 134.486 380.56 120.224 399.113 105.412L395.513 100.902ZM358.444 148.666C357.384 153.03 357.236 157.009 358.017 160.245C358.798 163.478 360.619 166.293 363.693 167.484C366.739 168.664 370.149 167.91 373.383 165.952C376.634 163.983 380.062 160.612 383.526 155.782L378.838 152.419C375.638 156.879 372.748 159.591 370.394 161.016C368.024 162.451 366.543 162.4 365.777 162.103C365.04 161.818 364.13 160.977 363.626 158.89C363.122 156.806 363.135 153.8 364.051 150.027L358.444 148.666ZM383.529 155.778C393.086 142.407 402.22 133.9 408.907 128.757C412.252 126.185 414.988 124.452 416.863 123.373C417.8 122.834 418.523 122.458 418.998 122.222C419.236 122.103 419.412 122.02 419.523 121.97C419.578 121.944 419.617 121.927 419.639 121.917C419.65 121.912 419.656 121.909 419.659 121.908C419.66 121.908 419.66 121.908 419.659 121.908C419.659 121.908 419.658 121.909 419.657 121.909C419.656 121.909 419.656 121.91 419.655 121.91C419.654 121.91 419.653 121.911 418.522 119.257C417.391 116.603 417.389 116.603 417.388 116.604C417.388 116.604 417.386 116.604 417.385 116.605C417.383 116.606 417.381 116.607 417.378 116.608C417.373 116.61 417.366 116.613 417.359 116.616C417.344 116.623 417.325 116.631 417.301 116.642C417.254 116.662 417.19 116.691 417.11 116.728C416.949 116.802 416.722 116.91 416.433 117.053C415.854 117.34 415.028 117.772 413.985 118.372C411.898 119.573 408.948 121.447 405.39 124.183C398.271 129.657 388.736 138.572 378.835 152.423L383.529 155.778ZM418.522 119.257C415.706 119.883 415.706 119.885 415.706 119.887C415.707 119.888 415.707 119.89 415.707 119.891C415.708 119.895 415.709 119.898 415.71 119.902C415.711 119.909 415.713 119.917 415.716 119.926C415.72 119.945 415.725 119.966 415.731 119.992C415.744 120.043 415.761 120.108 415.782 120.186C415.825 120.343 415.887 120.552 415.972 120.806C416.141 121.313 416.405 122.003 416.798 122.807C417.582 124.413 418.894 126.497 421.02 128.476C425.369 132.525 432.701 135.754 444.654 134.332L443.973 128.603C433.442 129.855 427.879 126.978 424.952 124.253C423.441 122.846 422.52 121.376 421.982 120.274C421.714 119.724 421.543 119.272 421.444 118.976C421.395 118.828 421.363 118.72 421.347 118.66C421.339 118.63 421.334 118.612 421.333 118.607C421.332 118.604 421.332 118.605 421.333 118.609C421.334 118.611 421.334 118.613 421.335 118.617C421.336 118.619 421.336 118.621 421.337 118.623C421.337 118.624 421.337 118.626 421.337 118.627C421.338 118.629 421.338 118.631 418.522 119.257ZM444.313 131.467C442.349 133.581 442.351 133.583 442.353 133.584C442.354 133.585 442.356 133.587 442.358 133.589C442.361 133.591 442.364 133.595 442.368 133.598C442.375 133.605 442.384 133.613 442.394 133.622C442.414 133.64 442.439 133.662 442.469 133.688C442.529 133.741 442.609 133.809 442.708 133.891C442.908 134.055 443.187 134.275 443.546 134.532C444.263 135.047 445.301 135.714 446.654 136.391C449.364 137.747 453.333 139.14 458.498 139.423C468.899 139.994 483.591 136.049 502.135 119.535L498.297 115.226C480.552 131.028 467.293 134.127 458.814 133.662C454.54 133.427 451.338 132.282 449.236 131.231C448.183 130.704 447.405 130.199 446.908 129.843C446.66 129.665 446.482 129.524 446.377 129.437C446.324 129.394 446.289 129.364 446.273 129.349C446.264 129.342 446.261 129.339 446.261 129.339C446.262 129.34 446.263 129.341 446.266 129.344C446.267 129.345 446.269 129.346 446.271 129.348C446.272 129.349 446.273 129.35 446.274 129.351C446.276 129.353 446.277 129.354 444.313 131.467ZM502.134 119.535C515.072 108.018 521.811 98.7691 525.323 92.2586C527.079 89.0023 528.026 86.4351 528.536 84.6195C528.79 83.7123 528.935 82.9952 529.017 82.4762C529.058 82.2168 529.084 82.0073 529.1 81.8486C529.108 81.7693 529.113 81.7028 529.117 81.6491C529.119 81.6223 529.12 81.5987 529.121 81.5784C529.122 81.5682 529.122 81.5588 529.123 81.5503C529.123 81.546 529.123 81.5419 529.123 81.538C529.123 81.5361 529.123 81.5334 529.124 81.5324C529.124 81.5297 529.124 81.5271 526.241 81.4089C523.358 81.2907 523.359 81.2882 523.359 81.2857C523.359 81.2849 523.359 81.2825 523.359 81.2809C523.359 81.2779 523.359 81.275 523.359 81.2724C523.359 81.267 523.36 81.2625 523.36 81.2588C523.36 81.2514 523.361 81.2472 523.361 81.2463C523.361 81.2443 523.36 81.2551 523.358 81.2787C523.353 81.3258 523.342 81.424 523.318 81.5723C523.271 81.8687 523.175 82.367 522.98 83.0601C522.591 84.4453 521.809 86.6181 520.244 89.5195C517.113 95.3243 510.84 104.061 498.298 115.225L502.134 119.535ZM527.176 84.1382C533.138 82.0953 543.381 78.386 552.11 75.1963C556.479 73.5996 560.477 72.1301 563.383 71.0598C564.836 70.5246 566.016 70.0892 566.833 69.7876C567.241 69.6367 567.559 69.5193 567.775 69.4396C567.882 69.3997 567.965 69.3693 568.02 69.3488C568.048 69.3386 568.069 69.3308 568.083 69.3256C568.09 69.323 568.095 69.3211 568.099 69.3197C568.101 69.3191 568.102 69.3186 568.103 69.3183C568.103 69.3181 568.104 69.318 568.104 69.3179C568.104 69.3178 568.104 69.3177 567.103 66.612C566.101 63.9063 566.101 63.9063 566.101 63.9064C566.101 63.9065 566.101 63.9066 566.1 63.9068C566.099 63.9071 566.098 63.9076 566.096 63.9082C566.093 63.9095 566.088 63.9114 566.081 63.914C566.067 63.9191 566.046 63.9269 566.018 63.937C565.963 63.9574 565.881 63.9877 565.774 64.0275C565.559 64.107 565.242 64.2241 564.834 64.3747C564.018 64.6759 562.84 65.1107 561.389 65.6453C558.486 66.7144 554.493 68.1822 550.129 69.7767C541.392 72.9695 531.204 76.6587 525.306 78.6796L527.176 84.1382Z" fill="black" mask="url(#path-51-inside-7_120_1683)"/>
<path d="M432.785 62.6356L433.427 63.3648C420.779 74.6034 416.07 86.8337 416.022 86.9601V87.067L415.263 87.7767C407.616 94.8543 402.099 99.9779 397.634 103.536C376.415 120.472 365.343 134.647 361.744 149.463C359.954 156.803 361.111 162.607 364.662 164.24C367.815 165.689 373.71 163.706 380.803 153.818C400.154 126.811 418.162 118.887 418.347 118.819L418.882 118.586L419.008 119.159C419.145 119.752 422.501 133.587 444.304 131.001H444.528L444.693 131.156C444.887 131.331 464.433 148.656 499.944 117.059C524.908 94.8349 525.794 81.5741 525.803 81.438V81.1074L526.115 81.0005C537.789 76.995 566.704 66.3203 566.976 66.2133L567.317 67.1272C567.035 67.2341 538.646 77.7339 526.728 81.8171C526.465 84.0726 524.004 96.9154 500.566 117.789C466.165 148.423 446.259 133.723 444.138 132.022C424.204 134.306 419.125 122.737 418.201 119.986C415.195 121.454 398.947 130.174 381.562 154.431C375.248 163.239 368.768 167.254 364.234 165.125C360.226 163.288 358.854 157.046 360.761 149.23C364.419 134.18 375.588 119.859 396.992 102.778C401.428 99.239 406.935 94.1252 414.562 87.0573L415.156 86.5031C419.221 77.3586 425.238 69.2127 432.785 62.6356V62.6356Z" fill="black"/>
<path d="M47.8598 108.002L48.2596 107.12C64.853 114.705 90.1628 133.188 90.3987 133.344L90.5209 133.419L90.5939 133.546C91.448 135.861 92.2039 138.57 93.0136 141.451C96.7815 154.879 101.952 173.284 124.179 178.437C125.849 178.821 128.564 179.713 131.702 180.733C140.767 183.699 154.473 188.189 159.894 186.126C163.991 184.57 167.963 181.007 169.556 177.447C170.257 176.118 170.409 174.566 169.979 173.125L170.894 172.765C171.426 174.448 171.268 176.273 170.455 177.838C168.762 181.613 164.568 185.394 160.25 187.033C154.509 189.224 141.15 184.849 131.404 181.657C128.289 180.636 125.6 179.751 123.97 179.377C101.173 174.093 95.9227 155.375 92.109 141.692C91.3262 138.897 90.5827 136.248 89.7918 134.043C87.8279 132.682 63.786 115.287 47.8598 108.002Z" fill="black"/>
<path d="M71.8161 50.9531L49.3199 108.159L112.47 145.866L137.95 155.331L158.395 118.217L105.9 85.6251L71.8161 50.9531Z" fill="white"/>
<path d="M48.0189 107.539C64.7765 115.175 90.1159 133.787 90.1159 133.787C94.9315 146.892 96.7547 172.644 124.058 178.966C130.545 180.479 152.572 189.466 160.06 186.647C166.304 184.279 172.1 177.382 170.421 173.015" fill="white"/>
<path d="M134.184 167.571C150.562 173.034 163.534 170.847 163.534 170.847C174.099 174.117 181.396 176.352 186.853 178.493C209.05 187.19 228.551 191.412 244.886 186.632C260.956 181.915 261.79 169.244 239.036 166.991C205.733 163.75 190.191 152.075 190.191 152.075C190.191 152.075 201.427 141.768 187.87 123.634C187.87 123.634 193.85 97.5336 147.719 82.2643C115.336 71.5385 103.554 77.7116 103.554 77.7116C94.1049 69.4728 70.3087 49.7228 70.3087 49.7228" fill="white"/>
<path d="M71.8159 50.9531L49.3197 108.159L112.469 145.866L137.95 155.331L158.395 118.217L105.9 85.6251L71.8159 50.9531Z" fill="white"/>
<path d="M48.0186 107.539C64.7763 115.175 90.1157 133.787 90.1157 133.787C94.9313 146.892 96.7545 172.644 124.058 178.966C130.544 180.479 152.572 189.466 160.06 186.647C166.304 184.279 172.1 177.382 170.421 173.015" fill="white"/>
<path d="M134.183 167.571C150.562 173.034 163.534 170.847 163.534 170.847C174.099 174.117 181.396 176.352 186.852 178.493C209.05 187.19 228.551 191.412 244.886 186.632C260.955 181.915 261.79 169.244 239.036 166.991C205.732 163.75 190.191 152.075 190.191 152.075C190.191 152.075 201.427 141.768 187.87 123.634C187.87 123.634 193.849 97.5336 147.718 82.2643C115.336 71.5385 103.554 77.7116 103.554 77.7116C94.1046 69.4728 70.3085 49.7228 70.3085 49.7228" fill="white"/>
<path d="M134.024 168.034L134.334 167.114C150.391 172.448 163.337 170.41 163.471 170.389L163.563 170.336L164.557 170.638C174.51 173.722 181.705 175.937 187.02 178.026C212.296 187.934 230.107 190.435 244.739 186.144C251.99 184.024 256.438 180.12 256.077 176.228C255.755 172.773 251.09 168.659 238.981 167.461C205.916 164.206 190.05 152.572 189.899 152.446L189.429 152.099L189.863 151.703C190.308 151.288 200.611 141.464 187.47 123.876L187.358 123.682L187.41 123.461C187.464 123.205 192.695 97.6159 147.576 82.6609C115.847 72.1532 103.92 78.0168 103.797 78.0765L103.511 78.2417L103.263 78.0256C93.9567 69.9177 70.2548 50.2144 70.026 50.032L70.6472 49.2802C70.8809 49.471 94.1685 68.8069 103.664 77.0865C105.748 76.1863 118.101 71.8965 147.896 81.7571C191.627 96.2328 188.85 120.821 188.437 123.509C200.383 139.63 192.903 149.813 190.982 151.989C193.757 153.859 209.432 163.569 239.132 166.497C249.917 167.561 256.634 171.165 257.057 176.156C257.47 180.546 252.751 184.855 245.028 187.112C230.165 191.468 212.179 188.956 186.684 178.961C181.401 176.888 174.219 174.676 164.284 171.605L163.508 171.368C153.556 172.419 143.493 171.281 134.024 168.034V168.034Z" fill="black"/>
<path d="M71.8159 50.9531L49.3197 108.159L112.469 145.866L137.95 155.331L158.395 118.217L105.9 85.6251L71.8159 50.9531Z" fill="white"/>
<mask id="path-63-inside-8_120_1683" fill="white">
<path d="M48.0186 107.539C64.7763 115.175 90.1157 133.787 90.1157 133.787C94.9313 146.892 96.7545 172.644 124.058 178.966C130.544 180.479 152.572 189.466 160.06 186.647C166.304 184.279 172.1 177.382 170.421 173.015"/>
</mask>
<path d="M48.0186 107.539C64.7763 115.175 90.1157 133.787 90.1157 133.787C94.9313 146.892 96.7545 172.644 124.058 178.966C130.544 180.479 152.572 189.466 160.06 186.647C166.304 184.279 172.1 177.382 170.421 173.015" fill="white"/>
<path d="M90.1157 133.787L92.8237 132.792L92.5239 131.976L91.8236 131.462L90.1157 133.787ZM124.058 178.966L124.713 176.157L124.709 176.156L124.058 178.966ZM160.06 186.647L161.076 189.348L161.084 189.345L160.06 186.647ZM46.8223 110.164C54.9761 113.88 65.3373 120.33 73.7533 125.929C77.9403 128.714 81.6084 131.263 84.2293 133.116C85.5394 134.042 86.5868 134.793 87.3054 135.312C87.6647 135.571 87.9417 135.772 88.1282 135.908C88.2215 135.976 88.2921 136.028 88.339 136.062C88.3625 136.079 88.38 136.092 88.3915 136.101C88.3973 136.105 88.4015 136.108 88.4042 136.11C88.4056 136.111 88.4066 136.112 88.4072 136.112C88.4074 136.112 88.4076 136.112 88.4077 136.113C88.4078 136.113 88.4078 136.113 90.1157 133.787C91.8236 131.462 91.8233 131.462 91.823 131.462C91.8228 131.461 91.8223 131.461 91.8219 131.461C91.8209 131.46 91.8196 131.459 91.8178 131.458C91.8144 131.455 91.8094 131.452 91.8029 131.447C91.7899 131.437 91.7709 131.423 91.7459 131.405C91.6959 131.369 91.6222 131.315 91.5258 131.244C91.3329 131.104 91.0492 130.898 90.6829 130.633C89.9503 130.105 88.8871 129.342 87.5598 128.404C84.9059 126.528 81.1918 123.947 76.9492 121.125C68.5061 115.508 57.8188 108.834 49.215 104.913L46.8223 110.164ZM87.4076 134.782C88.5675 137.939 89.5177 141.77 90.8422 146.296C92.1326 150.705 93.7233 155.55 96.0778 160.219C100.846 169.676 108.748 178.383 123.407 181.777L124.709 176.156C112.064 173.228 105.403 165.897 101.23 157.621C99.1137 153.424 97.6392 148.978 96.3801 144.676C95.1552 140.49 94.0717 136.188 92.8237 132.792L87.4076 134.782ZM123.403 181.776C124.871 182.118 127.313 182.912 130.47 183.943C133.557 184.952 137.202 186.145 140.887 187.204C144.562 188.259 148.363 189.206 151.771 189.704C155.05 190.182 158.467 190.329 161.076 189.348L159.044 183.947C157.909 184.375 155.765 184.455 152.604 183.994C149.573 183.552 146.059 182.686 142.48 181.658C138.911 180.633 135.365 179.472 132.263 178.459C129.231 177.468 126.489 176.571 124.713 176.157L123.403 181.776ZM161.084 189.345C164.735 187.959 168.162 185.308 170.479 182.365C172.655 179.599 174.527 175.656 173.114 171.98L167.728 174.051C167.994 174.742 167.807 176.43 165.944 178.796C164.221 180.985 161.629 182.966 159.037 183.95L161.084 189.345Z" fill="black" mask="url(#path-63-inside-8_120_1683)"/>
<mask id="path-65-inside-9_120_1683" fill="white">
<path d="M134.183 167.571C150.562 173.034 163.534 170.847 163.534 170.847C174.099 174.117 181.396 176.352 186.852 178.493C209.05 187.19 228.551 191.412 244.886 186.632C260.955 181.915 261.79 169.244 239.036 166.991C205.732 163.75 190.191 152.075 190.191 152.075C190.191 152.075 201.427 141.768 187.87 123.634C187.87 123.634 193.849 97.5336 147.718 82.2643C115.336 71.5385 103.554 77.7116 103.554 77.7116C94.1046 69.4728 70.3085 49.7228 70.3085 49.7228"/>
</mask>
<path d="M134.183 167.571C150.562 173.034 163.534 170.847 163.534 170.847C174.099 174.117 181.396 176.352 186.852 178.493C209.05 187.19 228.551 191.412 244.886 186.632C260.955 181.915 261.79 169.244 239.036 166.991C205.732 163.75 190.191 152.075 190.191 152.075C190.191 152.075 201.427 141.768 187.87 123.634C187.87 123.634 193.849 97.5336 147.718 82.2643C115.336 71.5385 103.554 77.7116 103.554 77.7116C94.1046 69.4728 70.3085 49.7228 70.3085 49.7228" fill="white"/>
<path d="M163.534 170.847L164.386 168.091L163.731 167.888L163.054 168.002L163.534 170.847ZM186.852 178.493L185.799 181.179L185.8 181.179L186.852 178.493ZM244.886 186.632L245.696 189.401L245.699 189.4L244.886 186.632ZM239.036 166.991L239.32 164.12L239.315 164.119L239.036 166.991ZM190.191 152.075L188.24 149.949L185.681 152.296L188.458 154.382L190.191 152.075ZM187.87 123.634L185.057 122.99L184.759 124.291L185.559 125.361L187.87 123.634ZM147.718 82.2643L146.811 85.003L146.812 85.0032L147.718 82.2643ZM103.554 77.7116L101.658 79.8862L103.145 81.1829L104.893 80.2672L103.554 77.7116ZM133.271 170.308C141.783 173.147 149.412 174 154.926 174.142C157.685 174.213 159.922 174.106 161.485 173.979C162.266 173.916 162.88 173.847 163.308 173.793C163.522 173.765 163.689 173.742 163.807 173.724C163.866 173.715 163.913 173.708 163.948 173.703C163.965 173.7 163.979 173.698 163.99 173.696C163.995 173.695 164 173.694 164.004 173.694C164.006 173.693 164.008 173.693 164.009 173.693C164.01 173.693 164.011 173.692 164.011 173.692C164.012 173.692 164.013 173.692 163.534 170.847C163.054 168.002 163.055 168.002 163.056 168.002C163.056 168.002 163.056 168.002 163.057 168.002C163.058 168.002 163.058 168.002 163.059 168.001C163.059 168.001 163.059 168.001 163.058 168.002C163.057 168.002 163.052 168.003 163.044 168.004C163.028 168.006 163.001 168.011 162.961 168.017C162.881 168.028 162.754 168.046 162.581 168.068C162.235 168.112 161.707 168.172 161.017 168.228C159.636 168.34 157.606 168.439 155.075 168.374C150.008 168.243 142.962 167.458 135.096 164.834L133.271 170.308ZM162.681 173.603C173.3 176.889 180.467 179.087 185.799 181.179L187.906 175.807C182.324 173.617 174.898 171.344 164.386 168.091L162.681 173.603ZM185.8 181.179C208.091 189.913 228.379 194.468 245.696 189.401L244.076 183.863C228.722 188.356 210.009 184.468 187.905 175.807L185.8 181.179ZM245.699 189.4C250.008 188.135 253.528 186.275 255.94 183.98C258.349 181.687 259.876 178.703 259.371 175.445C258.87 172.217 256.512 169.641 253.199 167.819C249.869 165.988 245.235 164.706 239.32 164.12L238.752 169.862C244.214 170.403 248.008 171.55 250.419 172.875C252.847 174.21 253.543 175.519 253.669 176.33C253.79 177.111 253.518 178.32 251.962 179.8C250.409 181.278 247.799 182.77 244.074 183.863L245.699 189.4ZM239.315 164.119C222.957 162.528 211.022 158.871 203.226 155.651C199.326 154.041 196.457 152.538 194.585 151.454C193.649 150.912 192.962 150.474 192.52 150.18C192.299 150.033 192.139 149.922 192.04 149.852C191.99 149.817 191.956 149.792 191.936 149.778C191.927 149.771 191.921 149.767 191.918 149.765C191.917 149.764 191.917 149.764 191.918 149.765C191.918 149.765 191.919 149.765 191.92 149.766C191.92 149.766 191.921 149.767 191.921 149.767C191.922 149.768 191.923 149.769 190.191 152.075C188.458 154.382 188.459 154.383 188.46 154.384C188.46 154.384 188.462 154.385 188.462 154.386C188.464 154.387 188.466 154.389 188.469 154.39C188.473 154.394 188.479 154.398 188.485 154.403C188.498 154.412 188.515 154.425 188.536 154.44C188.577 154.47 188.634 154.511 188.707 154.562C188.851 154.665 189.058 154.808 189.327 154.986C189.865 155.344 190.652 155.844 191.693 156.447C193.776 157.653 196.875 159.271 201.023 160.985C209.323 164.412 221.811 168.214 238.757 169.862L239.315 164.119ZM190.191 152.075C192.141 154.201 192.142 154.2 192.144 154.198C192.145 154.198 192.146 154.196 192.147 154.195C192.15 154.193 192.152 154.191 192.155 154.188C192.161 154.183 192.167 154.177 192.174 154.171C192.187 154.158 192.204 154.143 192.223 154.124C192.26 154.088 192.308 154.041 192.365 153.983C192.479 153.868 192.63 153.71 192.807 153.509C193.162 153.108 193.628 152.535 194.127 151.793C195.126 150.311 196.274 148.133 196.926 145.302C198.258 139.512 197.388 131.548 190.18 121.906L185.559 125.361C191.909 133.855 192.199 140.112 191.302 144.008C190.839 146.021 190.026 147.553 189.341 148.57C188.999 149.078 188.693 149.451 188.486 149.685C188.383 149.802 188.305 149.883 188.261 149.927C188.239 149.949 188.226 149.962 188.222 149.966C188.22 149.968 188.221 149.967 188.224 149.965C188.225 149.963 188.227 149.961 188.23 149.959C188.231 149.957 188.233 149.956 188.235 149.954C188.236 149.954 188.237 149.952 188.237 149.952C188.239 149.951 188.24 149.949 190.191 152.075ZM187.87 123.634C190.682 124.278 190.682 124.276 190.683 124.273C190.683 124.272 190.684 124.269 190.684 124.267C190.685 124.263 190.686 124.258 190.687 124.253C190.69 124.243 190.692 124.232 190.695 124.219C190.701 124.193 190.707 124.16 190.715 124.121C190.731 124.043 190.75 123.939 190.771 123.812C190.814 123.557 190.864 123.205 190.908 122.766C190.994 121.888 191.053 120.655 190.963 119.145C190.783 116.12 190.004 111.986 187.667 107.371C182.961 98.079 172.198 87.3281 148.625 79.5253L146.812 85.0032C169.369 92.4697 178.683 102.404 182.519 109.979C184.454 113.798 185.063 117.143 185.203 119.489C185.273 120.664 185.225 121.59 185.165 122.199C185.135 122.503 185.102 122.727 185.08 122.862C185.069 122.929 185.06 122.974 185.056 122.996C185.054 123.007 185.052 123.012 185.053 123.011C185.053 123.01 185.053 123.008 185.054 123.005C185.054 123.003 185.055 123.001 185.055 122.998C185.056 122.997 185.056 122.995 185.056 122.994C185.057 122.992 185.057 122.99 187.87 123.634ZM148.626 79.5255C132.183 74.0793 120.803 72.8678 113.409 73.0819C109.711 73.189 107.014 73.6528 105.187 74.1193C104.274 74.3523 103.581 74.5855 103.09 74.7737C102.845 74.8677 102.651 74.9504 102.505 75.0161C102.433 75.049 102.372 75.0775 102.324 75.1011C102.3 75.1129 102.279 75.1234 102.26 75.1326C102.251 75.1372 102.243 75.1415 102.235 75.1454C102.232 75.1474 102.228 75.1492 102.225 75.151C102.223 75.1519 102.22 75.1532 102.22 75.1536C102.217 75.1549 102.215 75.1561 103.554 77.7116C104.893 80.2672 104.891 80.2684 104.888 80.2695C104.888 80.2699 104.885 80.271 104.884 80.2717C104.881 80.2731 104.879 80.2744 104.876 80.2756C104.872 80.2781 104.868 80.2801 104.864 80.2818C104.858 80.2852 104.854 80.287 104.853 80.2874C104.851 80.2883 104.861 80.2835 104.883 80.2737C104.926 80.2542 105.016 80.2148 105.157 80.161C105.437 80.0535 105.917 79.8882 106.614 79.7101C108.008 79.3542 110.281 78.9451 113.576 78.8497C120.169 78.6587 130.872 79.7235 146.811 85.003L148.626 79.5255ZM105.45 75.5371C100.7 71.3953 92.366 64.3796 85.2394 58.4152C81.6719 55.4295 78.4001 52.7017 76.0203 50.7203C74.8303 49.7295 73.8632 48.9253 73.1935 48.3687C72.8587 48.0904 72.5982 47.874 72.4213 47.7272C72.3329 47.6537 72.2654 47.5977 72.22 47.56C72.1972 47.5411 72.18 47.5268 72.1685 47.5172C72.1627 47.5125 72.1584 47.5088 72.1555 47.5064C72.154 47.5052 72.1529 47.5043 72.1522 47.5037C72.1518 47.5034 72.1515 47.5032 72.1513 47.503C72.1512 47.5028 72.151 47.5028 70.3085 49.7228C68.4659 51.9428 68.466 51.9429 68.4662 51.9431C68.4663 51.9432 68.4666 51.9434 68.467 51.9437C68.4677 51.9443 68.4687 51.9452 68.4702 51.9464C68.473 51.9487 68.4773 51.9523 68.483 51.957C68.4944 51.9665 68.5115 51.9807 68.5341 51.9995C68.5793 52.037 68.6466 52.0928 68.7348 52.1661C68.9111 52.3125 69.1711 52.5285 69.5053 52.8063C70.1739 53.362 71.1397 54.1651 72.3283 55.1547C74.7055 57.1339 77.9733 59.8585 81.5361 62.8401C88.6698 68.8105 96.9588 75.7891 101.658 79.8862L105.45 75.5371Z" fill="black" mask="url(#path-65-inside-9_120_1683)"/>
<path d="M134.024 168.034L134.334 167.114C150.391 172.448 163.337 170.41 163.471 170.389L163.563 170.336L164.557 170.638C174.51 173.722 181.705 175.937 187.02 178.026C212.296 187.934 230.107 190.435 244.739 186.144C251.99 184.024 256.438 180.12 256.077 176.228C255.755 172.773 251.09 168.659 238.981 167.461C205.916 164.206 190.05 152.572 189.899 152.446L189.429 152.099L189.863 151.703C190.308 151.288 200.611 141.464 187.47 123.876L187.358 123.682L187.41 123.461C187.464 123.205 192.695 97.6159 147.576 82.6609C115.847 72.1532 103.92 78.0168 103.797 78.0765L103.511 78.2417L103.263 78.0256C93.9567 69.9177 70.2548 50.2144 70.026 50.032L70.6472 49.2802C70.8809 49.471 94.1685 68.8069 103.664 77.0865C105.748 76.1863 118.101 71.8965 147.896 81.7571C191.627 96.2328 188.85 120.821 188.437 123.509C200.383 139.63 192.903 149.813 190.982 151.989C193.757 153.859 209.432 163.569 239.132 166.497C249.917 167.561 256.634 171.165 257.057 176.156C257.47 180.546 252.751 184.855 245.028 187.112C230.165 191.468 212.179 188.956 186.684 178.961C181.401 176.888 174.219 174.676 164.284 171.605L163.508 171.368C153.556 172.419 143.493 171.281 134.024 168.034V168.034Z" fill="black"/>
</g>
<path d="M450.587 464.385L449.799 464.949C439.222 450.083 426.544 421.422 426.418 421.169L426.35 421.042V420.896C426.768 418.464 427.468 415.74 428.207 412.841C431.658 399.327 436.383 380.803 419.71 365.227C418.455 364.06 416.55 361.929 414.343 359.477C407.975 352.375 398.35 341.634 392.624 340.71C388.298 340.01 383.077 341.109 379.917 343.395C378.646 344.197 377.738 345.464 377.39 346.927L376.417 346.781C376.798 345.058 377.847 343.556 379.334 342.607C382.688 340.185 388.21 339.008 392.77 339.747C398.836 340.72 408.218 351.188 415.062 358.826C417.25 361.268 419.136 363.379 420.361 364.517C437.462 380.492 432.65 399.327 429.111 413.084C428.391 415.896 427.711 418.561 427.293 420.867C428.314 423.027 440.437 450.113 450.587 464.385Z" fill="black"/>
<path d="M401.315 501.812L449.4 463.519L413.565 399.289L396.231 378.352L359.968 400.271L389.134 454.744L401.315 501.812Z" fill="white"/>
<path d="M450.217 464.705C439.523 449.713 426.885 420.925 426.885 420.925C429.266 407.168 440.563 383.955 420.079 364.827C415.218 360.274 400.635 341.478 392.741 340.174C386.149 339.104 377.682 342.178 376.952 346.8" fill="white"/>
<path d="M405.613 369.634C394.16 356.714 381.833 352.122 381.833 352.122C374.317 344.008 369.116 338.423 365.461 333.841C350.586 315.21 335.809 301.803 319.271 297.775C302.997 293.825 295.939 304.381 314.517 317.71C341.739 337.168 349.361 355.05 349.361 355.05C349.361 355.05 334.477 358.358 337.15 380.841C337.15 380.841 318.921 400.455 351.237 436.744C373.919 462.224 387.209 462.769 387.209 462.769C391.273 474.629 402.006 503.631 402.006 503.631" fill="white"/>
<path d="M401.315 501.812L449.4 463.519L413.565 399.289L396.231 378.352L359.968 400.271L389.134 454.744L401.315 501.812Z" fill="white"/>
<path d="M450.217 464.705C439.523 449.713 426.885 420.925 426.885 420.925C429.266 407.168 440.563 383.955 420.079 364.827C415.218 360.274 400.635 341.478 392.741 340.174C386.149 339.104 377.682 342.178 376.952 346.8" fill="white"/>
<path d="M405.613 369.634C394.16 356.714 381.833 352.122 381.833 352.122C374.317 344.008 369.116 338.423 365.461 333.841C350.586 315.21 335.809 301.803 319.271 297.775C302.997 293.825 295.939 304.381 314.517 317.71C341.739 337.168 349.361 355.05 349.361 355.05C349.361 355.05 334.477 358.358 337.15 380.841C337.15 380.841 318.921 400.455 351.237 436.744C373.919 462.224 387.209 462.769 387.209 462.769C391.273 474.629 402.006 503.631 402.006 503.631" fill="white"/>
<path d="M405.983 369.313L405.253 369.956C394.015 357.308 381.784 352.599 381.658 352.55H381.551L380.841 351.791C373.764 344.145 368.64 338.628 365.082 334.163C348.146 312.944 333.972 301.872 319.155 298.273C311.815 296.482 306.011 297.64 304.378 301.191C302.929 304.343 304.913 310.239 314.8 317.332C341.808 336.682 349.731 354.691 349.799 354.876L350.032 355.411L349.459 355.537C348.866 355.673 335.031 359.03 337.617 380.833V381.056L337.462 381.222C337.287 381.416 319.962 400.962 351.559 436.473C373.783 461.437 387.044 462.323 387.18 462.332H387.511L387.618 462.644C391.623 474.318 402.298 503.233 402.405 503.505L401.491 503.846C401.384 503.564 390.884 475.174 386.801 463.256C384.546 462.994 371.703 460.532 350.83 437.095C320.196 402.694 334.895 382.788 336.597 380.667C334.312 360.732 345.881 355.654 348.632 354.73C347.164 351.723 338.444 335.476 314.187 318.09C305.379 311.776 301.364 305.297 303.493 300.763C305.331 296.755 311.572 295.383 319.389 297.29C334.438 300.948 348.759 312.117 365.84 333.521C369.379 337.957 374.493 343.464 381.561 351.091L382.115 351.684C391.26 355.75 399.405 361.767 405.983 369.313V369.313Z" fill="black"/>
<path d="M401.315 501.812L449.4 463.519L413.565 399.289L396.231 378.352L359.968 400.271L389.134 454.744L401.315 501.812Z" fill="white"/>
<mask id="path-77-inside-10_120_1683" fill="white">
<path d="M450.217 464.705C439.523 449.713 426.885 420.925 426.885 420.925C429.266 407.168 440.563 383.955 420.079 364.827C415.218 360.274 400.635 341.478 392.741 340.174C386.149 339.104 377.682 342.178 376.952 346.8"/>
</mask>
<path d="M450.217 464.705C439.523 449.713 426.885 420.925 426.885 420.925C429.266 407.168 440.563 383.955 420.079 364.827C415.218 360.274 400.635 341.478 392.741 340.174C386.149 339.104 377.682 342.178 376.952 346.8" fill="white"/>
<path d="M426.885 420.925L424.042 420.432L423.894 421.289L424.243 422.084L426.885 420.925ZM420.079 364.827L418.107 366.933L418.11 366.936L420.079 364.827ZM392.741 340.174L393.211 337.328L393.203 337.326L392.741 340.174ZM452.566 463.03C447.363 455.735 441.615 444.968 437.126 435.911C434.892 431.406 432.99 427.364 431.647 424.449C430.975 422.992 430.444 421.818 430.081 421.01C429.899 420.605 429.76 420.292 429.666 420.082C429.619 419.976 429.584 419.896 429.561 419.843C429.549 419.816 429.54 419.796 429.534 419.783C429.532 419.777 429.529 419.772 429.528 419.769C429.527 419.767 429.527 419.766 429.527 419.766C429.526 419.765 429.526 419.765 429.526 419.765C429.526 419.765 429.526 419.765 426.885 420.925C424.243 422.084 424.243 422.085 424.243 422.085C424.243 422.085 424.244 422.086 424.244 422.086C424.244 422.087 424.245 422.089 424.246 422.091C424.247 422.095 424.25 422.1 424.253 422.108C424.26 422.123 424.269 422.144 424.282 422.173C424.307 422.229 424.344 422.313 424.392 422.422C424.489 422.64 424.631 422.96 424.816 423.372C425.186 424.197 425.726 425.389 426.406 426.865C427.767 429.816 429.693 433.909 431.956 438.474C436.459 447.56 442.378 458.683 447.869 466.38L452.566 463.03ZM429.727 421.417C430.301 418.104 431.394 414.31 432.51 409.728C433.597 405.265 434.641 400.274 434.937 395.053C435.536 384.479 433.046 372.988 422.048 362.719L418.11 366.936C427.597 375.794 429.7 385.474 429.176 394.727C428.91 399.42 427.964 404.007 426.904 408.363C425.872 412.6 424.659 416.867 424.042 420.432L429.727 421.417ZM422.051 362.722C420.951 361.691 419.232 359.783 417.014 357.311C414.846 354.894 412.286 352.038 409.624 349.279C406.969 346.528 404.15 343.807 401.448 341.672C398.848 339.618 395.961 337.782 393.211 337.328L392.271 343.021C393.468 343.218 395.365 344.22 397.871 346.2C400.275 348.099 402.886 350.606 405.471 353.285C408.049 355.957 410.54 358.735 412.72 361.165C414.85 363.538 416.776 365.687 418.107 366.933L422.051 362.722ZM393.203 337.326C389.348 336.701 385.054 337.283 381.577 338.674C378.309 339.981 374.716 342.46 374.103 346.35L379.802 347.249C379.918 346.518 380.923 345.15 383.72 344.031C386.306 342.997 389.542 342.578 392.279 343.022L393.203 337.326Z" fill="black" mask="url(#path-77-inside-10_120_1683)"/>
<mask id="path-79-inside-11_120_1683" fill="white">
<path d="M405.613 369.634C394.16 356.714 381.833 352.121 381.833 352.121C374.317 344.008 369.116 338.423 365.461 333.841C350.586 315.21 335.809 301.803 319.271 297.775C302.997 293.825 295.939 304.381 314.517 317.71C341.739 337.168 349.361 355.05 349.361 355.05C349.361 355.05 334.477 358.358 337.15 380.841C337.15 380.841 318.921 400.455 351.237 436.744C373.919 462.224 387.209 462.769 387.209 462.769C391.273 474.629 402.006 503.631 402.006 503.631"/>
</mask>
<path d="M405.613 369.634C394.16 356.714 381.833 352.121 381.833 352.121C374.317 344.008 369.116 338.423 365.461 333.841C350.586 315.21 335.809 301.803 319.271 297.775C302.997 293.825 295.939 304.381 314.517 317.71C341.739 337.168 349.361 355.05 349.361 355.05C349.361 355.05 334.477 358.358 337.15 380.841C337.15 380.841 318.921 400.455 351.237 436.744C373.919 462.224 387.209 462.769 387.209 462.769C391.273 474.629 402.006 503.631 402.006 503.631" fill="white"/>
<path d="M381.833 352.121L379.716 354.082L380.182 354.585L380.825 354.825L381.833 352.121ZM365.461 333.841L367.716 332.042L367.715 332.041L365.461 333.841ZM319.271 297.775L319.954 294.972L319.952 294.972L319.271 297.775ZM314.517 317.71L312.836 320.054L312.84 320.057L314.517 317.71ZM349.361 355.05L349.987 357.866L353.377 357.113L352.015 353.919L349.361 355.05ZM337.15 380.841L339.264 382.806L340.173 381.827L340.015 380.501L337.15 380.841ZM351.237 436.744L353.392 434.826L353.392 434.825L351.237 436.744ZM387.209 462.769L389.938 461.834L389.298 459.967L387.327 459.886L387.209 462.769ZM407.772 367.72C401.819 361.004 395.638 356.452 390.934 353.572C388.58 352.131 386.59 351.105 385.173 350.434C384.464 350.098 383.898 349.85 383.501 349.684C383.302 349.6 383.145 349.537 383.034 349.493C382.979 349.471 382.934 349.454 382.902 349.441C382.885 349.435 382.872 349.43 382.862 349.426C382.857 349.424 382.852 349.423 382.848 349.421C382.847 349.421 382.845 349.42 382.843 349.419C382.843 349.419 382.842 349.419 382.841 349.419C382.84 349.418 382.84 349.418 381.833 352.121C380.825 354.825 380.825 354.825 380.824 354.825C380.824 354.824 380.823 354.824 380.823 354.824C380.822 354.824 380.821 354.824 380.821 354.823C380.82 354.823 380.82 354.823 380.821 354.824C380.823 354.824 380.827 354.826 380.835 354.829C380.85 354.834 380.876 354.845 380.913 354.859C380.988 354.889 381.108 354.937 381.268 355.004C381.59 355.139 382.076 355.352 382.702 355.648C383.955 356.241 385.762 357.171 387.922 358.493C392.244 361.14 397.954 365.343 403.454 371.547L407.772 367.72ZM383.949 350.161C376.396 342.006 371.288 336.519 367.716 332.042L363.205 335.64C366.945 340.327 372.239 346.009 379.716 354.082L383.949 350.161ZM367.715 332.041C352.778 313.331 337.485 299.242 319.954 294.972L318.589 300.579C334.132 304.364 348.394 317.088 363.206 335.641L367.715 332.041ZM319.952 294.972C315.588 293.913 311.608 293.764 308.373 294.545C305.14 295.326 302.325 297.147 301.134 300.221C299.954 303.267 300.707 306.677 302.666 309.911C304.634 313.162 308.006 316.59 312.836 320.054L316.199 315.366C311.739 312.166 309.026 309.276 307.602 306.923C306.167 304.552 306.218 303.071 306.515 302.306C306.8 301.569 307.64 300.658 309.727 300.154C311.812 299.651 314.818 299.663 318.591 300.579L319.952 294.972ZM312.84 320.057C326.21 329.614 334.718 338.749 339.86 345.435C342.432 348.78 344.165 351.516 345.244 353.391C345.784 354.329 346.16 355.051 346.396 355.526C346.514 355.764 346.597 355.94 346.648 356.051C346.673 356.106 346.691 356.145 346.701 356.167C346.705 356.178 346.708 356.184 346.709 356.187C346.71 356.188 346.71 356.188 346.71 356.187C346.709 356.187 346.709 356.186 346.709 356.185C346.708 356.185 346.708 356.184 346.708 356.183C346.707 356.182 346.707 356.181 349.361 355.05C352.015 353.919 352.015 353.917 352.014 353.916C352.014 353.916 352.013 353.914 352.013 353.913C352.012 353.911 352.011 353.909 352.01 353.906C352.007 353.901 352.005 353.894 352.001 353.887C351.995 353.872 351.987 353.853 351.976 353.829C351.955 353.782 351.927 353.719 351.89 353.638C351.815 353.477 351.708 353.25 351.565 352.961C351.277 352.382 350.846 351.556 350.245 350.513C349.044 348.427 347.17 345.476 344.434 341.918C338.96 334.8 330.046 325.264 316.195 315.363L312.84 320.057ZM349.361 355.05C348.735 352.234 348.733 352.234 348.731 352.235C348.73 352.235 348.728 352.235 348.726 352.236C348.723 352.236 348.72 352.237 348.716 352.238C348.709 352.24 348.701 352.241 348.691 352.244C348.673 352.248 348.651 352.253 348.626 352.259C348.575 352.272 348.51 352.289 348.432 352.31C348.275 352.353 348.066 352.415 347.812 352.5C347.304 352.67 346.614 352.933 345.811 353.326C344.205 354.11 342.121 355.422 340.142 357.548C336.093 361.897 332.864 369.229 334.285 381.182L340.015 380.501C338.763 369.97 341.64 364.407 344.365 361.48C345.772 359.969 347.242 359.049 348.344 358.51C348.894 358.242 349.346 358.071 349.642 357.972C349.789 357.923 349.897 357.891 349.958 357.875C349.988 357.867 350.006 357.862 350.011 357.861C350.014 357.86 350.013 357.86 350.009 357.861C350.007 357.862 350.004 357.862 350.001 357.863C349.999 357.864 349.997 357.864 349.994 357.865C349.993 357.865 349.991 357.865 349.991 357.865C349.989 357.866 349.987 357.866 349.361 355.05ZM337.15 380.841C335.037 378.877 335.035 378.879 335.033 378.881C335.033 378.882 335.031 378.884 335.029 378.886C335.026 378.889 335.023 378.892 335.02 378.896C335.013 378.904 335.005 378.912 334.996 378.922C334.978 378.942 334.956 378.967 334.929 378.997C334.877 379.057 334.809 379.137 334.726 379.236C334.562 379.436 334.343 379.715 334.085 380.074C333.571 380.791 332.904 381.829 332.227 383.182C330.87 385.892 329.478 389.861 329.195 395.026C328.624 405.427 332.569 420.119 349.083 438.663L353.392 434.825C337.59 417.08 334.491 403.821 334.956 395.342C335.19 391.068 336.335 387.866 337.387 385.764C337.914 384.711 338.418 383.933 338.775 383.436C338.953 383.188 339.093 383.01 339.18 382.905C339.224 382.852 339.254 382.817 339.268 382.801C339.276 382.792 339.279 382.789 339.278 382.789C339.278 382.79 339.277 382.791 339.274 382.794C339.273 382.795 339.271 382.797 339.27 382.799C339.269 382.8 339.267 382.802 339.267 382.802C339.265 382.804 339.264 382.806 337.15 380.841ZM349.082 438.662C360.599 451.6 369.849 458.339 376.359 461.851C379.615 463.607 382.183 464.554 383.998 465.064C384.905 465.318 385.623 465.463 386.142 465.545C386.401 465.587 386.61 465.612 386.769 465.628C386.848 465.636 386.915 465.641 386.969 465.645C386.995 465.647 387.019 465.648 387.039 465.649C387.049 465.65 387.059 465.65 387.067 465.651C387.072 465.651 387.076 465.651 387.08 465.651C387.082 465.651 387.084 465.652 387.085 465.652C387.088 465.652 387.091 465.652 387.209 462.769C387.327 459.886 387.33 459.887 387.332 459.887C387.333 459.887 387.335 459.887 387.337 459.887C387.34 459.887 387.343 459.887 387.345 459.887C387.351 459.888 387.355 459.888 387.359 459.888C387.366 459.888 387.37 459.889 387.371 459.889C387.373 459.889 387.363 459.888 387.339 459.886C387.292 459.881 387.194 459.87 387.045 459.847C386.749 459.8 386.251 459.703 385.558 459.508C384.172 459.119 382 458.337 379.098 456.772C373.293 453.642 364.557 447.368 353.392 434.826L349.082 438.662ZM384.48 463.704C386.522 469.666 390.232 479.909 393.421 488.638C395.018 493.007 396.488 497.005 397.558 499.911C398.093 501.364 398.528 502.544 398.83 503.361C398.981 503.769 399.098 504.087 399.178 504.303C399.218 504.411 399.248 504.493 399.269 504.548C399.279 504.576 399.287 504.597 399.292 504.611C399.295 504.618 399.297 504.623 399.298 504.627C399.299 504.629 399.299 504.63 399.299 504.631C399.3 504.631 399.3 504.632 399.3 504.632C399.3 504.632 399.3 504.632 402.006 503.631C404.711 502.63 404.711 502.629 404.711 502.629C404.711 502.629 404.711 502.629 404.711 502.628C404.711 502.627 404.71 502.626 404.709 502.624C404.708 502.621 404.706 502.616 404.704 502.609C404.699 502.595 404.691 502.574 404.681 502.546C404.66 502.491 404.63 502.409 404.59 502.302C404.511 502.087 404.394 501.77 404.243 501.362C403.942 500.547 403.507 499.368 402.972 497.917C401.903 495.014 400.436 491.021 398.841 486.657C395.648 477.92 391.959 467.732 389.938 461.834L384.48 463.704Z" fill="black" mask="url(#path-79-inside-11_120_1683)"/>
<path d="M381.788 352.214L381.725 352.19H381.708L381.106 351.547L381.105 351.545L380.492 350.883C373.727 343.575 368.809 338.261 365.364 333.938L365.364 333.938C348.413 312.699 334.175 301.55 319.24 297.922C315.536 297.019 312.195 296.852 309.556 297.375C306.922 297.897 304.934 299.12 304.05 301.04L304.05 301.041C303.261 302.759 303.44 305.147 305.024 307.961C306.609 310.777 309.621 314.06 314.59 317.625L314.59 317.625C328.064 327.279 336.772 336.594 342.116 343.511C344.789 346.97 346.621 349.83 347.788 351.834C348.372 352.836 348.789 353.624 349.061 354.165C349.198 354.436 349.298 354.645 349.365 354.788C349.419 354.905 349.448 354.971 349.457 354.992C349.46 354.999 349.461 355.001 349.461 355L349.464 355.01L349.469 355.02L349.527 355.153L349.381 355.185L349.378 355.186C349.045 355.262 345.357 356.16 342.077 359.819C338.789 363.489 335.96 369.881 337.257 380.854V380.913L337.199 380.975L337.199 380.974L337.194 380.98C337.072 381.116 332.644 386.127 332.236 395.588C331.827 405.055 335.447 418.907 351.289 436.712L351.289 436.712C373.552 461.72 386.893 462.673 387.154 462.692L387.154 462.692L387.167 462.693H387.18H387.253L387.277 462.761C391.045 473.745 400.714 499.98 401.941 503.293L401.703 503.382C400.501 500.134 390.982 474.347 387.142 463.14L387.069 462.925L386.843 462.898C384.699 462.649 371.932 460.247 351.099 436.855C335.824 419.702 331.89 406.208 331.948 396.778C332.006 387.345 336.058 381.915 336.878 380.893L336.972 380.775L336.955 380.626C335.821 370.736 338.127 364.58 341.013 360.788C343.905 356.988 347.412 355.52 348.747 355.072L349.137 354.941L348.957 354.571C347.466 351.519 338.709 335.223 314.397 317.797C310.015 314.656 306.85 311.49 305.046 308.57C303.239 305.646 302.828 303.028 303.82 300.916L303.821 300.913C304.677 299.047 306.576 297.751 309.276 297.161C311.975 296.57 315.431 296.696 319.303 297.64L319.303 297.64C334.235 301.27 348.493 312.362 365.559 333.746C369.039 338.108 374.034 343.499 380.886 350.893L381.296 351.336L381.297 351.337L381.851 351.931L381.901 351.984L381.969 352.014C390.956 356.01 398.973 361.9 405.474 369.28L405.284 369.448C394.058 356.941 381.94 352.272 381.788 352.214Z" fill="black" stroke="black" stroke-width="0.721268"/>
<defs>
<clipPath id="clip0_120_1683">
<rect width="546" height="415.45" fill="white"/>
</clipPath>
</defs>
</svg>
