<svg width="817" height="443" viewBox="0 0 817 443" fill="none" xmlns="http://www.w3.org/2000/svg">
<g clip-path="url(#clip0_40_351)">
<path d="M141.547 59.7273L130 66.2727L151.519 93L225 57L220.276 46.0909L215.552 41.1818L210.829 39.5455L206.63 39L197.707 39.5455L190.884 41.7273H190.359L188.785 41.1818L173.564 39L160.442 39.5455L153.619 40.0909L149.42 42.2727L146.271 45.5455L144.171 51L143.646 53.1818L144.171 59.1818L141.547 59.7273Z" fill="white"/>
<path d="M130.085 65.5567C130.085 65.5567 126.943 61.0947 125.638 47.6842C124.333 34.2738 127.861 15.0746 127.861 15.0746L138.47 18.2825C143.046 12.7272 149.013 8.47966 155.766 5.97175C162.519 3.46383 169.817 2.78484 176.918 4.00372C201.664 8.20051 206.183 19.1026 214.037 19.1026C221.891 19.1026 233.177 11.8667 233.177 11.8667C233.177 11.8667 239.822 31.8618 235.351 39.9659C233.969 42.3641 232.112 44.4562 229.894 46.1148C227.675 47.7735 225.141 48.964 222.447 49.6137C222.447 49.6137 219.015 34.9732 206.135 34.3461C193.254 33.719 188.88 37.5058 188.88 37.5058C188.88 37.5058 185.642 31.8377 169.088 34.3461C152.535 36.8546 140.984 46.2129 138.47 55.5954C135.957 64.9779 130.085 65.5567 130.085 65.5567Z" fill="#3B37FF"/>
<path d="M45.2617 404.002L46.3492 440.037H330.347C330.347 440.037 327.133 386.226 325.513 356.438C323.894 326.651 312.73 321.465 312.73 321.465C308.597 306.873 299.245 222.286 291.15 211.118C271.044 183.308 238.395 181.017 238.395 181.017C238.395 181.017 240.232 165.532 227.883 142.715C215.534 119.898 173.486 138.615 173.486 138.615C173.486 138.615 202.316 154.582 190.885 159.599C179.455 164.616 186.052 198.817 186.052 198.817" fill="white"/>
<path d="M331.749 441.339H45.0693L43.9336 404.026H46.5435L47.6069 438.782H329.091C328.559 430.147 325.804 383.307 324.427 356.583C322.953 328.194 312.489 322.815 312.344 322.815L311.812 322.55L311.643 321.971C310.169 316.737 308.043 302.676 305.578 286.54C301.252 258.03 295.331 219.005 290.28 212.035C270.803 185.045 238.831 182.512 238.493 182.488H237.14L237.285 181.113C237.285 180.969 238.88 165.701 226.918 143.583C216.961 125.18 185.715 135.576 176.677 139.073C182.622 142.546 195.333 150.771 195.067 156.777C194.994 157.754 194.624 158.687 194.007 159.45C193.389 160.212 192.554 160.769 191.611 161.046C183.032 164.809 185.715 189.579 187.455 198.817L184.869 199.299C184.192 195.681 178.513 163.916 190.548 158.634C192.385 157.838 192.433 156.946 192.433 156.656C192.626 152.459 180.64 144.21 173.1 140.014L170.684 138.735L173.1 137.65C174.864 136.878 216.43 118.74 229.189 142.329C239.677 161.625 240.112 175.831 239.943 180.1C246.299 180.896 274.428 185.768 292.359 210.587C297.796 218.088 303.523 255.86 308.139 286.226C310.556 301.856 312.561 315.387 313.987 320.838C316.404 322.381 325.587 329.883 326.964 356.607C328.487 386.057 331.798 439.65 331.798 440.181L331.749 441.339Z" fill="black"/>
<path d="M766.371 441.484H30.0127V400.215H31.3177V440.181H765.042V81.4035H221.116V80.0769H766.371V441.484Z" fill="black"/>
<path d="M31.3177 206.439H30.0127V80.0769H120.103V81.4035H31.3177V206.439Z" fill="black"/>
<path d="M127.74 314.229C154.948 318.294 182.397 320.542 209.904 320.958C233.99 321.024 258.025 318.77 281.677 314.229" fill="white"/>
<path d="M210.678 322.261H210.001C182.398 321.875 154.853 319.651 127.547 315.604L127.958 312.999C155.165 317.06 182.615 319.3 210.122 319.704H210.799C234.567 319.713 258.283 317.476 281.629 313.023L282.184 315.604C258.611 320.056 234.67 322.285 210.678 322.261V322.261Z" fill="black"/>
<path d="M765.721 83.9117L811.636 85.6483C811.319 94.1469 808.637 102.39 803.893 109.454C799.149 116.519 792.529 122.126 784.773 125.649C777.018 129.172 768.433 130.471 759.98 129.402C751.526 128.333 743.538 124.937 736.909 119.594C730.279 114.251 725.27 107.173 722.441 99.1504C719.613 91.128 719.077 82.4783 720.893 74.1693C722.71 65.8602 726.807 58.2195 732.727 52.1023C738.646 45.985 746.155 41.6325 754.411 39.5317L765.721 83.9117Z" fill="white"/>
<path d="M765.745 134.925H763.763C750.235 134.347 737.483 128.46 728.282 118.545C719.081 108.63 714.176 95.4892 714.634 81.9823C715.108 70.9668 719.124 60.3967 726.088 51.8383C733.053 43.2798 742.594 37.1884 753.299 34.4668L758.398 33.1885L769.95 78.8467L817.097 80.6315L816.904 85.8897C816.339 99.0492 810.72 111.486 801.212 120.621C791.704 129.756 779.038 134.886 765.841 134.949L765.745 134.925ZM750.762 46.2371C742.099 49.6573 734.878 55.9468 730.311 64.0506C725.744 72.1544 724.107 81.5794 725.677 90.7445C727.247 99.9095 731.927 108.257 738.932 114.387C745.937 120.516 754.841 124.055 764.15 124.409C773.996 124.729 783.626 121.488 791.268 115.283C798.91 109.079 804.049 100.328 805.739 90.6412L761.588 88.9528L750.762 46.2371Z" fill="#3B37FF"/>
<path d="M765.72 83.912L776.522 39.4355C783.896 41.2064 790.713 44.7784 796.361 49.8305C802.009 54.8826 806.311 61.2565 808.88 68.379L765.72 83.912Z" fill="white"/>
<path d="M760.162 90.0865L773.622 34.6116L777.465 35.5281C785.495 37.4743 792.912 41.3865 799.047 46.9115C805.181 52.4365 809.84 59.4001 812.602 67.1729L813.931 70.8632L760.162 90.0865ZM779.374 44.2594L771.327 77.7373L803.709 66.1599C801.335 61.0831 797.956 56.538 793.777 52.7977C789.589 49.0513 784.692 46.1808 779.374 44.3559V44.2594Z" fill="black"/>
<path d="M765.696 129.691C791.028 129.691 811.563 109.195 811.563 83.9117C811.563 58.6287 791.028 38.1328 765.696 38.1328C740.364 38.1328 719.829 58.6287 719.829 83.9117C719.829 109.195 740.364 129.691 765.696 129.691Z" fill="white"/>
<path d="M521.162 12.4697H308.284V151.374H521.162V12.4697Z" fill="white"/>
<path d="M521.814 152.025H307.632V11.8186H521.814V152.025ZM308.961 150.723H520.509V13.2417H308.961V150.723Z" fill="#3B37FF"/>
<path d="M499.195 48.9866H334.166V51.6156H499.195V48.9866Z" fill="black"/>
<path d="M446.32 80.6074H334.166V83.2364H446.32V80.6074Z" fill="black"/>
<path d="M499.195 112.687H334.166V115.316H499.195V112.687Z" fill="black"/>
<path d="M309.589 68.6441H306.979V11.1672H388.95V13.7963H309.589V68.6441Z" fill="black"/>
<path d="M522.466 152.677H440.495V150.048H519.832V95.1997H522.466V152.677Z" fill="black"/>
<path d="M125.203 56.1743C125.203 56.1743 126.726 76.29 129.771 103.955C131.592 118.934 132.045 134.046 131.124 149.107C190.983 241.822 174.888 161.866 174.888 161.866C174.888 161.866 197.556 175.735 199.9 147.226" fill="white"/>
<path d="M170.756 195.272C165.295 195.272 154.759 188.036 130.037 149.806L129.771 149.445V148.986C130.672 134.013 130.211 118.99 128.394 104.1C125.397 76.7483 123.85 56.488 123.826 56.2709L126.46 56.0779C126.46 56.295 128.007 76.5071 131.028 103.81C132.787 118.729 133.256 133.771 132.429 148.769C159.012 189.893 168.678 193.752 171.989 192.377C177.136 190.303 175.662 172.72 173.535 162.131L172.955 159.189L175.517 160.757C175.517 160.757 184.579 166.184 191.176 162.831C195.381 160.684 197.87 155.402 198.426 147.105L201.036 147.322C200.287 156.584 197.315 162.59 192.24 165.171C186.609 168.017 179.988 165.846 176.484 164.254C177.789 171.852 180.423 191.75 172.859 194.813C172.192 195.093 171.479 195.248 170.756 195.272V195.272Z" fill="black"/>
<path d="M137.673 96.6228C137.673 96.6228 141.032 123.709 144.681 130.39C148.33 137.071 173.003 149.686 183.661 150.699C189.123 151.169 194.603 150.016 199.41 147.385C204.218 144.754 208.138 140.763 210.678 135.914C215.511 125.88 216.768 111.794 219.547 98.5283C222.326 85.2625 219.885 79.7633 219.885 79.7633V76.8207C223.05 70.3705 224.624 63.2586 224.477 56.0779" fill="white"/>
<path d="M186.198 152.242C185.31 152.242 184.423 152.194 183.54 152.098C172.834 151.012 147.509 138.494 143.521 131.114C139.8 124.191 136.513 97.9011 136.271 96.7916L138.881 96.478C138.881 96.7433 142.24 123.395 145.744 129.859C149.031 135.938 173.149 148.432 183.709 149.493C188.926 149.929 194.157 148.819 198.744 146.3C203.331 143.781 207.071 139.967 209.494 135.335C212.926 128.268 214.521 119.15 216.188 109.478C216.816 105.788 217.469 101.977 218.242 98.2629C220.852 85.6966 218.701 80.3179 218.677 80.2697V79.7632V76.3623C221.755 70.0844 223.279 63.1616 223.124 56.1743H225.758C225.89 63.4437 224.326 70.6441 221.19 77.2065V79.6185C221.649 80.9451 223.293 86.8544 220.804 98.9141C220.03 102.58 219.378 106.391 218.749 110.057C217.058 119.898 215.439 129.208 211.838 136.589C209.386 141.272 205.706 145.202 201.19 147.959C196.674 150.716 191.492 152.196 186.198 152.242V152.242Z" fill="black"/>
<path d="M132.719 109.551C128.055 110.467 122.714 103.449 120.781 93.8731C118.848 84.2977 121.095 75.7594 125.759 74.8187C129.142 74.1434 132.864 77.6648 135.426 83.3088" fill="white"/>
<path d="M131.874 110.95C126.75 110.95 121.458 103.883 119.501 94.0662C117.398 83.6225 120.032 74.5776 125.494 73.4923C129.409 72.7204 133.686 76.2419 136.61 82.7301L134.193 83.7913C131.777 78.6539 128.635 75.5183 126.001 76.0489C122.618 76.7243 120.177 84.0807 122.086 93.5597C123.996 103.039 129.094 108.876 132.454 108.224L132.961 110.781C132.605 110.873 132.241 110.93 131.874 110.95V110.95Z" fill="black"/>
<path d="M127.257 75.8318C127.063 75.5665 125.299 72.9375 122.085 60.9742C118.871 49.0109 123.704 26.628 123.898 25.7115V25.1567L133.854 18.958C136.507 15.0702 139.878 11.7223 143.786 9.09314C150.311 4.63103 161.742 -0.554673 179.02 0.0483157C189.661 0.711239 199.924 4.23673 208.72 10.2508C209.783 10.9021 210.629 11.4327 211.136 11.7462C213.553 12.9522 223.606 13.0487 229.382 12.8075H230.252L230.614 13.6035C234.188 22.3476 235.031 31.9658 233.031 41.1962C231.702 47.1055 225.781 56.5121 225.564 56.898L224.065 59.3099L223.195 56.6809C222.06 53.3042 218.193 44.1146 213.771 42.2092C203.5 37.6024 190.837 42.2092 190.716 42.2092L190.354 42.3539H189.967C179.392 40.2247 168.554 39.7205 157.827 40.8585C155.943 40.9589 154.103 41.4659 152.434 42.3445C150.765 43.2231 149.307 44.4525 148.16 45.9478C145.989 49.614 145.241 53.948 146.058 58.1281L143.496 58.6829C142.482 53.8048 143.345 48.7243 145.913 44.4523C147.264 42.6694 148.979 41.1943 150.946 40.1254C152.913 39.0565 155.086 38.4185 157.319 38.2536C168.22 37.052 179.243 37.5483 189.991 39.7249C192.408 38.9289 204.346 35.2628 214.689 39.8696C219.353 41.968 222.905 49.3727 224.549 53.3766C226.978 49.4357 228.902 45.2057 230.276 40.7862C232.062 32.4174 231.45 23.7158 228.512 15.6777C224.911 15.6777 213.336 15.9913 209.904 14.2788C209.228 13.9411 208.309 13.3864 207.173 12.6628C198.768 6.88149 188.943 3.49601 178.754 2.87026C162.201 2.24315 151.302 7.21177 145.091 11.4568C141.403 13.9153 138.241 17.0798 135.787 20.767L135.618 21.0323L126.073 26.9898C125.348 30.463 121.505 49.9034 124.357 60.4918C127.402 71.9004 129.021 74.4088 129.19 74.5053L127.257 75.8318Z" fill="black"/>
<path d="M188.469 70.3324C184.938 69.3704 181.272 68.9955 177.618 69.223C171.183 69.6288 164.813 70.7452 158.624 72.5515L160.388 75.5181C168.172 75.1081 175.972 75.1081 183.756 75.5181C188.928 76.1935 188.469 70.3324 188.469 70.3324Z" fill="black"/>
<path d="M200.36 77.7373C198.86 78.4955 197.622 79.6836 196.804 81.1491C195.986 82.6145 195.625 84.2906 195.768 85.9621C195.551 89.3629 195.768 98.0218 196.928 99.3966C198.088 100.771 199.345 103.738 198.064 104.872C196.783 106.005 190.983 109.696 190.983 109.696" fill="white"/>
<path d="M191.685 110.733L190.283 108.514C191.854 107.525 196.156 104.751 197.219 103.859C197.237 103.817 197.246 103.772 197.246 103.726C197.246 103.68 197.237 103.635 197.219 103.593C197.108 102.359 196.619 101.188 195.817 100.241C194.029 98.0941 194.271 87.3126 194.367 85.769C194.236 83.8912 194.658 82.0161 195.581 80.3747C196.504 78.7333 197.888 77.3973 199.563 76.5312L200.94 78.7743C197.315 80.9692 197.219 82.7299 197.001 86.0102C196.685 90.2098 196.969 94.433 197.847 98.5524C199.102 100.023 199.81 101.88 199.853 103.81C199.791 104.604 199.418 105.341 198.814 105.861C197.485 107.067 191.927 110.588 191.685 110.733Z" fill="black"/>
<path d="M206.522 70.5978C199.054 69.8983 203.428 75.7593 203.428 75.7593L216.72 77.7371L217.855 74.698C214.392 72.5839 210.538 71.1893 206.522 70.5978V70.5978Z" fill="black"/>
<path d="M187.335 106.705C186.312 106.386 185.231 106.303 184.172 106.462C183.113 106.62 182.104 107.017 181.221 107.621C179.529 108.851 179.118 106.198 179.046 103.883C179.033 103.507 179.096 103.133 179.231 102.782C179.366 102.432 179.57 102.112 179.832 101.842C180.093 101.571 180.407 101.357 180.753 101.21C181.1 101.064 181.473 100.988 181.849 100.988H186.513" fill="white"/>
<path d="M180.446 109.237C180.138 109.239 179.833 109.173 179.552 109.044C178.368 108.465 177.812 106.874 177.716 103.931C177.699 103.379 177.794 102.83 177.995 102.316C178.195 101.801 178.497 101.332 178.882 100.936C179.268 100.54 179.729 100.226 180.238 100.011C180.748 99.7963 181.295 99.6858 181.848 99.686H186.512V102.315H181.945C181.745 102.314 181.548 102.355 181.365 102.434C181.182 102.512 181.018 102.628 180.881 102.773C180.742 102.913 180.633 103.079 180.558 103.261C180.483 103.443 180.445 103.638 180.446 103.835C180.445 104.697 180.55 105.555 180.761 106.391C181.809 105.738 182.986 105.317 184.211 105.154C185.436 104.992 186.682 105.093 187.865 105.451L186.995 107.863C186.185 107.63 185.334 107.574 184.5 107.699C183.666 107.824 182.869 108.126 182.162 108.586C181.689 109.005 181.079 109.237 180.446 109.237V109.237Z" fill="black"/>
<path d="M196.687 108.514C196.687 108.514 198.402 107.091 199.9 107.935Z" fill="white"/>
<path d="M197.532 109.527L195.864 107.501C196.489 106.945 197.262 106.581 198.089 106.453C198.917 106.324 199.764 106.437 200.528 106.777L199.248 109.068C198.595 108.707 197.532 109.527 197.532 109.527Z" fill="black"/>
<path d="M166.503 113.41C172.315 115.321 178.271 116.765 184.313 117.727C190.928 118.356 197.587 118.356 204.202 117.727" fill="white"/>
<path d="M193.207 119.56C190.178 119.58 187.151 119.403 184.145 119.03C178.009 118.065 171.963 116.596 166.068 114.64L166.914 112.228C172.658 114.106 178.54 115.534 184.507 116.497C191.009 117.109 197.555 117.109 204.057 116.497L204.323 119.102C204.009 119.078 199.007 119.56 193.207 119.56Z" fill="black"/>
<path d="M160.485 82.7542C160.485 82.7542 168.919 78.6539 175.903 79.2328Z" fill="white"/>
<path d="M161.066 84.0565L159.906 81.6446C160.269 81.4758 168.727 77.3755 176.001 77.9785L175.783 80.6075C170.683 80.6638 165.658 81.8414 161.066 84.0565V84.0565Z" fill="black"/>
<path d="M169.041 81.6446C169.008 82.4006 168.701 83.1188 168.176 83.6649C167.651 84.211 166.945 84.5474 166.189 84.6113C165.629 84.6073 165.091 84.3949 164.68 84.0157C164.269 83.6365 164.014 83.1178 163.966 82.5611C163.966 81.6687 164.763 81.3551 165.996 81.1381C167.615 80.8486 169.041 80.728 169.041 81.6446Z" fill="black"/>
<path d="M200.359 82.9469C200.359 82.9469 209.543 81.0656 216.164 83.3328Z" fill="white"/>
<path d="M215.728 84.5869C210.782 83.3527 205.624 83.2292 200.624 84.2251L200.093 81.6443C200.479 81.6443 209.759 79.7148 216.598 82.1026L215.728 84.5869Z" fill="black"/>
<path d="M208.599 83.4535C208.376 84.17 207.901 84.7817 207.261 85.1762C206.622 85.5707 205.861 85.7213 205.119 85.6002C204.579 85.4576 204.111 85.1191 203.807 84.6509C203.504 84.1826 203.385 83.6181 203.476 83.0676C203.694 82.1993 204.564 82.1029 205.893 82.1993C207.439 82.3199 208.841 82.5611 208.599 83.4535Z" fill="black"/>
<path d="M235.303 189.217C235.303 189.217 217.928 207.066 217.928 232.994Z" fill="white"/>
<path d="M219.184 232.995H216.55C216.9 216.442 223.224 200.572 234.36 188.301L236.245 190.134C236.076 190.327 219.184 207.886 219.184 232.995Z" fill="black"/>
<path d="M748.441 440.085L561.373 440.832V258.441L748.441 257.693V440.085Z" fill="white"/>
<path d="M560.068 442.159V257.138L749.771 256.391V441.411L560.068 442.159ZM562.703 259.767V439.53L747.137 438.782V259.02L562.703 259.767Z" fill="black"/>
<path d="M774.274 340.399C747.692 329.907 728.19 352.218 728.19 352.218L680.366 357.21C680.366 357.21 682.613 378.122 707.311 396.043C721.544 406.651 738.977 412.096 756.73 411.479C756.73 411.479 794.477 411.6 791.867 361.672C791.19 348.72 783.385 251.639 764.922 223.347C746.459 195.055 721.544 196.816 721.544 196.816L580.416 211.287C574.707 211.511 569.105 212.899 563.956 215.368C558.806 217.836 554.218 221.331 550.474 225.638C536.869 240.568 521.475 276.434 513.718 317.751C509.045 342.552 509.87 368.073 516.134 392.521C516.134 392.521 547.84 421.465 579.183 395.271C610.526 369.077 603.566 352.194 603.566 352.194H557.651C557.651 352.194 549.918 340.013 529.474 339" fill="white"/>
<path d="M753.226 412.927C736.394 412.623 720.075 407.092 706.537 397.104C681.647 379.039 679.157 358.224 679.061 357.355L678.916 356.029L727.562 350.964C730.413 347.973 749.625 329.256 774.758 339.169L773.791 341.581C748.417 331.571 729.374 352.821 729.181 353.038L728.843 353.424L681.888 358.248C682.879 363.072 687.664 379.955 708.084 394.861C722.095 405.213 739.185 410.564 756.609 410.056C765.358 409.606 773.619 405.896 779.76 399.661C787.807 391.195 791.432 378.412 790.562 361.624C790.562 360.587 783.506 254.075 763.835 223.95C746.049 196.695 721.859 198.022 721.617 198.07L580.537 212.542C575.012 212.797 569.595 214.164 564.612 216.559C559.629 218.955 555.182 222.33 551.538 226.483C537.038 242.45 522.321 279.208 515.095 317.944C510.611 342.403 511.435 367.539 517.512 391.653C520.823 394.548 549.628 418.185 578.555 394.065C604.823 372.165 603.567 356.921 602.721 353.327H557.023L556.637 352.724C556.637 352.604 548.952 341.075 529.498 340.134V337.505C547.985 338.397 556.395 348.117 558.304 350.698H604.582L604.92 351.518C605.21 352.242 611.88 369.632 580.174 396.091C548.469 422.55 515.724 393.679 515.385 393.317L515.12 393.076V392.714C508.88 368.082 508.056 342.394 512.703 317.413C519.953 278.243 534.911 240.979 549.773 224.65C553.638 220.193 558.381 216.58 563.708 214.036C569.034 211.492 574.829 210.072 580.73 209.864L721.665 195.393C722.729 195.393 747.644 193.849 766.3 222.455C786.333 253.111 793.39 360.37 793.438 361.431C794.356 378.966 790.49 392.425 781.911 401.422C775.33 408.169 766.421 412.162 756.996 412.589C755.746 412.772 754.488 412.885 753.226 412.927V412.927Z" fill="black"/>
<path d="M591.001 204.099C591.001 204.099 620.628 203.231 624.205 193.897C627.782 184.563 650.787 185.937 661.396 193.39C672.005 200.843 702.817 190.665 721.545 187.674C740.274 184.683 656.297 89.8452 656.297 89.8452L602.166 84.6113C602.166 84.6113 584.96 96.9364 586.071 123.998C587.183 151.061 591.001 204.099 591.001 204.099Z" fill="black"/>
<path d="M589.768 205.45V204.196C589.768 203.665 585.974 150.844 584.935 124.047C583.799 96.5988 600.86 84.0567 601.585 83.5502L601.972 83.2607H602.48L657.046 88.5429L657.384 88.9288C664.9 97.3947 730.462 172.021 725.387 186.179C725.125 186.922 724.656 187.575 724.036 188.062C723.415 188.549 722.669 188.849 721.883 188.928C717.05 189.676 711.613 190.906 705.765 192.184C688.583 195.995 669.105 200.313 660.792 194.428C652.129 189.099 641.719 187.367 631.793 189.604C630.485 189.878 629.255 190.438 628.189 191.243C627.124 192.048 626.25 193.077 625.63 194.259C621.861 204.124 594.36 205.233 591.218 205.33L589.768 205.45ZM602.601 85.9621C600.184 87.964 586.433 100.169 587.424 123.95C588.415 148.383 591.629 194.524 592.257 202.749C601.054 202.339 620.483 200.072 623.045 193.439C623.777 191.86 624.869 190.473 626.232 189.389C627.595 188.304 629.193 187.552 630.899 187.192C636.216 185.934 641.729 185.74 647.122 186.622C652.514 187.504 657.678 189.444 662.314 192.329C669.564 197.563 688.558 193.366 705.209 189.676C711.081 188.374 716.639 187.144 721.472 186.372C721.791 186.366 722.1 186.264 722.359 186.078C722.618 185.893 722.814 185.634 722.922 185.335C726.354 175.687 684.765 123.902 655.765 91.0996L602.601 85.9621Z" fill="black"/>
<path d="M621.619 164.568L653.687 156.488L670.627 215.098L638.559 223.178L621.619 164.568Z" fill="white"/>
<path d="M637.64 224.77L619.975 163.651L654.604 154.92L672.27 216.039L637.64 224.77ZM623.14 165.532L639.356 221.61L668.862 214.157L652.671 158.079L623.14 165.532Z" fill="black"/>
<path d="M595.085 134.707C586.53 106.367 591.049 81.3308 612.001 75.0356C632.952 68.7404 654.049 91.244 662.58 119.584C671.11 147.925 658.327 173.733 644.431 177.327C626.669 181.909 597.815 169.005 595.085 134.707Z" fill="white"/>
<path d="M637.037 179.498C628.527 179.355 620.263 176.62 613.354 171.659C602.02 163.579 595.061 150.53 593.78 134.901C584.452 103.786 591.363 79.7876 611.638 73.7336C634.596 66.8354 655.669 91.992 663.861 119.151C668.694 135.045 667.22 152.194 660.042 164.978C655.934 172.214 650.521 177.037 644.794 178.581C642.256 179.208 639.651 179.515 637.037 179.498V179.498ZM619.396 75.2048C617.022 75.2116 614.661 75.5609 612.387 76.242C593.707 81.8618 587.4 104.631 596.341 134.274V134.539C597.525 149.469 604.099 161.89 614.828 169.512C623.794 175.88 635.007 178.364 644.093 176C649.047 174.722 654.001 170.236 657.698 163.675C664.537 151.616 665.891 135.142 661.299 119.898C654.388 96.84 637.955 75.2048 619.396 75.2048Z" fill="black"/>
<path d="M620.821 155.764C620.821 155.764 636.723 152.966 647.017 146.984Z" fill="white"/>
<path d="M621.063 157.066L620.604 154.461C620.749 154.461 636.384 151.639 646.364 145.851L647.669 148.118C637.302 154.148 621.715 156.946 621.063 157.066Z" fill="black"/>
<path d="M609.971 113.603C609.971 113.603 599.387 116.521 596.632 124.505Z" fill="white"/>
<path d="M597.864 125.06L595.447 124.191C598.371 115.653 609.198 112.59 609.657 112.445L610.358 114.857C610.358 114.857 600.377 117.824 597.864 125.06Z" fill="black"/>
<path d="M626.814 108.176C626.814 108.176 637.351 104.293 645.881 107.066Z" fill="white"/>
<path d="M627.274 109.454L626.355 107.042C626.815 106.898 637.448 103.039 646.268 105.909L645.471 108.321C637.472 105.764 627.395 109.43 627.274 109.454Z" fill="black"/>
<path d="M609.804 128.794C610.969 128.408 611.484 126.804 610.955 125.211C610.425 123.618 609.051 122.639 607.886 123.025C606.72 123.411 606.205 125.016 606.734 126.609C607.264 128.202 608.638 129.18 609.804 128.794Z" fill="black"/>
<path d="M640.258 119.112C641.423 118.726 641.939 117.122 641.409 115.529C640.879 113.936 639.505 112.957 638.34 113.343C637.174 113.73 636.659 115.334 637.189 116.927C637.718 118.52 639.093 119.498 640.258 119.112Z" fill="black"/>
<path d="M601.61 127.472C601.61 127.472 608.28 121.514 612.848 120.67Z" fill="white"/>
<path d="M602.48 128.388L600.74 126.435C601.006 126.169 607.748 120.212 612.606 119.319L613.089 121.9C609.657 122.648 604.268 126.796 602.48 128.388Z" fill="black"/>
<path d="M633.363 114.544C633.363 114.544 642.135 112.662 646.509 114.206Z" fill="white"/>
<path d="M633.581 115.822L633.025 113.265C633.388 113.265 642.208 111.311 646.872 112.952L646.002 115.364C642.788 114.278 635.998 115.412 633.581 115.822Z" fill="black"/>
<path d="M619.202 116.087C619.202 116.087 620.942 131.09 620.821 135.021C620.7 138.952 623.697 142.112 629.207 140.062" fill="white"/>
<path d="M625.993 141.943C624.621 141.975 623.276 141.569 622.151 140.786C621.255 140.101 620.545 139.205 620.085 138.177C619.625 137.149 619.43 136.023 619.517 134.9C619.517 131.138 617.922 116.304 617.897 116.16L620.507 115.87C620.507 116.473 622.271 131.017 622.151 134.997C622.085 135.688 622.191 136.385 622.461 137.024C622.731 137.664 623.156 138.227 623.697 138.663C624.474 139.077 625.342 139.293 626.222 139.293C627.103 139.293 627.971 139.077 628.748 138.663L629.666 141.075C628.505 141.585 627.26 141.879 625.993 141.943V141.943Z" fill="black"/>
<path d="M608.859 80.3665C608.859 80.3665 605.404 91.5821 599.483 97.2501C593.562 102.918 586.409 112.445 591.001 135.6C595.592 158.755 603.374 199.565 591.001 204.051C578.628 208.538 567.608 207.79 568.357 191.099C569.107 174.409 584.114 170.694 581.359 149.035C578.604 127.375 578.942 91.2926 592.33 82.5614C605.718 73.8301 608.859 80.3665 608.859 80.3665Z" fill="white"/>
<path d="M579.812 207.766C577.027 207.885 574.279 207.097 571.982 205.522C568.381 202.893 566.738 198.045 567.149 191.051C567.511 183.429 570.701 178.364 573.794 173.443C577.854 167.028 581.672 160.974 580.174 149.203C577.757 129.908 577.008 91.0029 591.725 81.4757C597.912 77.4719 602.866 75.9764 606.539 77.0136C607.304 77.1972 608.023 77.5362 608.65 78.0093C609.278 78.4823 609.801 79.0794 610.188 79.7632L610.406 80.2215L610.236 80.728C610.091 81.1863 606.611 92.3054 600.57 98.1905C594.528 104.076 588.173 113.699 592.45 135.335C599.144 169.102 603.663 200.94 591.604 205.281C587.848 206.786 583.857 207.626 579.812 207.766V207.766ZM603.977 79.3773C601.754 79.3773 598.298 80.318 593.03 83.7188C580.391 91.8953 579.884 127.134 582.639 148.842C584.258 161.553 580.005 168.282 575.897 174.818C572.828 179.642 569.952 184.225 569.638 191.147C569.372 197.153 570.677 201.253 573.504 203.328C576.863 205.74 582.76 205.619 590.42 202.797C601.996 198.6 593.296 154.558 589.575 135.817C585.031 112.807 591.991 102.604 598.443 96.2851C603.277 91.6059 606.491 82.8988 607.288 80.5109C606.787 80.0033 606.149 79.6514 605.451 79.4979C604.975 79.3971 604.488 79.3566 604.002 79.3773H603.977Z" fill="black"/>
<path d="M646.51 204.099C646.51 204.099 648.927 189.917 657.554 183.188C666.181 176.458 681.502 164.905 692.352 167.124C699.342 168.831 705.849 172.109 711.377 176.707C716.905 181.305 721.309 187.102 724.252 193.656C730.511 208.586 696.316 247.056 687.495 256.005C679.037 264.567 658.134 271.682 645.882 270.935C633.629 270.187 593.852 264.229 586.047 247.804C578.241 231.379 576.743 216.449 583.485 203.183C590.228 189.917 611.832 169.753 646.51 204.099Z" fill="white"/>
<path d="M647.766 272.309H645.784C632.542 271.489 592.909 265.363 584.862 248.407C576.476 230.751 575.631 215.773 582.301 202.58C584.21 198.841 591.508 186.468 606.031 184.128C618.235 182.175 631.599 188.012 645.736 201.494C646.848 197.032 649.917 187.457 656.756 182.199C668.621 172.937 682.154 163.747 692.618 165.894C699.809 167.629 706.506 170.988 712.191 175.714C717.877 180.439 722.4 186.404 725.411 193.149C732.926 211.046 688.824 256.463 688.365 256.921C680.414 264.953 660.912 272.309 647.766 272.309ZM610.696 186.42C609.271 186.411 607.848 186.524 606.442 186.757C593.151 188.88 586.409 200.337 584.693 203.786C578.434 216.159 579.28 230.317 587.279 247.201C594.939 263.313 635.611 268.909 646.002 269.608C658.326 270.38 678.746 263.023 686.6 255.136C695.783 245.802 728.939 208.151 723.091 194.21C720.24 187.839 715.962 182.206 710.587 177.745C705.211 173.283 698.882 170.112 692.086 168.475C681.429 166.304 665.262 178.894 658.254 184.273C650.158 190.592 647.717 204.244 647.693 204.365L647.259 206.777L645.47 204.992C633.121 192.594 621.498 186.42 610.696 186.42Z" fill="black"/>
<path d="M599.483 79.8836C599.483 79.8836 611.905 78.147 619.203 85.8653C626.501 93.5835 649.7 101.76 656.684 116.087C663.668 130.414 699.844 150.578 706.321 163.265C712.797 175.952 715.794 181.692 715.794 181.692L721.545 187.674C721.545 187.674 734.256 184.924 724.518 167.003C714.779 149.083 690.686 119.15 683.871 105.354C677.056 91.5574 655.041 49.7583 599.483 79.8836Z" fill="white"/>
<path d="M721.086 189.121L714.634 182.295C714.634 182.295 711.637 176.579 705.136 163.868C702.164 158.031 691.966 150.024 682.106 142.281C670.869 133.478 659.27 124.36 655.524 116.666C651.246 107.887 640.662 101.495 631.358 95.8751C626.678 93.3597 622.314 90.2993 618.357 86.758C611.614 79.6427 599.87 81.1622 599.773 81.1863L592.523 82.1753L598.855 78.7262C618.188 68.2824 635.345 65.388 650.111 70.0914C671.425 76.8931 681.696 97.9012 685.055 104.799C688.414 111.698 696.099 122.527 704.387 134.056C712.08 144.453 719.226 155.241 725.798 166.377C729.641 173.468 730.631 179.208 728.65 183.453C728.005 184.807 727.068 186.002 725.907 186.953C724.746 187.903 723.388 188.586 721.932 188.952L721.086 189.121ZM716.881 180.921L721.932 186.179C722.854 185.845 723.7 185.332 724.421 184.669C725.143 184.007 725.726 183.208 726.137 182.32C727.683 178.919 726.741 173.829 723.382 167.631C716.854 156.585 709.756 145.886 702.116 135.576C693.899 123.95 686.118 112.952 682.783 105.933C679.545 99.3001 669.661 79.0638 649.41 72.5998C636.626 68.4995 621.764 70.5014 605.186 78.485C610.839 78.7116 616.209 81.0135 620.266 84.949C624.073 88.3069 628.257 91.2126 632.736 93.6079C642.402 99.4448 653.349 106.054 657.965 115.508C661.444 122.744 672.827 131.596 683.822 140.231C694.359 148.504 704.339 156.319 707.577 162.686C713.329 174.119 716.349 179.908 716.881 180.921Z" fill="black"/>
<path d="M718.283 362.227C718.283 375.565 717.002 386.347 696.195 386.347C675.388 386.347 642.909 365.531 642.909 352.193C642.909 352.217 718.283 348.889 718.283 362.227Z" fill="white"/>
<path d="M696.194 387.673C674.759 387.673 641.604 366.134 641.604 352.217V350.963H642.86C645.47 350.843 707.141 348.238 717.774 358.392C718.331 358.877 718.781 359.473 719.093 360.142C719.405 360.811 719.573 361.538 719.587 362.275C719.587 376.144 717.823 387.673 696.194 387.673ZM644.334 353.472C646.316 366.11 676.934 385.068 696.194 385.068C715.455 385.068 716.953 376.023 716.953 362.227C716.938 361.846 716.843 361.472 716.672 361.131C716.501 360.79 716.259 360.489 715.962 360.249C708.011 352.652 662.821 352.748 644.334 353.472Z" fill="black"/>
<path d="M567.608 359.019C566.834 371.079 567.245 381.016 584.524 382.126C601.802 383.235 629.932 366.062 630.705 353.954C630.681 353.882 568.333 346.959 567.608 359.019Z" fill="white"/>
<path d="M586.071 383.428H584.404C576.042 382.873 570.702 380.22 568.116 375.3C565.699 370.765 565.893 364.976 566.303 358.922C566.361 358.196 566.572 357.489 566.921 356.849C567.271 356.209 567.752 355.65 568.333 355.208C578.386 346.814 628.748 352.386 630.826 352.627L632.083 352.772V354.026C631.696 360.128 625.147 367.63 614.538 374.094C604.824 379.93 594.142 383.428 586.071 383.428ZM596.003 353.182C584.307 353.182 573.65 354.147 570.001 357.186C569.702 357.404 569.451 357.682 569.264 358.002C569.077 358.321 568.957 358.676 568.913 359.043C568.551 364.711 568.406 370.114 570.46 374.021C572.514 377.929 577.105 380.268 584.573 380.751C592.04 381.233 603.229 377.832 613.089 371.802C622.03 366.351 628.047 360.056 629.183 355.039C621.498 354.195 608.159 353.182 596.003 353.182V353.182Z" fill="black"/>
<path d="M269.594 303.255C269.594 303.255 224.936 313.12 179.045 307.138C133.154 301.156 114.353 296.67 114.353 296.67C114.353 296.67 118.823 258.248 114.353 252.001C109.882 245.754 98.3789 239.193 98.3789 239.193C98.3789 239.193 91.1291 279.232 65.5133 285.72C39.8974 292.208 14.4991 291.943 14.9583 271.007C15.4174 250.071 48.5005 195.633 65.5133 193.825C82.526 192.016 87.5767 199.275 109.471 206.367C131.365 213.458 139.413 205.45 152.97 218.861C166.527 232.271 174.091 245.271 185.473 251.277C196.855 257.283 219.764 252.821 229.334 247.008C238.903 241.195 230.856 205.33 244.293 201.808C257.729 198.287 274.935 198.769 281.556 211.046C288.178 223.323 292.576 234.032 294.388 247.008C296.201 259.984 298.521 284.369 298.521 284.369L275.926 239.7L267.54 251.35C267.54 251.35 278.826 271.128 269.594 303.255Z" fill="#CACACA"/>
<path d="M275.926 391.991C275.926 391.991 283.756 384.755 280.059 366.979C277.016 354.043 272.827 341.403 267.541 329.208C267.541 329.208 225.685 335.744 192.941 335.744C160.196 335.744 116.528 327.471 116.528 327.471C119.722 339.117 120.859 351.229 119.887 363.265C118.204 375.914 115.743 388.447 112.517 400.795C112.517 400.795 239.242 405.305 275.926 391.991Z" fill="#CACACA"/>
<path d="M211.258 438.903L208.842 438.131C208.842 437.721 221.504 396.235 223.341 371.875C225.178 347.514 209.156 321.899 208.987 321.634L208.624 321.055L208.914 320.404C214.368 307.923 218.139 294.776 220.127 281.306C222.737 261.238 205.193 233.983 205.023 233.718L207.222 232.295C207.971 233.429 225.468 260.635 222.737 281.644C220.747 295.144 217.002 308.328 211.596 320.862C214.013 325.01 227.715 348.889 226.096 372.068C224.018 396.718 211.403 438.469 211.258 438.903Z" fill="black"/>
<path d="M277.23 441.219L274.813 440.495C280.705 417.994 284.292 394.955 285.519 371.73C286.437 352.435 284.069 333.622 281.966 317.051C280.057 301.856 278.39 288.735 280.178 280.317C282.325 269.4 283.217 258.273 282.836 247.153L285.446 247.008C285.847 258.33 284.939 269.661 282.74 280.776C281.048 288.783 282.74 301.687 284.576 316.641C286.679 333.332 289.071 352.242 288.153 371.779C286.871 395.234 283.212 418.5 277.23 441.219V441.219Z" fill="black"/>
<path d="M293.543 291.653L260.895 292.642C257.311 292.762 253.83 293.874 250.843 295.854C247.855 297.835 245.479 300.606 243.979 303.858L214.811 367.509L268.555 365.845L298.86 299.661C299.257 298.786 299.425 297.825 299.349 296.868C299.272 295.911 298.953 294.989 298.422 294.189C297.89 293.388 297.164 292.735 296.311 292.292C295.457 291.849 294.505 291.629 293.543 291.653V291.653Z" fill="white"/>
<path d="M212.757 368.884L242.795 303.303C244.362 299.801 246.888 296.812 250.081 294.679C253.274 292.545 257.006 291.355 260.847 291.243L293.495 290.23C294.686 290.191 295.868 290.456 296.927 291.001C297.986 291.546 298.888 292.352 299.547 293.344C300.206 294.335 300.6 295.478 300.691 296.664C300.782 297.85 300.568 299.039 300.068 300.119L269.426 367.027L212.757 368.884ZM293.592 292.956L260.92 293.969C257.582 294.06 254.338 295.085 251.556 296.927C248.775 298.769 246.568 301.355 245.188 304.389L216.913 366.135L267.662 364.567L297.627 299.131C297.942 298.458 298.078 297.716 298.024 296.976C297.969 296.236 297.725 295.523 297.316 294.903C296.906 294.284 296.344 293.78 295.684 293.439C295.023 293.098 294.287 292.932 293.543 292.956H293.592Z" fill="black"/>
<path d="M212.805 391.581C212.805 391.581 217.977 393.703 227.111 391.581C232.273 390.445 237.285 388.713 242.046 386.419C242.046 386.419 258.793 389.145 263.964 386.419C266.832 384.988 269.317 382.896 271.214 380.317C271.214 380.317 275.781 379.424 276.047 375.493C276.313 371.561 288.782 364.036 289.556 359.067C290.45 353.134 265.39 348.744 252.074 349.42C249.658 349.42 253.259 345.922 265.027 348.358C277.279 350.77 285.786 348.503 286.1 344.258C286.414 340.013 274.162 338.011 265.946 335.575C257.729 333.139 244.631 333.766 236.101 335.575C227.57 337.384 206.28 346.067 206.28 346.067" fill="white"/>
<path d="M219.353 393.824C216.957 393.904 214.567 393.553 212.297 392.787L213.311 390.375L212.804 391.605L213.311 390.375C217.725 391.638 222.406 391.638 226.82 390.375C231.83 389.24 236.694 387.54 241.32 385.31L241.706 385.117H242.141C246.685 385.84 259.323 387.312 263.238 385.237C265.914 383.914 268.247 381.991 270.053 379.618L270.367 379.159L270.899 379.039C271.044 379.039 274.5 378.267 274.717 375.372C274.91 372.96 277.907 370.187 281.363 367.003C284.287 364.302 287.912 360.973 288.25 358.851C288.25 358.73 288.25 358.392 287.791 357.789C283.948 353.52 264.132 350.119 252.146 350.553C251.767 350.633 251.372 350.589 251.02 350.429C250.668 350.268 250.377 349.999 250.189 349.661C250.049 349.389 249.991 349.084 250.021 348.78C250.051 348.476 250.168 348.188 250.358 347.949C251.445 346.501 256.327 345.03 265.292 346.887C274.959 348.913 281.266 347.587 283.586 345.826C283.906 345.625 284.177 345.357 284.382 345.04C284.586 344.724 284.719 344.366 284.77 343.993C284.939 341.726 276.699 339.603 271.237 338.204C269.28 337.698 267.322 337.191 265.558 336.685C257.535 334.273 244.8 334.9 236.366 336.685C227.932 338.47 207.004 347.008 206.787 347.104L205.796 344.692C206.666 344.331 227.279 335.961 235.81 334.128C244.341 332.295 257.873 331.716 266.307 334.128C268.047 334.635 269.956 335.141 271.89 335.648C280.033 337.722 287.718 339.7 287.404 344.138C287.335 344.89 287.1 345.617 286.715 346.268C286.331 346.918 285.807 347.476 285.181 347.9C282.641 349.508 279.706 350.384 276.699 350.433C282.692 351.808 287.694 353.689 289.748 355.932C290.162 356.349 290.475 356.855 290.663 357.411C290.852 357.967 290.911 358.558 290.836 359.14C290.377 362.179 286.703 365.556 283.151 368.788C280.734 371.2 277.448 374.022 277.351 375.421C277.165 376.837 276.549 378.163 275.585 379.219C274.622 380.275 273.357 381.012 271.962 381.33C269.928 383.873 267.374 385.953 264.471 387.432C259.348 390.134 245.138 388.108 242.141 387.625C237.395 389.855 232.42 391.561 227.304 392.714C224.703 393.377 222.036 393.749 219.353 393.824Z" fill="black"/>
<path d="M3.96298 301.277C-4.37425 362.686 8.24023 386.419 26.5096 396.742C44.779 407.066 123.874 415.58 158.649 411.938C193.423 408.296 196.686 399.179 196.686 399.179L210.001 397.345C210.001 397.345 215.656 388.228 214.424 373.033C213.191 357.838 204.081 339.893 204.081 339.893L189.581 342.305C189.581 342.305 191.998 330.751 163.989 333.188C135.981 335.624 77.1855 345.657 54.0346 338.011" fill="white"/>
<path d="M138.906 414.108C100.386 414.108 42.001 407.017 25.8582 397.876C2.8281 384.851 -4.54258 354.099 2.65885 301.108L5.26881 301.47C-3.98673 369.511 13.316 387.77 27.1631 395.536C44.4175 405.305 122.981 414.301 158.505 410.563C191.467 407.114 195.43 398.72 195.478 398.624L195.768 397.948L196.518 397.804L209.18 396.067C212.586 388.903 213.948 380.943 213.12 373.057C212.08 360.153 205.121 345.006 203.453 341.292L187.89 343.872L188.301 341.991C188.351 341.306 188.255 340.618 188.017 339.973C187.78 339.329 187.407 338.742 186.924 338.253C184.7 335.841 178.925 333.163 164.111 334.442C157.755 334.996 149.612 335.961 141.033 336.974C110.197 340.64 71.7975 345.199 53.6247 339.241L54.4463 336.829C72.0632 342.594 111.744 337.891 140.743 334.417C149.346 333.404 157.49 332.44 163.894 331.885C176.726 330.751 185.16 332.367 188.954 336.709C190.002 337.857 190.676 339.295 190.887 340.833L204.927 338.421L205.362 339.266C205.749 340.013 214.642 357.621 215.874 372.912C217.107 388.204 211.476 397.635 211.259 398.021L210.92 398.551L197.653 400.36C196.083 402.772 189.026 410.008 158.988 413.216C152.314 413.854 145.611 414.152 138.906 414.108V414.108Z" fill="black"/>
<path d="M202.148 216.714C200.359 204.847 202.148 155.908 168.871 151.591C135.595 147.274 131.318 124.577 131.318 124.577C131.318 124.577 117.277 125.566 94.1263 147.684C70.9754 169.801 81.3425 183.212 81.3425 183.212" fill="white"/>
<path d="M200.866 216.714C200.6 214.953 200.407 212.541 200.19 209.478C198.885 192.209 196.202 156.27 168.774 152.773C139.437 149.01 131.945 130.873 130.447 125.928C126.798 126.676 113.99 130.463 95.1164 148.528C73.0771 169.584 82.3569 182.151 82.4535 182.295L80.3753 183.911C79.9161 183.333 69.5489 169.44 93.2798 146.647C116.503 124.433 130.713 123.203 131.317 123.154H132.477L132.694 124.312C132.863 125.204 137.213 146.188 169.112 150.265C198.764 154.051 201.543 191.413 202.945 209.382C203.162 212.276 203.355 214.76 203.597 216.4L200.866 216.714Z" fill="black"/>
<path d="M27.0176 321.465C38.9498 315.717 52.2212 313.308 65.4172 314.495C87.964 316.304 103.841 340.688 103.841 340.688" fill="white"/>
<path d="M102.826 341.412C102.681 341.171 87.046 317.534 65.4175 315.797C52.4799 314.635 39.4685 316.994 27.767 322.623L26.4863 320.211C38.6206 314.251 52.1669 311.747 65.6349 312.975C88.5442 314.832 104.3 338.783 105.025 339.796L102.826 341.412Z" fill="black"/>
<path d="M95.3829 329.617L92.9663 328.797C92.9663 328.797 98.3554 312.227 106.765 286.661C114.74 262.324 86.3691 240.833 86.0791 240.833L87.6499 238.711C88.8824 239.627 117.833 261.48 109.278 287.601C100.844 313.047 95.3829 329.617 95.3829 329.617Z" fill="black"/>
<path d="M177.595 232.995C177.595 232.995 159.011 199.831 130.206 197.419C101.4 195.007 86.707 189.194 86.707 189.194" fill="white"/>
<path d="M176.435 233.598C176.266 233.26 157.851 200.892 130.109 198.697C101.448 196.43 86.9245 190.641 86.3203 190.4L87.3112 187.988C87.4562 187.988 102.125 193.873 130.326 196.092C159.47 198.504 177.982 230.945 178.658 232.271L176.435 233.598Z" fill="black"/>
<path d="M5.26838 302.531L2.68262 302.121C2.68262 301.566 11.5998 247.659 25.906 212.613C40.2122 177.568 78.2734 176.868 79.3609 176.868V179.497C78.4426 179.497 42.1455 179.835 28.3468 213.602C14.1614 248.359 5.26838 302 5.26838 302.531Z" fill="black"/>
<path d="M196.686 398.189C196.686 398.189 187.938 384.658 189.436 341.34Z" fill="white"/>
<path d="M195.599 398.913C195.212 398.334 186.633 384.441 188.155 341.292H190.765C189.291 383.501 197.725 397.249 197.798 397.394L195.599 398.913Z" fill="black"/>
<path d="M615.554 193.655C615.554 193.655 590.638 192.57 591.001 216.593C591.363 240.616 597.961 256.197 624.205 260.804C650.449 265.411 686.045 255.98 700.835 227.23C715.624 198.479 713.594 192.112 704.871 184.852C696.147 177.592 676.693 177.616 670.627 187.674C664.562 197.732 633.364 216.617 633.364 216.617L615.554 193.655Z" fill="#3B37FF"/>
<path d="M663.087 219.994C653.595 213.216 644.702 205.639 636.505 197.346C624.059 184.563 615.891 185.431 601.054 187.023L600.764 184.418C615.263 182.85 624.929 181.813 638.39 195.513C646.454 203.695 655.21 211.168 664.561 217.848L663.087 219.994Z" fill="black"/>
<path d="M728.19 343.535H557.651V352.507H728.19V343.535Z" fill="white"/>
<path d="M729.496 353.809H556.251V342.135H729.424L729.496 353.809ZM558.958 351.18H726.886V344.837H558.958V351.18Z" fill="black"/>
<path d="M532.205 239.458H660.912L686.335 343.534H557.628L532.205 239.458Z" fill="white"/>
<path d="M688.027 344.836H556.613L530.538 238.156H661.952L688.027 344.836ZM558.667 342.135H684.644L659.874 240.833H533.873L558.667 342.135Z" fill="black"/>
<path d="M41.6621 329.569C41.6621 329.569 35.4273 350.239 79.3608 352.506C123.294 354.774 156.885 343.92 166.503 343.534C176.121 343.148 178.054 384.537 181.003 391.99C183.951 399.443 155.725 416.11 98.2586 401.517C40.7921 386.925 18.5112 378.99 19.3087 357.041C20.1062 335.092 41.6621 329.569 41.6621 329.569Z" fill="#CACACA"/>
<path d="M299.391 329.208C302.899 330.932 305.843 333.616 307.88 336.947C309.916 340.278 310.962 344.119 310.894 348.021C310.894 361.914 317.153 433.862 317.153 433.862H281.774C281.774 433.862 303.983 349.854 299.391 329.208Z" fill="#CACACA"/>
</g>
<defs>
<clipPath id="clip0_40_351">
<rect width="817" height="442.159" fill="white"/>
</clipPath>
</defs>
</svg>
