<svg width="410" height="405" viewBox="0 0 410 405" fill="none" xmlns="http://www.w3.org/2000/svg">
<path d="M38.1843 232.443C38.1843 232.443 49.4501 238.73 49.4501 271.189C49.4501 293.217 41.614 316.84 41.614 316.84C41.614 316.84 61.5734 311.482 73.4823 323.58C85.3912 335.677 89.0591 365.897 88.7495 376.923C88.4399 387.949 73.4823 405 73.4823 405C73.4823 405 0.266305 403.738 0.266305 338.106C0.266305 272.475 -5.64056 213.439 38.1843 232.443Z" fill="#3B37FF"/>
<path d="M382.138 396.355H92.6083V395.164H380.947V69.6966H55.4287V196.983H54.2378V68.5059H382.138V396.355Z" fill="black"/>
<path d="M77.8887 170.288L73.4824 187.006L87.3206 207.748H120.785L119.57 191.316" fill="white"/>
<path d="M122.071 208.938H86.6775L72.1963 187.22L76.7455 169.979L79.032 170.598L74.7686 186.767L87.9637 206.557H119.499L118.379 191.411L120.761 191.245L122.071 208.938Z" fill="black"/>
<path d="M89.5832 403.952C82.1044 403.952 4.19629 401.761 1.76687 322.389C0.337802 276.07 4.36302 221.584 13.5329 210.581C22.155 200.246 41.4712 201.222 44.9486 201.484C49.3788 197.817 61.1209 192.459 61.6211 192.221L62.6214 194.388C62.5023 194.388 49.9266 200.175 46.1634 203.604L45.7822 203.961H45.2344C45.0439 203.961 23.7983 202.008 15.3668 212.177C6.93525 222.346 2.76722 277.499 4.14866 322.389C6.53044 402.88 89.0116 401.69 89.8929 401.666L166.372 384.567H166.563C166.777 384.567 188.213 386.306 191.095 373.422C192.881 365.516 196.597 349.013 186.331 293.431C182.187 270.831 172.041 226.323 166.205 220.798C160.37 215.273 140.339 209.772 140.006 209.724L139.505 209.581L139.267 209.129C139.267 209.129 134.385 200.508 127.62 200.913L127.501 198.531C134.956 198.055 139.91 205.676 141.101 207.533C144.293 208.414 161.608 213.296 167.73 219.059C175.042 225.989 186.022 279.142 188.546 292.883C198.812 348.941 195.025 365.754 193.31 373.851C190.071 388.139 168.825 387.044 166.42 386.854L90.1549 403.952H89.5832Z" fill="black"/>
<path d="M89.75 330.129C89.75 330.129 101.659 347.132 96.538 374.804L91.3458 402.452C91.3458 402.452 140.935 399.214 161.061 389.164C181.187 379.115 177.233 359.349 174.708 348.561C172.87 341.338 170.217 334.348 166.801 327.724C166.801 327.724 148.485 333.844 89.75 330.129Z" fill="white"/>
<path d="M89.8928 403.737L95.3709 374.565C100.373 347.774 88.8924 330.985 88.7733 330.818L87.3682 328.794L89.7499 328.937C147.389 332.581 166.157 326.675 166.324 326.556L167.277 326.246L167.753 327.127C171.25 333.829 173.944 340.918 175.78 348.25C177.947 357.585 182.925 379.399 161.489 390.187C141.387 400.237 93.3702 403.475 91.3219 403.594L89.8928 403.737ZM91.965 331.461C94.966 336.796 101.968 352.299 97.705 375.017L92.7986 401.213C101.302 400.546 142.816 396.998 160.513 388.139C180.401 378.208 175.78 358.395 173.541 348.893C171.825 342.076 169.356 335.471 166.181 329.199C161.751 330.318 141.911 334.462 91.965 331.461V331.461Z" fill="black"/>
<path d="M92.0126 337.868C92.0126 337.63 84.5338 314.316 60.5969 311.673C36.1597 308.934 24.6557 312.744 24.5604 312.792L23.7744 310.53C24.2508 310.363 35.8263 306.505 60.8588 309.315C86.3915 312.173 94.2038 336.963 94.2038 337.225L92.0126 337.868Z" fill="black"/>
<path d="M59.5252 310.434C59.5252 309.91 58.8583 258.043 54.2853 242.944C51.4356 233.918 45.5434 226.158 37.6128 220.988L38.7798 218.916C47.3007 224.334 53.6157 232.607 56.5955 242.254C61.3591 257.685 61.907 308.267 61.9309 310.41L59.5252 310.434Z" fill="black"/>
<path d="M160.346 243.659C160.346 243.659 171.826 284.977 172.255 296.05C172.255 296.05 164.372 307.195 166.872 327.652" fill="white"/>
<path d="M165.633 327.89C163.252 308.838 169.635 297.884 170.992 295.788C170.397 284.381 159.298 244.397 159.083 243.993L161.465 243.35C161.942 245.04 172.993 284.929 173.374 296.074V296.479L173.136 296.812C173.136 296.812 165.538 307.862 167.968 327.58L165.633 327.89Z" fill="black"/>
<path d="M266.955 319.246C266.955 319.246 265.406 349.704 246.543 357.348C228.832 363.963 210.717 369.443 192.31 373.756C190.785 373.756 162.251 304.505 162.251 304.505L212.126 317.269C212.126 317.269 208.768 306.029 220.629 309.053C220.629 309.053 237.111 248.851 252.331 232.491C267.55 216.13 292.821 213.439 292.821 213.439" fill="white"/>
<path d="M192.31 374.898C191.286 374.898 189.928 374.898 161.156 304.909L160.251 302.718L210.602 315.601C210.376 314.463 210.401 313.289 210.677 312.162C210.953 311.035 211.472 309.982 212.198 309.076C213.229 308.196 214.471 307.597 215.802 307.338C217.134 307.079 218.509 307.17 219.796 307.6C222.177 299.098 237.183 246.993 251.449 231.633C266.788 215.106 291.678 212.367 292.726 212.248L292.964 214.629C292.726 214.629 267.908 217.392 253.188 233.252C238.469 249.112 221.939 308.719 221.772 309.457L221.463 310.577L220.343 310.291C218.176 309.719 215.318 309.386 213.913 310.838C212.507 312.291 212.912 315.839 213.27 317.006L213.841 319.007L164.252 306.314C174.756 331.747 190.047 367.992 192.834 372.565C210.907 368.21 228.707 362.786 246.138 356.323C264.049 349.179 265.764 319.602 265.788 319.316L268.17 319.435C268.17 320.698 266.359 350.727 247.019 358.538C229.163 365.191 210.887 370.657 192.31 374.898Z" fill="black"/>
<path d="M370.729 220.346C370.729 220.346 398.715 270.212 391.808 327.771C384.901 385.33 382.281 395.761 382.281 395.761H258.833L261.763 357.301C259.929 351.538 267.765 335.868 267.765 335.868C265.026 332.224 266.955 319.198 266.955 319.198C262.501 314.126 260.357 300.147 261.763 288.573" fill="white"/>
<path d="M383.114 396.951H257.594L260.571 357.443C259.047 351.728 264.883 339.13 266.431 336.01C264.239 331.914 265.359 322.27 265.716 319.674C261.429 314.197 259.142 300.48 260.595 288.549L262.977 288.835C261.548 300.313 263.811 313.911 267.86 318.531L268.241 318.936V319.483C267.526 324.246 267.05 332.867 268.836 335.225L269.265 335.82L268.955 336.463C266.836 340.702 261.643 352.656 263.025 357.014V357.229V357.467L260.19 394.641H381.304C382.042 391.116 384.924 375.899 390.712 327.699C397.476 271.165 370.038 221.488 369.776 220.988L371.849 219.821C372.134 220.345 399.93 270.688 393.07 327.985C386.211 385.282 383.543 395.712 383.4 396.141L383.114 396.951Z" fill="black"/>
<path d="M311.637 387.568H140.744V395.76H311.637V387.568Z" fill="white"/>
<path d="M312.828 396.95H139.529V386.377H312.828V396.95ZM141.911 394.569H310.446V388.758H141.911V394.569Z" fill="black"/>
<path d="M300.204 362.611C294.091 359.359 287.316 357.542 280.395 357.299C273.474 357.055 266.589 358.392 260.262 361.206C247.362 366.471 236.145 375.158 227.822 386.33L313.161 387.568C313.426 382.631 312.365 377.712 310.086 373.323C307.808 368.935 304.396 365.236 300.204 362.611Z" fill="white"/>
<path d="M314.233 388.783L225.655 387.497L226.822 385.687C235.246 374.291 246.653 365.441 259.786 360.111C266.281 357.19 273.363 355.806 280.48 356.066C287.598 356.326 294.559 358.224 300.824 361.611C305.243 364.339 308.835 368.219 311.214 372.834C313.593 377.449 314.67 382.626 314.329 387.807L314.233 388.783ZM230.156 385.187L312.042 386.378C312.085 381.835 310.96 377.358 308.775 373.376C306.589 369.393 303.417 366.039 299.561 363.635C293.609 360.504 287.025 358.758 280.303 358.527C273.58 358.296 266.892 359.586 260.738 362.302C248.814 367.294 238.308 375.155 230.156 385.187V385.187Z" fill="black"/>
<path d="M355.629 206.891C372.321 210.571 386.878 220.708 396.119 235.087C412.53 259.71 407.29 304.719 405.646 319.293C404.003 333.868 391.356 371.97 391.356 371.97C391.356 371.97 372.802 386.568 338.956 387.473C305.111 388.378 304.492 387.473 304.492 387.473C314.329 377.733 296.751 366.707 286.748 358.182C286.748 358.182 307.636 342.369 328 340.035C335.065 339.426 342.078 338.312 348.984 336.701C344.987 322.751 344.464 308.035 347.459 293.836C350.561 278.887 356.442 264.654 364.799 251.875" fill="white"/>
<path d="M315.52 389.045C304.492 389.045 304.087 388.545 303.801 388.188L303.158 387.354L303.92 386.592C304.729 385.894 305.375 385.026 305.811 384.051C306.247 383.076 306.464 382.016 306.445 380.948C306.135 375.066 298.109 368.636 291.035 362.968C289.344 361.635 287.724 360.325 286.271 359.063L285.152 358.11L286.319 357.205C287.176 356.562 307.755 341.179 328.167 338.845C334.749 338.178 341.292 337.168 347.769 335.82C344.075 322.026 343.659 307.558 346.554 293.574C349.712 278.474 355.648 264.093 364.06 251.161L366.013 252.542C357.773 265.198 351.95 279.272 348.841 294.05C345.938 308.048 346.453 322.54 350.341 336.297L350.77 337.464L349.555 337.821C342.573 339.464 335.481 340.594 328.334 341.202C311.28 343.155 293.607 354.895 288.891 358.229L292.44 361.111C299.919 367.088 308.398 373.875 308.755 380.805C308.847 382.853 308.233 384.871 307.017 386.521C310.184 386.687 318.354 386.83 339.099 386.259C369.848 385.425 388.021 372.97 390.427 371.208C391.713 367.326 403.122 332.701 404.527 319.15L404.67 317.912C406.337 301.885 410.815 259.329 395.143 235.73C386.027 221.684 371.791 211.748 355.462 208.034L355.819 205.652C356.82 205.795 380.614 209.582 397.143 234.372C413.34 258.686 408.814 301.861 407.099 318.103L406.98 319.365C405.456 333.915 393.166 370.708 392.689 372.28V372.613L392.427 372.827C391.641 373.447 373.159 387.687 339.409 388.592C328.334 388.926 320.712 389.045 315.52 389.045Z" fill="black"/>
<path d="M366.561 200.079C366.561 200.079 385.115 210.343 381.781 222.846C378.446 235.348 336.527 281.547 300.8 265.711C265.073 249.875 271.337 212.796 271.337 212.796C271.337 212.796 289.201 158.5 366.561 200.079Z" fill="white"/>
<path d="M316.424 270.212C310.886 270.236 305.406 269.083 300.347 266.831C264.358 250.828 270.122 213.011 270.17 212.63C272.373 206.796 275.766 201.484 280.133 197.032C284.5 192.579 289.745 189.084 295.536 186.768C314.066 179.361 338.122 183.481 366.989 199.032C367.799 199.484 386.33 209.915 382.781 223.156C380.542 231.514 362.631 253.471 340.028 264.259C332.706 267.988 324.639 270.023 316.424 270.212V270.212ZM315.138 185.577C308.755 185.502 302.416 186.65 296.465 188.959C291.042 191.18 286.124 194.472 282.003 198.637C277.882 202.802 274.643 207.756 272.48 213.201C272.29 214.511 267.026 249.423 301.324 264.664C312.47 269.617 325.142 268.76 339.075 262.116C360.702 251.78 378.47 230.324 380.542 222.537C383.59 211.153 366.251 201.318 365.918 201.104C346.721 190.768 329.715 185.577 315.209 185.577H315.138Z" fill="black"/>
<path d="M331.811 127.065C331.811 127.065 326.809 118.135 306.85 120.897C288.415 123.469 279.888 136.877 275.029 149.784C270.17 162.691 273.791 180.171 268.622 192.03C263.454 203.89 262.858 205.128 261.786 211.343C260.715 217.559 290.606 207.914 290.606 207.914" fill="white"/>
<path d="M265.812 214.606C264.286 214.751 262.755 214.391 261.453 213.582C261.105 213.303 260.842 212.932 260.695 212.511C260.547 212.09 260.521 211.636 260.619 211.201C261.667 205.08 262.263 203.699 266.931 193.03L267.55 191.602C270.099 185.767 270.408 178.528 270.766 170.859C271.123 163.191 271.456 155.928 273.91 149.427C280.603 131.59 291.344 121.898 306.683 119.778C327.214 116.921 332.644 126.137 332.883 126.518L330.81 127.708C330.81 127.708 325.809 119.54 306.993 122.136C292.392 124.16 282.555 133.09 276.029 150.26C273.648 156.404 273.386 163.811 273.052 170.979C272.719 178.147 272.361 186.315 269.622 192.554L269.003 193.983C264.454 204.414 263.859 205.771 262.858 211.605C264.907 213.534 278.578 210.558 290.13 206.843L290.868 209.224C286.295 210.558 273.124 214.606 265.812 214.606Z" fill="black"/>
<path d="M280.245 161.358C280.457 164.112 280.895 166.844 281.555 169.526C269.432 187.41 287.629 207.081 287.629 207.081C289.423 209.688 291.829 211.818 294.635 213.283C297.441 214.748 300.564 215.505 303.73 215.487C322.188 216.178 336.289 193.34 336.289 193.34C337.337 191.411 338.289 189.506 339.194 187.648C339.691 188.255 340.329 188.729 341.052 189.03C344.339 190.339 348.483 187.672 350.317 183.076C352.151 178.48 350.984 173.693 347.721 172.384C346.888 172.058 345.982 171.967 345.101 172.122C351.151 149.951 343.72 135.281 328.429 130.471" fill="white"/>
<path d="M304.516 216.702H303.658C300.31 216.711 297.009 215.905 294.042 214.353C291.075 212.801 288.531 210.55 286.628 207.795C285.271 206.247 268.765 187.006 280.269 169.312C279.653 166.736 279.239 164.117 279.03 161.477L281.412 161.286C281.607 163.97 282.038 166.632 282.698 169.24L282.841 169.764L282.532 170.217C271.052 187.125 288.296 206.104 288.486 206.295L288.629 206.486C290.311 208.929 292.568 210.921 295.201 212.287C297.835 213.653 300.763 214.352 303.73 214.32H304.516C321.712 214.32 335.121 192.888 335.264 192.721C336.193 190.983 337.146 189.149 338.122 187.125L338.909 185.481L340.099 186.863C340.468 187.335 340.952 187.704 341.505 187.934C342.187 188.158 342.914 188.214 343.623 188.098C344.331 187.982 345.002 187.697 345.577 187.267C347.236 186.131 348.5 184.509 349.198 182.624C350.77 178.718 349.889 174.527 347.269 173.479C346.64 173.234 345.956 173.168 345.292 173.289L343.482 173.598L343.958 171.812C349.484 151.523 343.577 136.496 328.143 131.614L328.857 129.352C345.268 134.519 351.842 149.998 346.673 170.883C347.179 170.951 347.675 171.079 348.15 171.264C352.032 172.812 353.509 178.409 351.413 183.505C350.523 185.847 348.935 187.859 346.864 189.268C345.973 189.91 344.938 190.324 343.85 190.473C342.762 190.623 341.654 190.503 340.623 190.125C340.251 189.991 339.898 189.806 339.575 189.577C338.813 191.102 338.075 192.53 337.337 193.912C336.717 194.983 323.046 216.702 304.516 216.702Z" fill="black"/>
<path d="M310.732 194.103C306.518 194.831 302.241 195.134 297.966 195.008C292.702 194.603 291.083 192.793 291.083 192.793" fill="white"/>
<path d="M300.181 196.269C299.395 196.269 298.609 196.269 297.799 196.269C292.226 195.84 290.32 193.887 290.106 193.649L291.892 192.054C293.678 193.299 295.814 193.941 297.99 193.887C302.169 194.007 306.349 193.712 310.47 193.006L310.875 195.388C307.337 195.943 303.762 196.238 300.181 196.269V196.269Z" fill="black"/>
<path d="M297.156 186.196C297.156 186.196 293.107 185.887 292.392 183.815C291.678 181.743 299.18 168.312 298.561 165.573" fill="white"/>
<path d="M297.06 187.387C296.584 187.387 292.297 186.935 291.178 184.196C290.654 182.815 291.63 180.314 294.155 174.504C295.571 171.745 296.628 168.815 297.299 165.788L299.68 165.264C300.061 166.931 298.68 170.217 296.394 175.456C295.123 177.99 294.14 180.658 293.464 183.41C293.821 184.291 295.846 184.91 297.299 185.006L297.06 187.387Z" fill="black"/>
<path d="M306.135 169.503C306.135 169.503 307.374 164.025 312.233 164.335C315.674 164.895 318.837 166.568 321.236 169.098" fill="white"/>
<path d="M320.378 169.812C318.169 167.54 315.289 166.037 312.161 165.525C308.422 165.287 307.397 169.574 307.397 169.764L305.016 169.24C305.315 167.519 306.218 165.96 307.562 164.843C308.906 163.726 310.604 163.124 312.351 163.144C316.083 163.683 319.528 165.451 322.141 168.169L320.378 169.812Z" fill="black"/>
<path d="M321.188 160.072C321.188 160.072 317.71 154.643 313.233 156.357C310.23 157.581 307.371 159.13 304.706 160.977" fill="white"/>
<path d="M305.444 161.953L304.063 160C306.81 158.082 309.766 156.484 312.876 155.237C318.163 153.213 322.069 159.167 322.236 159.429L320.235 160.715C320.235 160.715 317.234 156.142 313.709 157.476C310.795 158.653 308.022 160.155 305.444 161.953Z" fill="black"/>
<path d="M294.988 163.096C294.988 163.096 289.891 156.404 284.651 161.5Z" fill="white"/>
<path d="M294.107 163.811C292.887 162.246 291.146 161.173 289.2 160.786C288.512 160.767 287.827 160.898 287.194 161.17C286.561 161.441 285.994 161.846 285.533 162.358L283.889 160.643C284.592 159.898 285.447 159.312 286.396 158.925C287.346 158.539 288.367 158.362 289.391 158.405C292.012 158.839 294.37 160.252 295.989 162.358L294.107 163.811Z" fill="black"/>
<path d="M293.393 168.359C293.216 167.498 292.766 166.718 292.109 166.134C291.452 165.55 290.624 165.194 289.748 165.12C286.604 164.81 284.985 168.978 284.985 168.978" fill="white"/>
<path d="M286.104 169.407L283.889 168.526C283.889 168.335 285.914 163.525 289.867 163.929C291.011 164.02 292.095 164.48 292.954 165.241C293.813 166.001 294.402 167.02 294.631 168.145L292.249 168.573C292.132 167.96 291.813 167.403 291.342 166.993C290.872 166.583 290.277 166.343 289.653 166.311C287.438 166.12 286.104 169.359 286.104 169.407Z" fill="black"/>
<path d="M291.082 170.812C292.056 170.812 292.845 169.745 292.845 168.43C292.845 167.115 292.056 166.049 291.082 166.049C290.109 166.049 289.32 167.115 289.32 168.43C289.32 169.745 290.109 170.812 291.082 170.812Z" fill="black"/>
<path d="M316.258 171.003C317.231 171.003 318.02 169.937 318.02 168.622C318.02 167.306 317.231 166.24 316.258 166.24C315.284 166.24 314.495 167.306 314.495 168.622C314.495 169.937 315.284 171.003 316.258 171.003Z" fill="black"/>
<path d="M320.212 139.067C320.212 139.067 316.877 142.116 308.803 140.901C300.729 139.687 293.75 146.069 289.892 151.07C285.971 155.711 281.797 160.131 277.387 164.31" fill="white"/>
<path d="M278.316 165.192L276.672 163.453C281.029 159.317 285.156 154.944 289.034 150.356C291.868 146.664 299.537 138.282 309.088 139.711C316.377 140.83 319.497 138.21 319.521 138.187L321.116 139.949C320.95 140.092 317.258 143.354 308.731 142.068C300.204 140.782 293.512 148.474 290.915 151.808C286.963 156.496 282.757 160.964 278.316 165.192V165.192Z" fill="black"/>
<path d="M100.706 288.62H202.051L242.089 387.568H140.744L100.706 288.62Z" fill="white"/>
<path d="M243.852 388.759H139.934L139.625 388.021L98.9199 287.43H202.837L203.147 288.192L243.852 388.759ZM141.435 386.377H240.207L201.146 289.811H102.469L141.435 386.377Z" fill="black"/>
<path d="M257.094 249.16C257.094 249.16 247.019 277.261 266.24 293.216Z" fill="white"/>
<path d="M265.478 294.122C245.828 277.833 255.951 249.042 255.951 248.875L258.19 249.685C258.19 249.947 248.663 277.19 266.979 292.407L265.478 294.122Z" fill="black"/>
<path d="M160.346 280.905C160.346 280.905 156.964 282.048 138.315 283.286C119.665 284.524 73.4825 282.119 73.4825 282.119C73.4825 282.119 71.1007 240.992 54.8331 227.68C38.5655 214.368 31.2773 212.201 31.2773 212.201L49.4502 209.462C49.4502 209.462 55.6668 200.603 65.1701 202.318C74.6734 204.033 93.7515 223.751 112.544 223.203C131.336 222.655 124.072 202.127 124.072 202.127C124.072 202.127 132.717 206.033 133.289 212.296C133.861 218.559 142.364 214.082 150.867 217.321C159.37 220.56 162.252 223.798 162.252 223.798C162.252 223.798 150.462 227.061 152.081 238.087C153.701 249.113 159.679 261.948 160.346 280.905Z" fill="#3B37FF"/>
<path d="M117.927 238.73C113.687 221.346 111.234 219.155 111.234 219.155C112.481 216.96 113.564 214.676 114.473 212.32C116.474 207.558 116.855 191.316 116.855 191.316C116.855 191.316 131.408 196.079 135.909 203.7C140.411 211.32 144.793 232.277 144.793 232.277C144.793 232.277 124.381 223.918 117.927 238.73Z" fill="white"/>
<path d="M117.593 242.444L116.759 239.015C112.806 222.774 110.495 220.107 110.4 219.964L109.662 219.297L110.233 218.487C111.408 216.33 112.45 214.103 113.353 211.819C115.259 207.247 115.568 191.411 115.568 191.268V189.648L117.093 190.149C117.712 190.363 132.146 195.221 136.885 203.032C141.625 210.843 145.746 231.014 145.912 231.871L146.365 234.038L144.293 233.204C143.507 232.895 124.881 225.584 118.974 239.158L117.593 242.444ZM112.663 219.083C113.615 220.583 115.568 224.679 118.331 235.491C124.786 225.965 138.076 228.823 143.197 230.371C141.982 224.941 138.434 210.248 134.908 204.318C131.383 198.388 121.69 194.459 117.926 193.006C117.783 197.317 117.259 208.676 115.545 212.772C114.187 216.106 113.187 218.106 112.663 219.083V219.083Z" fill="black"/>
<path d="M116.617 234.562C116.617 234.562 108.948 215.297 89.917 223.56C70.8866 231.824 65.1703 232.157 65.1703 232.157C65.1703 232.157 57.6914 199.675 62.1215 193.293C66.1035 188.027 70.466 183.061 75.1738 178.433C78.2392 187.066 82.8742 195.059 88.8452 202.009C98.8963 213.844 114.473 211.248 116.617 234.562Z" fill="white"/>
<path d="M118.546 242.612L115.497 235.015C113.406 230.12 109.617 226.145 104.827 223.822C102.493 222.961 100.007 222.59 97.523 222.734C95.0395 222.877 92.6121 223.531 90.3931 224.656C71.3388 232.896 65.4797 233.324 65.2415 233.348H64.2173L64.003 232.348C63.2171 228.99 56.548 199.175 61.1449 192.554C65.1602 187.222 69.5709 182.199 74.3399 177.528L75.7452 176.146L76.3168 178.028C79.3605 186.484 83.9118 194.318 89.7501 201.151C92.9564 204.631 96.7648 207.503 100.992 209.629C108.542 213.987 116.331 218.464 117.807 234.372L118.546 242.612ZM74.6972 180.695C70.5059 184.856 66.6289 189.321 63.098 194.055C59.8349 198.818 63.9316 221.274 66.0752 230.895C68.457 230.443 75.1498 228.728 89.4405 222.536C91.9555 221.28 94.7033 220.558 97.511 220.414C100.319 220.271 103.126 220.71 105.756 221.703C109.201 223.205 112.191 225.587 114.425 228.609C112.044 218.845 106.256 215.559 99.8012 211.939C95.3179 209.686 91.2824 206.636 87.8923 202.937C82.2789 196.315 77.8185 188.796 74.6972 180.695V180.695Z" fill="black"/>
<path d="M135.814 377.042L133.432 376.876C133.432 376.185 138.196 309.553 128.454 278.523C118.713 247.493 113.33 226.466 113.282 226.275L115.664 225.68C115.664 225.894 121.047 246.588 130.812 277.809C140.577 309.029 135.885 376.352 135.814 377.042Z" fill="black"/>
<path d="M93.1562 187.458C96.3716 193.911 106.089 197.317 113.258 196.983C120.428 196.65 128.002 187.458 132.503 177.051C137.005 166.644 133.027 153.88 133.027 153.88C133.027 153.88 138.958 119.04 118.737 107.18C106.494 100.036 82.4382 100.036 71.6725 114.896C68.533 119.366 66.4695 124.501 65.6432 129.9C64.8168 135.3 65.25 140.817 66.9089 146.021" fill="white"/>
<path d="M112.21 198.174C104.636 198.174 95.3474 194.507 92.0843 187.982L94.2042 186.91C97.1814 192.84 106.375 196.126 113.258 195.769C119.308 195.483 126.62 187.743 131.455 176.551C135.695 166.668 131.979 154.332 131.932 154.213V153.951V153.665C131.932 153.308 137.481 119.492 118.117 108.18C106.613 101.465 83.1765 101.036 72.6252 115.587C69.6234 119.908 67.6488 124.857 66.8522 130.057C66.0555 135.258 66.4578 140.571 68.0284 145.592L65.8133 146.402C64.0343 141.033 63.5385 135.321 64.3657 129.726C65.193 124.13 67.3203 118.807 70.5769 114.182C81.8904 98.5357 106.947 98.9644 119.213 106.132C139.244 117.825 134.766 150.189 134.194 153.761C134.766 155.737 137.838 167.501 133.527 177.575C129.55 186.838 121.857 197.793 113.282 198.222L112.21 198.174Z" fill="black"/>
<path d="M71.2198 148.831C71.2198 148.831 64.9319 142.902 62.5977 147.212C60.2636 151.522 66.9088 170.383 71.7677 173.622C76.6265 176.861 78.4128 176.003 78.4128 176.003C78.4128 176.003 85.5581 193.959 103.112 189.982" fill="white"/>
<path d="M98.1578 191.697C85.5581 191.697 79.2703 180.528 77.6983 177.266C75.2878 177.032 72.9965 176.106 71.1007 174.599C66.1943 171.312 58.7631 151.809 61.5736 146.641C61.8581 146.087 62.2659 145.606 62.7655 145.235C63.2651 144.863 63.8433 144.611 64.4556 144.498C67.7425 143.974 71.6008 147.546 72.0772 147.951L70.4338 149.689C68.952 148.126 66.974 147.124 64.8366 146.855C64.5796 146.899 64.3379 147.007 64.1339 147.17C63.9299 147.332 63.7701 147.543 63.6696 147.784C61.6212 151.57 68.0282 169.669 72.4584 172.622C76.4359 175.265 77.9841 174.861 78.008 174.837L79.1512 174.265L79.556 175.527C79.818 176.218 86.4395 192.483 102.874 188.768L103.398 191.149C101.678 191.532 99.9196 191.716 98.1578 191.697V191.697Z" fill="black"/>
<path d="M116.902 141.878C116.902 141.878 115.569 149.284 116.379 151.57C117.188 153.856 121.499 162.739 120.69 166.383C119.88 170.026 115.164 172.169 112.996 170.169C110.829 168.169 109.638 168.145 108.233 168.478" fill="white"/>
<path d="M115.116 172.122C114.033 172.159 112.98 171.765 112.187 171.027C110.257 169.24 109.447 169.407 108.399 169.645L107.899 167.264C108.97 166.996 110.095 167.04 111.141 167.39C112.188 167.74 113.113 168.382 113.806 169.24C114.148 169.482 114.545 169.634 114.961 169.684C115.377 169.734 115.798 169.68 116.188 169.526C116.989 169.276 117.714 168.829 118.297 168.226C118.879 167.622 119.301 166.882 119.523 166.073C120.07 163.549 117.403 157.167 116.117 154.166L115.235 151.999C114.378 149.618 115.497 142.973 115.735 141.688L118.117 142.116C117.452 145.092 117.26 148.154 117.546 151.189C117.689 151.642 117.998 152.356 118.379 153.237C120.523 158.381 122.547 163.644 121.88 166.669C121.568 167.888 120.949 169.007 120.082 169.92C119.215 170.833 118.128 171.509 116.926 171.884C116.337 172.047 115.728 172.127 115.116 172.122V172.122Z" fill="black"/>
<path d="M101.016 176.956C101.016 176.956 117.212 180.862 124.071 176.004Z" fill="white"/>
<path d="M113.449 179.623C109.169 179.564 104.906 179.061 100.73 178.123L101.278 175.742C101.444 175.742 117.045 179.48 123.381 174.979L124.762 176.932C121.335 178.916 117.402 179.852 113.449 179.623V179.623Z" fill="black"/>
<path d="M92.0605 148.832C92.0605 148.832 99.8014 144.069 103.112 149.284Z" fill="white"/>
<path d="M102.064 149.904C101.659 149.261 100.444 147.332 96.562 148.237C95.1894 148.576 93.8736 149.114 92.6558 149.832L91.3936 147.832C92.8675 146.937 94.476 146.286 96.1571 145.903C97.6119 145.392 99.1961 145.384 100.656 145.88C102.116 146.377 103.366 147.349 104.208 148.641L102.064 149.904Z" fill="black"/>
<path d="M119.832 150.261C119.832 150.261 126.001 144.926 129.621 149.737Z" fill="white"/>
<path d="M120.594 151.165L119.046 149.356C121.102 147.571 123.73 146.583 126.453 146.569C127.267 146.662 128.053 146.921 128.762 147.331C129.471 147.74 130.088 148.292 130.574 148.951L128.668 150.38C128.398 149.977 128.046 149.636 127.636 149.378C127.226 149.119 126.766 148.95 126.286 148.879C124.186 148.979 122.18 149.784 120.594 151.165V151.165Z" fill="black"/>
<path d="M96.4903 151.618C97.4374 151.618 98.2052 150.573 98.2052 149.284C98.2052 147.995 97.4374 146.95 96.4903 146.95C95.5432 146.95 94.7754 147.995 94.7754 149.284C94.7754 150.573 95.5432 151.618 96.4903 151.618Z" fill="black"/>
<path d="M123.31 152.189C124.086 152.189 124.715 151.325 124.715 150.26C124.715 149.195 124.086 148.331 123.31 148.331C122.533 148.331 121.904 149.195 121.904 150.26C121.904 151.325 122.533 152.189 123.31 152.189Z" fill="black"/>
<path d="M108.685 144.331C104.457 141.959 99.5962 140.96 94.7754 141.473Z" fill="white"/>
<path d="M108.066 145.354C104.067 143.115 99.48 142.151 94.9184 142.592L94.561 140.21C99.6467 139.697 104.766 140.779 109.209 143.306L108.066 145.354Z" fill="black"/>
<path d="M120.285 144.331C121.31 143.464 122.537 142.87 123.852 142.604C125.168 142.338 126.53 142.407 127.811 142.807" fill="white"/>
<path d="M121.118 145.212L119.475 143.473C120.657 142.46 122.076 141.763 123.6 141.446C125.125 141.13 126.704 141.205 128.192 141.664L127.501 144.045C126.424 143.693 125.276 143.616 124.162 143.82C123.047 144.023 122.001 144.502 121.118 145.212Z" fill="black"/>
<path d="M101.016 112.73C106.256 115.421 105.041 126.732 99.8966 131.4C94.7519 136.068 88.4878 131.591 85.6058 135.71C81.5745 141.249 78.6989 147.541 77.1504 154.214L72.1249 152.214C72.1839 150.703 71.6731 149.226 70.6937 148.075C69.7142 146.923 68.3378 146.182 66.8374 145.998C61.3593 145.236 52.3561 125.661 70.5053 105.895C88.6545 86.1293 122.071 99.0842 127.811 108.062C132.918 116.796 135.705 126.691 135.909 136.806C136.076 144.688 133.837 143.402 133.837 143.402C129.335 137.702 124.44 132.323 119.189 127.304C113.806 122.779 113.639 129.257 115.426 132.067C116.491 133.751 117.694 135.344 119.022 136.83C115.673 137.505 112.195 137.046 109.136 135.523C106.078 134.001 103.615 131.502 102.135 128.423" fill="white"/>
<path d="M78.0791 155.881L70.9337 152.999V152.118C70.9956 150.904 70.591 149.713 69.8029 148.787C69.0147 147.862 67.9026 147.273 66.6942 147.141C64.1695 146.784 61.5495 143.759 59.9776 139.449C58.4056 135.139 54.952 121.041 69.5047 105.038C78.8175 94.9403 91.1551 93.702 99.8725 94.4641C113.33 95.631 125.31 102.061 128.716 107.371C133.926 116.287 136.771 126.386 136.981 136.71C136.981 141.092 136.48 143.497 135.099 144.331C134.799 144.507 134.458 144.599 134.111 144.599C133.763 144.599 133.422 144.507 133.122 144.331L132.789 144.045C128.332 138.416 123.494 133.101 118.307 128.137C116.688 126.756 115.926 126.78 115.926 126.899C115.378 127.351 115.426 129.804 116.402 131.4C117.419 133.086 118.582 134.68 119.879 136.163L121.189 137.639L119.284 138.115C115.998 138.774 112.59 138.416 109.514 137.088C106.437 135.761 103.838 133.527 102.064 130.685C101.64 131.219 101.179 131.72 100.682 132.186C99.4349 133.223 97.9887 133.995 96.4324 134.454C94.876 134.912 93.2422 135.048 91.6314 134.853C89.0353 134.853 87.5347 134.853 86.5582 136.305C82.5937 141.751 79.7667 147.938 78.2458 154.499L78.0791 155.881ZM73.3155 151.38L76.2927 152.571C78.024 146.281 80.8544 140.347 84.6528 135.043C86.3915 132.519 89.1068 132.543 91.7982 132.662C93.1072 132.839 94.4385 132.749 95.7117 132.397C96.985 132.045 98.1735 131.438 99.2055 130.614C100.723 129.021 101.871 127.113 102.567 125.027C103.263 122.94 103.489 120.725 103.231 118.54C103.19 117.596 102.929 116.674 102.47 115.847C102.012 115.02 101.367 114.312 100.587 113.777L101.683 111.658C102.809 112.336 103.753 113.278 104.433 114.402C105.114 115.526 105.51 116.8 105.589 118.112C105.991 121.716 105.302 125.357 103.612 128.566C104.871 130.953 106.787 132.929 109.134 134.263C111.48 135.596 114.159 136.23 116.855 136.091C116.005 135.021 115.21 133.908 114.473 132.757C113.21 130.757 112.567 126.804 114.473 125.184C115.402 124.375 117.117 123.946 120.046 126.399C125.176 131.233 129.952 136.43 134.337 141.949C134.84 140.292 135.018 138.554 134.861 136.829C134.663 126.934 131.941 117.254 126.953 108.705C123.857 103.942 112.258 97.9648 99.9438 96.7979C91.7267 96.0834 80.175 97.2027 71.5292 106.609C57.7624 121.612 61.0255 134.877 62.3593 138.592C63.6931 142.307 65.8129 144.545 67.1229 144.736C68.7722 144.932 70.298 145.708 71.428 146.925C72.558 148.142 73.2185 149.721 73.2917 151.38H73.3155Z" fill="black"/>
<path d="M397.977 265.806C397.977 265.806 383.377 241.445 374.85 252.399C366.323 263.354 351.746 283.357 354.176 311.934C356.605 340.511 351.175 345.274 351.175 345.274C351.175 345.274 328.762 344.06 316.234 348.322C308.87 350.788 301.857 354.198 295.37 358.467C295.37 358.467 308.636 369.874 310.732 374.589C311.981 377.844 312.294 381.382 311.637 384.806C311.637 384.806 367.871 384.258 381.543 372.303C395.214 360.348 404.67 310.863 397.977 265.806Z" fill="#CACACA"/>
<path d="M348.912 268.998C348.912 268.998 318.52 282.333 300.3 279.214C282.079 276.094 263.263 254.828 263.263 254.828C263.263 254.828 257.189 261.52 263.263 273.689C266.244 279.248 268.754 285.047 270.766 291.026C270.766 291.026 267.121 292.335 268.741 300.432C270.096 306.488 271.854 312.447 274.005 318.269C272.908 319.315 272.139 320.658 271.792 322.134C271.445 323.61 271.535 325.155 272.052 326.58C273.6 332.057 274.433 334.272 274.433 334.272C274.433 334.272 271.79 335.082 269.979 342.393C268.817 347.289 268.076 352.277 267.764 357.3C267.764 357.3 287.914 344.607 306.802 340.368C319.542 337.635 332.447 335.734 345.434 334.677C343.97 323.252 343.341 311.735 343.553 300.218C344.532 289.689 346.323 279.251 348.912 268.998Z" fill="#CACACA"/>
<path d="M286.938 295.217C281.566 295.294 276.196 295.015 270.861 294.383L271.194 292.002C289.653 294.645 338.909 289.883 339.409 289.835L339.647 292.216C338.075 292.383 308.731 295.217 286.938 295.217Z" fill="black"/>
<path d="M277.387 319.46C277.387 319.46 302.682 327.676 321.236 327.723Z" fill="white"/>
<path d="M321.188 328.914C302.658 328.914 277.244 320.674 276.982 320.579L277.72 318.197C277.958 318.197 303.039 326.365 321.188 326.413V328.914Z" fill="black"/>
<path d="M285.842 358.3C278.507 299.765 299.681 265.425 299.895 265.115L301.919 266.377C301.705 266.711 280.984 300.36 288.201 358.014L285.842 358.3Z" fill="black"/>
<path d="M370.61 215.511C370.61 215.511 367.823 241.445 331.811 254.828C295.798 268.212 279.412 220.345 279.412 220.345C279.412 220.345 280.793 211.224 292.869 219.964C304.944 228.704 327 214.201 331.835 210.439C336.67 206.676 366.442 196.579 370.61 215.511Z" fill="#3B37FF"/>
<path d="M365.656 194.983C359.892 178.647 353.199 181.243 354.414 159.5C355.629 137.758 345.601 127.423 333.502 128.542C321.402 129.661 321.236 142.997 321.236 142.997C326.337 147.458 330.132 153.219 332.216 159.667C335.574 170.145 337.384 175.932 337.384 175.932C337.384 175.932 344.315 170.764 347.721 172.455C351.127 174.146 352.151 178.552 350.317 183.148C348.483 187.744 344.339 190.411 341.052 189.101C340.329 188.801 339.691 188.326 339.194 187.72C336.432 207.7 333.74 220.322 341.028 224.561C348.317 228.799 371.444 211.415 365.656 194.983Z" fill="white"/>
<path d="M343.791 226.346C342.621 226.369 341.464 226.091 340.433 225.537C333.288 221.298 334.788 210.177 337.194 193.34C337.456 191.459 337.742 189.506 338.004 187.482L338.385 184.838L340.1 186.863C340.468 187.335 340.952 187.704 341.505 187.934C342.187 188.158 342.914 188.214 343.623 188.098C344.331 187.982 345.002 187.697 345.578 187.267C347.236 186.131 348.501 184.509 349.198 182.624C350.746 178.79 349.841 174.765 347.173 173.431C345.196 172.455 340.552 174.979 338.099 176.813L336.765 177.813L336.265 176.218L331.096 159.953C329.04 153.776 325.383 148.254 320.497 143.949L320.045 143.592V143.021C320.045 142.854 320.378 128.494 333.407 127.375C336.011 127.114 338.642 127.429 341.111 128.298C343.581 129.166 345.829 130.566 347.697 132.4C351.723 136.329 356.367 144.307 355.51 159.643C354.747 173.265 357.153 177.027 360.464 182.243C363.052 186.119 365.148 190.303 366.704 194.697V194.697C370.229 204.652 363.87 214.511 356.748 220.393C352.866 223.679 347.793 226.346 343.791 226.346ZM340.076 189.887C339.909 191.173 339.718 192.435 339.552 193.673C337.17 209.557 335.765 220.059 341.648 223.465C344.268 225.013 350.032 222.941 355.319 218.559C361.821 213.177 367.657 204.271 364.537 195.483C363.049 191.276 361.032 187.274 358.535 183.576C355.129 178.218 352.437 174.051 353.223 159.595C353.866 148.26 351.342 139.234 346.078 134.162C344.435 132.564 342.462 131.345 340.298 130.592C338.133 129.839 335.83 129.57 333.55 129.804C323.856 130.637 322.57 140.139 322.403 142.568C327.433 147.077 331.194 152.824 333.311 159.238C335.693 166.597 337.241 171.621 338.075 173.979C340.457 172.455 345.22 169.812 348.269 171.336C352.104 173.217 353.461 178.48 351.437 183.529C350.547 185.87 348.959 187.882 346.888 189.292C345.997 189.934 344.962 190.347 343.874 190.497C342.786 190.646 341.678 190.527 340.647 190.149L340.076 189.887Z" fill="black"/>
<path d="M247.162 262.734C247.162 262.734 238.945 287.596 237.421 301.456C236.807 308.284 235.692 315.057 234.086 321.722C234.086 321.722 227.084 313.816 222.177 313.816C217.271 313.816 222.177 327.723 222.177 327.723L233.562 355.157C238.225 355.092 242.749 353.559 246.491 350.776C250.232 347.993 253.001 344.101 254.403 339.654C260.238 323.579 248.067 276.404 247.162 262.734Z" fill="#CACACA"/>
<path d="M140.078 7.72684C139.514 4.19681 142.242 1 145.816 1L236.186 1C239.041 1 241.474 3.07526 241.924 5.89555L257.356 102.614C257.92 106.144 255.192 109.341 251.618 109.341H161.249C158.393 109.341 155.96 107.265 155.51 104.445L140.078 7.72684Z" fill="#3B37FF" stroke="black" stroke-width="1.34105"/>
<path d="M152.653 16.554C152.09 13.024 154.817 9.82715 158.392 9.82715L248.76 9.82715C251.616 9.82715 254.049 11.9024 254.499 14.7227L269.931 111.44C270.494 114.97 267.767 118.167 264.192 118.167H173.824C170.968 118.167 168.535 116.092 168.085 113.272L152.653 16.554Z" fill="white" stroke="black" stroke-width="1.34105"/>
<path d="M220.69 38.2061H243.964" stroke="black" stroke-width="1.34105"/>
<path d="M229.963 87.0811H253.237" stroke="black" stroke-width="1.34105"/>
<path d="M223.134 51.1318H246.408" stroke="black" stroke-width="1.34105"/>
<path d="M232.406 100.007H255.68" stroke="black" stroke-width="1.34105"/>
<path d="M217.923 25.8779H241.52" stroke="black" stroke-width="1.34105"/>
<path d="M227.195 74.7539H250.793" stroke="black" stroke-width="1.34105"/>
<path d="M177.842 77.7561C177.321 74.2457 180.041 71.0928 183.59 71.0928H207.094C209.975 71.0928 212.42 73.2026 212.843 76.0518L215.86 96.4076C216.381 99.918 213.661 103.071 210.112 103.071H186.608C183.727 103.071 181.282 100.961 180.859 98.1119L177.842 77.7561Z" fill="white" stroke="black" stroke-width="1.34105"/>
<path d="M187.418 86.6201L194.884 94.4358L206.874 79.0541" stroke="black" stroke-width="1.34105" stroke-linejoin="round"/>
<path d="M168.74 28.843C168.219 25.3327 170.939 22.1797 174.488 22.1797H197.992C200.872 22.1797 203.318 24.2896 203.741 27.1387L206.758 47.4945C207.279 51.0049 204.559 54.1579 201.01 54.1579H177.506C174.625 54.1579 172.18 52.048 171.757 49.1988L168.74 28.843Z" fill="white" stroke="black" stroke-width="1.34105"/>
<path d="M178.316 37.7071L185.782 45.5227L197.772 30.141" stroke="black" stroke-width="1.34105" stroke-linejoin="round"/>
</svg>
