<svg width="442" height="431" viewBox="0 0 442 431" fill="none" xmlns="http://www.w3.org/2000/svg">
<g clip-path="url(#clip0_106_740)">
<path d="M242.568 321.76C242.568 321.76 240.395 364.579 213.911 375.325C189.059 384.64 163.638 392.356 137.803 398.425C135.663 398.425 95.5693 301.037 95.5693 301.037L165.591 318.981C165.591 318.981 160.91 303.179 177.529 307.465C177.529 307.465 200.702 222.798 222.037 199.798C243.371 176.799 278.883 173.016 278.883 173.016" fill="white"/>
<path d="M137.803 400.033C136.332 400.033 134.459 400.033 94.0313 301.607L92.7606 298.527L163.451 316.638C163.136 315.038 163.173 313.389 163.56 311.804C163.947 310.22 164.674 308.739 165.692 307.465C167.14 306.227 168.883 305.386 170.752 305.022C172.622 304.658 174.553 304.785 176.359 305.39C179.703 293.438 200.769 220.187 220.8 198.594C242.334 175.36 277.278 171.51 278.75 171.376L279.118 174.724C278.75 174.724 243.906 178.641 223.274 200.904C202.642 223.167 179.402 307.03 179.168 308.035L178.733 309.608L177.128 309.206C174.118 308.436 170.072 307.934 168.099 309.976C166.126 312.019 166.695 317.007 167.196 318.647L168.032 321.459L98.4119 303.615C113.159 339.404 134.593 390.324 138.539 396.752C163.919 390.651 188.91 383.026 213.376 373.92C238.522 363.876 240.93 322.296 240.963 321.895H244.307C244.307 323.669 241.766 365.919 214.613 376.866C189.545 386.265 163.886 394.004 137.803 400.033Z" fill="black"/>
<path d="M388.297 182.725C388.297 182.725 427.554 252.828 417.89 333.745C408.226 414.662 404.347 429.326 404.347 429.326H231.199L235.212 375.258C232.67 367.157 243.638 345.128 243.638 345.128C239.793 340.006 242.501 321.693 242.501 321.693C236.248 314.596 233.239 294.91 235.212 278.673" fill="white"/>
<path d="M405.752 431H229.527L233.74 375.459C231.567 367.425 239.759 349.715 241.933 345.329C238.89 339.571 240.462 326.012 240.93 322.363C234.911 314.696 231.701 295.379 233.774 278.607L237.118 279.042C235.145 295.145 238.288 314.261 244.006 320.756L244.508 321.358V322.128C243.505 328.824 242.836 340.91 245.31 344.224L245.946 345.061L245.478 345.998C242.501 351.924 235.212 368.73 237.151 374.857V375.191L233.172 427.752H403.177C404.214 422.798 408.293 401.439 416.386 333.645C425.882 254.234 387.394 184.331 386.993 183.662L389.902 182.021C390.303 182.725 429.327 253.498 419.696 334.047C410.066 414.596 406.32 429.259 406.12 429.862L405.752 431Z" fill="black"/>
<path d="M305.3 417.81H65.3738V429.326H305.3V417.81Z" fill="white"/>
<path d="M306.972 431H63.7018V416.136H306.972V431ZM67.0457 427.652H303.628V419.484H67.0457V427.652Z" fill="black"/>
<path d="M289.25 382.925C280.67 378.343 271.16 375.781 261.443 375.433C251.725 375.084 242.057 376.96 233.172 380.917C215.063 388.305 199.323 400.521 187.661 416.236L307.441 417.977C307.81 411.041 306.318 404.132 303.119 397.968C299.921 391.804 295.131 386.61 289.25 382.925Z" fill="white"/>
<path d="M308.945 419.517L184.585 417.709L186.257 415.165C186.825 414.261 201.104 392.634 232.537 379.209C241.65 375.103 251.587 373.157 261.574 373.523C271.561 373.889 281.329 376.556 290.119 381.318C296.317 385.157 301.353 390.613 304.687 397.101C308.022 403.589 309.528 410.864 309.045 418.144L308.945 419.517ZM190.905 414.461L305.902 416.135C305.94 409.75 304.347 403.461 301.275 397.865C298.202 392.27 293.752 387.553 288.347 384.164C279.987 379.769 270.744 377.318 261.308 376.993C251.871 376.668 242.482 378.479 233.841 382.289C217.109 389.325 202.364 400.373 190.905 414.461Z" fill="black"/>
<path d="M367.063 163.776C390.498 168.951 410.936 183.202 423.909 203.415C446.983 238.031 439.593 301.305 437.452 321.828C435.312 342.35 417.389 395.848 417.389 395.848C417.389 395.848 391.34 416.37 343.823 417.643C296.305 418.915 295.436 417.643 295.436 417.643C309.246 403.983 284.568 388.45 270.557 376.464C270.557 376.464 299.85 354.268 328.474 350.987C338.382 350.116 348.216 348.539 357.9 346.267C352.309 326.652 351.575 305.969 355.76 286.006C360.11 264.999 368.368 245 380.104 227.05" fill="white"/>
<path d="M310.751 419.751C295.269 419.751 294.7 419.048 294.332 418.546L293.396 417.374L294.466 416.336C295.617 415.36 296.534 414.137 297.147 412.758C297.761 411.378 298.056 409.878 298.011 408.368C297.576 400.099 286.307 391.06 276.375 383.092C274.001 381.217 271.727 379.376 269.688 377.602L268.116 376.263L269.754 374.99C270.992 374.086 299.85 352.459 328.507 349.179C337.751 348.259 346.938 346.84 356.028 344.927C350.841 325.533 350.268 305.192 354.356 285.536C358.793 264.315 367.139 244.107 378.967 225.945L381.709 227.853C370.142 245.643 361.978 265.429 357.633 286.206C353.54 305.883 354.263 326.259 359.739 345.596L360.308 347.237L358.603 347.739C348.819 350.148 338.872 351.838 328.842 352.794C304.899 355.539 280.087 372.044 273.466 376.731C275.038 378.07 276.81 379.409 278.482 380.782C288.949 389.185 300.853 398.727 301.355 408.469C301.48 411.342 300.631 414.174 298.947 416.504C303.394 416.738 314.831 416.939 343.99 416.135C387.126 414.963 412.64 397.454 416.018 394.977C417.824 389.52 433.841 340.876 435.814 321.793L436.014 320.052C438.389 297.521 444.642 237.696 422.639 204.519C409.899 184.621 389.852 170.539 366.829 165.316L367.33 161.968C368.735 162.169 402.14 167.492 425.347 202.343C448.119 236.524 441.733 297.22 439.325 320.052L439.158 321.827C437.018 342.282 419.763 394.006 419.094 396.216V396.684L418.693 396.986C417.589 397.856 391.674 417.876 344.257 419.148C328.641 419.751 318.041 419.751 310.751 419.751Z" fill="black"/>
<path d="M382.344 154.235C382.344 154.235 408.36 168.664 403.679 186.24C398.997 203.816 340.144 268.764 289.985 246.501C239.826 224.238 248.587 172.146 248.587 172.146C248.587 172.146 273.801 95.7818 382.344 154.235Z" fill="white"/>
<path d="M312.122 252.828C304.347 252.859 296.654 251.238 289.551 248.074C239.024 225.577 247.116 172.413 247.217 171.878C250.306 163.68 255.064 156.214 261.189 149.955C267.314 143.696 274.672 138.78 282.796 135.52C308.812 125.108 342.585 130.9 383.114 152.762C384.217 153.398 410.233 168.061 405.251 186.675C402.141 198.426 376.961 229.293 345.227 244.459C334.958 249.697 323.644 252.557 312.122 252.828ZM310.316 133.846C301.355 133.741 292.456 135.355 284.1 138.6C276.485 141.713 269.579 146.338 263.798 152.195C258.016 158.053 253.479 165.021 250.46 172.681C250.159 174.523 242.769 223.602 290.922 245.028C306.571 251.991 324.361 250.786 343.923 241.446C374.319 226.916 399.265 196.752 402.174 185.805C406.421 169.802 382.111 156.009 381.642 155.674C354.557 141.145 330.714 133.846 310.316 133.846Z" fill="black"/>
<path d="M9.12891 278.707H151.446L207.658 417.809H65.3737L9.12891 278.707Z" fill="white"/>
<path d="M210.132 419.483H64.2369L6.68799 277.066H152.583L210.132 419.483ZM66.3436 416.135H205.116L150.243 280.414H11.637L66.3436 416.135Z" fill="black"/>
<path d="M228.724 223.233C228.724 223.233 214.58 262.738 241.565 285.168L228.724 223.233Z" fill="white"/>
<path d="M240.495 286.441C212.941 263.542 227.119 223.066 227.119 222.832L230.263 223.97C230.263 224.339 216.887 262.638 242.602 284.031L240.495 286.441Z" fill="black"/>
<path d="M426.518 246.669C426.518 246.669 406.02 212.42 394.082 227.787C382.144 243.153 361.612 271.309 365.056 311.483C368.501 351.657 360.843 358.52 360.843 358.52C360.843 358.52 329.377 356.812 311.788 362.805C301.432 366.27 291.573 371.076 282.462 377.1C282.462 377.1 301.087 393.103 304.03 399.732C305.782 404.307 306.223 409.281 305.301 414.094C305.301 414.094 384.251 413.324 403.445 396.518C422.639 379.712 435.847 309.976 426.518 246.669Z" fill="#CACACA"/>
<path d="M357.633 251.121C357.633 251.121 314.964 269.869 289.417 265.516C263.869 261.164 237.419 231.201 237.419 231.201C237.419 231.201 228.892 240.609 237.419 257.716C241.593 265.543 245.105 273.707 247.919 282.122C247.919 282.122 242.802 283.93 245.076 295.312C246.973 303.828 249.442 312.205 252.466 320.387C250.926 321.859 249.847 323.746 249.36 325.821C248.873 327.896 249 330.068 249.724 332.071C251.898 339.771 253.068 342.885 253.068 342.885C253.068 342.885 249.39 344.023 246.815 354.301C245.183 361.184 244.154 368.196 243.739 375.258C243.739 375.258 271.995 357.414 298.546 351.455C316.432 347.611 334.55 344.938 352.784 343.454C350.711 327.405 349.817 311.225 350.109 295.044C351.481 280.231 353.997 265.546 357.633 251.121Z" fill="#CACACA"/>
<path d="M270.624 287.98C263.082 288.087 255.542 287.696 248.052 286.808L248.521 283.461C274.436 287.21 343.622 280.481 344.291 280.414L344.625 283.762C342.418 283.996 301.221 287.98 270.624 287.98Z" fill="black"/>
<path d="M257.248 322.062C257.248 322.062 292.727 333.612 318.776 333.712L257.248 322.062Z" fill="white"/>
<path d="M318.81 335.386C292.794 335.386 257.114 323.769 256.747 323.635L257.783 320.455C258.151 320.455 293.363 331.938 318.843 332.038L318.81 335.386Z" fill="black"/>
<path d="M269.086 376.698C258.786 294.375 288.514 246.133 288.815 245.664L291.657 247.439C291.356 247.907 262.264 295.212 272.396 376.263L269.086 376.698Z" fill="black"/>
<path d="M388.096 175.928C388.096 175.928 384.184 212.42 333.623 231.201C283.063 249.982 260.057 182.724 260.057 182.724C260.057 182.724 261.996 169.935 278.95 182.189C295.904 194.442 326.869 174.12 333.657 168.797C340.445 163.474 382.11 149.313 388.096 175.928Z" fill="#3B37FF"/>
<path d="M214.78 242.316C214.78 242.316 203.244 277.268 201.104 296.752C200.268 306.354 198.703 315.878 196.422 325.242C196.422 325.242 186.591 314.127 179.703 314.127C172.814 314.127 179.703 333.712 179.703 333.712L195.687 372.246C202.277 372.22 208.688 370.093 213.991 366.175C219.294 362.256 223.213 356.749 225.18 350.451C233.139 327.787 216.051 261.566 214.78 242.316Z" fill="#CACACA"/>
<path d="M318.141 51.8917C318.141 51.8917 309.313 40.5425 282.194 48.5438C257.114 55.9426 248.052 76.3643 244.006 95.4135C239.96 114.463 248.654 137.931 244.006 155.474C239.358 173.016 238.723 174.891 238.556 183.763C238.388 192.635 277.847 172.983 277.847 172.983" fill="white"/>
<path d="M241.899 187.612C240.739 187.671 239.584 187.417 238.556 186.876C237.996 186.527 237.543 186.029 237.248 185.438C236.953 184.847 236.827 184.186 236.884 183.528C236.884 174.824 237.586 172.782 241.833 156.98L242.401 154.837C244.708 146.2 243.672 136.056 242.568 125.343C241.465 114.63 240.395 104.419 242.568 94.8776C248.186 68.6976 261.027 52.9961 281.926 46.8026C309.815 38.6004 319.244 50.1506 319.646 50.7532L317.004 52.7954C317.004 52.7954 308.377 42.5175 282.863 50.0166C263 55.9088 251.229 70.3714 245.845 95.5805C243.906 104.62 244.976 114.965 246.013 124.975C247.116 135.554 248.253 146.468 245.778 155.708L245.21 157.85C241.063 173.284 240.529 175.293 240.361 183.595C243.705 185.872 261.963 178.875 277.144 171.275L278.649 174.255C271.694 177.803 251.196 187.612 241.899 187.612Z" fill="black"/>
<path d="M253.67 110.345C254.546 114.13 255.732 117.836 257.215 121.426C244.107 148.811 273.466 172.347 273.466 172.347C276.501 175.601 280.283 178.064 284.485 179.523C288.687 180.981 293.18 181.391 297.576 180.716C323.324 177.804 338.138 143.12 338.138 143.12C339.208 140.207 340.144 137.362 341.014 134.583C341.831 135.326 342.818 135.855 343.889 136.123C348.705 137.261 353.921 132.775 355.493 126.08C357.064 119.384 354.456 112.889 349.641 111.751C348.449 111.413 347.188 111.413 345.996 111.751C349.741 79.6787 336.399 60.8639 314.229 57.3486" fill="white"/>
<path d="M293.73 182.59C289.718 182.685 285.73 181.928 282.03 180.37C278.33 178.812 275.002 176.489 272.262 173.551C270.055 171.677 243.103 148.342 255.376 121.359C253.982 117.904 252.864 114.344 252.032 110.713L255.376 109.943C256.191 113.633 257.309 117.25 258.719 120.756L259.02 121.459L258.686 122.129C246.28 148.041 274.202 170.806 274.469 171.041L274.737 171.308C277.59 174.344 281.141 176.635 285.081 177.983C289.021 179.331 293.23 179.694 297.342 179.042C321.819 176.263 336.432 142.785 336.566 142.45C337.502 139.872 338.439 137.093 339.375 134.08L340.144 131.636L342.084 133.31C342.685 133.877 343.422 134.28 344.224 134.482C348.036 135.352 352.483 131.302 353.821 125.51C354.527 122.774 354.376 119.887 353.386 117.241C353.065 116.285 352.522 115.419 351.801 114.715C351.08 114.01 350.202 113.488 349.24 113.19C348.316 112.995 347.357 113.053 346.464 113.357L343.99 114.127L344.291 111.549C347.634 82.189 336.399 62.5372 313.928 58.9885L314.463 55.6406C338.305 59.4237 350.677 79.5777 347.902 109.708C348.632 109.675 349.364 109.743 350.076 109.909C351.569 110.311 352.941 111.074 354.072 112.131C355.203 113.187 356.058 114.505 356.563 115.969C357.811 119.252 358.021 122.84 357.165 126.247C355.359 133.913 349.24 139.035 343.521 137.73C342.992 137.59 342.476 137.399 341.983 137.16C341.248 139.437 340.512 141.58 339.743 143.655C339.107 145.195 324.227 179.343 297.776 182.323C296.434 182.493 295.083 182.582 293.73 182.59Z" fill="black"/>
<path d="M302.826 149.48C297.134 151.387 291.263 152.711 285.304 153.431C277.88 153.967 275.272 151.757 275.272 151.757" fill="white"/>
<path d="M283.03 155.273C279.935 155.562 276.832 154.821 274.202 153.163L276.342 150.586C279.074 151.94 282.167 152.386 285.17 151.858C290.993 151.162 296.73 149.872 302.291 148.008L303.361 151.356C297.516 153.282 291.487 154.595 285.371 155.273C284.568 155.273 283.765 155.273 283.03 155.273Z" fill="black"/>
<path d="M282.328 141.345C282.328 141.345 276.643 141.78 275.072 138.968C273.5 136.156 281.258 116.002 279.853 112.186" fill="white"/>
<path d="M281.458 143.053C279.975 143.179 278.484 142.94 277.114 142.356C275.744 141.772 274.538 140.863 273.6 139.705C272.597 137.898 273.433 134.215 275.74 125.611C276.977 121.058 278.816 114.228 278.281 112.822L281.425 111.617C282.294 113.894 281.057 118.748 278.984 126.482C277.747 130.262 276.939 134.17 276.576 138.132C277.312 139.438 280.756 139.705 282.194 139.572L282.461 142.919L281.458 143.053Z" fill="black"/>
<path d="M291.323 116.27C291.323 116.27 292.059 108.402 298.746 107.8C303.583 107.843 308.275 109.452 312.122 112.386" fill="white"/>
<path d="M292.995 116.371L289.651 116.136C289.713 113.676 290.644 111.317 292.279 109.478C293.913 107.64 296.145 106.44 298.579 106.093C303.874 106.078 309.025 107.82 313.225 111.048L311.152 113.693C307.613 111.013 303.317 109.524 298.88 109.441C293.53 109.943 293.028 116.103 292.995 116.371Z" fill="black"/>
<path d="M310.316 100C310.316 100 304.364 93.3044 298.512 96.6522C294.583 98.9819 290.926 101.744 287.611 104.888" fill="white"/>
<path d="M288.714 105.892L286.374 103.515C289.788 100.263 293.57 97.4205 297.643 95.0453C304.565 91.0948 311.219 98.5939 311.52 98.8952L309.012 101.105C309.012 101.105 303.829 95.3466 299.281 97.9579C295.48 100.208 291.936 102.868 288.714 105.892Z" fill="black"/>
<path d="M274.603 109.675C274.603 109.675 266.143 101.439 259.923 109.675H274.603Z" fill="white"/>
<path d="M273.433 110.88C271.458 108.882 268.812 107.689 266.009 107.532C265.044 107.651 264.116 107.979 263.29 108.493C262.464 109.008 261.76 109.697 261.227 110.512L258.586 108.47C259.397 107.274 260.463 106.273 261.705 105.538C262.948 104.803 264.338 104.352 265.775 104.218C269.513 104.301 273.087 105.768 275.807 108.336L273.433 110.88Z" fill="black"/>
<path d="M273.399 117.342C272.981 116.18 272.197 115.187 271.166 114.51C270.135 113.834 268.912 113.512 267.681 113.592C263.234 113.827 261.863 119.92 261.863 119.92" fill="white"/>
<path d="M263.501 120.321L260.157 119.551C260.157 119.25 261.896 112.219 267.514 111.918C269.117 111.794 270.717 112.207 272.06 113.092C273.404 113.976 274.416 115.283 274.938 116.806L271.761 117.877C271.44 117.069 270.873 116.382 270.141 115.913C269.409 115.445 268.549 115.218 267.681 115.266C264.672 115.433 263.501 120.254 263.501 120.321Z" fill="black"/>
<path d="M267.887 124.648C269.239 124.445 270.112 122.798 269.838 120.969C269.564 119.141 268.246 117.823 266.894 118.027C265.543 118.23 264.669 119.877 264.944 121.705C265.218 123.534 266.536 124.851 267.887 124.648Z" fill="black"/>
<path d="M297.208 120.275C298.56 120.072 299.433 118.425 299.159 116.596C298.885 114.768 297.567 113.45 296.215 113.654C294.864 113.857 293.99 115.504 294.265 117.332C294.539 119.161 295.857 120.478 297.208 120.275Z" fill="black"/>
<path d="M304.531 71.0078C304.531 71.0078 300.518 75.929 289.082 75.929C277.646 75.929 269.253 86.2739 264.906 94.0409C260.446 101.319 255.578 108.338 250.326 115.065" fill="white"/>
<path d="M251.664 116.07L249.022 114.027C254.2 107.357 259.022 100.417 263.468 93.2373C266.645 87.5125 275.473 74.2552 289.049 74.2552C299.382 74.2552 303.127 70.0035 303.16 69.9365L305.735 72.0792C305.568 72.3135 301.12 77.603 289.015 77.603C277.211 77.603 269.219 89.6888 266.344 94.8779C261.846 102.209 256.946 109.283 251.664 116.07Z" fill="black"/>
<path d="M379.302 139.404C367.899 117.91 359.238 122.865 356.295 92.5339C353.353 62.2025 337.369 49.782 320.783 53.7659C304.197 57.7499 306.772 76.4308 306.772 76.4308C314.749 81.4836 321.218 88.5961 325.498 97.0199C332.353 110.913 336.065 118.58 336.065 118.58C336.065 118.58 344.592 109.943 349.674 111.583C354.757 113.223 357.131 119.116 355.526 125.912C353.921 132.708 348.838 137.261 343.923 135.955C342.852 135.687 341.864 135.158 341.047 134.415C341.381 162.771 340.278 180.883 351.279 185.269C362.281 189.655 390.738 160.93 379.302 139.404Z" fill="white"/>
<path d="M353.787 187.579C352.71 187.586 351.642 187.381 350.644 186.976C339.676 182.624 339.576 166.889 339.408 142.885C339.408 140.241 339.408 137.462 339.408 134.583V130.867L342.251 133.311C342.853 133.877 343.589 134.281 344.391 134.482C348.203 135.353 352.65 131.302 353.988 125.51C355.325 119.718 353.252 114.462 349.273 113.157C346.163 112.186 339.91 117.174 337.369 119.852L335.697 121.526L334.66 119.417C334.66 119.417 330.948 111.75 324.093 97.8569C319.974 89.6771 313.753 82.7436 306.07 77.7699L305.367 77.3682V76.5648C305.367 76.3639 302.826 56.3103 320.649 52.0251C324.232 51.1013 327.974 50.9793 331.61 51.6679C335.245 52.3565 338.684 53.8387 341.682 56.009C348.103 60.629 356.195 70.6726 358.235 92.2661C360.007 111.349 364.12 116.103 369.805 122.631C374.204 127.486 377.979 132.873 381.04 138.667C388.029 151.757 381.241 166.789 372.58 176.464C367.029 182.356 359.673 187.579 353.787 187.579ZM342.719 137.529C342.719 139.337 342.719 141.111 342.719 142.852C342.719 165.45 342.986 180.348 351.848 183.863C355.827 185.47 363.351 181.385 369.805 174.221C377.696 165.349 383.95 151.791 377.797 140.207C374.853 134.634 371.212 129.459 366.962 124.807C361.111 118.111 356.463 112.721 354.59 92.5675C353.119 76.6653 347.902 64.6466 339.408 58.6875C336.798 56.8209 333.808 55.5531 330.652 54.9745C327.497 54.3958 324.253 54.5206 321.151 55.3396C307.775 58.6875 308.042 72.0788 308.31 75.4266C316.241 80.6774 322.662 87.9137 326.936 96.4174L336.533 115.935C339.475 113.291 345.561 108.671 350.109 110.11C355.827 111.951 358.837 118.948 357.098 126.414C355.359 133.88 349.173 139.203 343.455 137.897L342.719 137.529Z" fill="black"/>
<path d="M207.658 104.788C207.648 85.909 202.461 67.3955 192.664 51.2654C182.866 35.1352 168.834 22.0076 152.096 13.3135C135.358 4.6195 116.557 0.692935 97.7432 1.96168C78.9294 3.23043 60.8244 9.6458 45.4023 20.5086C29.9801 31.3714 17.8328 46.2646 10.2843 63.5645C2.73589 80.8644 0.0761701 99.9071 2.59517 118.616C5.11417 137.326 12.7152 154.984 24.5696 169.665C36.4239 184.347 52.0766 195.488 69.8212 201.875L104.799 236.726L139.642 201.841C159.57 194.627 176.793 181.438 188.964 164.071C201.134 146.704 207.662 126.003 207.658 104.788Z" fill="white"/>
<path d="M104.799 238.968L69.0521 203.18C45.9203 194.764 26.4906 178.457 14.1765 157.122C1.86242 135.788 -2.54834 110.791 1.71915 86.5241C5.98664 62.2569 18.6595 40.2714 37.511 24.4304C56.3626 8.5894 80.187 -0.09375 104.799 -0.09375C129.41 -0.09375 153.235 8.5894 172.086 24.4304C190.938 40.2714 203.611 62.2569 207.878 86.5241C212.146 110.791 207.735 135.788 195.421 157.122C183.107 178.457 163.677 194.764 140.545 203.18L104.799 238.968ZM104.799 3.24714C80.9327 3.23315 57.8278 11.654 39.5564 27.0257C21.2849 42.3973 9.0198 63.7329 4.92265 87.2719C0.82551 110.811 5.15941 135.043 17.1605 155.696C29.1616 176.349 48.0595 192.098 70.5234 200.166L71.1588 200.535L104.799 234.348L139.074 200.267C161.538 192.198 180.436 176.449 192.437 155.796C204.438 135.143 208.772 110.911 204.675 87.3723C200.577 63.8332 188.312 42.4976 170.041 27.126C151.769 11.7544 128.665 3.33348 104.799 3.34746V3.24714Z" fill="black"/>
<path d="M118.408 67.1574L124.528 86.0727H144.391C146.609 86.07 148.771 86.7705 150.567 88.0742C152.363 89.3779 153.701 91.2176 154.388 93.3293C155.075 95.441 155.076 97.7165 154.391 99.829C153.707 101.942 152.371 103.783 150.577 105.088L134.493 116.772L140.645 135.688C141.337 137.803 141.341 140.083 140.655 142.2C139.97 144.318 138.631 146.162 136.831 147.469C135.032 148.776 132.864 149.477 130.641 149.471C128.418 149.466 126.254 148.754 124.461 147.438L108.41 135.754L92.3257 147.438C90.5319 148.74 88.3727 149.441 86.1571 149.439C83.9415 149.438 81.7832 148.735 79.9909 147.431C78.1986 146.127 76.8643 144.289 76.1788 142.179C75.4933 140.07 75.4919 137.798 76.1746 135.688L82.294 116.772L66.2432 105.088C64.4487 103.783 63.1135 101.942 62.4289 99.829C61.7443 97.7165 61.7456 95.441 62.4326 93.3293C63.1196 91.2176 64.457 89.3779 66.253 88.0742C68.0489 86.7705 70.2111 86.07 72.4294 86.0727H92.2589L98.4117 67.1574C99.0909 65.037 100.425 63.1872 102.222 61.8749C104.019 60.5626 106.186 59.8555 108.41 59.8555C110.634 59.8555 112.801 60.5626 114.598 61.8749C116.395 63.1872 117.729 65.037 118.408 67.1574Z" fill="#3B37FF"/>
<path d="M130.647 151.155C128.068 151.157 125.557 150.323 123.491 148.778L108.41 137.83L93.329 148.778C91.2499 150.243 88.7648 151.019 86.2225 150.998C83.6803 150.977 81.2085 150.159 79.154 148.66C77.0996 147.161 75.5655 145.055 74.7673 142.639C73.9691 140.222 73.9467 137.616 74.7033 135.186L80.4883 117.442L65.4072 106.461C63.3129 104.958 61.7508 102.826 60.9471 100.375C60.1434 97.9237 60.1398 95.2799 60.9369 92.8264C61.7339 90.3729 63.2901 88.2369 65.3804 86.7278C67.4706 85.2188 69.9862 84.4151 72.5631 84.4327H91.1888L96.9404 66.6558C97.7208 64.1958 99.2694 62.0515 101.358 60.5388C103.447 59.026 105.966 58.2248 108.544 58.2527C111.117 58.2266 113.631 59.0293 115.714 60.5422C117.797 62.0552 119.34 64.1985 120.114 66.6558L125.865 84.4327H144.524C147.091 84.4371 149.59 85.2533 151.665 86.765C153.74 88.2767 155.285 90.4063 156.079 92.8497C156.873 95.2931 156.875 97.9253 156.085 100.37C155.295 102.814 153.753 104.946 151.68 106.461L136.599 117.442L142.351 135.186C143.176 137.635 143.192 140.286 142.397 142.745C141.602 145.205 140.039 147.343 137.937 148.845C135.817 150.377 133.262 151.187 130.647 151.155ZM108.41 133.679L125.464 146.1C126.983 147.225 128.823 147.832 130.712 147.833C132.601 147.833 134.441 147.227 135.961 146.103C137.48 144.979 138.6 143.396 139.154 141.588C139.709 139.779 139.669 137.84 139.04 136.056L132.52 115.969L149.574 103.582C151.088 102.487 152.216 100.94 152.796 99.1629C153.376 97.3857 153.378 95.4701 152.802 93.6916C152.226 91.9131 151.101 90.3633 149.59 89.2651C148.078 88.1668 146.258 87.5768 144.391 87.5797H123.324L116.636 67.4927C116.086 65.7037 114.969 64.142 113.456 63.0431C111.942 61.9442 110.112 61.3674 108.243 61.3996C106.372 61.3619 104.54 61.9364 103.025 63.0362C101.51 64.1359 100.395 65.7007 99.8496 67.4927L93.329 87.5797H72.2622C70.3919 87.5697 68.5667 88.1545 67.0499 89.2501C65.5331 90.3458 64.4031 91.8955 63.8228 93.6756C63.2425 95.4558 63.2419 97.3744 63.8212 99.1549C64.4004 100.935 65.5295 102.486 67.0457 103.582L84.0997 115.969L77.579 136.056C76.9667 137.842 76.9394 139.777 77.5012 141.579C78.0629 143.382 79.1845 144.958 80.7026 146.078C82.2207 147.199 84.0562 147.805 85.9422 147.809C87.8282 147.812 89.6661 147.214 91.1888 146.1L108.41 133.679Z" fill="black"/>
</g>
<defs>
<clipPath id="clip0_106_740">
<rect width="442" height="431" fill="white"/>
</clipPath>
</defs>
</svg>
