<svg width="628" height="403" viewBox="0 0 628 403" fill="none" xmlns="http://www.w3.org/2000/svg">
<g clip-path="url(#clip0_106_267)">
<path d="M410.693 237.571C410.693 237.571 423.644 168.588 463.848 164.561C504.053 160.535 576.222 163.983 588.085 216.208C599.949 268.434 607.898 323.577 607.898 323.577C607.898 323.577 606.762 350.847 597.194 361.287C587.626 371.728 559.406 400.541 559.406 400.541H403.711L410.693 237.571Z" fill="white"/>
<path d="M559.962 401.746H402.503V400.493L409.461 237.426C409.993 234.581 423.04 167.503 463.727 163.428C517.414 158.075 578.59 169.046 589.366 216.015C601.108 267.686 609.106 322.926 609.203 323.48C609.203 324.831 607.922 351.522 598.185 362.059C588.448 372.595 560.638 401.071 560.373 401.361L559.962 401.746ZM405.016 399.335H558.947C562.257 395.96 587.506 370.136 596.373 360.467C605.24 350.799 606.738 323.794 606.738 323.529C606.738 323.263 598.692 268.072 586.974 216.473C573.637 157.834 482.211 163.934 464.017 165.839C425.746 169.673 412.433 235.087 411.902 237.788L405.016 399.335Z" fill="black"/>
<path d="M475.156 231.109C464.718 202.585 440.242 202.031 427.703 208.661C425.117 210.036 422.871 211.265 421.083 212.326C420.361 212.731 419.535 212.909 418.711 212.84C417.886 212.77 417.102 212.455 416.459 211.936C415.816 211.416 415.344 210.716 415.104 209.926C414.865 209.136 414.868 208.292 415.115 207.504C417.258 200.057 420.421 192.942 424.514 186.358C428.769 180.071 434.342 174.781 440.847 170.854C440.847 170.854 458.484 163.621 463.196 162.825C467.907 162.029 474.479 202.079 474.479 202.079L475.156 231.109Z" fill="#3B37FF"/>
<path d="M476.533 238.391L474.117 231.519C469.864 219.921 462.761 211.94 453.531 208.396C449.476 206.862 445.144 206.19 440.813 206.422C436.482 206.655 432.247 207.787 428.379 209.746C425.794 211.096 423.547 212.302 421.783 213.363C420.858 213.909 419.787 214.157 418.715 214.075C417.643 213.994 416.623 213.585 415.791 212.905C414.951 212.227 414.336 211.312 414.025 210.28C413.715 209.247 413.724 208.145 414.052 207.118C416.281 199.552 419.532 192.324 423.716 185.635C428.09 179.2 433.8 173.781 440.46 169.745C441.306 169.407 458.388 162.512 463.196 161.619C463.496 161.568 463.804 161.58 464.1 161.654C464.395 161.729 464.672 161.865 464.911 162.053C469.743 165.429 474.89 195.81 475.881 201.862L476.533 238.391ZM442.441 203.983C446.496 203.975 450.517 204.71 454.304 206.153C462.975 209.678 469.956 216.394 473.803 224.912L473.271 202.079C470.42 184.67 465.757 165.043 463.268 163.982C458.871 164.802 441.523 171.867 441.282 171.939C435.025 175.807 429.651 180.941 425.504 187.009C421.496 193.503 418.391 200.512 416.275 207.841C416.085 208.404 416.074 209.011 416.243 209.581C416.412 210.15 416.752 210.654 417.217 211.024C417.67 211.393 418.226 211.615 418.81 211.658C419.393 211.701 419.976 211.564 420.479 211.265C422.339 210.204 424.538 208.999 427.147 207.6C431.885 205.199 437.128 203.959 442.441 203.983Z" fill="black"/>
<path d="M442.707 95.1441C442.707 95.1441 418.715 87.5248 412.699 104.789C410.883 109.609 410.373 114.823 411.221 119.903C412.07 124.983 414.246 129.75 417.531 133.722C417.531 133.722 404.17 139.509 405.74 147.707C406.994 153.017 409.925 157.785 414.1 161.306C411.364 165.165 409.847 169.753 409.744 174.479C409.64 179.205 410.955 183.854 413.52 187.829C422.629 201.813 465.926 196.412 465.926 196.412C465.926 196.412 478.901 183.103 492.238 168.901C505.575 154.7 442.707 95.1441 442.707 95.1441Z" fill="black"/>
<path d="M293.414 229.06C290.998 225.226 291.216 213.869 291.216 213.869C291.216 196.726 272.37 190.071 253.137 190.071C233.905 190.071 214.48 207.817 214.48 224.961C214.48 236.462 217.379 252.496 224.507 264.287C228.034 270.097 226.101 281.912 205.178 285.336C218.432 296.835 232.348 307.551 246.856 317.428C254.104 308.073 329.85 322.709 324.003 315.885C316.223 306.771 273.095 290.134 273.095 290.134C274.641 287.241 277.154 283.455 277.927 281.695C284.354 267.445 277.589 257.005 282.059 249.699C285.055 250.639 290.998 243.912 290.998 243.912C290.998 243.912 298.609 243.406 299.334 238.825C300.059 234.244 295.927 232.917 293.414 229.06Z" fill="white"/>
<path d="M247.073 319.068L246.155 318.417C231.599 308.507 217.634 297.76 204.332 286.228L202.496 284.54L204.912 284.13C214.576 282.539 221.293 278.825 223.685 273.666C224.352 272.293 224.674 270.778 224.624 269.254C224.573 267.729 224.151 266.239 223.395 264.913C215.857 252.472 213.175 236.124 213.175 224.96C213.175 207.07 233.326 188.793 253.09 188.793C272.08 188.793 292.376 195.351 292.376 213.797C292.376 216.883 292.376 225.443 294.381 228.264C295.159 229.38 296.058 230.407 297.063 231.326C299.044 233.231 301.074 235.232 300.494 238.873C299.721 243.695 293.415 244.708 291.554 244.925C290.104 246.492 285.901 250.76 282.687 250.856C281.262 253.677 281.503 257.101 281.793 261.32C282.701 268.358 281.734 275.51 278.99 282.056C278.531 283.069 277.589 284.612 276.574 286.396C275.97 287.361 275.342 288.398 274.786 289.362C282.18 292.28 317.697 306.505 324.897 314.944C325.198 315.229 325.402 315.601 325.48 316.008C325.558 316.414 325.506 316.835 325.332 317.211C324.099 319.622 317.334 319.164 296.701 317.332C278.676 315.74 251.446 313.329 247.774 318.031L247.073 319.068ZM263.286 312.967C272.056 312.967 283.557 313.884 296.918 315.065C307.646 316.03 319.678 317.09 322.746 316.319C314.193 307.349 273.047 291.412 272.636 291.267L271.355 290.761L272.008 289.555C272.708 288.229 273.627 286.71 274.424 285.287C275.221 283.865 276.357 282.105 276.84 281.212C279.441 275.034 280.333 268.273 279.425 261.634C279.087 256.812 278.821 252.689 281.044 249.072L281.527 248.276L282.421 248.565C283.774 248.975 287.471 246.154 290.105 243.116L290.419 242.73H290.926C290.926 242.73 297.57 242.176 298.174 238.656C298.537 236.244 297.498 235.208 295.468 233.206C294.328 232.174 293.307 231.017 292.424 229.758C289.766 225.708 290.008 215.075 290.008 213.869C290.008 197.232 270.969 191.301 253.138 191.301C234.558 191.301 215.639 208.179 215.639 225.057C215.639 235.401 218.225 251.748 225.497 263.635C226.462 265.299 227.005 267.173 227.076 269.094C227.148 271.015 226.747 272.924 225.908 274.654C224.096 278.56 219.457 283.599 207.787 286.035C220.205 296.662 233.191 306.61 246.687 315.837C249.345 313.763 255.119 312.967 263.286 312.967Z" fill="black"/>
<path d="M291.216 242.731C292.778 242.719 294.334 242.533 295.855 242.176C296.915 242.865 297.695 243.908 298.054 245.118C300.18 250.881 303.369 255.896 302.161 258.404C301.933 259.072 301.494 259.649 300.911 260.048C300.327 260.448 299.63 260.649 298.923 260.622C298.923 260.622 303.176 268.458 301.944 274.534C300.711 280.61 272.95 288.133 252.824 272.605C232.697 257.077 229.266 250.278 229.266 250.278V244.949C229.266 244.949 237.409 246.709 236.37 239.765C235.041 230.748 232.818 228.674 232.818 228.674C232.818 228.674 226.729 223.852 223.154 228.071C221.535 229.904 220.737 237.836 225.231 244.202C225.884 255.438 225.86 266.36 224.893 264.841C203.897 232.218 210.565 215.364 222.864 200.271C231.417 189.782 242.193 186.816 258.888 186.816C303.055 186.816 291.24 211.82 291.24 211.82C291.24 211.82 286.408 199.379 265.967 196.871C263.055 210.009 255.291 221.57 244.222 229.253C244.222 229.253 248.426 243.406 258.719 244.756C266.556 245.631 274.49 244.9 282.035 242.61C289.742 240.682 291.216 242.731 291.216 242.731Z" fill="black"/>
<path d="M269.277 225.587C269.06 226.07 269.398 225.322 269.47 225.226C269.666 224.811 269.901 224.415 270.171 224.044C270.896 222.956 271.885 222.068 273.047 221.464C273.817 221.14 274.631 220.929 275.463 220.837C276.453 220.693 277.444 220.596 278.459 220.5C279.473 220.403 280.174 220.355 281.044 220.355C281.259 220.32 281.454 220.21 281.595 220.044C281.736 219.879 281.814 219.668 281.814 219.451C281.814 219.234 281.736 219.023 281.595 218.858C281.454 218.692 281.259 218.582 281.044 218.547C280.005 218.547 278.966 218.547 277.927 218.74C275.885 218.768 273.868 219.186 271.983 219.969C269.943 221.121 268.358 222.933 267.489 225.105C267.43 225.339 267.466 225.586 267.588 225.793C267.71 226.001 267.909 226.152 268.142 226.214C268.372 226.268 268.614 226.233 268.82 226.117C269.026 226.001 269.18 225.812 269.253 225.587H269.277Z" fill="black"/>
<path d="M274.738 220.066C274.738 220.066 275.68 224.744 276.623 224.744C277.565 224.744 278.918 219.56 278.918 219.56" fill="black"/>
<path d="M290.395 238.897C289.899 238.511 289.32 238.247 288.703 238.126C288.129 238.017 287.538 238.017 286.963 238.126C286.32 238.322 285.697 238.581 285.103 238.897H284.838H284.668H284.234H283.967L283.774 238.777L283.412 238.415L283.267 238.246C283.436 238.439 283.267 238.246 283.267 238.246L283.049 237.909C282.494 236.872 280.923 237.788 281.479 238.801C281.796 239.445 282.288 239.988 282.898 240.368C283.509 240.747 284.215 240.948 284.934 240.947C286.118 240.947 287.06 239.958 288.22 240.006H288.413H288.655H288.945C289.114 240.006 288.8 240.006 288.945 240.006L289.283 240.175C289.461 240.338 289.694 240.428 289.936 240.428C290.177 240.428 290.41 240.338 290.588 240.175C290.749 240.001 290.839 239.773 290.839 239.536C290.839 239.299 290.749 239.071 290.588 238.897H290.395Z" fill="black"/>
<path d="M266.426 220.741C268.248 218.407 270.6 216.54 273.288 215.292C274.103 214.915 275.004 214.765 275.898 214.858H276.139H276.767L277.903 215.075L279.522 215.34L282.204 215.798C282.665 215.918 283.154 215.854 283.569 215.62C283.984 215.386 284.291 215 284.427 214.544C284.553 214.084 284.492 213.592 284.256 213.177C284.021 212.761 283.63 212.456 283.17 212.326L281.455 212.037C279.472 211.547 277.451 211.225 275.414 211.072C271.698 211.403 268.245 213.126 265.75 215.895C265.039 216.544 264.369 217.236 263.744 217.968C263.422 218.316 263.243 218.772 263.243 219.246C263.243 219.72 263.422 220.176 263.744 220.524C264.084 220.863 264.545 221.053 265.025 221.053C265.505 221.053 265.966 220.863 266.306 220.524L266.426 220.741Z" fill="black"/>
<path d="M226.174 236.992C226.102 236.327 226.102 235.656 226.174 234.991C226.174 234.75 226.174 235.136 226.174 234.991C226.174 234.847 226.174 234.847 226.174 234.798C226.174 234.75 226.174 234.485 226.174 234.316C226.24 234.013 226.329 233.714 226.439 233.424V233.207L226.681 232.749L226.923 232.387C226.923 232.387 226.923 232.508 226.923 232.387L227.116 232.194L227.309 232.001C227.309 232.001 227.164 232.001 227.309 232.001C227.465 231.896 227.626 231.8 227.793 231.712C227.986 231.712 227.623 231.712 227.793 231.712H228.107H228.421H228.566C228.759 231.712 228.397 231.712 228.566 231.712C228.697 231.734 228.831 231.726 228.96 231.691C229.088 231.655 229.207 231.592 229.309 231.506C229.41 231.42 229.492 231.313 229.547 231.193C229.603 231.072 229.632 230.941 229.632 230.808C229.632 230.675 229.603 230.544 229.547 230.423C229.492 230.303 229.41 230.196 229.309 230.11C229.207 230.024 229.088 229.961 228.96 229.925C228.831 229.889 228.697 229.882 228.566 229.904C227.606 229.99 226.692 230.35 225.932 230.94C225.338 231.418 224.866 232.03 224.555 232.725C224.016 233.965 223.745 235.304 223.758 236.655C223.733 236.928 223.733 237.202 223.758 237.475C223.764 237.709 223.86 237.933 224.026 238.099C224.193 238.265 224.416 238.361 224.652 238.367C224.891 238.367 225.121 238.274 225.292 238.107C225.464 237.94 225.563 237.713 225.57 237.475L226.174 236.992Z" fill="black"/>
<path d="M288.582 252.689C290.113 253.363 291.747 253.779 293.415 253.918C293.916 253.933 294.413 253.829 294.867 253.615C295.32 253.401 295.716 253.084 296.024 252.689L293.149 248.349L288.582 252.689Z" fill="white"/>
<path d="M283.653 256.354C284.779 256.245 285.856 255.837 286.77 255.172C287.905 254.445 288.986 253.639 290.008 252.761C291.312 251.579 292.593 250.35 293.801 249.048L292.376 248.879C293.705 250.639 294.892 252.502 295.927 254.449C296.435 255.486 298.005 254.569 297.498 253.533C296.463 251.58 295.267 249.717 293.922 247.963C293.854 247.845 293.76 247.743 293.647 247.667C293.533 247.591 293.404 247.542 293.269 247.523C293.134 247.504 292.996 247.517 292.866 247.56C292.736 247.603 292.618 247.674 292.521 247.77C291.409 248.975 290.25 250.181 289.042 251.194C288.107 252.064 287.114 252.869 286.069 253.605C285.628 253.912 285.159 254.179 284.668 254.401L284.113 254.618H283.847C283.702 254.618 283.847 254.618 283.653 254.618C283.438 254.653 283.243 254.763 283.102 254.929C282.961 255.094 282.884 255.304 282.884 255.522C282.884 255.739 282.961 255.949 283.102 256.115C283.243 256.281 283.438 256.391 283.653 256.426V256.354Z" fill="#4D4D4D"/>
<path d="M360.607 401.77C360.607 401.77 348.768 361.215 341.061 346.724C333.353 332.233 324.462 319.212 324.462 319.212C324.462 319.212 329.294 313.281 328.014 311.979C326.733 310.677 322.698 311.979 322.698 311.979C322.698 311.979 319.122 305.782 307.283 300.743C295.444 295.704 279.546 290.905 279.546 290.905L284.378 278.271C278.801 278.435 273.243 279.023 267.755 280.031C257.39 281.815 247.291 306.361 247.291 306.361C247.291 306.361 246.107 278.271 235.428 266.432C232.355 263.054 228.364 260.64 223.941 259.484C219.519 258.329 214.855 258.481 210.517 259.922L206.99 275.908C197.388 274.317 187.711 273.222 177.996 272.629C169.395 272.629 161.687 273.232 161.687 273.232C161.687 273.232 159.005 267.011 153.666 268.409C148.326 269.808 151.902 278.175 151.902 278.175C151.902 278.175 141.827 287.048 122.546 308.049C103.265 329.05 87.4155 401.553 87.4155 401.553" fill="white"/>
<path d="M359.447 402.108C359.447 401.698 347.56 361.504 340.118 347.278C332.676 333.052 323.689 320.008 323.592 319.888L323.085 319.164L323.64 318.465C325.078 316.792 326.244 314.904 327.096 312.871C325.762 312.734 324.415 312.865 323.133 313.257L322.239 313.522L321.756 312.702C321.756 312.702 318.18 306.747 306.921 301.973C295.251 297.03 279.474 292.328 279.329 292.183L278.072 291.798L282.904 279.742C277.994 279.992 273.104 280.548 268.263 281.406C260.313 282.78 251.471 300.357 248.716 307.012L246.638 312.099L246.397 306.602C246.397 306.337 245.092 278.801 234.848 267.421C232.029 264.277 228.367 262.005 224.295 260.873C220.223 259.74 215.912 259.795 211.87 261.031L208.246 277.475L207.111 277.282C197.548 275.709 187.911 274.622 178.238 274.027C169.781 274.027 162.098 274.63 162.001 274.63H161.156L160.817 273.834C160.817 273.617 158.401 268.602 154.246 269.784C153.88 269.859 153.537 270.019 153.244 270.249C152.95 270.479 152.714 270.774 152.554 271.11C151.997 273.397 152.245 275.806 153.255 277.933L153.593 278.729L152.941 279.308C152.941 279.308 142.672 288.374 123.682 309.086C104.691 329.797 88.7685 401.36 88.6235 402.035L86.2074 401.529C86.8598 398.539 102.371 328.447 121.628 307.494C138.058 289.579 147.94 280.369 150.452 278.102C149.375 275.571 149.255 272.735 150.114 270.121C150.42 269.472 150.867 268.9 151.423 268.445C151.979 267.99 152.63 267.665 153.327 267.493C155.143 267.115 157.034 267.371 158.684 268.218C160.333 269.066 161.641 270.452 162.388 272.147C164.611 271.978 171.038 271.592 177.972 271.592C187.404 272.125 196.8 273.164 206.12 274.703L209.527 259.175L210.155 258.958C214.72 257.462 219.619 257.31 224.269 258.52C228.918 259.73 233.119 262.251 236.37 265.781C244.633 274.944 247.339 293.075 248.185 301.732C251.688 294.498 259.42 280.417 267.514 279.018C273.095 277.977 278.75 277.38 284.427 277.234H286.19L281.092 290.279C285.079 291.532 297.836 295.607 307.67 299.778C313.704 302.009 319.039 305.795 323.133 310.749C324.728 310.388 327.53 310.002 328.811 311.28C329.27 311.738 330.647 313.136 325.887 319.285C327.869 322.25 335.552 333.752 342.075 346.193C349.734 360.66 361.211 399.793 361.694 401.457L359.447 402.108Z" fill="black"/>
<path d="M143.059 348.508C146.27 351.302 148.692 354.887 150.083 358.906C151.473 362.925 151.784 367.238 150.984 371.414C150.984 371.414 146.152 369.34 140.329 375.851C134.506 382.361 129.77 401.77 129.77 401.77H85.531C84.637 398.829 81.182 377.177 88.7203 365.603C94.9075 356.136 102.825 347.915 112.06 341.371" fill="white"/>
<path d="M130.737 402.976H84.637L84.3713 402.132C83.5498 399.384 79.7322 377.153 87.7296 365.049C93.9939 355.431 102.029 347.086 111.408 340.455L112.712 342.48C103.637 348.957 95.846 357.059 89.735 366.375C82.9215 376.695 85.4585 395.815 86.4733 400.565H128.852C129.867 396.563 134.071 380.962 139.459 375.055C144.001 370.064 148.036 369.702 150.066 369.968C150.554 366.164 150.098 362.298 148.737 358.711C147.376 355.125 145.152 351.927 142.262 349.4L143.905 347.64C147.299 350.569 149.855 354.343 151.311 358.579C152.767 362.815 153.071 367.36 152.192 371.752L151.805 373.102L150.597 372.427C150.452 372.427 146.514 370.86 141.319 376.574C135.666 382.771 131.099 401.771 131.051 401.964L130.737 402.976Z" fill="black"/>
<path d="M353.769 393.018H163.741V400.251H353.769V393.018Z" fill="black"/>
<path d="M143.059 358.515C143.059 358.515 136.221 355.621 124.382 351.788C112.543 347.954 119.695 343.252 122.135 341.468" fill="white"/>
<path d="M142.576 359.623C142.576 359.623 135.641 356.706 124.02 352.92C119.381 351.425 116.965 349.593 116.602 347.302C116.143 344.313 119.405 341.95 121.169 340.696L121.435 340.503L122.836 342.456L122.57 342.649C121.338 343.541 118.753 345.398 118.994 346.917C118.994 347.64 120.009 349.087 124.769 350.63C136.511 354.439 143.47 357.381 143.518 357.405L142.576 359.623Z" fill="black"/>
<path d="M150.984 371.414C150.984 371.414 163.886 364.181 167.438 363.795C170.989 363.409 183.167 366.833 191.237 374.356C196.227 379.385 199.333 385.974 200.031 393.018H190.802L170.12 396.635L171.014 398.419L163.33 399.673L154.56 393.018L144.291 401.361L120.855 401.819C120.855 401.819 124.769 385.109 134.603 376.309C139.69 371.576 145.261 367.39 151.225 363.819L150.984 371.414Z" fill="#3B37FF"/>
<path d="M119.308 403.024L119.671 401.505C119.84 400.805 123.778 384.313 133.805 375.368C138.97 370.561 144.641 366.325 150.718 362.733L152.554 361.721L152.337 369.34C156.154 367.242 164.418 362.902 167.389 362.613C171.424 362.203 183.771 365.699 192.131 373.463C197.364 378.697 200.61 385.584 201.312 392.945V394.223H190.802L171.908 397.55L172.826 399.335L163.016 400.95L154.584 394.561L144.726 402.493L119.308 403.024ZM149.945 365.964C144.818 369.297 139.97 373.038 135.448 377.152C127.717 384.072 123.706 396.273 122.474 400.54L143.905 400.106L154.584 391.498L163.693 398.394L169.25 397.502L168.356 395.718L190.633 391.836H198.702C197.824 385.563 194.933 379.744 190.463 375.247C182.587 368.014 170.724 364.711 167.607 365.024C165.191 365.265 156.734 369.629 151.636 372.499L149.776 373.559L149.945 365.964Z" fill="black"/>
<path d="M178.793 375.127C181.816 376.558 184.34 378.859 186.042 381.733C188.168 386.001 190.729 393.018 190.729 393.018" fill="#3B37FF"/>
<path d="M189.666 393.427C189.666 393.427 187.105 386.411 185.051 382.264C183.433 379.633 181.082 377.531 178.286 376.212L179.277 374.018C182.601 375.557 185.369 378.083 187.202 381.251C189.328 385.519 191.816 392.366 192.034 392.656L189.666 393.427Z" fill="black"/>
<path d="M168.114 376.742C172.562 378.817 176.282 382.177 178.793 386.387C182.128 392.897 181.669 394.802 181.669 394.802" fill="#3B37FF"/>
<path d="M182.853 395.212L180.436 394.657C180.035 391.96 179.081 389.375 177.634 387.062C175.275 383.055 171.765 379.846 167.559 377.851L168.525 375.657C173.251 377.85 177.183 381.445 179.784 385.953C183.143 392.367 182.973 394.657 182.853 395.212Z" fill="black"/>
<path d="M158.546 381.733C161.808 383.542 170.12 396.634 170.12 396.634L158.546 381.733Z" fill="#3B37FF"/>
<path d="M169.105 397.285C165.94 392.318 160.141 384 157.966 382.818L159.15 380.721C162.581 382.65 170.265 394.681 171.231 396.032L169.105 397.285Z" fill="black"/>
<path d="M151.008 371.414L174.154 346.362L178.793 309.109" fill="white"/>
<path d="M151.902 372.233L150.114 370.594L173.019 345.831L177.585 308.965L180.002 309.254L175.314 346.892L151.902 372.233Z" fill="black"/>
<path d="M430.191 152.12C414.076 132.83 418.111 111.902 446.766 103.896C463.172 99.3153 476.944 109.153 482.187 130.757C487.43 152.361 478.925 175.291 463.703 177.967C449.907 180.378 432.004 168.539 430.191 152.144V152.12Z" fill="white"/>
<path d="M437.295 141.197C438.5 143.272 438.92 145.71 438.479 148.069C438.479 148.286 438.479 148.527 438.334 148.768C438.189 149.009 438.696 148.406 438.455 148.599C437.945 149.036 437.527 149.569 437.222 150.166C436.942 150.573 436.753 151.035 436.667 151.52C436.581 152.006 436.6 152.505 436.724 152.983C436.848 153.46 437.073 153.906 437.384 154.289C437.695 154.673 438.085 154.985 438.527 155.206C440.318 155.875 442.266 156.01 444.132 155.591C445.483 155.403 446.817 155.104 448.119 154.699C449.23 154.362 448.747 152.601 447.636 152.963C446.661 153.264 445.668 153.505 444.664 153.686C443.022 154.096 441.305 154.096 439.663 153.686C439.338 153.599 439.045 153.422 438.818 153.174C438.591 152.926 438.44 152.619 438.382 152.288C438.432 151.609 438.704 150.966 439.155 150.456C439.498 150.139 439.791 149.774 440.025 149.371C440.167 148.956 440.265 148.528 440.315 148.093C440.741 145.384 440.23 142.612 438.865 140.232C438.728 140.058 438.533 139.939 438.315 139.898C438.097 139.857 437.871 139.895 437.68 140.007C437.488 140.119 437.344 140.296 437.273 140.506C437.202 140.716 437.21 140.944 437.295 141.149V141.197Z" fill="black"/>
<path d="M456.092 133.723C454.628 133.626 453.159 133.626 451.695 133.723C449.395 133.651 447.127 134.282 445.196 135.531C445.026 135.701 444.93 135.93 444.93 136.17C444.93 136.41 445.026 136.64 445.196 136.809C445.366 136.978 445.596 137.074 445.836 137.074C446.076 137.074 446.306 136.978 446.476 136.809L446.935 136.52L447.394 136.303C447.878 136.134 448.337 136.013 448.82 135.893C449.881 135.692 450.955 135.563 452.033 135.507C453.385 135.435 454.74 135.435 456.092 135.507C457.252 135.507 457.252 133.771 456.092 133.699V133.723Z" fill="black"/>
<path d="M434.879 142.282C434.203 142.234 433.525 142.234 432.849 142.282C431.497 142.382 430.172 142.717 428.935 143.271C428.247 143.597 427.662 144.106 427.244 144.742C427.184 144.843 427.144 144.955 427.127 145.072C427.11 145.188 427.117 145.307 427.146 145.421C427.175 145.535 427.226 145.643 427.297 145.737C427.368 145.831 427.457 145.911 427.558 145.971C427.66 146.031 427.772 146.071 427.889 146.088C428.006 146.105 428.125 146.098 428.239 146.069C428.354 146.04 428.461 145.989 428.556 145.918C428.65 145.848 428.73 145.759 428.79 145.658V145.537C428.79 145.658 428.79 145.658 428.79 145.537L428.959 145.344L429.153 145.175C429.291 145.057 429.445 144.959 429.612 144.886H429.878C430.595 144.612 431.34 144.418 432.1 144.307H432.366C432.1 144.307 432.366 144.307 432.366 144.307H432.898H433.743C434.033 144.307 434.299 144.307 434.589 144.307C434.828 144.301 435.056 144.202 435.223 144.031C435.39 143.86 435.483 143.63 435.483 143.391C435.477 143.157 435.381 142.933 435.214 142.767C435.048 142.601 434.824 142.505 434.589 142.499L434.879 142.282Z" fill="black"/>
<path d="M451.225 143.638C451.915 143.433 452.093 141.983 451.62 140.401C451.148 138.818 450.206 137.702 449.515 137.907C448.824 138.112 448.647 139.561 449.12 141.144C449.592 142.726 450.534 143.843 451.225 143.638Z" fill="black"/>
<path d="M433.521 151.783C434.137 151.409 433.939 149.963 433.079 148.552C432.219 147.141 431.023 146.3 430.407 146.674C429.791 147.048 429.99 148.494 430.849 149.905C431.709 151.316 432.905 152.157 433.521 151.783Z" fill="black"/>
<path d="M446.887 162.415C449.483 161.018 451.956 159.405 454.28 157.593L455.44 156.677L455.875 156.315C455.875 156.315 456.237 156.074 456.286 155.929C456.334 155.785 456.286 155.929 456.068 155.929C455.851 155.929 455.875 155.712 455.851 155.712C455.826 155.712 455.851 155.712 455.851 155.712C455.851 155.712 455.851 156.219 455.851 156.484C455.887 157.062 455.887 157.642 455.851 158.22C455.826 159.632 455.353 161 454.498 162.126C454.336 162.3 454.247 162.528 454.247 162.765C454.247 163.002 454.336 163.23 454.498 163.404C454.581 163.489 454.681 163.557 454.791 163.603C454.901 163.65 455.019 163.673 455.138 163.673C455.257 163.673 455.375 163.65 455.485 163.603C455.595 163.557 455.695 163.489 455.778 163.404C456.805 162.143 457.435 160.608 457.59 158.991C457.638 158.277 457.638 157.56 457.59 156.845C457.626 156.184 457.536 155.521 457.324 154.892C457.228 154.7 457.091 154.531 456.924 154.397C456.756 154.262 456.561 154.166 456.352 154.113C456.144 154.06 455.926 154.053 455.715 154.092C455.503 154.131 455.302 154.215 455.126 154.338C454.764 154.608 454.417 154.898 454.087 155.206C453.172 155.992 452.212 156.725 451.212 157.4C449.473 158.583 447.666 159.661 445.8 160.631C444.761 161.186 445.8 162.753 446.718 162.198L446.887 162.415Z" fill="black"/>
<path d="M457.131 128.297C452.154 126.995 445.534 127.091 441.741 130.997C440.919 131.841 442.2 133.119 443.021 132.275C444.184 131.248 445.544 130.466 447.018 129.977C448.492 129.488 450.05 129.302 451.598 129.43C453.3 129.424 454.996 129.626 456.648 130.033C456.879 130.097 457.125 130.067 457.334 129.949C457.542 129.832 457.695 129.636 457.759 129.406C457.823 129.176 457.793 128.93 457.675 128.722C457.558 128.514 457.362 128.361 457.131 128.297Z" fill="black"/>
<path d="M434.323 135.218C432.793 134.753 431.183 134.616 429.596 134.815C428.01 135.015 426.484 135.546 425.117 136.375C423.999 137.241 423.159 138.414 422.701 139.751C422.637 139.981 422.668 140.227 422.785 140.435C422.903 140.643 423.099 140.796 423.33 140.86C423.56 140.924 423.807 140.894 424.015 140.776C424.224 140.659 424.377 140.463 424.441 140.233C424.792 139.371 425.354 138.61 426.076 138.02C426.798 137.43 427.656 137.031 428.573 136.857C429.365 136.676 430.176 136.595 430.989 136.616C431.367 136.592 431.746 136.592 432.124 136.616H432.607H432.897C433.224 136.657 433.547 136.722 433.864 136.809C434.089 136.849 434.322 136.804 434.516 136.682C434.709 136.56 434.851 136.37 434.911 136.149C434.972 135.929 434.947 135.694 434.843 135.49C434.739 135.286 434.562 135.129 434.347 135.049L434.323 135.218Z" fill="black"/>
<path d="M474.359 228.192C474.359 228.192 471.483 210.566 487.768 202.199C504.053 193.833 527.103 191.229 536.477 192.941C545.852 194.653 554.501 176.545 549.21 166.153C543.919 155.761 525.049 139.172 525.049 139.172L472.764 163.838C472.764 163.838 465.878 201.958 474.359 228.192Z" fill="#3B37FF"/>
<path d="M473.271 228.553C464.742 202.344 471.556 164.006 471.628 163.621L471.749 163.018L525.29 137.749L525.894 138.279C526.668 138.955 545.03 155.158 550.37 165.622C554.018 172.855 551.409 182.862 547.084 188.648C543.967 192.796 540.077 194.797 536.332 194.122C527.054 192.434 504.294 195.086 488.396 203.26C473.126 211.12 475.494 227.372 475.615 227.999L473.271 228.553ZM473.9 164.658C473.151 169.118 468.874 196.991 473.513 219.897C474.134 215.895 475.709 212.099 478.105 208.831C480.502 205.562 483.65 202.916 487.285 201.114C503.642 192.699 527.127 189.999 536.767 191.759C539.545 192.265 542.614 190.601 545.151 187.202C549.089 181.921 551.312 172.735 548.195 166.707C543.605 157.665 528.117 143.512 524.88 140.618L473.9 164.658Z" fill="black"/>
<path d="M422.508 121.136C424.61 123.909 450.874 126.489 464.259 119.714C464.259 119.714 458.895 136.134 475.591 147.008C475.591 147.008 468.342 163.5 477.258 176.906C480.834 182.331 512.606 196.437 521.884 187.057C531.162 177.678 543.484 172.373 544.015 155.712C544.547 139.051 537.83 119.159 527.102 111.709C516.375 104.258 492.02 104.957 486.222 97.3865C486.222 97.3865 486.221 88.7305 472.401 85.9576C447.805 80.9907 448.917 93.6733 448.917 93.6733C438.455 92.4918 412.506 108.068 422.508 121.136Z" fill="black"/>
<path d="M425.867 399.962L424.852 359.744C424.852 359.358 424.127 321.166 423.837 315.548C423.547 309.93 424.78 259.416 424.876 255.39L419.875 237.668L422.291 237.017L427.413 255.1V255.269C427.413 255.824 426.084 309.785 426.35 315.548C426.616 321.311 427.365 359.431 427.365 359.817L428.379 400.035L425.867 399.962Z" fill="black"/>
<path d="M486.656 304.914H485.738C464.283 304.504 432.583 299.344 432.245 299.296L432.632 296.885C432.946 296.885 464.501 302.069 485.787 302.479C507.073 302.889 543.001 288.639 543.363 288.494L544.257 290.736C542.783 291.243 508.329 304.914 486.656 304.914Z" fill="black"/>
<path d="M502.071 284.443C499.508 284.491 496.948 284.256 494.437 283.744L493.687 283.575L484.458 240.319L486.173 240.56C492.286 241.246 498.463 241.1 504.536 240.126C512.174 238.543 519.691 236.424 527.03 233.785L528.359 233.303L536.235 275.353L535.39 275.739C528.221 279.098 520.701 281.653 512.968 283.358C509.378 284.064 505.73 284.427 502.071 284.443ZM495.741 281.55C501.321 282.342 506.997 282.146 512.509 280.971C519.738 279.385 526.777 277.033 533.505 273.955L526.498 236.534C519.464 239.029 512.262 241.027 504.947 242.513C499.197 243.447 493.351 243.65 487.55 243.116L495.741 281.55Z" fill="black"/>
<path d="M444.834 287.771C438.648 287.771 438.382 286.782 438.213 286.131L430.965 248.662C430.887 248.227 430.916 247.781 431.051 247.36C431.186 246.94 431.422 246.559 431.738 246.251C432.059 245.957 432.446 245.743 432.865 245.625C433.285 245.508 433.727 245.491 434.154 245.576C438.942 246.711 443.851 247.254 448.772 247.191C455.152 246.659 461.415 245.172 467.352 242.779L468.825 242.176L474.044 283.455L473.005 283.72C465.343 285.653 457.538 286.975 449.666 287.674C447.781 287.722 446.138 287.771 444.834 287.771ZM440.46 285.022C443.466 285.488 446.521 285.553 449.545 285.215C456.878 284.578 464.15 283.361 471.29 281.574L466.723 245.527C460.963 247.746 454.906 249.103 448.748 249.554C443.616 249.635 438.494 249.076 433.502 247.89C433.464 247.873 433.423 247.864 433.381 247.864C433.339 247.864 433.298 247.873 433.26 247.89C433.239 247.931 433.228 247.977 433.228 248.023C433.228 248.069 433.239 248.114 433.26 248.155L440.46 285.022Z" fill="black"/>
<path d="M500.09 265.009L489.773 262.044L490.426 259.632L500.356 262.478C511.156 261.851 523.092 260.428 524.517 259.102C526.933 256.691 530.074 253.243 530.098 253.219L531.935 254.786C531.935 254.931 528.794 258.427 526.16 260.862C523.526 263.297 505.671 264.575 500.283 264.889L500.09 265.009Z" fill="black"/>
<path d="M447.177 268.457C442.852 268.457 439.421 268.289 439.156 268.289H438.745L433.912 264.31L435.435 262.43L439.783 265.926C446.302 266.229 452.834 266.068 459.33 265.444C466.119 264.503 468.439 256.812 468.463 256.739L470.879 257.39C470.879 257.776 468.125 266.673 459.741 267.831C455.571 268.309 451.374 268.518 447.177 268.457Z" fill="black"/>
<path d="M628 402.373H71.5898V70.4297H628V402.373ZM72.7979 401.167H626.792V71.6353H72.7979V401.167Z" fill="black"/>
<path d="M72.1938 71.0328L139.507 73.6127C139.041 86.0854 135.104 98.1822 128.138 108.548C121.172 118.914 111.451 127.14 100.065 132.305C88.6789 137.469 76.0769 139.368 63.6703 137.789C51.2637 136.21 39.5426 131.215 29.8199 123.364C20.0971 115.513 12.7566 105.116 8.62064 93.3367C4.48464 81.5576 3.71633 68.862 6.40198 56.6718C9.08763 44.4816 15.1211 33.2783 23.8266 24.3167C32.532 15.355 43.5656 8.98902 55.6916 5.93164L72.1938 71.0328Z" fill="white"/>
<path d="M72.2181 143.102H69.4395C51.9884 142.565 35.3234 135.736 22.5309 123.878C9.73841 112.021 1.68539 95.9384 -0.136823 78.6101C-1.95903 61.2818 2.57299 43.8816 12.6201 29.6321C22.6672 15.3826 37.5485 5.24939 54.5079 1.10919L59.1952 -0.0722656L76.108 66.2826L144.654 68.9108L144.46 73.7331C143.736 92.3712 135.808 110.006 122.34 122.938C108.872 135.871 90.9088 143.097 72.2181 143.102ZM52.2367 11.887C41.627 15.4625 32.1737 21.8147 24.8636 30.2804C17.5534 38.7461 12.6545 49.015 10.6784 60.0149C8.70229 71.0148 9.72146 82.3424 13.6294 92.8151C17.5373 103.288 24.1907 112.522 32.895 119.552C41.5993 126.583 52.0354 131.154 63.1137 132.786C74.1919 134.418 85.5061 133.053 95.875 128.832C106.244 124.611 115.288 117.69 122.062 108.792C128.835 99.8928 133.091 89.3424 134.385 78.242L68.449 75.7102L52.2367 11.887Z" fill="#3B37FF"/>
<path d="M72.1939 71.0325L71.2515 3.80957C72.4113 3.80957 73.6677 3.80957 74.7549 3.80957C89.3437 4.38731 103.352 9.66946 114.678 18.8638C126.004 28.0582 134.038 40.6692 137.574 54.8054L72.1939 71.0325Z" fill="white"/>
<path d="M68.6422 75.6379L67.5791 0.241211H71.2033C72.4355 0.241211 73.6193 0.241211 74.8999 0.241211C90.2649 0.883169 105.011 6.46221 116.941 16.147C128.87 25.8318 137.345 39.104 141.102 53.9858L141.972 57.482L68.6422 75.6379ZM74.9241 7.47467L75.7456 66.4273L133.08 52.2256C129.149 39.7188 121.462 28.7192 111.061 20.7151C100.659 12.7111 88.0444 8.08915 74.9241 7.47467Z" fill="black"/>
<path d="M72.1939 138.255C109.397 138.255 139.556 108.159 139.556 71.0325C139.556 33.9063 109.397 3.80957 72.1939 3.80957C34.9911 3.80957 4.83228 33.9063 4.83228 71.0325C4.83228 108.159 34.9911 138.255 72.1939 138.255Z" fill="white"/>
<path d="M455.972 402.494L454.039 401.047C459.358 394.044 465.435 387.648 472.16 381.975L473.633 383.904C467.088 389.443 461.166 395.676 455.972 402.494Z" fill="black"/>
<path d="M505.768 380.914C505.768 380.914 493.688 379.588 479.553 379.588V377.177C493.712 377.177 505.913 378.503 506.131 378.503L505.768 380.914Z" fill="black"/>
<path d="M468.729 401.361L466.965 399.697C466.965 399.697 475.373 391.017 479.94 386.436L481.655 388.147C477.089 392.705 468.801 401.361 468.729 401.361Z" fill="black"/>
<path d="M492.411 390.706L484.983 399.625L486.841 401.166L494.27 392.247L492.411 390.706Z" fill="black"/>
<path d="M449.206 401.023L447.008 400.059C450.481 393.416 455.207 387.505 460.925 382.65C467.545 377.394 478.997 377.177 479.481 377.177V379.588C479.36 379.588 468.342 379.805 462.374 384.555C456.99 389.172 452.523 394.758 449.206 401.023Z" fill="black"/>
<path d="M177.803 304.914C177.803 304.914 168.96 292.207 163.62 289.941C158.827 288.25 153.884 287.015 148.858 286.252L126.823 309.23C134.033 311.134 140.62 314.882 145.934 320.105C149.472 323.849 153.249 327.36 157.242 330.617L177.803 304.914Z" fill="#3B37FF"/>
<path d="M151.129 332.233L150.187 331.389C145.04 326.848 139.618 322.629 133.95 318.755C125.47 313.04 119.236 313.932 119.164 313.932L118.729 311.521C119.019 311.521 125.977 310.291 135.303 316.633C140.708 320.352 145.895 324.377 150.839 328.689L177.416 295.366C175.942 292.473 168.767 280.899 149.003 282.37L148.834 279.959C172.753 278.271 179.881 294.908 179.953 295.077L180.219 295.728L151.129 332.233Z" fill="black"/>
<path d="M598.62 308.314C598.62 308.314 589.366 220.428 581.345 206.588C573.323 192.748 557.183 188.456 545.562 200.15C533.94 211.844 555.782 253.412 558.077 270.483C560.373 287.554 562.04 310.653 562.04 310.653C559.979 311.593 558.297 313.199 557.267 315.213C556.236 317.226 555.917 319.527 556.362 321.744C557.908 329.749 560.058 332.498 560.058 332.498L518.67 373.488C524.089 378.089 528.773 383.488 532.563 389.498C536.936 397.503 539.087 398.13 539.087 398.13C539.087 398.13 577.334 380.263 589.994 353.475C602.655 326.687 598.62 308.314 598.62 308.314Z" fill="#CACACA"/>
<path d="M526.305 401.095C516.496 382.602 505.816 380.914 505.696 380.89L503.279 380.576L504.923 378.865L550.829 331.509C548.96 328.619 547.535 325.465 546.601 322.154C545.707 317.935 550.612 315.379 552.714 314.487C551.965 307.711 547.325 265.54 547.374 244.009C547.374 219.897 563.852 211.94 564.552 211.627L565.567 213.797C564.939 214.11 549.838 221.585 549.79 244.009C549.79 267.204 555.178 314.656 555.226 315.138V316.102L554.284 316.416C554.284 316.416 548.171 318.586 548.848 321.648C549.854 324.961 551.336 328.112 553.245 331.003L553.801 331.799L507.894 379.082C511.76 380.456 520.265 385.037 528.19 399.962L526.305 401.095Z" fill="black"/>
<path d="M591.806 338.791C591.661 338.646 575.594 325.602 568.177 323.553C563.943 322.463 559.843 320.91 555.951 318.923L554.187 317.935L555.879 316.85C556.458 316.488 570.061 308.025 579.581 313.45L578.397 315.523C572.043 311.931 563.055 315.765 559.068 317.79C562.198 319.174 565.429 320.319 568.732 321.214C576.633 323.408 592.579 336.356 593.256 336.91L591.806 338.791Z" fill="black"/>
<path d="M542.445 262.816L541.744 232.05C541.382 215.823 558.826 194.846 559.551 193.978L561.411 195.521C561.242 195.738 543.822 216.666 544.16 232.001L544.861 262.768L542.445 262.816Z" fill="black"/>
<path d="M540.947 295.728C540.947 295.728 507.121 317.428 472.885 316.126C438.648 314.824 434.782 319.863 437.488 322.081C440.194 324.3 487.889 335.415 512.992 325.336C538.096 315.258 540.947 295.728 540.947 295.728Z" fill="#CACACA"/>
<path d="M442.152 328.544L441.596 326.133C441.861 326.133 444.882 325.458 466.385 325.53H466.603C488.034 325.53 516.423 315.017 516.713 314.921L517.559 317.163C517.269 317.163 488.565 327.941 466.603 327.941H466.361C445.365 327.941 442.272 328.52 442.152 328.544Z" fill="black"/>
<path d="M534.761 336.26C534.761 336.26 508.039 347.279 479.408 340.817C450.777 334.355 442.683 340.817 452.299 347.906C461.915 354.994 494.533 367.605 505.768 364.326C517.003 361.046 539.908 342.625 534.761 336.26Z" fill="#CACACA"/>
<path d="M497.795 359.744C494.658 359.747 491.527 359.457 488.444 358.876C466.023 354.656 446.573 339.586 446.38 339.586L447.878 337.682C448.071 337.826 467.062 352.51 488.952 356.633C510.842 360.756 530.703 347.809 530.92 347.688L532.225 349.713C521.829 356.013 509.954 359.472 497.795 359.744Z" fill="black"/>
<path d="M497.964 379.105L495.548 378.816L497.819 359.719C496.804 357.308 490.716 343.637 490.184 338.983C490.119 333.766 490.637 328.558 491.73 323.456L483.105 311.737C479.77 307.229 485.521 301.707 487.575 300.067C486.584 294.015 479.311 249.795 473.972 231.446C472.464 225.965 469.627 220.938 465.713 216.809C461.799 212.68 456.927 209.575 451.526 207.769L452.154 205.357C457.977 207.241 463.236 210.545 467.455 214.97C471.674 219.396 474.72 224.802 476.316 230.699C482.066 250.47 490.015 299.802 490.087 300.309V301.008L489.508 301.466C489.508 301.466 482.525 306.939 484.965 310.243L493.905 322.298L494.219 322.732V323.239C493.157 328.273 492.623 333.404 492.624 338.549C493.132 343.179 500.114 358.731 500.187 358.875L500.332 359.189L497.964 379.105Z" fill="black"/>
<path d="M421.034 251.893L414.922 243.502L412.65 396.634L424.079 393.018L421.034 251.893Z" fill="#CACACA"/>
<path d="M296.7 312.847C296.7 312.847 287.616 316.102 261.304 312.847C253.693 311.827 246.155 310.321 238.738 308.338C238.979 305.927 239.124 303.323 239.148 300.815C239.318 282.032 219.819 263.563 216.147 265.202C212.474 266.842 211.315 281.092 211.315 281.092L174.275 277.933C179.544 281.346 184.485 285.236 189.038 289.555C191.961 292.738 191.454 302.382 190.922 306.626C183.674 347.953 177.924 358.514 177.924 358.514C177.924 358.514 189.038 363.336 195.61 366.977C202.182 370.618 205.274 382.939 205.274 382.939L283.774 391.595C283.774 391.595 295.13 369.894 299.237 358.514C303.345 347.133 296.7 312.847 296.7 312.847Z" fill="#CACACA"/>
<path d="M375.418 295.583H234.606L212.668 399.624H353.48L375.418 295.583Z" fill="white"/>
<path d="M354.446 400.83H211.17L233.615 294.378H376.892L354.446 400.83ZM214.141 398.419H352.489L373.92 296.789H235.572L214.141 398.419Z" fill="black"/>
<path d="M184.099 337.635L173.464 345.465L174.898 347.405L185.533 339.575L184.099 337.635Z" fill="black"/>
<path d="M220.085 364.976C191.671 362.396 178.479 349.906 177.948 349.376L179.615 347.64C179.76 347.784 192.807 360.081 220.327 362.589L220.085 364.976Z" fill="black"/>
</g>
<defs>
<clipPath id="clip0_106_267">
<rect width="628" height="403" fill="white"/>
</clipPath>
</defs>
</svg>
