<svg width="476" height="435" viewBox="0 0 476 435" fill="none" xmlns="http://www.w3.org/2000/svg">
<g clip-path="url(#clip0_106_352)">
<path d="M430.294 244.267H427.311V272.374H430.294V244.267Z" fill="#3B37FF"/>
<path d="M429.429 130.941C426.446 91.3576 419.882 90.2548 383.157 84.055L373.729 82.4455C352.01 78.66 344.82 62.6537 337.242 45.6937C328.799 26.9154 320.088 7.51116 290.015 3.54686C274.86 1.54981 262.3 4.70937 252.604 12.9062C232.824 29.6278 231.451 62.1172 231.422 62.4451H228.438C228.438 61.074 229.84 28.346 250.635 10.7601C260.987 1.99686 274.502 -1.4011 290.373 0.715185C322.027 4.76891 331.574 25.8721 339.928 44.4715C347.207 60.6864 354.069 76.0071 374.207 79.5243L383.634 81.134C420.479 87.3338 429.429 88.7943 432.413 130.703L429.429 130.941Z" fill="#3B37FF"/>
<path d="M45.8548 149.57C44.5719 147.394 17.3335 93.1163 34.8162 59.7029C41.8272 46.2899 55.1331 38.1824 74.376 35.5892C88.9051 33.6518 102.659 31.2673 115.964 28.9423C156.986 21.8483 189.356 16.2147 207.376 30.1345C215.878 36.692 220.622 47.2139 221.845 62.2663L218.862 62.5048C217.698 48.3168 213.342 38.6594 205.556 32.4894C188.58 19.3744 156.747 24.8886 116.472 31.8932C103.136 34.1883 89.3526 36.6026 74.7042 38.54C56.5055 41.014 44.0051 48.585 37.4714 60.9548C20.6749 92.9971 48.2415 147.543 48.51 148.08L45.8548 149.57Z" fill="#3B37FF"/>
<path d="M266.417 370.587H164.743V385.014H266.417V370.587Z" fill="#CACACA"/>
<path d="M266.417 385.043H164.743V385.491H266.417V385.043Z" fill="#CACACA"/>
<path d="M266.417 385.491H164.743V385.938H266.417V385.491Z" fill="#CBCBCB"/>
<path d="M266.417 385.938H164.743V386.385H266.417V385.938Z" fill="#CCCCCC"/>
<path d="M266.417 386.385H164.743V386.832H266.417V386.385Z" fill="#CDCDCD"/>
<path d="M266.417 386.832H164.743V387.279H266.417V386.832Z" fill="#CECECE"/>
<path d="M266.417 387.279H164.743V387.726H266.417V387.279Z" fill="#CFCFCF"/>
<path d="M266.417 387.726H164.743V388.173H266.417V387.726Z" fill="#D0D0D0"/>
<path d="M266.417 388.173H164.743V388.62H266.417V388.173Z" fill="#D1D1D1"/>
<path d="M266.417 388.621H164.743V389.068H266.417V388.621Z" fill="#D2D2D2"/>
<path d="M266.417 389.067H164.743V389.514H266.417V389.067Z" fill="#D3D3D3"/>
<path d="M266.417 389.515H164.743V389.962H266.417V389.515Z" fill="#D5D5D5"/>
<path d="M266.417 389.992H164.743V390.439H266.417V389.992Z" fill="#D6D6D6"/>
<path d="M266.417 390.438H164.743V390.886H266.417V390.438Z" fill="#D7D7D7"/>
<path d="M266.417 390.886H164.743V391.333H266.417V390.886Z" fill="#D8D8D8"/>
<path d="M266.417 391.333H164.743V391.78H266.417V391.333Z" fill="#D9D9D9"/>
<path d="M266.417 391.78H164.743V392.227H266.417V391.78Z" fill="#DADADA"/>
<path d="M266.417 392.227H164.743V392.674H266.417V392.227Z" fill="#DBDBDB"/>
<path d="M266.417 392.674H164.743V393.121H266.417V392.674Z" fill="#DCDCDC"/>
<path d="M266.417 393.121H164.743V393.568H266.417V393.121Z" fill="#DDDDDD"/>
<path d="M266.417 393.568H164.743V394.016H266.417V393.568Z" fill="#DEDEDE"/>
<path d="M266.417 394.016H164.743V394.463H266.417V394.016Z" fill="#DFDFDF"/>
<path d="M266.417 394.463H164.743V394.91H266.417V394.463Z" fill="#E0E0E0"/>
<path d="M266.417 394.91H164.743V395.357H266.417V394.91Z" fill="#E1E1E1"/>
<path d="M266.417 395.357H164.743V395.804H266.417V395.357Z" fill="#E2E2E2"/>
<path d="M266.417 395.834H164.743V396.281H266.417V395.834Z" fill="#E3E3E3"/>
<path d="M266.417 396.281H164.743V396.728H266.417V396.281Z" fill="#E4E4E4"/>
<path d="M266.417 396.728H164.743V397.175H266.417V396.728Z" fill="#E5E5E5"/>
<path d="M266.417 397.175H164.743V397.622H266.417V397.175Z" fill="#E6E6E6"/>
<path d="M266.417 397.622H164.743V398.069H266.417V397.622Z" fill="#E7E7E7"/>
<path d="M266.417 398.069H164.743V398.516H266.417V398.069Z" fill="#E8E8E8"/>
<path d="M266.417 398.517H164.743V398.964H266.417V398.517Z" fill="#E9E9E9"/>
<path d="M266.417 398.963H164.743V400.036H266.417V398.963Z" fill="#E9E9E9"/>
<path d="M266.417 400.037H164.743V401.11H266.417V400.037Z" fill="#EAEAEA"/>
<path d="M266.417 401.139H164.743V402.212H266.417V401.139Z" fill="#ECECEC"/>
<path d="M266.417 402.212H164.743V403.285H266.417V402.212Z" fill="#EDEDED"/>
<path d="M266.417 403.315H164.743V404.388H266.417V403.315Z" fill="#EEEEEE"/>
<path d="M266.417 404.388H164.743V405.461H266.417V404.388Z" fill="#EFEFEF"/>
<path d="M266.417 405.461H164.743V406.534H266.417V405.461Z" fill="#F1F1F1"/>
<path d="M266.417 406.564H164.743V407.637H266.417V406.564Z" fill="#F2F2F2"/>
<path d="M266.417 407.637H164.743V408.71H266.417V407.637Z" fill="#F3F3F3"/>
<path d="M266.417 408.74H164.743V409.724H266.417V408.74Z" fill="#F4F4F4"/>
<path d="M164.755 409.655L164.739 412.219L169.87 412.251L169.886 409.688L164.755 409.655Z" fill="#E2E4E6"/>
<path d="M170.202 409.694V412.287H169.874L169.904 409.694H170.202Z" fill="#E2E4E6"/>
<path d="M170.53 409.694V412.287H170.202V409.694H170.53Z" fill="#E2E4E6"/>
<path d="M170.858 409.694V412.287H170.531V409.694H170.858Z" fill="#E2E4E6"/>
<path d="M171.186 409.694L171.157 412.288H170.859V409.694H171.186Z" fill="#E2E4E6"/>
<path d="M171.514 409.694L171.485 412.288H171.157L171.187 409.694H171.514Z" fill="#E2E4E6"/>
<path d="M171.813 409.694V412.287H171.485L171.515 409.694H171.813Z" fill="#E2E4E6"/>
<path d="M172.141 409.694V412.287H171.813V409.694H172.141Z" fill="#E1E3E5"/>
<path d="M172.469 409.694V412.287H172.142V409.694H172.469Z" fill="#E1E3E5"/>
<path d="M172.797 409.694L172.768 412.287H172.47V409.694H172.797Z" fill="#E1E3E5"/>
<path d="M173.125 409.694L173.096 412.287H172.768L172.798 409.694H173.125Z" fill="#E1E3E5"/>
<path d="M173.453 409.694L173.424 412.288H173.096L173.126 409.694H173.453Z" fill="#E0E2E4"/>
<path d="M173.752 409.694V412.287H173.425L173.454 409.694H173.752Z" fill="#E0E2E4"/>
<path d="M174.08 409.694V412.287H173.753V409.694H174.08Z" fill="#E0E2E4"/>
<path d="M174.408 409.694V412.287H174.081V409.694H174.408Z" fill="#DFE1E3"/>
<path d="M174.737 409.694L174.707 412.287H174.409V409.694H174.737Z" fill="#DFE1E3"/>
<path d="M175.065 409.694L175.035 412.287H174.707L174.737 409.694H175.065Z" fill="#DEE0E2"/>
<path d="M175.393 409.694L175.363 412.288H175.036L175.065 409.694H175.393Z" fill="#DEE0E2"/>
<path d="M175.721 409.694L175.691 412.287H175.364L175.393 409.694H175.721Z" fill="#DDDFE1"/>
<path d="M176.019 409.694V412.287H175.692L175.722 409.694H176.019Z" fill="#DDDFE1"/>
<path d="M176.348 409.694V412.287H176.02V409.694H176.348Z" fill="#DCDEE0"/>
<path d="M176.676 409.694L176.646 412.287H176.348V409.694H176.676Z" fill="#DBDDDF"/>
<path d="M177.004 409.694L176.974 412.287H176.647L176.676 409.694H177.004Z" fill="#DBDDDF"/>
<path d="M177.332 409.694L177.302 412.288H176.975L177.004 409.694H177.332Z" fill="#DADCDE"/>
<path d="M177.66 409.694L177.63 412.287H177.303L177.333 409.694H177.66Z" fill="#D9DBDD"/>
<path d="M177.959 409.694V412.287H177.631L177.661 409.694H177.959Z" fill="#D8DADC"/>
<path d="M178.287 409.694V412.287H177.959V409.694H178.287Z" fill="#D7D9DB"/>
<path d="M178.615 409.694L178.585 412.287H178.287V409.694H178.615Z" fill="#D6D8DA"/>
<path d="M178.943 409.694L178.913 412.287H178.586L178.615 409.694H178.943Z" fill="#D5D7D9"/>
<path d="M179.271 409.694L179.241 412.288H178.914L178.944 409.694H179.271Z" fill="#D4D6D8"/>
<path d="M179.599 409.694L179.57 412.287H179.242L179.272 409.694H179.599Z" fill="#D3D5D7"/>
<path d="M179.898 409.694V412.287H179.57L179.6 409.694H179.898Z" fill="#D2D4D6"/>
<path d="M180.226 409.694V412.287H179.898V409.694H180.226Z" fill="#D1D3D5"/>
<path d="M180.554 409.694L180.524 412.287H180.227V409.694H180.554Z" fill="#D0D2D4"/>
<path d="M180.882 409.694L180.852 412.287H180.525L180.555 409.694H180.882Z" fill="#CED0D3"/>
<path d="M181.21 409.694L181.181 412.288H180.853L180.883 409.694H181.21Z" fill="#CDCFD1"/>
<path d="M181.509 409.694V412.287H181.181L181.211 409.694H181.509Z" fill="#CCCED0"/>
<path d="M181.837 409.694V412.287H181.51V409.694H181.837Z" fill="#CACCCF"/>
<path d="M182.165 409.694V412.287H181.838V409.694H182.165Z" fill="#C9CBCD"/>
<path d="M182.493 409.694L182.463 412.287H182.166V409.694H182.493Z" fill="#C7C9CC"/>
<path d="M182.821 409.694L182.792 412.287H182.464L182.494 409.694H182.821Z" fill="#C6C8CA"/>
<path d="M183.149 409.694L183.12 412.288H182.792L182.822 409.694H183.149Z" fill="#C4C6C9"/>
<path d="M183.448 409.694V412.288H183.121L183.15 409.694H183.448Z" fill="#C3C5C7"/>
<path d="M183.776 409.694V412.287H183.449V409.694H183.776Z" fill="#C1C3C6"/>
<path d="M184.104 409.694V412.287H183.777V409.694H184.104Z" fill="#BFC1C4"/>
<path d="M184.432 409.694L184.403 412.287H184.105V409.694H184.432Z" fill="#BEC0C2"/>
<path d="M184.761 409.694L184.731 412.287H184.403L184.433 409.694H184.761Z" fill="#BCBEC1"/>
<path d="M185.089 409.694L185.059 412.287H184.732L184.761 409.694H185.089Z" fill="#BABCBF"/>
<path d="M185.387 409.694V412.288H185.06L185.09 409.694H185.387Z" fill="#B8BABD"/>
<path d="M185.715 409.694V412.287H185.388V409.694H185.715Z" fill="#B6B8BB"/>
<path d="M186.044 409.694V412.287H185.716V409.694H186.044Z" fill="#B4B6B9"/>
<path d="M186.372 409.694L186.342 412.287H186.044V409.694H186.372Z" fill="#B2B4B7"/>
<path d="M186.7 409.694L186.67 412.287H186.343L186.372 409.694H186.7Z" fill="#B0B2B5"/>
<path d="M187.028 409.694L186.998 412.287H186.671L186.701 409.694H187.028Z" fill="#AEB0B3"/>
<path d="M187.327 409.694V412.288H186.999L187.029 409.694H187.327Z" fill="#ACAEB1"/>
<path d="M187.864 409.694L187.834 412.287H187.327V409.694H187.864Z" fill="#ACAEB1"/>
<path d="M188.371 409.694L188.341 412.287H187.834L187.864 409.694H188.371Z" fill="#ADAFB2"/>
<path d="M188.879 409.694L188.849 412.288H188.342L188.371 409.694H188.879Z" fill="#AEB0B3"/>
<path d="M189.386 409.694L189.356 412.287H188.849L188.878 409.694H189.386Z" fill="#AFB1B4"/>
<path d="M189.893 409.694L189.863 412.287H189.356L189.386 409.694H189.893Z" fill="#B0B2B5"/>
<path d="M190.4 409.694L190.37 412.287H189.863L189.893 409.694H190.4Z" fill="#B1B3B6"/>
<path d="M190.907 409.694L190.877 412.287H190.37L190.4 409.694H190.907Z" fill="#B2B4B7"/>
<path d="M191.414 409.694V412.288H190.877L190.907 409.694H191.414Z" fill="#B3B5B8"/>
<path d="M191.921 409.694V412.287H191.414V409.694H191.921Z" fill="#B4B6B9"/>
<path d="M192.429 409.694V412.288H191.921V409.694H192.429Z" fill="#B5B7BA"/>
<path d="M192.936 409.694V412.287H192.429V409.694H192.936Z" fill="#B7B8BB"/>
<path d="M193.443 409.694V412.287H192.936V409.694H193.443Z" fill="#B8B9BC"/>
<path d="M193.98 409.694L193.95 412.287H193.443V409.694H193.98Z" fill="#B9BABD"/>
<path d="M194.487 409.694L194.457 412.287H193.95L193.98 409.694H194.487Z" fill="#BABBBE"/>
<path d="M194.995 409.694L194.965 412.288H194.458L194.487 409.694H194.995Z" fill="#BBBCBF"/>
<path d="M195.502 409.694L195.472 412.287H194.965L194.994 409.694H195.502Z" fill="#BCBDC0"/>
<path d="M196.009 409.694L195.979 412.287H195.472L195.502 409.694H196.009Z" fill="#BDBEC1"/>
<path d="M196.516 409.694L196.486 412.287H195.979L196.009 409.694H196.516Z" fill="#BEBFC2"/>
<path d="M197.023 409.694L196.993 412.287H196.486L196.516 409.694H197.023Z" fill="#BFC0C3"/>
<path d="M197.53 409.694V412.288H196.993L197.023 409.694H197.53Z" fill="#C0C1C4"/>
<path d="M198.037 409.694V412.287H197.53V409.694H198.037Z" fill="#C1C2C5"/>
<path d="M198.545 409.694V412.287H198.037V409.694H198.545Z" fill="#C2C3C5"/>
<path d="M199.052 409.694V412.287H198.545V409.694H199.052Z" fill="#C3C4C6"/>
<path d="M199.559 409.694V412.287H199.052V409.694H199.559Z" fill="#C4C5C7"/>
<path d="M200.096 409.694L200.066 412.287H199.559V409.694H200.096Z" fill="#C5C6C8"/>
<path d="M200.603 409.694L200.573 412.287H200.066L200.096 409.694H200.603Z" fill="#C6C7C9"/>
<path d="M201.11 409.694L201.08 412.288H200.573L200.603 409.694H201.11Z" fill="#C7C8CA"/>
<path d="M201.618 409.694L201.588 412.287H201.081L201.11 409.694H201.618Z" fill="#C8C9CB"/>
<path d="M202.125 409.694L202.095 412.287H201.588L201.617 409.694H202.125Z" fill="#C9CACC"/>
<path d="M202.632 409.694V412.288H202.095L202.125 409.694H202.632Z" fill="#CACBCD"/>
<path d="M203.139 409.694L203.109 412.287H202.632V409.694H203.139Z" fill="#CBCCCE"/>
<path d="M203.646 409.694V412.287H203.109L203.139 409.694H203.646Z" fill="#CCCDCF"/>
<path d="M204.153 409.694V412.287H203.646V409.694H204.153Z" fill="#CDCED0"/>
<path d="M204.661 409.694V412.287H204.153V409.694H204.661Z" fill="#CECFD1"/>
<path d="M205.168 409.694V412.287H204.661V409.694H205.168Z" fill="#CFD0D2"/>
<path d="M205.675 409.694V412.287H205.168V409.694H205.675Z" fill="#D1D1D3"/>
<path d="M206.212 409.694L206.182 412.288H205.675V409.694H206.212Z" fill="#D2D2D4"/>
<path d="M206.719 409.694L206.689 412.287H206.182L206.212 409.694H206.719Z" fill="#D3D3D5"/>
<path d="M207.226 409.694L207.196 412.287H206.689L206.719 409.694H207.226Z" fill="#D4D4D6"/>
<path d="M207.734 409.694L207.704 412.287H207.197L207.226 409.694H207.734Z" fill="#D5D5D7"/>
<path d="M208.241 409.694L208.211 412.287H207.704L207.733 409.694H208.241Z" fill="#D6D6D8"/>
<path d="M208.748 409.694V412.288H208.211L208.241 409.694H208.748Z" fill="#D7D7D9"/>
<path d="M209.255 409.694V412.287H208.748V409.694H209.255Z" fill="#D8D8DA"/>
<path d="M209.762 409.694V412.288H209.255V409.694H209.762Z" fill="#D9D9DB"/>
<path d="M210.269 409.694V412.287H209.762V409.694H210.269Z" fill="#DADADC"/>
<path d="M210.777 409.694V412.287H210.269V409.694H210.777Z" fill="#DBDBDC"/>
<path d="M211.314 409.694L211.284 412.287H210.777V409.694H211.314Z" fill="#DCDCDD"/>
<path d="M211.821 409.694L211.791 412.287H211.284L211.314 409.694H211.821Z" fill="#DDDDDE"/>
<path d="M212.328 409.694L212.298 412.288H211.791L211.821 409.694H212.328Z" fill="#DEDEDF"/>
<path d="M212.835 409.694L212.805 412.287H212.298L212.328 409.694H212.835Z" fill="#DFDFE0"/>
<path d="M213.342 409.694L213.312 412.287H212.805L212.835 409.694H213.342Z" fill="#E0E0E1"/>
<path d="M213.849 409.694L213.82 412.287H213.312L213.342 409.694H213.849Z" fill="#E1E1E2"/>
<path d="M214.357 409.694L214.327 412.287H213.82L213.849 409.694H214.357Z" fill="#E2E2E3"/>
<path d="M214.864 409.694V412.287H214.327L214.357 409.694H214.864Z" fill="#E3E3E4"/>
<path d="M215.371 409.694V412.287H214.864V409.694H215.371Z" fill="#E4E4E5"/>
<path d="M215.878 409.694V412.288H215.371V409.694H215.878Z" fill="#E5E5E6"/>
<path d="M216.385 409.694V412.287H215.878V409.694H216.385Z" fill="#E6E6E7"/>
<path d="M216.892 409.694V412.287H216.385V409.694H216.892Z" fill="#E7E7E8"/>
<path d="M217.43 409.694L217.4 412.288H216.893V409.694H217.43Z" fill="#E8E8E9"/>
<path d="M217.937 409.694L217.907 412.287H217.4L217.429 409.694H217.937Z" fill="#E9E9E9"/>
<path d="M218.444 409.694L218.414 412.288H217.907L217.937 409.694H218.444Z" fill="#EAEAEA"/>
<path d="M218.951 409.694L218.921 412.287H218.414L218.444 409.694H218.951Z" fill="#EBEBEB"/>
<path d="M219.458 409.694L219.428 412.287H218.921L218.951 409.694H219.458Z" fill="#ECECEC"/>
<path d="M219.965 409.694L219.936 412.287H219.428L219.458 409.694H219.965Z" fill="#EDEDED"/>
<path d="M220.473 409.694L220.443 412.287H219.936L219.965 409.694H220.473Z" fill="#EEEEEE"/>
<path d="M220.98 409.694V412.288H220.443L220.472 409.694H220.98Z" fill="#EFEFEF"/>
<path d="M221.487 409.694V412.287H220.98V409.694H221.487Z" fill="#EFF0F0"/>
<path d="M221.994 409.694V412.287H221.487V409.694H221.994Z" fill="#F0F0F1"/>
<path d="M222.501 409.694V412.287H221.994V409.694H222.501Z" fill="#F1F1F2"/>
<path d="M223.008 409.694V412.287H222.501V409.694H223.008Z" fill="#F2F2F2"/>
<path d="M223.516 409.694V412.287H223.008V409.694H223.516Z" fill="#F3F3F3"/>
<path d="M224.053 409.694L224.023 412.287H223.516V409.694H224.053Z" fill="#F4F4F4"/>
<path d="M225.276 409.694V412.287H224.023L224.053 409.694H225.276Z" fill="#F4F4F4"/>
<path d="M226.529 409.694L226.499 412.287H225.276V409.694H226.529Z" fill="#F3F3F3"/>
<path d="M227.752 409.694V412.287H226.499L226.529 409.694H227.752Z" fill="#F1F1F1"/>
<path d="M229.005 409.694L228.975 412.287H227.752V409.694H229.005Z" fill="#F0F0F0"/>
<path d="M230.228 409.694V412.288H228.975L229.005 409.694H230.228Z" fill="#EFEFEF"/>
<path d="M231.481 409.694L231.451 412.287H230.228V409.694H231.481Z" fill="#EEEEEE"/>
<path d="M232.704 409.694V412.287H231.451L231.481 409.694H232.704Z" fill="#ECECEC"/>
<path d="M233.957 409.694L233.928 412.288H232.704V409.694H233.957Z" fill="#EBEBEB"/>
<path d="M235.181 409.694V412.287H233.928L233.957 409.694H235.181Z" fill="#EAEAEA"/>
<path d="M236.434 409.694L236.404 412.287H235.181V409.694H236.434Z" fill="#EAEAEA"/>
<path d="M237.657 409.694V412.287H236.404L236.434 409.694H237.657Z" fill="#E9E9E9"/>
<path d="M238.014 409.694L237.984 412.287H237.657V409.694H238.014Z" fill="#E9E9E9"/>
<path d="M238.372 409.694L238.342 412.287H237.985L238.015 409.694H238.372Z" fill="#EAEAEA"/>
<path d="M238.7 409.694V412.287H238.343L238.373 409.694H238.7Z" fill="#ECECEC"/>
<path d="M239.058 409.694V412.287H238.701V409.694H239.058Z" fill="#EDEDED"/>
<path d="M239.416 409.694L239.387 412.287H239.059V409.694H239.416Z" fill="#EEEEEE"/>
<path d="M239.774 409.694L239.744 412.287H239.387L239.417 409.694H239.774Z" fill="#EFEFEF"/>
<path d="M240.102 409.694V412.287H239.745L239.775 409.694H240.102Z" fill="#F1F1F1"/>
<path d="M240.461 409.694V412.287H240.103V409.694H240.461Z" fill="#F2F2F2"/>
<path d="M240.819 409.694L240.789 412.287H240.461V409.694H240.819Z" fill="#F3F3F3"/>
<path d="M241.177 409.694L241.147 412.288H240.79L240.819 409.694H241.177Z" fill="#F4F4F4"/>
<path d="M241.505 409.694V412.287H241.147L241.177 409.694H241.505Z" fill="#F5F5F5"/>
<path d="M241.863 409.694V412.287H241.505V409.694H241.863Z" fill="#F6F6F6"/>
<path d="M242.221 409.694L242.191 412.287H241.864V409.694H242.221Z" fill="#F7F7F7"/>
<path d="M242.579 409.694L242.549 412.287H242.192L242.221 409.694H242.579Z" fill="#F8F8F8"/>
<path d="M242.907 409.694V412.288H242.55L242.579 409.694H242.907Z" fill="#F9F9F9"/>
<path d="M243.265 409.694V412.287H242.908V409.694H243.265Z" fill="#FAFAFA"/>
<path d="M243.623 409.694L243.593 412.287H243.266V409.694H243.623Z" fill="#FBFBFB"/>
<path d="M243.981 409.694L243.951 412.288H243.594L243.624 409.694H243.981Z" fill="#FCFCFC"/>
<path d="M244.309 409.694V412.287H243.952L243.982 409.694H244.309Z" fill="#FDFDFD"/>
<path d="M244.667 409.694V412.287H244.31V409.694H244.667Z" fill="#FEFEFE"/>
<path d="M245.025 409.694L244.995 412.287H244.668V409.694H245.025Z" fill="#FEFEFE"/>
<path d="M245.383 409.694L245.353 412.287H244.996L245.026 409.694H245.383Z" fill="white"/>
<path d="M245.356 409.607L245.34 412.17L266.402 412.303L266.418 409.739L245.356 409.607Z" fill="white"/>
<path d="M70.4081 293.776L116.979 360.007H70.4081V293.776Z" fill="#CACACA"/>
<path d="M70.4081 283.045L124.527 360.007H116.979L70.4081 293.776V283.045Z" fill="#CACACA"/>
<path d="M70.4081 272.315L132.075 360.006H124.527L70.4081 283.045V272.315Z" fill="#CBCBCB"/>
<path d="M70.4081 261.584L139.623 360.006H132.075L70.4081 272.315V261.584Z" fill="#CCCCCC"/>
<path d="M70.4081 250.854L147.171 360.006H139.623L70.4081 261.584V250.854Z" fill="#CDCDCD"/>
<path d="M70.4081 240.153L154.689 360.006H147.171L70.4081 250.854V240.153Z" fill="#CECECE"/>
<path d="M70.4081 229.423L162.237 360.006H154.689L70.4081 240.153V229.423Z" fill="#CFCFCF"/>
<path d="M70.4081 218.692L169.785 360.006H162.237L70.4081 229.423V218.692Z" fill="#D0D0D0"/>
<path d="M70.4081 207.962L177.333 360.006H169.785L70.4081 218.692V207.962Z" fill="#D1D1D1"/>
<path d="M70.4081 197.231L184.881 360.006H177.333L70.4081 207.962V197.231Z" fill="#D3D3D3"/>
<path d="M70.4081 186.531L192.399 360.006H184.881L70.4081 197.231V186.531Z" fill="#D4D4D4"/>
<path d="M71.0943 176.784L199.947 360.006H192.399L70.4081 186.531V176.784H71.0943Z" fill="#D5D5D5"/>
<path d="M78.6422 176.784L207.495 360.006H199.947L71.0942 176.784H78.6422Z" fill="#D6D6D6"/>
<path d="M86.1902 176.784L215.043 360.006H207.495L78.6422 176.784H86.1902Z" fill="#D7D7D7"/>
<path d="M93.7382 176.784L222.591 360.006H215.043L86.1902 176.784H93.7382Z" fill="#D8D8D8"/>
<path d="M101.286 176.784L230.139 360.006H222.591L93.7382 176.784H101.286Z" fill="#D9D9D9"/>
<path d="M108.834 176.784L237.657 360.006H230.139L101.286 176.784H108.834Z" fill="#DADADA"/>
<path d="M116.352 176.784L245.205 360.006H237.657L108.834 176.784H116.352Z" fill="#DBDBDB"/>
<path d="M123.9 176.784L252.753 360.006H245.205L116.352 176.784H123.9Z" fill="#DCDCDC"/>
<path d="M131.448 176.784L260.301 360.006H252.753L123.9 176.784H131.448Z" fill="#DDDDDD"/>
<path d="M138.996 176.784L267.849 360.006H260.301L131.448 176.784H138.996Z" fill="#DEDEDE"/>
<path d="M146.544 176.784L275.367 360.006H267.849L138.996 176.784H146.544Z" fill="#DFDFDF"/>
<path d="M154.062 176.784L282.915 360.006H275.367L146.544 176.784H154.062Z" fill="#E0E0E0"/>
<path d="M161.61 176.784L290.463 360.006H282.915L154.062 176.784H161.61Z" fill="#E1E1E1"/>
<path d="M169.158 176.784L298.011 360.006H290.463L161.61 176.784H169.158Z" fill="#E2E2E2"/>
<path d="M176.706 176.784L305.559 360.006H298.011L169.158 176.784H176.706Z" fill="#E3E3E3"/>
<path d="M184.254 176.784L313.077 360.006H305.559L176.706 176.784H184.254Z" fill="#E4E4E4"/>
<path d="M191.772 176.784L320.625 360.006H313.077L184.254 176.784H191.772Z" fill="#E5E5E5"/>
<path d="M199.32 176.784L328.173 360.006H320.625L191.772 176.784H199.32Z" fill="#E6E6E6"/>
<path d="M206.868 176.784L335.721 360.006H328.173L199.32 176.784H206.868Z" fill="#E7E7E7"/>
<path d="M214.416 176.784L343.269 360.006H335.721L206.868 176.784H214.416Z" fill="#E8E8E8"/>
<path d="M221.964 176.784L350.817 360.006H343.269L214.416 176.784H221.964Z" fill="#E9E9E9"/>
<path d="M229.512 176.784L358.335 360.006H350.817L221.964 176.784H229.512Z" fill="#EAEAEA"/>
<path d="M237.03 176.784L360.782 352.734V360.006H358.335L229.512 176.784H237.03Z" fill="#EBEBEB"/>
<path d="M244.579 176.784L360.782 342.003V352.734L237.031 176.784H244.579Z" fill="#ECECEC"/>
<path d="M252.126 176.784L360.782 331.273V342.003L244.578 176.784H252.126Z" fill="#EDEDED"/>
<path d="M259.674 176.784L360.782 320.572V331.273L252.126 176.784H259.674Z" fill="#EEEEEE"/>
<path d="M267.222 176.784L360.782 309.842V320.572L259.674 176.784H267.222Z" fill="#EFEFEF"/>
<path d="M274.741 176.784L360.782 299.111V309.842L267.222 176.784H274.741Z" fill="#F0F0F0"/>
<path d="M360.781 299.111L274.74 176.784H360.781V299.111Z" fill="#F0F0F0"/>
<path d="M70.4081 369.634L71.4224 373.986H70.4081V369.634Z" fill="#BBBBBB"/>
<path d="M72.944 360.006L76.1959 373.986H71.4224L70.4081 369.634V360.006H72.944Z" fill="#BCBCBC"/>
<path d="M77.7174 360.006L80.9693 373.986H76.1959L72.944 360.006H77.7174Z" fill="#BDBDBD"/>
<path d="M82.461 360.006L85.7129 373.986H80.9693L77.7174 360.006H82.461Z" fill="#BEBEBE"/>
<path d="M87.2344 360.006L90.4863 373.986H85.7128L82.4609 360.006H87.2344Z" fill="#BFBFBF"/>
<path d="M92.0078 360.006L95.2597 373.986H90.4863L87.2344 360.006H92.0078Z" fill="#C0C0C0"/>
<path d="M96.7814 360.006L100.033 373.986H95.2598L92.0079 360.006H96.7814Z" fill="#C1C1C1"/>
<path d="M101.555 360.006L104.777 373.986H100.033L96.7811 360.006H101.555Z" fill="#C2C2C2"/>
<path d="M106.298 360.006L109.55 373.986H104.777L101.555 360.006H106.298Z" fill="#C3C3C3"/>
<path d="M111.072 360.006L114.324 373.986H109.55L106.298 360.006H111.072Z" fill="#C4C4C4"/>
<path d="M115.845 360.006L119.097 373.986H114.324L111.072 360.006H115.845Z" fill="#C5C5C5"/>
<path d="M120.619 360.006L123.87 373.986H119.097L115.845 360.006H120.619Z" fill="#C6C6C6"/>
<path d="M125.392 360.006L128.614 373.986H123.87L120.619 360.006H125.392Z" fill="#C7C7C7"/>
<path d="M130.136 360.006L133.387 373.986H128.614L125.392 360.006H130.136Z" fill="#C8C8C8"/>
<path d="M134.909 360.006L138.161 373.986H133.387L130.135 360.006H134.909Z" fill="#C9C9C9"/>
<path d="M139.682 360.006L142.934 373.986H138.161L134.909 360.006H139.682Z" fill="#CACACA"/>
<path d="M144.456 360.006L147.678 373.986H142.934L139.682 360.006H144.456Z" fill="#CBCBCB"/>
<path d="M149.229 360.006L152.451 373.986H147.678L144.456 360.006H149.229Z" fill="#CCCCCC"/>
<path d="M153.973 360.006L157.225 373.986H152.451L149.229 360.006H153.973Z" fill="#CDCDCD"/>
<path d="M158.746 360.006L161.998 373.986H157.225L153.973 360.006H158.746Z" fill="#CECECE"/>
<path d="M163.52 360.006L166.772 373.986H161.998L158.746 360.006H163.52Z" fill="#CFCFCF"/>
<path d="M168.293 360.006L171.515 373.986H166.772L163.52 360.006H168.293Z" fill="#D0D0D0"/>
<path d="M173.037 360.006L176.289 373.986H171.515L168.293 360.006H173.037Z" fill="#D1D1D1"/>
<path d="M177.81 360.006L181.062 373.986H176.289L173.037 360.006H177.81Z" fill="#D2D2D2"/>
<path d="M182.584 360.006L185.836 373.986H181.062L177.81 360.006H182.584Z" fill="#D3D3D3"/>
<path d="M187.357 360.006L190.579 373.986H185.836L182.584 360.006H187.357Z" fill="#D4D4D4"/>
<path d="M192.13 360.006L195.352 373.986H190.579L187.357 360.006H192.13Z" fill="#D5D5D5"/>
<path d="M196.874 360.006L200.126 373.986H195.352L192.13 360.006H196.874Z" fill="#D6D6D6"/>
<path d="M201.647 360.006L204.899 373.986H200.126L196.874 360.006H201.647Z" fill="#D7D7D7"/>
<path d="M206.421 360.006L209.673 373.986H204.899L201.647 360.006H206.421Z" fill="#D8D8D8"/>
<path d="M211.194 360.006L214.416 373.986H209.673L206.421 360.006H211.194Z" fill="#D9D9D9"/>
<path d="M215.968 360.006L219.19 373.986H214.416L211.194 360.006H215.968Z" fill="#DBDBDB"/>
<path d="M220.711 360.006L223.963 373.986H219.19L215.968 360.006H220.711Z" fill="#DCDCDC"/>
<path d="M225.485 360.006L228.737 373.986H223.963L220.711 360.006H225.485Z" fill="#DDDDDD"/>
<path d="M230.258 360.006L233.51 373.986H228.737L225.485 360.006H230.258Z" fill="#DEDEDE"/>
<path d="M235.032 360.006L238.254 373.986H233.51L230.258 360.006H235.032Z" fill="#DFDFDF"/>
<path d="M239.775 360.006L243.027 373.986H238.254L235.032 360.006H239.775Z" fill="#E0E0E0"/>
<path d="M244.549 360.006L247.8 373.986H243.027L239.775 360.006H244.549Z" fill="#E1E1E1"/>
<path d="M249.322 360.006L252.574 373.986H247.8L244.549 360.006H249.322Z" fill="#E2E2E2"/>
<path d="M254.095 360.006L257.317 373.986H252.574L249.322 360.006H254.095Z" fill="#E3E3E3"/>
<path d="M258.869 360.006L262.091 373.986H257.317L254.095 360.006H258.869Z" fill="#E4E4E4"/>
<path d="M263.612 360.006L266.864 373.986H262.091L258.869 360.006H263.612Z" fill="#E5E5E5"/>
<path d="M268.386 360.006L271.638 373.986H266.864L263.612 360.006H268.386Z" fill="#E6E6E6"/>
<path d="M273.159 360.006L276.411 373.986H271.638L268.386 360.006H273.159Z" fill="#E7E7E7"/>
<path d="M277.933 360.006L281.155 373.986H276.411L273.159 360.006H277.933Z" fill="#E8E8E8"/>
<path d="M282.676 360.006L285.928 373.986H281.155L277.933 360.006H282.676Z" fill="#E9E9E9"/>
<path d="M287.45 360.006L290.702 373.986H285.928L282.676 360.006H287.45Z" fill="#EAEAEA"/>
<path d="M292.223 360.006L295.475 373.986H290.702L287.45 360.006H292.223Z" fill="#EBEBEB"/>
<path d="M296.997 360.006L300.248 373.986H295.475L292.223 360.006H296.997Z" fill="#ECECEC"/>
<path d="M301.77 360.006L304.992 373.986H300.248L296.997 360.006H301.77Z" fill="#EDEDED"/>
<path d="M306.514 360.006L309.766 373.986H304.992L301.77 360.006H306.514Z" fill="#EEEEEE"/>
<path d="M311.287 360.006L314.539 373.986H309.765L306.514 360.006H311.287Z" fill="#EFEFEF"/>
<path d="M316.06 360.006L319.312 373.986H314.539L311.287 360.006H316.06Z" fill="#F0F0F0"/>
<path d="M320.834 360.006L324.086 373.986H319.312L316.061 360.006H320.834Z" fill="#F1F1F1"/>
<path d="M325.607 360.006L328.829 373.986H324.086L320.834 360.006H325.607Z" fill="#F2F2F2"/>
<path d="M330.351 360.006L333.603 373.986H328.829L325.607 360.006H330.351Z" fill="#F3F3F3"/>
<path d="M335.124 360.006L338.376 373.986H333.603L330.351 360.006H335.124Z" fill="#F4F4F4"/>
<path d="M339.898 360.006L343.15 373.986H338.376L335.124 360.006H339.898Z" fill="#F5F5F5"/>
<path d="M344.671 360.006L347.893 373.986H343.15L339.898 360.006H344.671Z" fill="#F6F6F6"/>
<path d="M349.445 360.006L352.667 373.986H347.893L344.671 360.006H349.445Z" fill="#F7F7F7"/>
<path d="M354.188 360.006L357.44 373.986H352.667L349.445 360.006H354.188Z" fill="#F8F8F8"/>
<path d="M358.962 360.006L360.782 367.846V373.986H357.44L354.188 360.006H358.962Z" fill="#F9F9F9"/>
<path d="M360.782 367.846L358.962 360.006H360.782V367.846Z" fill="#FAFAFA"/>
<path d="M79.2389 320.185L100.331 352.137H79.2389V320.185Z" fill="#E6E6E7"/>
<path d="M79.2389 293.06L118.202 352.137H100.331L79.2389 320.184V293.06Z" fill="#E6E6E7"/>
<path d="M79.2389 265.966L136.072 352.137H118.202L79.2389 293.06V265.966Z" fill="#E7E7E8"/>
<path d="M79.2389 238.872L153.943 352.137H136.072L79.2389 265.966V238.872Z" fill="#E8E8E9"/>
<path d="M79.2389 211.777L171.814 352.137H153.943L79.2389 238.872V211.777Z" fill="#E9E9EA"/>
<path d="M79.9847 185.786L189.654 352.137H171.813L79.2389 211.777V185.786H79.9847Z" fill="#EAEAEB"/>
<path d="M97.8553 185.786L207.525 352.137H189.654L79.9847 185.786H97.8553Z" fill="#EBEBEC"/>
<path d="M115.696 185.786L225.395 352.137H207.525L97.8553 185.786H115.696Z" fill="#ECECED"/>
<path d="M133.566 185.786L243.266 352.137H225.395L115.696 185.786H133.566Z" fill="#EDEDEE"/>
<path d="M151.437 185.786L261.136 352.137H243.266L133.566 185.786H151.437Z" fill="#EEEEEF"/>
<path d="M169.307 185.786L279.007 352.137H261.136L151.437 185.786H169.307Z" fill="#EFEFF0"/>
<path d="M187.178 185.786L296.877 352.137H279.007L169.307 185.786H187.178Z" fill="#F0F0F1"/>
<path d="M205.048 185.786L314.748 352.137H296.877L187.178 185.786H205.048Z" fill="#F1F1F2"/>
<path d="M222.919 185.786L332.618 352.137H314.748L205.048 185.786H222.919Z" fill="#F3F3F3"/>
<path d="M240.789 185.786L350.489 352.137H332.618L222.919 185.786H240.789Z" fill="#F4F4F4"/>
<path d="M258.66 185.786L351.712 326.921V352.137H350.489L240.79 185.786H258.66Z" fill="#F5F5F5"/>
<path d="M276.531 185.786L351.712 299.826V326.921L258.66 185.786H276.531Z" fill="#F6F6F6"/>
<path d="M294.401 185.786L351.712 272.702V299.826L276.531 185.786H294.401Z" fill="#F7F7F7"/>
<path d="M312.272 185.786L351.712 245.608V272.702L294.401 185.786H312.272Z" fill="#F8F8F8"/>
<path d="M330.112 185.786L351.712 218.513V245.608L312.271 185.786H330.112Z" fill="#F9F9F9"/>
<path d="M347.983 185.786L351.712 191.419V218.513L330.112 185.786H347.983Z" fill="#FAFAFA"/>
<path d="M351.712 191.419L347.983 185.786H351.712V191.419Z" fill="#FBFBFB"/>
<path d="M322.803 324.119H319.82V63.8757H118.441V324.119H115.457V60.895H322.803V324.119Z" fill="black"/>
<path d="M284.615 72.0132H128.375V89.6588H284.615V72.0132Z" fill="#3B37FF"/>
<path d="M299.452 73.6946L297.343 75.8022L310 88.4482L312.11 86.3405L299.452 73.6946Z" fill="black"/>
<path d="M309.946 73.6299L297.288 86.2759L299.398 88.3835L312.055 75.7376L309.946 73.6299Z" fill="black"/>
<path d="M215.789 109.331H128.375V112.312H215.789V109.331Z" fill="black"/>
<path d="M215.789 119.346H128.375V122.327H215.789V119.346Z" fill="black"/>
<path d="M215.789 129.332H128.375V132.312H215.789V129.332Z" fill="black"/>
<path d="M215.789 139.347H128.375V142.327H215.789V139.347Z" fill="black"/>
<path d="M310.571 284.088H228.2V287.069H310.571V284.088Z" fill="black"/>
<path d="M310.571 294.074H228.2V297.054H310.571V294.074Z" fill="black"/>
<path d="M310.571 304.089H228.2V307.07H310.571V304.089Z" fill="black"/>
<path d="M310.571 314.074H228.2V317.054H310.571V314.074Z" fill="black"/>
<path d="M211.254 283.611H128.256V286.592H211.254V283.611Z" fill="black"/>
<path d="M211.254 293.626H128.256V296.607H211.254V293.626Z" fill="black"/>
<path d="M211.254 303.612H128.256V306.592H211.254V303.612Z" fill="black"/>
<path d="M211.254 313.627H128.256V316.608H211.254V313.627Z" fill="black"/>
<path d="M248.188 211.717H183.419V214.698H248.188V211.717Z" fill="black"/>
<path d="M248.188 221.703H183.419V224.683H248.188V221.703Z" fill="black"/>
<path d="M311.138 110.822H229.93V143.758H311.138V110.822Z" fill="#3B37FF"/>
<path d="M311.138 162.03H128.316V194.966H311.138V162.03Z" fill="#3B37FF"/>
<path d="M161.282 237.917H128.316V270.854H161.282V237.917Z" fill="#3B37FF"/>
<path d="M211.224 237.917H178.258V270.854H211.224V237.917Z" fill="#3B37FF"/>
<path d="M261.166 237.917H228.2V270.854H261.166V237.917Z" fill="#3B37FF"/>
<path d="M311.108 237.917H278.141V270.854H311.108V237.917Z" fill="#3B37FF"/>
<path d="M315.523 276.786C315.523 276.786 348.818 298.336 348.818 348.322C348.818 398.308 343.866 417.831 319.939 430.559H128.316C94.8122 430.559 98.8398 375.625 99.4365 340.453C100.033 305.281 133.089 284.208 133.089 284.208" fill="white"/>
<path d="M320.327 432.019H128.316C125.038 432.119 121.776 431.538 118.735 430.311C115.695 429.085 112.943 427.241 110.654 424.895C96.3037 410.23 97.1093 376.042 97.7656 348.56C97.7656 345.58 97.9148 343.016 97.9446 340.393C98.5711 304.804 131.925 283.134 132.283 282.926L133.894 285.459C133.566 285.668 101.525 306.503 101.077 340.423C101.077 343.076 101.077 345.788 100.898 348.62C100.272 375.446 99.4661 409.038 112.832 422.809C114.84 424.879 117.262 426.504 119.94 427.577C122.618 428.65 125.492 429.148 128.375 429.039H319.581C343.12 416.371 347.326 396.788 347.326 348.352C347.326 299.916 315.046 278.276 314.718 278.037L316.329 275.563C316.687 275.772 350.31 298.097 350.31 348.352C350.31 396.042 346.193 418.278 320.655 431.811L320.327 432.019Z" fill="black"/>
<path d="M128.345 348.352V433.509H319.969V348.352" fill="white"/>
<path d="M321.46 435H126.854V348.352H129.837V432.019H318.477V348.352H321.46V435Z" fill="black"/>
<path d="M150.453 234.907C150.453 234.907 128.107 241.346 120.35 264.029C112.593 286.711 163.908 297.8 225.574 297.8C287.241 297.8 326.502 281.287 320.536 261.167C314.569 241.047 305.261 234.907 305.261 234.907" fill="white"/>
<path d="M225.574 299.409C170.202 299.409 131.06 290.944 120.887 276.756C119.495 274.91 118.589 272.746 118.25 270.46C117.911 268.174 118.151 265.84 118.948 263.671C126.794 240.541 149.11 233.864 150.035 233.596L150.87 236.576C150.661 236.576 129.091 243.104 121.782 264.744C121.132 266.464 120.931 268.322 121.197 270.142C121.464 271.961 122.188 273.683 123.304 275.146C132.791 288.082 171.963 296.428 225.574 296.428C270.325 296.428 306.126 287.337 316.717 273.328C318.037 271.734 318.945 269.84 319.361 267.813C319.777 265.786 319.689 263.688 319.104 261.703C313.375 242.448 304.545 236.338 304.455 236.278L306.096 233.804C306.484 234.073 315.881 240.451 321.968 260.869C322.676 263.306 322.774 265.88 322.254 268.365C321.734 270.849 320.611 273.167 318.984 275.117C307.916 289.96 272.085 299.409 225.574 299.409Z" fill="black"/>
<path d="M213.611 126.53C213.611 126.53 189.475 106.977 174.827 124.175C170.626 128.876 167.728 134.591 166.42 140.755C165.112 146.92 165.439 153.318 167.368 159.317C167.368 159.317 149.468 160.003 147.499 170.137C146.553 176.815 147.788 183.62 151.019 189.542C146.094 192.752 142.249 197.367 139.982 202.789C137.716 208.211 137.133 214.188 138.31 219.945C142.487 240.124 194.696 253.388 194.696 253.388C194.696 253.388 215.58 243.879 237.359 233.536C259.137 223.193 213.611 126.53 213.611 126.53Z" fill="black"/>
<path d="M178.645 147.394C179.809 151.508 208.867 166.292 227.275 164.503C227.275 164.503 213.73 181.016 228.021 201.047C228.021 201.047 212.209 216.755 216.415 236.219C218.116 244.058 248.248 274.61 263.165 267.963C278.082 261.316 294.64 260.779 302.695 241.912C310.75 223.044 312.093 197.053 302.993 183.61C293.894 170.167 265.701 160.062 262.449 148.736C262.449 148.736 266.357 138.78 251.709 129.361C225.664 112.58 221.248 127.662 221.248 127.662C209.911 121.522 173.067 127.782 178.645 147.394Z" fill="black"/>
<path d="M92.9028 148.885H1.4917V262.3H92.9028V148.885Z" fill="white"/>
<path d="M94.3646 263.79H0V147.395H94.3646V263.79ZM2.98339 260.809H91.3813V150.375H2.98339V260.809Z" fill="black"/>
<path d="M474.508 130.822H383.097V244.237H474.508V130.822Z" fill="white"/>
<path d="M476 245.757H381.695V129.51H476.09L476 245.757ZM384.678 242.776H473.106V132.491H384.678V242.776Z" fill="black"/>
<path d="M474.508 272.374H383.097V385.789H474.508V272.374Z" fill="white"/>
<path d="M476 387.249H381.695V270.854H476.09L476 387.249ZM384.589 384.269H473.017V273.835H384.678L384.589 384.269Z" fill="black"/>
<path d="M86.6377 155.89H8.50269V173.535H86.6377V155.89Z" fill="#3B37FF"/>
<path d="M467.885 139.496H389.75V178.483H467.885V139.496Z" fill="#3B37FF"/>
<path d="M467.885 281.078H389.75V292.047H467.885V281.078Z" fill="#3B37FF"/>
<path d="M467.885 339.588H389.75V376.251H467.885V339.588Z" fill="#3B37FF"/>
<path d="M467.885 191.062H389.75V194.042H467.885V191.062Z" fill="black"/>
<path d="M467.885 201.047H389.75V204.028H467.885V201.047Z" fill="black"/>
<path d="M467.885 211.062H389.75V214.042H467.885V211.062Z" fill="black"/>
<path d="M467.885 221.077H389.75V224.057H467.885V221.077Z" fill="black"/>
<path d="M467.885 298.634H389.75V301.614H467.885V298.634Z" fill="black"/>
<path d="M467.885 308.619H389.75V311.6H467.885V308.619Z" fill="black"/>
<path d="M467.885 318.634H389.75V321.615H467.885V318.634Z" fill="black"/>
<path d="M467.885 328.62H389.75V331.6H467.885V328.62Z" fill="black"/>
<path d="M309.288 417.802L137.654 423.316V332.018C137.654 332.018 117.247 343.643 116.949 357.92C116.651 372.197 104.449 345.997 107.492 334.76C110.535 323.523 128.375 293.984 144.784 300.095C161.193 306.205 273.547 317.323 294.61 306.712C315.673 296.101 335.989 301.615 335.989 322.688V366.981C335.989 366.981 333.006 332.405 321.311 332.018C309.616 331.63 302.784 360.871 304.664 370.588C306.543 380.305 309.288 417.802 309.288 417.802Z" fill="#CACACA"/>
</g>
<defs>
<clipPath id="clip0_106_352">
<rect width="476" height="435" fill="white"/>
</clipPath>
</defs>
</svg>
