<svg width="12" height="14" viewBox="0 0 12 14" fill="none" xmlns="http://www.w3.org/2000/svg">
<path d="M10.8125 5.25C10.8125 9.1875 6 13.5625 6 13.5625C6 13.5625 1.1875 9.1875 1.1875 5.25C1.1875 3.97365 1.69453 2.74957 2.59705 1.84705C3.49957 0.94453 4.72365 0.4375 6 0.4375C7.27635 0.4375 8.50043 0.94453 9.40295 1.84705C10.3055 2.74957 10.8125 3.97365 10.8125 5.25V5.25Z" stroke="white" stroke-width="0.875" stroke-linecap="round" stroke-linejoin="round"/>
<path d="M6 7.4375C7.20812 7.4375 8.1875 6.45812 8.1875 5.25C8.1875 4.04188 7.20812 3.0625 6 3.0625C4.79188 3.0625 3.8125 4.04188 3.8125 5.25C3.8125 6.45812 4.79188 7.4375 6 7.4375Z" stroke="white" stroke-width="0.875" stroke-linecap="round" stroke-linejoin="round"/>
</svg>
