<svg width="628" height="373" viewBox="0 0 628 373" fill="none" xmlns="http://www.w3.org/2000/svg">
<g clip-path="url(#clip0_120_2538)">
<path d="M78.7833 91.418C78.7833 91.418 67.8305 98.4795 60.5351 127.184C54.0206 152.872 62.5923 202.437 96.5362 225.033C119.985 240.664 117.28 142.967 117.28 142.967L78.7833 91.418Z" fill="black"/>
<path d="M101.336 227.687C99.4132 227.604 97.5602 226.938 96.0219 225.778C62.1352 203.22 52.9921 152.988 59.6208 126.898C66.9163 98.1559 77.8118 90.8653 78.269 90.6363L79.031 90.1592L118.213 142.739V143.044C118.213 146.098 120.118 218.24 104.67 226.828C103.65 227.395 102.503 227.69 101.336 227.687V227.687ZM78.6118 92.7738C76.1165 94.8923 67.4877 103.672 61.4685 127.413C54.973 152.988 63.9066 202.17 97.0696 224.252C99.603 225.931 101.794 226.16 103.755 225.13C117.737 217.381 116.442 148.541 116.327 143.369L78.6118 92.7738Z" fill="black"/>
<path d="M235.874 169.019L107.298 200.299V370.558H313.686L235.874 169.019Z" fill="white"/>
<path d="M315.076 371.531H106.403V199.554L236.521 167.911L236.826 168.694L315.076 371.531ZM108.251 369.622H312.295L235.283 170.125L108.308 201.062L108.251 369.622Z" fill="black"/>
<path d="M119.737 179.19C76.4214 194.707 55.4494 207.971 69.5831 226.732C8.62889 289.713 4.13354 332.273 4.13354 332.273L40.4585 361.511L87.3551 332.349L114.823 273.796" fill="white"/>
<path d="M40.4008 362.695L3.14258 332.693V332.178C3.14258 331.739 8.24753 288.893 68.3065 226.656C64.4969 221.35 63.3539 216.407 64.8016 211.578C68.0588 200.662 83.8498 191.024 119.375 178.294L120.022 180.088C85.6214 192.417 69.659 201.998 66.6874 212.113C65.3731 216.541 66.5731 221.121 70.3637 226.159L70.859 226.808L70.2875 227.4C13.7524 285.782 5.92361 326.891 5.16168 331.872L40.5533 360.347L86.5547 331.605L113.908 273.3L115.622 274.121L88.0404 332.941L87.7928 333.075L40.4008 362.695Z" fill="black"/>
<path d="M175.148 260.035C175.148 260.035 162.043 264.329 139.947 237.438C108.479 199.096 90.7647 195.623 74.7833 200.413C73.6213 191.309 70.9736 159.991 106.308 150.181C125.928 144.722 147.643 135.714 184.729 134.493C221.816 133.271 245.912 154.57 245.912 164.399C245.912 174.228 215.283 187.511 200.768 200.26C183.739 215.223 180.196 245.416 175.148 260.035Z" fill="#3B37FF"/>
<path d="M172.862 261.256C167.929 261.256 156.119 258.623 139.223 238.03C108.632 200.795 91.4504 196.405 75.0499 201.329L73.9832 201.634L73.8309 200.527C71.926 185.259 73.526 158.292 106.041 149.265C109.851 148.234 113.508 147.07 117.47 145.867C134.823 140.543 154.481 134.531 184.672 133.538C210.292 132.699 229.893 142.547 239.683 152.051C244.236 156.441 246.846 160.945 246.846 164.399C246.846 171.022 235.417 178.236 222.083 186.576C214.834 190.867 207.907 195.683 201.358 200.985C188.634 212.169 183.625 231.77 179.605 247.534C178.386 252.306 177.224 256.81 176.005 260.36L175.853 260.798L175.415 260.951C174.582 261.171 173.723 261.274 172.862 261.256ZM85.4502 197.779C98.5554 197.779 115.261 205.757 140.69 236.827C159.738 260.054 172.005 259.596 174.424 259.214C175.548 255.855 176.596 251.771 177.796 247.057C181.605 231.903 186.977 211.12 200.139 199.554C206.756 194.183 213.759 189.31 221.092 184.973C232.807 177.587 244.941 169.972 244.941 164.399C244.941 161.498 242.484 157.395 238.369 153.425C228.845 144.188 209.797 134.626 184.729 135.447C154.805 136.42 135.204 142.413 118.061 147.681C114.08 148.902 110.308 150.066 106.632 151.097C76.1547 159.533 74.0403 184.362 75.6785 199.172C78.8582 198.269 82.1452 197.8 85.4502 197.779V197.779Z" fill="black"/>
<path d="M39.8678 333.189C72.2497 319.83 87.2977 332.273 87.2977 332.273C94.2503 331.052 106.898 328.189 116.061 341.281C116.061 341.281 115.508 358.668 108.441 358.897C106.822 358.897 89.5265 370.195 87.6407 370.348C57.5445 371.226 6.99063 371.359 3.71434 364.031C-2.17155 350.919 2.5143 334.411 9.54308 318.971" fill="white"/>
<path d="M59.9641 371.645C33.2966 371.645 5.41006 370.195 2.8195 364.336C-2.28541 352.885 -0.418696 338.399 8.64825 318.531L10.3817 319.333C1.67667 338.418 -0.228143 352.923 4.55295 363.61C6.80064 368.592 38.6111 370.786 87.6031 369.336C91.2482 367.592 94.7849 365.629 98.1939 363.458C105.299 359.24 107.508 357.999 108.404 357.98C113.375 357.809 114.918 346.396 115.128 341.605C106.708 329.811 95.2224 331.872 88.346 333.093L87.0697 333.322L86.7268 333.036C86.5744 332.921 71.755 321.108 40.2683 334.105L39.5445 332.33C69.8311 319.829 85.0506 329.429 87.584 331.299H88.0031C95.3748 329.982 107.737 327.768 116.88 340.842L117.052 341.109V341.433C117.052 343.342 116.233 359.698 108.461 359.965C105.266 361.535 102.157 363.274 99.1463 365.175C92.0032 369.431 88.765 371.283 87.7173 371.321C79.4695 371.435 69.812 371.645 59.9641 371.645Z" fill="black"/>
<path d="M203.035 372.047C202.654 370.424 166.177 209.498 146.957 191.195C127.737 172.893 114.385 171.633 114.251 171.633L114.404 169.725C114.975 169.725 128.614 171.061 148.271 189.802C167.929 208.544 203.378 364.985 204.883 371.627L203.035 372.047Z" fill="black"/>
<path d="M117.241 162.816L118.022 171.481C118.022 171.481 138.004 178.809 146.595 189.535C151.895 196.245 156.136 203.731 159.167 211.731L176.138 177.76L170.424 129.207" fill="white"/>
<path d="M158.976 214.192L158.233 212.055C155.236 204.156 151.055 196.761 145.833 190.126C137.528 179.744 117.889 172.453 117.699 172.377L117.127 172.167L116.308 162.91L118.213 162.739L118.937 170.812C122.346 172.109 139.414 179.018 147.338 188.923C152.248 195.147 156.268 202.027 159.281 209.364L175.186 177.53L169.472 129.263L171.376 129.034L177.091 177.873L158.976 214.192Z" fill="black"/>
<path d="M83.0311 326.185C75.1414 316.535 64.2023 309.87 52.0208 307.291Z" fill="white"/>
<path d="M82.2689 326.74C74.4776 317.309 63.7401 310.787 51.7917 308.227L52.1727 306.318C64.6015 308.896 75.7587 315.699 83.7546 325.575L82.2689 326.74Z" fill="black"/>
<path d="M116.06 339.659C92.0788 339.659 72.6497 353.229 72.6497 369.947H159.452C159.452 353.229 140.023 339.659 116.06 339.659Z" fill="white"/>
<path d="M160.405 370.902H71.6975V369.947C71.6975 352.771 91.6028 338.705 116.061 338.705C140.519 338.705 160.405 352.714 160.405 369.947V370.902ZM73.6403 368.993H158.481C157.757 353.267 138.995 340.614 116.061 340.614C93.1267 340.614 74.3642 353.343 73.6403 368.993V368.993Z" fill="black"/>
<path d="M72.3644 354.812C72.2534 353.621 72.447 352.421 72.9269 351.326C73.4068 350.231 74.1572 349.276 75.1074 348.552C76.9286 347.311 78.953 346.4 81.0885 345.861C81.0885 345.861 80.7457 339.009 86.1934 336.528C87.4648 335.975 88.8361 335.69 90.2221 335.69C91.6082 335.69 92.9794 335.975 94.2508 336.528C94.9464 334.791 96.0815 333.265 97.5444 332.1C99.0072 330.936 100.748 330.173 102.594 329.887C108.689 329.276 111.28 331.051 111.28 331.051C114.151 329.473 117.432 328.807 120.69 329.142C126.785 329.448 131.947 333.704 134.69 340.593C137.433 347.483 136.957 355.06 135.433 357.484C133.909 359.908 128.042 359.182 127.09 357.484C126.354 356.234 125.429 355.108 124.347 354.144C123.955 355.161 123.269 356.037 122.376 356.659C121.483 357.281 120.425 357.622 119.337 357.636C116.89 357.403 114.565 356.454 112.651 354.907C112.486 355.963 111.979 356.935 111.208 357.673C110.437 358.411 109.445 358.875 108.385 358.992C104.575 359.469 98.9747 355.957 98.9747 355.957C98.9747 355.957 99.7176 360.232 96.3842 361.454C93.0508 362.675 83.7743 356.873 79.9647 357.789" fill="white"/>
<path d="M95.2788 362.466C92.7327 362.211 90.2405 361.567 87.8882 360.558C85.012 359.508 81.7738 358.306 80.269 358.649L79.8308 356.741C81.9832 356.225 85.2023 357.428 88.612 358.649C91.4882 359.718 94.7645 360.92 96.2312 360.424C98.7837 359.489 98.1361 356.035 98.1361 355.996L97.7741 353.897L99.679 355.023C99.679 355.023 105.051 358.344 108.479 357.905C109.334 357.828 110.138 357.463 110.76 356.871C111.383 356.278 111.787 355.493 111.908 354.641L112.137 352.905L113.47 354.031C115.216 355.456 117.343 356.332 119.584 356.55C120.477 356.548 121.347 356.27 122.077 355.754C122.806 355.238 123.359 354.51 123.661 353.668L124.137 352.389L125.185 353.286C126.345 354.327 127.335 355.544 128.118 356.893C129.08 357.667 130.297 358.049 131.528 357.962C132.128 358.056 132.742 358.004 133.319 357.812C133.896 357.619 134.418 357.291 134.842 356.855C136.233 354.622 136.594 347.313 134.004 340.805C131.413 334.297 126.499 330.27 120.861 329.983C117.792 329.739 114.719 330.403 112.022 331.892L111.489 332.254L110.956 331.892C110.956 331.892 108.479 330.346 102.898 330.899C101.21 331.141 99.6153 331.826 98.277 332.886C96.9387 333.945 95.9042 335.341 95.2788 336.93L94.9169 337.904L93.9645 337.446C92.821 336.954 91.5897 336.701 90.3454 336.701C89.1011 336.701 87.8698 336.954 86.7262 337.446C81.9451 339.621 82.1738 345.595 82.1738 345.862V346.664L81.3737 346.836C79.3343 347.347 77.4002 348.212 75.6592 349.393C74.8554 350.017 74.2212 350.833 73.8151 351.767C73.409 352.701 73.244 353.722 73.3354 354.737L71.4306 354.947C71.2874 353.586 71.5021 352.211 72.0535 350.959C72.6049 349.706 73.4736 348.62 74.5735 347.809C76.2928 346.653 78.1736 345.759 80.1546 345.156C80.1546 343.152 80.9165 337.923 85.869 335.613C88.3775 334.498 91.2129 334.369 93.8122 335.251C94.6245 333.539 95.8521 332.059 97.3828 330.945C98.9135 329.832 100.698 329.12 102.574 328.876C105.528 328.428 108.548 328.784 111.318 329.907C114.257 328.407 117.552 327.747 120.842 327.998C127.242 328.323 132.785 332.808 135.661 340.022C138.366 346.797 138.194 354.813 136.347 357.79C135.758 358.523 134.992 359.091 134.122 359.442C133.251 359.793 132.306 359.914 131.375 359.794C130.437 359.858 129.498 359.707 128.626 359.353C127.755 358.999 126.976 358.452 126.346 357.752C125.88 356.937 125.317 356.181 124.67 355.5C124.137 356.417 123.363 357.17 122.433 357.678C121.503 358.186 120.452 358.429 119.394 358.382C117.203 358.222 115.094 357.485 113.279 356.245C112.884 357.195 112.24 358.021 111.415 358.636C110.591 359.251 109.616 359.631 108.594 359.737C105.597 359.749 102.654 358.944 100.079 357.409C100.058 358.433 99.7357 359.428 99.153 360.27C98.5703 361.112 97.7528 361.763 96.8028 362.142C96.3191 362.343 95.8024 362.453 95.2788 362.466Z" fill="black"/>
<path d="M111.28 331.052C111.28 331.052 118.899 335.46 124.347 353.954Z" fill="white"/>
<path d="M123.432 354.317C118.175 336.434 110.86 331.911 110.803 331.873L111.756 330.231C112.079 330.403 119.737 335.041 125.261 353.763L123.432 354.317Z" fill="black"/>
<path d="M112.651 354.813C112.651 354.813 105.355 341.854 94.2502 336.529Z" fill="white"/>
<path d="M111.813 355.252C111.813 355.137 104.536 342.503 93.8501 337.369L94.6693 335.651C105.908 341.052 113.165 353.782 113.47 354.317L111.813 355.252Z" fill="black"/>
<path d="M81.0884 345.862C81.0884 345.862 86.0408 344.297 98.9745 355.863Z" fill="white"/>
<path d="M98.3264 356.588C86.2308 345.748 81.3925 346.759 81.3544 346.778L80.802 344.87C81.3734 344.698 86.6498 343.476 99.6026 355.08L98.3264 356.588Z" fill="black"/>
<path d="M171.167 75.8648C170.877 72.3745 170.33 68.9106 169.529 65.5015C162.1 34.1636 131.813 7.46353 86.7071 30.0222C63.0111 41.8741 58.3443 65.2725 65.754 96.6294C66.1685 98.3902 66.6901 100.124 67.316 101.821L66.5351 102.183C61.4683 105.008 60.954 113.73 65.3732 121.688C69.7924 129.647 77.4497 133.807 82.5165 131.002L82.8974 130.754C93.7549 157.359 123.661 171.291 146.557 165.851C172.31 159.725 187.701 126.555 180.291 95.2363C178.693 88.1906 175.579 81.5793 171.167 75.8648V75.8648Z" fill="white"/>
<path d="M136.614 167.912C116.251 167.912 92.3646 155.277 82.3834 132.108C80.8904 132.687 79.2829 132.91 77.689 132.758C76.095 132.605 74.5587 132.082 73.2021 131.23C69.5128 129.081 66.4973 125.941 64.4971 122.164C59.8303 113.748 60.516 104.415 66.04 101.342C65.5196 99.8729 65.0809 98.3755 64.7256 96.8574C56.6111 62.504 63.6208 40.4606 86.1549 29.2004C105.755 19.3906 124.251 18.0546 139.814 25.3833C154.633 32.3303 166.062 47.274 170.291 65.4622C171.097 68.8194 171.651 72.2326 171.948 75.6728C176.346 81.4392 179.457 88.0841 181.072 95.1587C184.69 110.369 183.114 126.355 176.596 140.562C170.062 154.361 159.148 163.98 146.652 166.938C143.354 167.647 139.986 167.973 136.614 167.912ZM83.2786 129.321L83.7168 130.39C94.7076 157.319 124.937 169.992 146.29 164.915C158.214 162.091 168.672 152.853 174.862 139.589C181.199 125.77 182.735 110.222 179.224 95.426C177.65 88.5262 174.595 82.0526 170.272 76.4553L170.1 76.2263V75.9401C169.816 72.5008 169.275 69.0876 168.481 65.7294C164.329 48.2092 153.243 33.7427 138.995 27.0247C124.042 20.0205 106.06 21.2992 87.0121 30.8418C65.3923 41.6631 58.7065 63.0956 66.5734 96.3611C66.9905 98.0877 67.5057 99.7892 68.1163 101.457L68.4401 102.316L67.5829 102.659C67.3472 102.752 67.1181 102.86 66.8972 102.984C62.3065 105.541 61.9447 113.71 66.0972 121.191C67.9309 124.65 70.6874 127.531 74.0593 129.512C75.2169 130.278 76.5499 130.736 77.9329 130.842C79.3158 130.949 80.7032 130.702 81.9642 130.123L83.2786 129.321Z" fill="black"/>
<path d="M133.547 131.782C131.775 131.782 130.747 131.649 130.651 131.649L130.899 129.74C135.265 130.077 139.656 129.677 143.89 128.557C148.334 127.438 152.212 124.721 154.786 120.923L156.424 121.896C153.604 126.149 149.294 129.186 144.347 130.408C140.814 131.292 137.188 131.754 133.547 131.782V131.782Z" fill="black"/>
<path d="M138.404 119.302C137.004 119.254 135.624 118.956 134.328 118.424C132.423 117.756 131.376 117.355 129.623 119.016L128.309 117.623C129.16 116.749 130.277 116.184 131.483 116.015C132.689 115.846 133.918 116.082 134.976 116.687C135.93 117.139 136.965 117.392 138.019 117.431C139.073 117.47 140.124 117.295 141.109 116.916C142.112 116.59 143.036 116.058 143.823 115.355C144.61 114.652 145.242 113.793 145.681 112.832C145.968 111.972 146.551 111.242 147.325 110.774C148.1 110.305 149.016 110.128 149.91 110.275L149.643 112.183C148.329 112.011 148.081 112.45 147.338 113.767C146.493 115.423 145.216 116.819 143.643 117.807C142.071 118.795 140.26 119.338 138.404 119.378V119.302Z" fill="black"/>
<path d="M133.452 91.418C133.452 91.418 144.252 103.213 146.081 109.034C146.589 110.633 146.494 112.364 145.813 113.898C145.132 115.432 143.912 116.662 142.385 117.355" fill="white"/>
<path d="M142.785 118.232L142.004 116.496C143.318 115.896 144.368 114.835 144.954 113.513C145.54 112.19 145.622 110.699 145.185 109.32C143.433 103.766 132.861 92.143 132.747 92.143L134.156 90.8643C134.594 91.3414 145.109 102.869 146.995 108.804C147.599 110.619 147.502 112.594 146.723 114.34C145.943 116.086 144.538 117.475 142.785 118.232Z" fill="black"/>
<path d="M107.432 99.5102C107.432 99.5102 106.803 94.7389 111.032 93.8801C115.261 93.0212 116.746 97.8307 116.746 97.8307" fill="black"/>
<path d="M156.252 84.9106C156.252 84.9106 154.348 80.502 151.128 81.7425C147.909 82.9831 149.224 87.8116 149.224 87.8116" fill="black"/>
<path d="M169.453 65.4628C162.043 34.125 131.756 7.46308 86.6503 30.0218C62.9544 41.8737 58.2875 65.2911 65.6973 96.629C66.1117 98.3772 66.6333 100.098 67.2593 101.782C67.2593 101.782 68.6117 104.397 73.8309 104.53C79.0501 104.664 64.7068 71.1503 74.6118 60.2526C84.5169 49.355 113.87 47.2556 113.87 47.2556C113.87 47.2556 135.68 31.3958 150.824 38.7818C165.967 46.1678 169.453 65.4628 169.453 65.4628Z" fill="black"/>
<path d="M73.8687 105.484C68.1542 105.332 66.5351 102.354 66.478 102.221C65.8084 100.465 65.2548 98.6672 64.8208 96.8387C56.7062 62.4854 63.716 40.4421 86.25 29.1818C105.851 19.372 124.346 18.036 139.928 25.3648C152.614 31.3003 162.786 43.0949 168.138 57.8096C169.132 60.2786 169.898 62.834 170.424 65.4436L168.519 65.8253C168.062 63.9167 167.529 62.0083 166.938 60.2715C164.767 54.1261 159.967 44.4308 150.404 39.7741C135.966 32.7316 114.632 48.0188 114.422 48.1715L114.194 48.3242H114.022C113.737 48.3242 84.9357 50.519 75.4116 61.0159C69.6971 67.2376 72.5353 81.6851 74.5734 92.2583C76.0021 99.7588 76.6498 103.442 75.3736 104.95C75.1763 105.143 74.9395 105.29 74.6797 105.383C74.4199 105.475 74.1432 105.51 73.8687 105.484ZM68.1542 101.457C68.1542 101.457 69.3923 103.461 73.8687 103.576C74.6116 102.831 73.5068 97.106 72.6115 92.5064C70.5162 81.5515 67.6209 66.5315 73.9259 59.6036C83.5833 48.9922 110.365 46.5875 113.546 46.244C116.041 44.469 136.404 30.594 151.262 37.8273C153.399 38.8576 155.407 40.139 157.243 41.6444C152.433 35.3482 146.207 30.2801 139.071 26.8533C124.118 19.8491 106.136 21.1278 87.0691 30.6704C65.4494 41.4917 58.7635 62.9244 66.6304 96.1899C67.0389 97.9063 67.5542 99.5954 68.1733 101.247L68.1542 101.457Z" fill="black"/>
<path d="M90.7644 88.0587C94.0959 83.3025 98.793 79.6747 104.231 77.6572C113.051 74.5463 117.375 77.371 117.375 77.371" fill="white"/>
<path d="M91.3743 88.3646C94.0273 84.4874 97.6542 81.3801 101.889 79.3564C105.374 77.5589 109.269 76.7099 113.185 76.8945C114.515 76.9479 115.817 77.3001 116.994 77.925C117.775 78.4212 118.48 77.1807 117.718 76.6844C116.403 75.9719 114.944 75.5673 113.451 75.5012C109.467 75.2556 105.486 76.0376 101.889 77.7723C97.126 79.9012 93.0496 83.3182 90.1172 87.6394C89.6219 88.4219 90.86 89.1471 91.3553 88.3646H91.3743Z" fill="black"/>
<path d="M161.51 66.0728C156.721 64.0713 151.399 63.7485 146.405 65.1567C138.785 67.6569 137.414 72.4282 137.414 72.4282" fill="white"/>
<path d="M161.872 65.4621C156.621 63.1022 150.665 62.863 145.242 64.7941C141.928 66.0537 137.833 68.6112 136.728 72.2183C136.677 72.4005 136.701 72.5953 136.794 72.7599C136.887 72.9246 137.041 73.0455 137.223 73.0961C137.405 73.1467 137.6 73.1229 137.764 73.0298C137.928 72.9368 138.049 72.7822 138.099 72.6C139.071 69.3937 143.033 67.1035 146.004 66.0347C150.991 64.3609 156.421 64.5989 161.243 66.7026C162.081 67.0653 162.805 65.8438 161.967 65.4621H161.872Z" fill="black"/>
<path d="M98.6313 119.55C96.0971 119.607 93.6099 118.859 91.5263 117.413C86.7071 113.996 85.488 107.622 85.2214 105.675L80.707 103.652L79.3545 97.9265L80.0212 97.583C80.1546 97.583 92.6883 91.2277 103.565 87.1435C111.137 84.3527 119.135 82.8998 127.204 82.8493H129.28C131.87 82.5798 134.344 81.6392 136.461 80.1201C142.429 76.6444 148.836 73.9869 155.509 72.2188C171.357 67.6575 177.472 66.6459 177.719 66.5887L178.596 66.4551L179.586 70.6538L177.548 73.8983C178.081 76.9711 180.443 92.1438 174.462 95.4837C165.929 100.255 154.004 106.19 148.976 102.774C145.451 100.139 142.376 96.9489 139.871 93.3271L141.452 92.2392C143.826 95.6643 146.733 98.6863 150.061 101.19C152.157 102.622 157.947 102.526 173.529 93.8233C177.853 91.3995 176.481 78.5551 175.605 73.8792V73.5166L177.624 70.3103L177.224 68.6499C175.034 69.0698 168.557 70.5584 156.119 74.0509C149.61 75.7558 143.358 78.3231 137.528 81.685C135.15 83.3562 132.38 84.3819 129.489 84.6623H127.394C119.528 84.7097 111.729 86.1239 104.346 88.842C95.0121 92.3536 84.4023 97.5066 81.6784 98.8617L82.4594 102.202L87.1262 104.301V104.854C87.1262 104.854 87.831 112.298 92.7073 115.752C94.2326 116.713 95.9532 117.32 97.7429 117.528C99.5326 117.736 101.346 117.54 103.05 116.955C118.289 112.947 125.604 109.32 125.604 99.7779H127.508C127.508 110.523 119.432 114.588 103.527 118.749C101.938 119.234 100.292 119.504 98.6313 119.55V119.55Z" fill="black"/>
<path d="M130.271 126.02C130.811 127.419 130.981 128.935 130.764 130.42C130.547 131.904 129.95 133.308 129.032 134.493" fill="white"/>
<path d="M129.813 135.047L128.271 133.94C129.087 132.893 129.621 131.653 129.821 130.34C130.021 129.026 129.881 127.683 129.413 126.44L131.128 125.619C131.751 127.168 131.958 128.855 131.728 130.509C131.497 132.164 130.837 133.728 129.813 135.047V135.047Z" fill="black"/>
<path d="M480.129 366.093H320.771V370.139H480.129V366.093Z" fill="#CACACA"/>
<path d="M463.694 355.414C456.122 347.948 451.612 335.739 451.612 322.66V309.638H350.071V322.694C350.071 335.739 345.55 347.948 337.988 355.448L326.098 367.182H475.584L463.694 355.414Z" fill="white"/>
<path d="M605.879 25.0996L605.88 25.0996C607.992 25.0968 610.019 25.9312 611.517 27.4197C613.015 28.9083 613.861 30.9295 613.869 33.0402V293.632H187.813V33.0724C187.813 30.9598 188.653 28.9336 190.147 27.4387C191.64 25.9438 193.667 25.1025 195.781 25.0996L605.879 25.0996Z" fill="#D1D1D1" stroke="black" stroke-width="0.837919"/>
<path d="M187.825 310.87V294.472H613.858V310.87C613.858 311.254 613.686 311.651 613.312 312.047C612.936 312.444 612.373 312.822 611.645 313.147C610.19 313.799 608.151 314.212 605.879 314.212H195.792C193.52 314.212 191.485 313.799 190.033 313.148C188.541 312.479 187.825 311.641 187.825 310.87Z" fill="#D1D1D1" stroke="black" stroke-width="0.837919"/>
<path d="M200.419 36.419H600.129V280.217H200.419V36.419Z" fill="white" stroke="black" stroke-width="0.837919"/>
<circle cx="397.087" cy="145.866" r="80.6521" transform="rotate(12.0727 397.087 145.866)" fill="white"/>
<circle cx="397.087" cy="145.343" r="80.1586" transform="rotate(12.0727 397.087 145.343)" stroke="black" stroke-width="2.00878"/>
<circle cx="397.087" cy="145.343" r="80.1586" transform="rotate(12.0727 397.087 145.343)" stroke="black" stroke-width="2.00878"/>
<circle cx="397.087" cy="145.343" r="80.1586" transform="rotate(12.0727 397.087 145.343)" stroke="black" stroke-width="2.00878"/>
<path d="M438.394 154.178C433.734 175.967 424.817 194.637 414.218 207.214C403.587 219.828 391.458 226.111 380.319 223.729C369.181 221.346 360.683 210.651 356.142 194.792C351.615 178.98 351.115 158.296 355.775 136.508C360.436 114.719 369.352 96.0493 379.952 83.4726C390.583 70.8584 402.712 64.5749 413.85 66.9573C424.989 69.3397 433.486 80.0348 438.027 95.8941C442.555 111.706 443.054 132.39 438.394 154.178Z" stroke="black" stroke-width="2.00878"/>
<path d="M318.796 128.597L475.534 162.12" stroke="black" stroke-width="2.00878" stroke-linejoin="bevel"/>
<path d="M413.926 66.9912L380.403 223.729" stroke="black" stroke-width="2.00878" stroke-linejoin="bevel"/>
<path d="M464.927 102.761L465.463 103.61L464.927 102.761ZM352.816 78.7822L353.653 78.2269L352.816 78.7822ZM464.39 101.912C427.176 125.425 377.994 114.906 353.653 78.2269L351.98 79.3376C376.924 116.927 427.325 127.707 465.463 103.61L464.39 101.912Z" fill="black"/>
<circle cx="397.086" cy="145.344" r="80.1586" transform="rotate(-167.927 397.086 145.344)" stroke="black" stroke-width="2.00878"/>
<circle cx="397.087" cy="145.345" r="80.1586" transform="rotate(12.0727 397.087 145.345)" stroke="black" stroke-width="2.00878"/>
<circle cx="397.087" cy="145.345" r="80.1586" transform="rotate(12.0727 397.087 145.345)" stroke="black" stroke-width="2.00878"/>
<circle cx="397.087" cy="145.345" r="80.1586" transform="rotate(12.0727 397.087 145.345)" stroke="black" stroke-width="2.00878"/>
<path d="M438.394 154.18C433.734 175.969 424.818 194.639 414.218 207.215C403.587 219.83 391.458 226.113 380.32 223.731C369.181 221.348 360.684 210.653 356.143 194.794C351.615 178.982 351.116 158.298 355.776 136.51C360.436 114.721 369.352 96.0512 379.952 83.4746C390.583 70.8604 402.712 64.5769 413.85 66.9593C424.989 69.3417 433.486 80.0367 438.028 95.896C442.555 111.708 443.055 132.392 438.394 154.18Z" stroke="black" stroke-width="2.00878"/>
<path d="M318.797 128.599L475.534 162.122" stroke="black" stroke-width="2.00878" stroke-linejoin="bevel"/>
<path d="M413.927 66.9922L380.404 223.73" stroke="black" stroke-width="2.00878" stroke-linejoin="bevel"/>
<path d="M464.928 102.762L465.464 103.611L464.928 102.762ZM352.818 78.7832L353.655 78.2278L352.818 78.7832ZM464.391 101.913C427.177 125.426 377.995 114.907 353.655 78.2278L351.981 79.3386C376.925 116.928 427.327 127.708 465.464 103.611L464.391 101.913Z" fill="black"/>
<circle cx="397.086" cy="145.345" r="80.1586" transform="rotate(-167.927 397.086 145.345)" stroke="black" stroke-width="2.00878"/>
<path d="M329.246 187.928L328.709 187.079L329.246 187.928ZM441.356 211.906L440.519 212.462L441.356 211.906ZM329.782 188.777C366.997 165.263 416.179 175.782 440.519 212.462L442.193 211.351C417.249 173.762 366.847 162.982 328.709 187.079L329.782 188.777Z" fill="black"/>
<path d="M355.715 136.495L397.165 145.36L390.376 177.101V177.101C378.089 174.473 365.266 174.66 353.05 177.6V177.6L352.996 176.889C351.962 163.364 352.878 149.76 355.715 136.495V136.495Z" fill="#10B981"/>
<path d="M397.165 145.36L398.147 145.571L398.357 144.588L397.375 144.378L397.165 145.36ZM355.505 137.477L396.954 146.343L397.375 144.378L355.925 135.513L355.505 137.477ZM396.182 145.15L389.394 176.891L391.358 177.311L398.147 145.571L396.182 145.15ZM354.052 177.523L353.997 176.813L351.994 176.966L352.049 177.677L354.052 177.523ZM353.997 176.813C352.971 163.383 353.88 149.876 356.697 136.705L354.733 136.285C351.876 149.644 350.953 163.344 351.994 176.966L353.997 176.813ZM390.586 176.119C378.151 173.459 365.176 173.648 352.815 176.623L353.285 178.576C365.357 175.671 378.027 175.487 390.166 178.083L390.586 176.119Z" fill="black"/>
<path fill-rule="evenodd" clip-rule="evenodd" d="M368.158 191.502C369.01 201.714 365.53 212.219 357.717 220.033C352.612 225.137 346.357 228.393 339.787 229.798V245.013H332.141V236.555C325.598 235.848 319.243 232.987 314.227 227.971C307.751 221.495 304.866 212.788 305.573 204.325C314.036 203.618 322.744 206.503 329.22 212.978C329.925 213.684 330.587 214.415 331.208 215.17C332.952 210.343 335.758 205.813 339.628 201.943C347.441 194.13 357.946 190.649 368.158 191.502Z" fill="#10B981"/>
<path d="M357.717 220.033L358.318 220.633L358.318 220.633L357.717 220.033ZM368.158 191.502L369.005 191.431L368.945 190.715L368.228 190.655L368.158 191.502ZM339.787 229.798L339.609 228.967L338.937 229.111V229.798H339.787ZM339.787 245.013V245.863H340.637V245.013H339.787ZM332.141 245.013H331.291V245.863H332.141V245.013ZM332.141 236.555H332.991V235.792L332.233 235.71L332.141 236.555ZM314.227 227.971L313.626 228.572L313.626 228.572L314.227 227.971ZM305.573 204.325L305.502 203.478L304.786 203.537L304.726 204.254L305.573 204.325ZM329.22 212.978L329.821 212.377L329.821 212.377L329.22 212.978ZM331.208 215.17L330.551 215.71L331.499 216.865L332.007 215.459L331.208 215.17ZM339.628 201.943L339.027 201.342L339.027 201.342L339.628 201.943ZM358.318 220.633C366.315 212.636 369.877 201.881 369.005 191.431L367.311 191.572C368.143 201.546 364.745 211.802 357.116 219.432L358.318 220.633ZM339.964 230.629C346.691 229.191 353.093 225.858 358.318 220.633L357.116 219.432C352.13 224.417 346.024 227.595 339.609 228.967L339.964 230.629ZM340.637 245.013V229.798H338.937V245.013H340.637ZM332.141 245.863H339.787V244.163H332.141V245.863ZM331.291 236.555V245.013H332.991V236.555H331.291ZM332.233 235.71C325.875 235.023 319.702 232.244 314.828 227.37L313.626 228.572C318.784 233.73 325.321 236.673 332.05 237.4L332.233 235.71ZM314.828 227.37C308.536 221.078 305.733 212.62 306.42 204.395L304.726 204.254C303.999 212.956 306.966 221.912 313.626 228.572L314.828 227.37ZM305.643 205.172C313.869 204.485 322.327 207.288 328.619 213.579L329.821 212.377C323.16 205.717 314.204 202.751 305.502 203.478L305.643 205.172ZM328.619 213.579C329.304 214.265 329.948 214.976 330.551 215.71L331.864 214.631C331.227 213.855 330.545 213.102 329.821 212.377L328.619 213.579ZM339.027 201.342C335.067 205.302 332.194 209.939 330.408 214.882L332.007 215.459C333.709 210.746 336.449 206.324 340.229 202.544L339.027 201.342ZM368.228 190.655C357.778 189.783 347.024 193.345 339.027 201.342L340.229 202.544C347.858 194.915 358.114 191.516 368.087 192.349L368.228 190.655Z" fill="black"/>
<path fill-rule="evenodd" clip-rule="evenodd" d="M345.922 248.83C345.456 243.247 347.359 237.504 351.63 233.232C355.902 228.96 361.645 227.058 367.228 227.524C367.694 233.107 365.791 238.85 361.52 243.122C357.248 247.394 351.505 249.296 345.922 248.83Z" fill="#10B981"/>
<path d="M345.922 248.83L345.075 248.901L345.135 249.618L345.852 249.677L345.922 248.83ZM367.228 227.524L368.075 227.453L368.015 226.736L367.298 226.677L367.228 227.524ZM346.769 248.76C346.323 243.415 348.144 237.92 352.231 233.833L351.029 232.631C346.573 237.087 344.589 243.08 345.075 248.901L346.769 248.76ZM352.231 233.833C356.319 229.746 361.813 227.925 367.157 228.371L367.298 226.677C361.477 226.191 355.485 228.175 351.029 232.631L352.231 233.833ZM366.381 227.594C366.827 232.939 365.006 238.434 360.919 242.521L362.121 243.723C366.577 239.267 368.561 233.274 368.075 227.453L366.381 227.594ZM360.919 242.521C356.831 246.608 351.337 248.43 345.993 247.984L345.852 249.677C351.673 250.163 357.665 248.179 362.121 243.723L360.919 242.521Z" fill="black"/>
<path fill-rule="evenodd" clip-rule="evenodd" d="M310.241 246.828C310.826 248.321 311.227 249.879 311.436 251.465C308.862 252.255 306.136 252.518 303.434 252.217C302.076 252.791 300.647 253.178 299.189 253.371C298.957 252.616 298.78 251.844 298.659 251.064C297.395 250.585 296.163 249.968 294.981 249.209C289.897 245.944 286.815 240.737 286.082 235.183C291.438 233.539 297.454 234.175 302.538 237.439C302.6 237.479 302.661 237.519 302.723 237.56C305.376 234.638 308.934 232.852 312.683 232.357C314.045 236.796 313.518 241.783 310.813 245.996C310.629 246.281 310.439 246.558 310.241 246.828Z" fill="#10B981"/>
<path d="M311.436 251.465L312.279 251.354L312.373 252.066L311.686 252.277L311.436 251.465ZM310.241 246.828L309.45 247.138L309.28 246.703L309.556 246.326L310.241 246.828ZM303.434 252.217L303.103 251.434L303.308 251.347L303.528 251.372L303.434 252.217ZM299.189 253.371L299.3 254.213L298.587 254.308L298.376 253.62L299.189 253.371ZM298.659 251.064L298.96 250.269L299.423 250.445L299.498 250.934L298.659 251.064ZM294.981 249.209L294.521 249.924L294.521 249.924L294.981 249.209ZM286.082 235.183L285.239 235.294L285.145 234.581L285.833 234.37L286.082 235.183ZM302.538 237.439L302.078 238.154L302.078 238.154L302.538 237.439ZM302.723 237.56L303.352 238.131L302.863 238.669L302.256 238.27L302.723 237.56ZM312.683 232.357L312.572 231.514L313.284 231.42L313.495 232.108L312.683 232.357ZM310.813 245.996L310.097 245.536L310.097 245.536L310.813 245.996ZM310.594 251.576C310.393 250.058 310.009 248.567 309.45 247.138L311.033 246.518C311.642 248.075 312.06 249.699 312.279 251.354L310.594 251.576ZM303.528 251.372C306.114 251.661 308.723 251.409 311.187 250.652L311.686 252.277C309.002 253.101 306.158 253.376 303.34 253.061L303.528 251.372ZM299.077 252.528C300.46 252.346 301.815 251.978 303.103 251.434L303.765 253C302.336 253.603 300.833 254.011 299.3 254.213L299.077 252.528ZM299.498 250.934C299.613 251.674 299.781 252.405 300.001 253.121L298.376 253.62C298.132 252.826 297.946 252.015 297.819 251.194L299.498 250.934ZM295.44 248.493C296.572 249.22 297.752 249.811 298.96 250.269L298.357 251.859C297.039 251.358 295.753 250.715 294.521 249.924L295.44 248.493ZM286.925 235.072C287.626 240.389 290.576 245.37 295.44 248.493L294.521 249.924C289.219 246.519 286.004 241.086 285.239 235.294L286.925 235.072ZM302.078 238.154C297.214 235.031 291.458 234.421 286.331 235.995L285.833 234.37C291.417 232.656 297.694 233.319 302.997 236.724L302.078 238.154ZM302.256 238.27C302.197 238.231 302.138 238.192 302.078 238.154L302.997 236.724C303.062 236.766 303.126 236.807 303.19 236.85L302.256 238.27ZM312.794 233.2C309.238 233.669 305.866 235.363 303.352 238.131L302.094 236.988C304.886 233.913 308.63 232.035 312.572 231.514L312.794 233.2ZM310.097 245.536C312.662 241.543 313.163 236.816 311.87 232.606L313.495 232.108C314.928 236.775 314.374 242.023 311.528 246.455L310.097 245.536ZM309.556 246.326C309.743 246.07 309.924 245.807 310.097 245.536L311.528 246.455C311.335 246.755 311.135 247.046 310.927 247.33L309.556 246.326Z" fill="black"/>
<g clip-path="url(#clip1_120_2538)">
<path fill-rule="evenodd" clip-rule="evenodd" d="M487.328 200.555L469.987 210.176L478.237 226.249H465.89V217.301L453.909 236.235L465.89 256.235V247.119L478.966 247.091L480.256 246.726L481.267 246.081L481.94 245.324L495.044 224.651L495.633 222.715L495.913 220.808V218.872L495.689 217.301L487.327 200.555L487.328 200.555Z" fill="#10B981" stroke="black" stroke-width="2.49732" stroke-linecap="round" stroke-linejoin="round"/>
<path d="M477.816 226.277L489.854 226.249L491.482 225.885L492.688 225.211L495.101 223.164L495.915 222.406" fill="#10B981"/>
<path d="M477.816 226.277L489.854 226.249L491.482 225.885L492.688 225.211L495.101 223.164L495.915 222.406" stroke="black" stroke-width="2.49732" stroke-linecap="round" stroke-linejoin="round"/>
<path fill-rule="evenodd" clip-rule="evenodd" d="M448.435 246.981L448.323 227.175L430.28 226.613L436.229 215.814L444.029 220.106L433.198 200.526L409.909 201.396L417.906 205.744L411.593 217.245L411.312 218.339V219.405L411.649 220.583L423.546 242.154L425.146 243.697L426.913 244.959L428.85 245.941L429.663 246.222L448.435 246.979L448.435 246.981Z" fill="#10B981" stroke="black" stroke-width="2.49732" stroke-linecap="round" stroke-linejoin="round"/>
<path d="M430.449 226.251L424.613 236.911L424.192 238.369L424.108 239.379L424.865 243.138L425.09 243.979" fill="#10B981"/>
<path d="M430.449 226.251L424.613 236.911L424.192 238.369L424.108 239.379L424.865 243.138L425.09 243.979" stroke="black" stroke-width="2.49732" stroke-linecap="round" stroke-linejoin="round"/>
<path fill-rule="evenodd" clip-rule="evenodd" d="M428.484 190.289L445.432 200.583L455.337 185.52L461.426 196.208L453.654 200.64L476.045 201.678L487.522 181.397L479.581 185.913L473.127 174.552L472.117 173.599L471.051 173.038L470.097 172.813L445.572 171.663L443.215 172.252L441.027 173.234L438.95 174.665L428.484 190.289L428.484 190.289Z" fill="#10B981" stroke="black" stroke-width="2.49732" stroke-linecap="round" stroke-linejoin="round"/>
<path d="M455.562 185.828L449.473 175.225L448.323 174.047L447.369 173.458L443.665 172.139L443.244 171.999" fill="#10B981"/>
<path d="M455.562 185.828L449.473 175.225L448.323 174.047L447.369 173.458L443.665 172.139L443.244 171.999" stroke="black" stroke-width="2.49732" stroke-linecap="round" stroke-linejoin="round"/>
</g>
</g>
<defs>
<clipPath id="clip0_120_2538">
<rect width="628" height="372.047" fill="white"/>
</clipPath>
<clipPath id="clip1_120_2538">
<rect width="88.5015" height="87.0713" fill="white" transform="translate(408.66 170.414)"/>
</clipPath>
</defs>
</svg>
