<svg width="488" height="369" viewBox="0 0 488 369" fill="none" xmlns="http://www.w3.org/2000/svg">
<g clip-path="url(#clip0_35_50)">
<path d="M272.106 315.873C272.106 315.873 263.65 339.242 235.575 332.044C212.847 326.187 188.939 307.336 179.798 273.063" fill="white"/>
<path d="M245.741 334.88C242.171 334.851 238.619 334.37 235.17 333.446C207.717 326.405 186.42 303.94 178.274 273.344L181.383 272.565C189.281 302.04 209.707 323.663 236.072 330.424C262.437 337.185 270.427 316.154 270.738 315.251L273.661 316.31C271.378 321.837 267.502 326.557 262.529 329.865C257.555 333.173 251.71 334.919 245.741 334.88Z" fill="black"/>
<path d="M238.839 251.565C246.425 234.086 277.112 197.849 277.112 197.849C277.158 194.356 277.984 190.918 279.527 187.786C281.071 184.653 283.295 181.907 286.035 179.747C295.611 171.708 328.473 155.912 328.473 155.912" fill="white"/>
<path d="M240.269 252.188L237.439 250.973C244.621 234.304 271.826 201.713 275.526 197.289C275.69 193.673 276.624 190.135 278.265 186.91C279.906 183.686 282.216 180.851 285.039 178.594C294.646 170.524 326.452 155.195 327.789 154.541L329.126 157.345C328.815 157.345 296.356 173.142 287.029 180.993C284.47 182.989 282.388 185.533 280.935 188.438C279.483 191.344 278.697 194.538 278.635 197.787V198.41L278.23 198.909C277.982 199.22 247.668 235.114 240.269 252.188Z" fill="black"/>
<path d="M298.72 120.548C316.475 119.409 334.134 117.067 351.574 113.537L401.941 120.704C401.941 120.704 387.732 140.925 378.996 151.144C370.259 161.364 323.406 170.805 323.406 170.805C323.406 170.805 320.297 165.633 313.177 155.538C305.928 145.038 300.999 133.109 298.72 120.548Z" fill="black"/>
<path d="M317.499 67.3001C317.499 67.3001 321.229 56.987 320.172 53.622C311.156 25.2688 342.34 -7.41535 390.624 3.77016C415.963 9.72122 437.571 43.2154 431.601 65.7111C431.135 67.4559 402.065 89.9515 401.91 89.9203C397.557 117.962 352.569 135.472 348.62 135.722C322.628 137.217 311.685 121.576 311.685 89.9203C312.118 82.0703 314.094 74.3832 317.499 67.3001Z" fill="white"/>
<path d="M345.231 137.498C336.734 137.999 328.384 135.109 322.006 129.459C314.016 121.888 310.13 108.989 310.13 90.0449C310.59 81.9551 312.607 74.0308 316.068 66.7079C317.529 62.6263 319.177 56.0521 318.68 54.0892C316.827 47.6888 316.714 40.9083 318.354 34.4496C319.994 27.991 323.327 22.089 328.007 17.3547C342.153 2.05638 365.751 -3.55196 391.059 2.3991C404.21 5.51484 417.206 15.9214 425.818 30.4408C433.249 42.9037 435.954 56.0209 433.187 66.3964C432.565 68.7643 407.941 87.6769 403.433 91.0419C398.427 119.27 353.284 137.279 348.776 137.529C347.501 137.466 346.351 137.498 345.231 137.498ZM371.596 3.17803C354.869 3.17803 340.164 8.84867 330.339 19.4733C326.042 23.8106 322.98 29.2207 321.471 35.1428C319.962 41.0649 320.061 47.2836 321.758 53.1545C322.939 56.831 319.737 66.0225 319.084 67.7985C315.791 74.739 313.859 82.2491 313.394 89.9202C313.394 107.96 316.97 120.112 324.307 127.06C329.997 132.45 337.987 134.787 348.682 134.164C352.786 133.914 396.407 116.061 400.542 89.6709L400.821 87.8327L401.816 88.1754C405.92 85.0597 428.275 67.6427 430.295 65.0878C432.752 55.5536 430.295 43.2776 423.207 31.7805C415.03 18.1024 402.78 8.1944 390.406 5.29676C384.237 3.87359 377.926 3.1627 371.596 3.17803V3.17803Z" fill="black"/>
<path d="M256.188 348.963C254.633 286.648 270.116 244.118 270.116 244.118C270.116 244.118 292.751 193.176 303.228 183.548C313.706 173.921 338.765 163.701 338.765 163.701L321.634 122.698C321.634 122.698 346.04 120.953 366.156 118.897C386.271 116.84 415.901 98.7689 415.901 98.7689C428.337 116.871 423.363 139.055 423.363 139.055C432.69 132.419 442.297 141.766 445.499 154.634C443.603 158.653 465.895 167.471 474.911 183.548C483.927 199.625 488.871 216.668 485.544 226.826C484.19 230.805 481.821 234.36 478.673 237.139C478.849 257.621 476.51 278.048 471.709 297.958C463.563 334.475 458.993 349.243 458.993 349.243L256.188 348.963Z" fill="white"/>
<path d="M460.018 350.521H254.664V348.994C253.109 287.24 268.53 244.025 268.686 243.588C269.649 241.407 291.6 192.148 302.201 182.395C311.529 173.921 331.209 165.228 336.774 162.86L319.364 121.14L321.54 120.984C321.758 120.984 346.133 119.208 366 117.183C385.867 115.158 414.657 97.4603 414.936 97.2733L416.211 96.4944L417.051 97.7095C424.311 109.05 427.237 122.639 425.29 135.971C427.937 134.927 430.881 134.927 433.529 135.971C439.529 138.152 444.628 145.1 446.898 154.073V154.603L446.649 155.133C448.849 157.533 451.358 159.628 454.111 161.364C461.106 166.38 470.713 173.266 475.874 182.738C485.73 200.28 489.865 217.354 486.632 227.262C485.26 231.28 482.922 234.897 479.823 237.793C479.867 258.157 477.519 278.456 472.827 298.27C464.744 334.412 460.111 349.524 460.08 349.679L460.018 350.521ZM257.68 347.405H457.717C458.899 343.354 463.251 327.931 470.154 297.366C474.866 277.579 477.183 257.295 477.056 236.952V236.173L477.646 235.674C480.559 233.059 482.763 229.747 484.051 226.047C487.16 216.918 482.994 200.809 473.542 184.015C468.537 175.167 459.272 168.437 452.494 163.639C446.805 159.557 443.167 156.971 443.851 154.291C441.83 146.658 437.415 140.582 432.565 138.713C431.179 138.195 429.683 138.046 428.222 138.281C426.762 138.515 425.387 139.126 424.233 140.052L420.937 142.452L421.807 138.463C421.807 138.245 426.285 117.681 415.372 100.607C409.402 104.159 384.467 118.367 366.404 120.205C349.957 121.888 330.401 123.321 323.996 123.851L340.909 164.355L339.448 164.947C339.199 164.947 314.576 175.167 304.378 184.514C294.18 193.861 271.764 244.212 271.546 244.772C271.328 245.333 256.56 287.084 257.68 347.405V347.405Z" fill="black"/>
<path d="M380.394 222.401C375.173 228.929 372.42 237.095 372.622 245.458Z" fill="white"/>
<path d="M374.178 245.458H371.069C370.846 236.695 373.757 228.142 379.277 221.342L381.546 223.461C376.613 229.712 374.007 237.49 374.178 245.458V245.458Z" fill="black"/>
<path d="M467.325 226.545C464.639 222.121 461.076 218.296 456.857 215.306C452.638 212.315 447.852 210.224 442.795 209.16C434.484 207.392 425.87 207.673 417.692 209.98C409.514 212.286 402.018 216.549 395.848 222.401" fill="white"/>
<path d="M465.957 227.262C463.353 223.054 459.93 219.414 455.891 216.561C451.853 213.708 447.282 211.699 442.452 210.655C434.392 208.954 426.041 209.236 418.114 211.477C410.187 213.718 402.92 217.851 396.935 223.523L394.79 221.28C401.139 215.255 408.853 210.866 417.269 208.489C425.685 206.112 434.551 205.818 443.105 207.633C448.386 208.739 453.381 210.926 457.779 214.057C462.177 217.188 465.881 221.196 468.662 225.829L465.957 227.262Z" fill="black"/>
<path d="M348.993 282.473C348.993 282.473 360.466 259.635 366.839 251.565C375.74 241.105 385.438 231.355 395.847 222.401" fill="white"/>
<path d="M350.393 283.189L347.626 281.787C348.092 280.821 359.223 258.7 365.596 250.63C374.58 240.097 384.362 230.274 394.853 221.249L396.874 223.616C386.537 232.506 376.901 242.183 368.053 252.562C361.865 260.382 350.517 282.94 350.393 283.189Z" fill="black"/>
<path d="M467.325 251.565C461.697 265.959 451.531 288.455 437.509 306.152C423.043 324.058 406.322 340.009 387.764 353.605" fill="white"/>
<path d="M388.572 354.883L386.8 352.328C405.236 338.792 421.869 322.95 436.296 305.187C449.945 287.957 459.925 266.209 465.895 251.004L468.786 252.157C462.568 267.549 452.619 289.546 438.721 307.118C424.118 325.129 407.263 341.182 388.572 354.883Z" fill="black"/>
<path d="M323.903 104.907H323.686C318.805 104.907 316.006 99.1741 315.913 98.9249L318.711 97.554C319.271 98.7379 321.292 101.76 323.748 101.791C325.717 101.841 327.655 101.298 329.313 100.233L331.179 102.726C329.027 104.168 326.492 104.928 323.903 104.907Z" fill="black"/>
<path d="M323.001 56.7377C323.001 56.7377 302.855 73.9054 302.419 79.8876C301.984 85.8698 317.312 84.3743 317.312 84.3743" fill="white"/>
<path d="M313.426 86.1189C309.758 86.1189 304.597 85.6515 302.234 83.3459C301.752 82.8898 301.379 82.3309 301.142 81.7106C300.905 81.0904 300.811 80.4246 300.866 79.7628C301.332 73.5313 318.556 58.4823 322.007 55.5223L323.997 57.9215C316.411 64.4022 304.255 76.1173 303.975 79.9809C303.953 80.1937 303.98 80.4089 304.056 80.6091C304.131 80.8093 304.253 80.9889 304.41 81.1337C306.4 83.0655 313.271 83.1901 317.157 82.8474L317.437 85.9631C316.104 86.0905 314.765 86.1425 313.426 86.1189V86.1189Z" fill="black"/>
<path d="M337.707 65.3369C337.707 65.3369 337.707 59.822 334.318 57.9214C333.266 57.4008 332.084 57.2056 330.921 57.361C329.758 57.5164 328.668 58.0152 327.789 58.7938" fill="white"/>
<path d="M339.262 65.3681H336.153C336.153 64.0907 335.749 60.5387 333.572 59.3547C332.799 58.9999 331.941 58.8729 331.099 58.9888C330.257 59.1047 329.464 59.4586 328.815 60.0091L326.732 57.7034C327.849 56.7002 329.243 56.0591 330.73 55.8645C332.217 55.6698 333.728 55.9307 335.065 56.6129C339.355 58.8874 339.262 65.0877 339.262 65.3681Z" fill="black"/>
<path d="M390.625 3.89461C415.964 9.84567 458.744 43.5268 417.767 101.76C417.767 101.76 406.325 95.5285 401.911 90.0448C424.016 73.656 408.937 38.6974 389.226 70.7895C360.125 57.2672 395.63 31.9051 383.474 24.0534C352.756 4.23734 324.401 25.3309 324.401 25.3309C324.401 25.3309 342.341 -7.41553 390.625 3.89461Z" fill="black"/>
<path d="M418.232 103.816L417.02 103.131C416.522 102.882 405.236 96.7125 400.697 91.0107L399.702 89.7332L400.977 88.7985C404.664 86.2876 407.553 82.7677 409.301 78.6579C411.048 74.5481 411.58 70.0215 410.833 65.6174C410.64 64.1664 410.028 62.8035 409.073 61.6963C408.117 60.5892 406.859 59.7861 405.454 59.3859C401.195 58.7316 395.754 63.1871 390.531 71.6619L389.815 72.8459L388.572 72.2851C385.962 71.3207 383.573 69.8385 381.549 67.9273C379.524 66.016 377.905 63.715 376.789 61.1619C374.146 53.9646 377.752 46.2375 380.924 39.3517C384.095 32.466 386.178 27.6366 382.634 25.3309C353.128 6.32491 325.52 26.3591 325.24 26.5461L319.488 30.8146L322.939 24.5831C323.126 24.2404 342.122 -9.06685 390.966 2.39907C406.511 6.04449 425.57 18.5698 433.063 38.3235C440.245 57.2049 435.363 79.4513 419.01 102.664L418.232 103.816ZM404.179 90.2318C408.169 93.8562 412.573 96.9939 417.3 99.579C432.596 77.3638 436.918 57.0803 430.171 39.2583C423.114 20.5638 404.553 8.63055 390.251 5.26555C356.051 -2.7419 337.645 11.4971 329.966 20.0965C338.439 15.6709 347.929 13.5704 357.474 14.0082C367.019 14.4459 376.278 17.4064 384.312 22.5891C390.313 26.4837 386.986 33.6188 383.753 40.5357C380.83 46.7672 377.535 53.9022 379.68 59.8845C381.436 63.8443 384.641 66.9781 388.634 68.6397C396.376 56.6129 402.749 55.5847 405.921 56.1767C407.953 56.6536 409.795 57.7314 411.209 59.2703C412.623 60.8092 413.542 62.7383 413.849 64.8073C414.757 69.5271 414.334 74.4072 412.625 78.8989C410.917 83.3905 407.992 87.3153 404.179 90.2318V90.2318Z" fill="black"/>
<path d="M346.474 56.7376C343.656 52.8353 339.546 50.0636 334.877 48.9171C333.078 48.3899 331.178 48.3044 329.338 48.6677C327.498 49.031 325.772 49.8326 324.307 51.0046" fill="white"/>
<path d="M347.501 56.1456C344.891 52.3839 341.123 49.5823 336.774 48.1693C332.733 46.9542 326.701 46.8607 323.468 50.1945C322.442 51.2539 324.089 52.9052 325.115 51.8458C325.274 51.6465 325.476 51.4865 325.706 51.3785C326.383 50.9322 327.114 50.5761 327.883 50.3192C330.695 49.4869 333.697 49.5632 336.464 50.5372C338.948 51.3989 341.21 52.8038 343.086 54.65C343.969 55.4626 344.771 56.3601 345.48 57.3296C346.319 58.5447 348.34 57.3296 347.501 56.1456V56.1456Z" fill="black"/>
<path d="M338.453 76.6783H337.272C327.945 75.5566 322.877 73.3756 322.162 64.9008L325.271 64.6204C325.768 70.478 328.38 72.5032 337.707 73.5626C338.393 73.6905 339.098 73.6617 339.771 73.4783C340.444 73.2949 341.067 72.9615 341.594 72.5032C343.594 69.9306 344.608 66.7252 344.454 63.4676V62.7509L346.879 60.6011L347.035 58.8563C343.073 57.241 339.025 55.8472 334.909 54.6812C330.897 53.6458 326.696 53.5924 322.659 54.5254L321.478 54.7123L320.98 51.5966L322.131 51.4096C326.613 50.4068 331.269 50.4816 335.717 51.6278C340.329 52.937 344.856 54.529 349.273 56.3948L350.33 56.831L349.864 62.0655L347.563 64.1219C347.6 68.0286 346.219 71.8156 343.677 74.7777C342.246 76.0643 340.374 76.7456 338.453 76.6783V76.6783Z" fill="black"/>
<path d="M254.228 281.351C250.745 267.236 243.402 254.374 233.025 244.212C229.945 241.292 226.707 238.546 223.324 235.986" fill="white"/>
<path d="M252.706 281.6C249.28 267.783 242.102 255.187 231.968 245.209C228.859 242.342 225.75 239.6 222.393 237.045L224.289 234.584C227.702 237.188 230.971 239.975 234.083 242.934C244.788 253.292 252.336 266.485 255.846 280.977L252.706 281.6Z" fill="black"/>
<path d="M340.506 130.892L350.144 169.184L380.333 205.109C380.333 205.109 394.106 190.87 410.056 186.57C426.005 182.271 457.407 181.367 457.407 181.367L416.492 145.567L413.04 113.537C413.04 113.537 382.323 141.392 340.506 130.892Z" fill="#CACACA"/>
<path d="M354.123 164.573L353.595 161.457C400.853 153.263 411.859 142.389 411.952 142.296L414.222 144.446C413.755 144.944 402.687 156.098 354.123 164.573Z" fill="black"/>
<path d="M336.774 175.229L368.736 207.882C358.799 215.005 350.976 224.697 346.102 235.924C339.883 250.412 346.102 278.08 346.102 278.08L294.242 228.82C297.37 217.479 302.749 206.888 310.057 197.68C317.365 188.471 326.452 180.836 336.774 175.229V175.229Z" fill="#CACACA"/>
<path d="M254.073 346.657C254.073 346.657 325.302 370.212 351.636 366.255C366 364.105 394.759 352.733 395.847 342.388" fill="white"/>
<path d="M344.764 368.28C314.855 368.28 256.28 349.025 253.606 348.122L254.57 345.162C255.285 345.411 325.768 368.592 351.418 364.728C366.963 362.392 393.39 350.926 394.323 342.233L397.432 342.576C396.157 354.727 364.538 365.912 351.915 367.813C349.546 368.142 347.156 368.298 344.764 368.28V368.28Z" fill="black"/>
<path d="M370.477 284.997C370.477 284.997 343.832 275.868 283.423 292.35C268.966 296.307 255.97 308.458 255.97 308.458" fill="white"/>
<path d="M257.12 309.642L255.006 307.368C255.534 306.869 268.437 294.905 282.988 290.885C343.117 274.465 369.793 283.158 370.881 283.563L369.886 286.492C369.606 286.492 342.837 277.768 283.827 293.876C270.023 297.647 257.244 309.642 257.12 309.642Z" fill="black"/>
<path d="M225.937 249.01C225.937 249.01 224.165 260.756 210.734 272.97C197.303 285.184 191.924 281.351 191.924 281.351C191.924 281.351 208.651 321.451 230.134 322.728C251.618 324.006 254.074 293.596 254.074 293.596C254.074 293.596 251.245 280.635 244.965 292.942C238.684 305.249 244.125 261.41 225.937 249.01Z" fill="#CACACA"/>
<path d="M136.177 299.765L232.248 251.471L156.635 217.479L33.3291 253.528L136.177 299.765Z" fill="black"/>
<path d="M136.208 301.479L28.8203 253.216L156.728 215.827L235.885 251.409L136.208 301.479ZM37.8056 253.839L136.145 298.052L228.578 251.534L156.51 219.286L37.8056 253.839Z" fill="black"/>
<path d="M29.9088 251.596L156.635 217.479L129.648 99.7037L4.29004 112.883L29.9088 251.596Z" fill="white"/>
<path d="M28.6656 253.559L2.45605 111.512L130.83 98.0212L158.469 218.6L28.6656 253.559ZM6.12483 114.254L30.9974 249.664L154.645 216.388L128.311 101.417L6.12483 114.254Z" fill="black"/>
<path d="M226.713 238.572C226.713 238.572 212.474 214.706 189.84 222.401C167.206 230.097 162.853 219.971 160.459 226.639C158.065 233.306 171.03 240.379 181.507 236.858C191.985 233.338 212.598 240.566 212.598 240.566" fill="white"/>
<path d="M211.945 242.062C211.758 242.062 191.829 235.051 182.005 238.354C178.454 239.455 174.681 239.626 171.045 238.852C167.41 238.077 164.033 236.383 161.236 233.929C160.143 232.986 159.349 231.744 158.951 230.354C158.553 228.965 158.569 227.489 158.997 226.109C160.49 221.965 163.195 222.495 166.335 222.993C170.283 223.772 176.937 225.05 189.342 220.843C212.878 212.836 227.894 237.419 228.05 237.668L225.376 239.257C224.816 238.323 211.479 216.606 190.337 223.679C177.154 228.165 170.004 226.794 165.744 225.922C162.635 225.299 162.635 225.361 161.92 226.95C161.723 227.783 161.764 228.654 162.039 229.465C162.314 230.275 162.812 230.991 163.474 231.53C165.847 233.581 168.703 234.992 171.771 235.63C174.839 236.268 178.019 236.112 181.01 235.176C191.86 231.53 212.1 238.603 212.971 238.883L211.945 242.062Z" fill="black"/>
<path d="M269.929 320.111C264.488 306.994 257.493 307.648 257.493 307.648C257.493 307.648 231.625 308.022 226.62 308.178C221.614 308.333 211.727 309.829 201.903 321.825C195.858 329.627 192.342 339.098 191.829 348.963H201.903L224.63 350.521L223.728 353.169L234.641 353.512L245.616 342.575L257.741 347.903C257.741 347.903 275.37 333.197 269.929 320.111Z" fill="white"/>
<path d="M235.357 355.163L221.678 354.758L222.61 352.016L201.873 350.614H190.369V349.056C190.894 338.861 194.53 329.072 200.785 321.015C208.246 311.948 216.952 307.15 226.652 306.838C231.627 306.651 257.308 306.277 257.556 306.277C257.805 306.277 265.547 305.654 271.361 319.675C277.175 333.696 259.608 348.745 258.924 349.368L258.178 350.022L246.115 344.694L235.357 355.163ZM226.03 351.767L234.145 352.016L245.4 340.799L257.587 346.159C260.696 343.292 272.884 331.141 268.531 320.703C263.681 309.019 257.774 309.175 257.712 309.206C257.649 309.237 231.751 309.58 226.776 309.736C218.009 310.047 210.081 314.44 203.21 322.822C197.717 329.918 194.391 338.456 193.634 347.405H202.028L226.901 349.087L226.03 351.767Z" fill="black"/>
<path d="M215.366 321.825C211.379 324.374 208.249 328.065 206.381 332.418C204.236 338.65 201.997 349.056 201.997 349.056" fill="white"/>
<path d="M203.489 349.399L200.38 348.713C200.38 348.308 202.681 338.276 204.826 331.92C206.794 327.209 210.158 323.217 214.464 320.485L216.081 323.133C212.416 325.516 209.521 328.915 207.748 332.917C205.759 339.117 203.52 349.274 203.489 349.399Z" fill="black"/>
<path d="M228.578 321.825C222.764 325.578 218.222 331.01 215.551 337.403C212.131 347.125 213.095 349.866 213.095 349.866" fill="white"/>
<path d="M211.634 350.147C211.448 349.648 210.64 346.564 214.091 336.811C216.871 330.058 221.644 324.318 227.771 320.36L229.418 323.009C223.893 326.603 219.563 331.766 216.982 337.84C213.873 346.47 214.557 349.119 214.557 349.15L211.634 350.147Z" fill="black"/>
<path d="M238.062 327.62C233.864 330.736 224.724 350.614 224.724 350.614Z" fill="white"/>
<path d="M226.153 351.268L223.324 349.96C224.288 347.903 232.651 329.676 237.129 326.374L238.994 328.866C236.134 331.016 229.76 343.448 226.153 351.268Z" fill="black"/>
<path d="M1.89648 1.62012H68.5861L96.4123 145.349L33.0805 159.339L1.89648 1.62012Z" fill="white"/>
<path d="M31.8369 161.208L0 0.0622559H70.0163L98.371 146.502L31.8369 161.208ZM3.85522 3.178L34.3552 157.469L94.6402 144.165L67.3425 3.178H3.85522Z" fill="black"/>
<path d="M96.0391 36.9837L162.231 34.2107L190.057 173.266L126.135 183.61L96.0391 36.9837Z" fill="white"/>
<path d="M124.923 185.387L94.1436 35.4572L163.476 32.5596L191.893 174.513L124.923 185.387ZM97.9988 38.5729L127.442 181.897L188.162 171.989L160.895 35.8311L97.9988 38.5729Z" fill="black"/>
<path d="M330.494 66.5501C331.88 66.4383 332.848 64.401 332.655 61.9997C332.462 59.5983 331.182 57.7423 329.795 57.8541C328.409 57.9659 327.441 60.0032 327.634 62.4045C327.827 64.8058 329.107 66.6619 330.494 66.5501Z" fill="black"/>
<path d="M9.17188 9.87695L15.8564 37.9809L67.7468 34.2109L63.2386 9.87695H9.17188Z" fill="#3B37FF"/>
<path d="M198.359 97.1176L264.178 92.9736L277.765 160.772L214.433 174.762L198.359 97.1176Z" fill="white"/>
<path d="M213.219 176.631L196.461 95.622L265.451 91.2911L279.598 161.925L213.219 176.631ZM200.223 98.5508L215.768 172.892L276.053 159.588L262.933 94.6561L200.223 98.5508Z" fill="black"/>
<path d="M205.635 105.374L212.319 133.478L264.179 129.708L258.862 101.23L205.635 105.374Z" fill="#3B37FF"/>
<path d="M104.558 44.2123L112.703 80.3237L165.62 75.1205L158.749 41.1901L104.558 44.2123Z" fill="#3B37FF"/>
<path d="M379.524 335.783C379.524 335.783 442.669 298.893 451.406 264.713C460.142 230.534 447.426 216.669 419.662 233.93C391.898 251.191 383.473 295.466 383.473 295.466C383.473 295.466 335.5 289.483 311.684 299.765C287.869 310.047 277.764 311.636 277.764 311.636C277.764 311.636 282.739 336.375 277.764 339.117C272.79 341.859 347.749 357.812 379.524 335.783Z" fill="#CACACA"/>
</g>
<defs>
<clipPath id="clip0_35_50">
<rect width="488" height="368.28" fill="white"/>
</clipPath>
</defs>
</svg>
