<svg width="71" height="59" viewBox="0 0 71 59" fill="none" xmlns="http://www.w3.org/2000/svg">
<path d="M43.1035 15.8126C43.1035 9.93304 47.8698 5.16675 53.7493 5.16675C59.6289 5.16675 64.3952 9.93304 64.3952 15.8126C64.3952 21.6921 59.6289 29.5001 53.7493 29.5001C47.8698 29.5001 43.1035 21.6921 43.1035 15.8126Z" stroke="white" stroke-width="3.04167" stroke-miterlimit="10" stroke-linecap="square"/>
<path d="M39.1738 40.8942C39.7183 39.9725 40.5867 39.2547 41.6528 38.9095C44.2549 38.0669 48.4007 37.1042 53.7495 37.1042C59.0983 37.1042 63.2441 38.0669 65.8462 38.9095C67.7138 39.5148 68.9578 41.2744 68.9578 43.2363V50.7917H50.7078" stroke="#3B37FF" stroke-width="3.04167" stroke-miterlimit="10"/>
<path d="M9.64551 14.2917C9.64551 7.57262 15.0931 2.125 21.8122 2.125C28.5312 2.125 33.9788 7.57262 33.9788 14.2917C33.9788 21.0107 28.5312 29.5 21.8122 29.5C15.0931 29.5 9.64551 21.0107 9.64551 14.2917Z" stroke="white" stroke-width="3.04167" stroke-miterlimit="10" stroke-linecap="square"/>
<path d="M2.04102 45.7395C2.04102 43.1526 3.67439 40.8637 6.11229 39.9969C9.77293 38.695 15.5278 37.1042 21.8118 37.1042C28.0959 37.1042 33.8508 38.695 37.5114 39.9969C39.9493 40.8653 41.5827 43.1526 41.5827 45.7395V56.8751H2.04102V45.7395Z" stroke="white" stroke-width="3.04167" stroke-miterlimit="10" stroke-linecap="square"/>
</svg>
