<svg width="71" height="71" viewBox="0 0 71 71" fill="none" xmlns="http://www.w3.org/2000/svg">
<path d="M50.7074 50.7082C54.0671 50.7082 56.7907 47.9846 56.7907 44.6248C56.7907 41.2651 54.0671 38.5415 50.7074 38.5415C47.3476 38.5415 44.624 41.2651 44.624 44.6248C44.624 47.9846 47.3476 50.7082 50.7074 50.7082Z" stroke="white" stroke-width="3.04167" stroke-miterlimit="10" stroke-linecap="square"/>
<path d="M47.666 20.2915H68.9577V68.9582H11.166C8.74591 68.9582 6.42494 67.9968 4.71367 66.2855C3.0024 64.5743 2.04102 62.2533 2.04102 59.8332V43.104" stroke="white" stroke-width="3.04167" stroke-miterlimit="10" stroke-linecap="square"/>
<path d="M29.0666 17.4552C29.4635 14.8059 27.4469 13.3809 24.6881 12.4365L25.5824 8.84881L23.3985 8.30435L22.527 11.8023C21.9522 11.6593 21.3636 11.524 20.7765 11.3901L21.6602 7.86331L19.4702 7.31885L18.5759 10.9065L14.1655 9.81454L13.5891 12.1475C13.5891 12.1475 15.2103 12.5201 15.1753 12.5429C15.4776 12.5788 15.7536 12.7321 15.9439 12.9696C16.1342 13.2072 16.2236 13.51 16.1928 13.8128L13.7412 23.6374C13.7099 23.7374 13.6591 23.8302 13.5918 23.9105C13.5244 23.9907 13.4418 24.0569 13.3488 24.1051C13.2558 24.1533 13.1541 24.1826 13.0497 24.1914C12.9453 24.2001 12.8402 24.1881 12.7405 24.156C12.7618 24.1879 11.1527 23.7591 11.1527 23.7591L10.0684 26.2684L14.4681 27.3786L13.5648 31.0089L15.7472 31.5533L16.6414 27.9626C17.2376 28.1239 17.817 28.2668 18.3828 28.4189L17.49 31.9928L19.6755 32.5373L20.5788 28.9147C24.3049 29.6188 27.1063 29.3344 28.2849 25.9658C28.5263 25.4902 28.6658 24.9696 28.6945 24.437C28.7232 23.9045 28.6404 23.3718 28.4514 22.8731C28.2625 22.3744 27.9715 21.9206 27.5972 21.5408C27.2228 21.1609 26.7733 20.8634 26.2774 20.6672C27.0319 20.5152 27.7148 20.1177 28.2194 19.5365C28.724 18.9554 29.0219 18.2235 29.0666 17.4552V17.4552ZM24.0752 24.451C23.4 27.1642 18.8329 25.6981 17.3516 25.3301L18.5516 20.5212C20.0329 20.8999 24.7809 21.6253 24.0752 24.4541V24.451ZM24.752 17.4126C24.1361 19.8809 20.3416 18.6293 19.1006 18.3251L20.188 13.9634C21.4214 14.2675 25.3923 14.8424 24.752 17.4157V17.4126Z" fill="#3B37FF"/>
<path d="M20.291 38.5415C30.3702 38.5415 38.541 30.3707 38.541 20.2915C38.541 10.2123 30.3702 2.0415 20.291 2.0415C10.2118 2.0415 2.04102 10.2123 2.04102 20.2915C2.04102 30.3707 10.2118 38.5415 20.291 38.5415Z" stroke="white" stroke-width="3.04167" stroke-miterlimit="10" stroke-linecap="square"/>
</svg>
